<?xml version="1.0" encoding="UTF-8"?>
<svg width="120px" height="120px" viewBox="0 0 120 120" version="1.1" xmlns="http://www.w3.org/2000/svg" xmlns:xlink="http://www.w3.org/1999/xlink">
    <!-- Generator: Sketch 57.1 (83088) - https://sketch.com -->
    <title>Shape</title>
    <desc>Created with Sketch.</desc>
    <g id="Steps" stroke="none" stroke-width="1" fill="none" fill-rule="evenodd">
        <g id="03.Not-found-extras" transform="translate(-991.000000, -486.000000)" fill="#ADBFC7" fill-rule="nonzero">
            <path d="M1073.81894,604.685103 C1073.81894,605.411301 1074.40778,606 1075.13415,606 L1109.68479,606 C1110.41116,606 1111,605.411301 1111,604.685103 L1111,595.612316 C1110.98977,587.817165 1106.11684,580.856019 1098.79483,578.176785 C1104.9813,575.19837 1108.2856,568.338779 1106.75773,561.646111 C1105.22986,554.953444 1099.27589,550.206408 1092.40947,550.206408 C1085.54305,550.206408 1079.58908,554.953444 1078.06121,561.646111 C1076.53334,568.338779 1079.83764,575.19837 1086.02411,578.176785 C1082.0357,579.643058 1078.66724,582.426242 1076.47567,586.066165 L1059.96975,574.03486 C1061.26398,571.1992 1061.13716,567.918064 1059.62794,565.1907 C1058.11871,562.463337 1055.40573,560.61261 1052.31521,560.202146 L1052.31521,541.793592 L1068.28189,541.793592 C1069.00827,541.793592 1069.59711,541.204892 1069.59711,540.478695 L1069.59711,531.405907 C1069.58687,523.610756 1064.71395,516.64961 1057.39193,513.970376 C1063.57841,510.991962 1066.88271,504.13237 1065.35484,497.439703 C1063.82697,490.747035 1057.87299,486 1051.00658,486 C1044.14016,486 1038.18618,490.747035 1036.65831,497.439703 C1035.13044,504.13237 1038.43474,510.991962 1044.62122,513.970376 C1037.2992,516.64961 1032.42628,523.610756 1032.41605,531.405907 L1032.41605,540.478695 C1032.41605,541.204892 1033.00489,541.793592 1033.73126,541.793592 L1049.68479,541.793592 L1049.68479,560.202146 C1046.58827,560.607571 1043.86821,562.458784 1042.35554,565.190289 C1040.84286,567.921793 1040.71726,571.209094 1042.0171,574.048009 L1025.51118,586.079314 C1023.31961,582.439391 1019.95115,579.656207 1015.96274,578.189934 C1022.14921,575.211519 1025.45351,568.351927 1023.92564,561.65926 C1022.39777,554.966593 1016.4438,550.219557 1009.57738,550.219557 C1002.71096,550.219557 996.756984,554.966593 995.229115,561.65926 C993.701246,568.351927 997.005545,575.211519 1003.19202,578.189934 C995.879701,580.871859 991.013715,587.825347 991,595.612316 L991,604.685103 C991,605.411301 991.588841,606 992.315213,606 L1026.86585,606 C1027.59222,606 1028.18106,605.411301 1028.18106,604.685103 L1028.18106,595.612316 C1028.18285,593.146661 1027.69095,590.705593 1026.73433,588.432979 L1043.41122,576.257035 C1045.28273,578.512845 1048.06193,579.81814 1050.99342,579.81814 C1053.92492,579.81814 1056.70412,578.512845 1058.57562,576.257035 L1075.26567,588.432979 C1074.30905,590.705593 1073.81715,593.146661 1073.81894,595.612316 L1073.81894,604.685103 Z M1038.92635,500.729366 C1038.92635,495.840688 1041.87263,491.43363 1046.39078,489.564044 C1050.90892,487.694459 1056.1087,488.730719 1059.56446,492.189417 C1063.02023,495.648116 1064.05108,500.847772 1062.17612,505.362793 C1060.30117,509.877814 1055.88985,512.818587 1051,512.813274 C1044.33278,512.79878 1038.93358,507.394992 1038.92635,500.729366 Z M1034.98071,531.392758 C1035.22865,522.758674 1042.3011,515.888007 1050.94082,515.888007 C1059.58053,515.888007 1066.65298,522.758674 1066.90092,531.392758 L1066.90092,539.150649 L1035.03332,539.150649 L1034.98071,531.392758 Z M997.510302,564.948923 C997.510302,560.061442 1000.45516,555.655213 1004.97169,553.784854 C1009.48822,551.914496 1014.68697,552.948343 1018.14377,556.404315 C1021.60057,559.860286 1022.63467,565.057788 1020.76386,569.573232 C1018.89305,574.088677 1014.48576,577.032825 1009.59711,577.032825 C1002.92475,577.025578 997.517551,571.619674 997.510302,564.948923 Z M1025.55064,603.370206 L993.630425,603.370206 L993.630425,595.612316 C993.878365,586.978231 1000.95081,580.107565 1009.59053,580.107565 C1018.23025,580.107565 1025.3027,586.978231 1025.55064,595.612316 L1025.55064,603.370206 Z M1051,577.203761 C1047.00495,577.203761 1043.76633,573.965915 1043.76633,569.971829 C1043.76633,565.977743 1047.00495,562.739897 1051,562.739897 C1054.99505,562.739897 1058.23367,565.977743 1058.23367,569.971829 C1058.22643,573.962913 1054.99204,577.196524 1051,577.203761 Z M1080.32924,564.948923 C1080.32924,560.061442 1083.2741,555.655213 1087.79063,553.784854 C1092.30716,551.914496 1097.5059,552.948343 1100.96271,556.404315 C1104.41951,559.860286 1105.4536,565.057788 1103.5828,569.573232 C1101.71199,574.088677 1097.3047,577.032825 1092.41605,577.032825 C1085.74369,577.025578 1080.33649,571.619674 1080.32924,564.948923 Z M1092.41605,579.662618 C1101.22093,579.677096 1108.35509,586.809545 1108.36957,595.612316 L1108.36957,603.370206 L1076.44936,603.370206 L1076.44936,595.612316 C1076.46386,586.804419 1083.60602,579.669855 1092.41605,579.662618 Z" id="Shape"></path>
        </g>
    </g>
</svg>