<?xml version="1.0" encoding="UTF-8"?>
<svg width="94px" height="120px" viewBox="0 0 94 120" version="1.1" xmlns="http://www.w3.org/2000/svg" xmlns:xlink="http://www.w3.org/1999/xlink">
    <!-- Generator: Sketch 57.1 (83088) - https://sketch.com -->
    <title>Combined Shape</title>
    <desc>Created with Sketch.</desc>
    <g id="Steps" stroke="none" stroke-width="1" fill="none" fill-rule="evenodd">
        <g id="03.Not-found-extras" transform="translate(-918.000000, -486.000000)" fill="#ADBFC7">
            <path d="M1002.92985,519.143445 C1007.91363,519.143445 1012,523.265194 1012,528.300064 L1012,596.799799 C1012,601.84625 1007.91363,606 1002.92985,606 L935.162799,606 C930.167685,606 926.049421,601.84625 926.049421,596.799799 L926.049421,553.50257 C926.039851,552.765443 926.701333,552.087337 927.431644,552.087337 C928.161817,552.087337 928.82399,552.765443 928.813762,553.50257 L928.813762,596.799799 C928.813762,600.328324 931.6753,603.209439 935.162799,603.209439 L956.456126,603.209439 L993.686934,565.536865 L970.36369,541.991282 C969.569939,541.216483 970.253259,539.566982 971.357018,539.593214 C971.713467,539.607166 972.062175,539.767345 972.307225,540.029239 C984.629499,552.496015 996.925099,564.925313 1009.23576,577.353077 L1009.23576,528.300092 C1009.23576,524.788157 1006.40104,521.934125 1002.92985,521.934125 L980.081639,521.934125 C979.351466,521.948077 978.679895,521.27611 978.679895,520.538844 C978.679895,519.801717 979.351466,519.133238 980.081639,519.143445 L1002.92985,519.143445 Z M995.630469,567.54258 L960.343333,603.209439 L1002.92985,603.209439 C1006.40104,603.209439 1009.23576,600.328324 1009.23576,596.799799 L1009.23576,581.277303 L995.630469,567.54258 Z M945.568075,486 C961.386141,486 973.711595,497.687553 973.298894,511.745549 C973.015284,521.55698 968.004967,532.237016 962.293364,542.022258 C956.581622,551.807723 950.101008,560.721333 946.765266,566.555838 C946.518345,566.987566 946.062034,567.253519 945.568213,567.253519 C945.074393,567.253519 944.618082,566.987566 944.371161,566.555838 C941.104248,560.841606 934.713472,551.816373 929.053422,541.968679 C923.393371,532.120928 918.39729,521.441591 918.018452,511.943051 C917.457865,497.879963 929.738814,486 945.568075,486 Z M945.568075,488.790575 C931.097851,488.790575 920.287337,499.468434 920.7802,511.830577 C921.122136,520.406558 925.870127,530.870185 931.444071,540.568082 C936.422876,549.23064 942.001381,557.268432 945.570148,563.142982 C949.21355,557.180111 954.881755,549.223245 959.911836,540.605615 C965.531114,530.978459 970.278551,520.557806 970.535487,511.664009 C970.898846,499.296158 960.04908,488.790575 945.568075,488.790575 Z M945.528685,501.484572 C945.895306,501.495976 946.242404,501.654017 946.493546,501.923894 C946.744689,502.193771 946.879279,502.553353 946.867681,502.923455 L946.867681,511.338741 L955.203512,511.338741 C955.701838,511.331806 956.165278,511.59622 956.416445,512.030774 C956.667612,512.465327 956.667612,513.00273 956.416445,513.437283 C956.165278,513.871837 955.701838,514.136251 955.203512,514.129316 L946.867681,514.129316 L946.867681,522.544532 C946.87473,523.04772 946.612852,523.515761 946.182326,523.769432 C945.7518,524.023102 945.219326,524.023102 944.788799,523.769432 C944.358273,523.515761 944.096395,523.04772 944.103445,522.544532 L944.103445,514.129316 L935.810736,514.129316 C935.31241,514.136251 934.84897,513.871837 934.597803,513.437283 C934.346636,513.00273 934.346636,512.465327 934.597803,512.030774 C934.84897,511.59622 935.31241,511.331806 935.810736,511.338741 L944.103445,511.338741 L944.103445,502.923455 C944.091363,502.538242 944.237636,502.165138 944.507582,501.892608 C944.777528,501.620079 945.147105,501.472394 945.528685,501.484572 Z" id="Combined-Shape"></path>
        </g>
    </g>
</svg>