<?xml version="1.0" encoding="UTF-8"?>
<svg width="122px" height="120px" viewBox="0 0 122 120" version="1.1" xmlns="http://www.w3.org/2000/svg" xmlns:xlink="http://www.w3.org/1999/xlink">
    <!-- Generator: Sketch 57.1 (83088) - https://sketch.com -->
    <title>Combined Shape</title>
    <desc>Created with Sketch.</desc>
    <g id="Page-1" stroke="none" stroke-width="1" fill="none" fill-rule="evenodd">
        <g id="03.Not-found-extras" transform="translate(-774.000000, -481.000000)" fill="#ADBFC7" fill-rule="nonzero">
            <path d="M818.539324,511.796674 C819.273605,511.796674 819.868857,512.392759 819.868857,513.128067 L819.868857,513.128067 L819.868857,524.484849 C824.9927,521.261019 831.700452,522.273593 835.647574,526.866739 C839.594696,531.459884 839.594696,538.252915 835.647574,542.846061 C831.700452,547.439206 824.9927,548.45178 819.868857,545.22795 L819.868857,545.22795 L819.868857,555.066944 L835.331315,555.066944 C835.922591,555.062529 836.445728,555.449681 836.61507,556.016999 C836.784411,556.584317 836.55926,557.195456 836.062557,557.516707 C832.528048,559.84341 830.937416,564.217266 832.150042,568.275186 C833.362669,572.333106 837.09106,575.113029 841.320857,575.113029 C845.550654,575.113029 849.279045,572.333106 850.491671,568.275186 C851.704297,564.217266 850.113665,559.84341 846.579156,557.516707 C846.082453,557.195456 845.857302,556.584317 846.026643,556.016999 C846.195985,555.449681 846.719122,555.062529 847.310399,555.066944 L847.310399,555.066944 L861.749117,555.066944 C862.483397,555.066944 863.078649,555.663029 863.078649,556.398337 L863.078649,556.398337 L863.078649,589.936125 C863.071323,596.043493 858.129069,600.992664 852.030237,601 L852.030237,601 L785.048412,601 C778.949579,600.992664 774.007326,596.043493 774,589.936125 L774,589.936125 L774,522.860549 C774.007326,516.753181 778.949579,511.80401 785.048412,511.796674 L785.048412,511.796674 Z M795.584953,538.243153 C791.506226,538.243153 787.875458,540.831199 786.539987,544.690492 C785.204517,548.549785 786.457688,552.832606 789.661888,555.359851 C790.107064,555.708927 790.283069,556.301772 790.100633,556.837697 C789.914776,557.370109 789.414086,557.727483 788.850873,557.72973 L788.850873,557.72973 L776.659064,557.72973 L776.659064,589.936125 C776.666385,594.572878 780.418139,598.329883 785.048412,598.337214 L785.048412,598.337214 L817.209792,598.337214 L817.209792,590.961297 C812.202216,594.942925 804.977207,594.390438 800.631409,589.693571 C796.285612,584.996704 796.285612,577.740519 800.631409,573.043652 C804.977207,568.346785 812.202216,567.794298 817.209792,571.775925 L817.209792,571.775925 L817.209792,557.689788 L802.332328,557.689788 C801.764235,557.693209 801.256737,557.334788 801.069273,556.797755 C800.905409,556.273711 801.079646,555.70268 801.508019,555.359851 C804.712218,552.832606 805.96539,548.549785 804.629919,544.690492 C803.294449,540.831199 799.663681,538.243153 795.584953,538.243153 Z M831.834645,557.716416 L819.868857,557.716416 L819.868579,575.152948 C819.840879,575.704682 819.473133,576.188093 818.938184,576.355917 C818.384758,576.530782 817.782012,576.325993 817.449108,575.849988 C815.050607,572.426271 810.712446,570.954837 806.72995,572.214223 C802.747454,573.473609 800.039929,577.173102 800.039929,581.355297 C800.039929,585.537492 802.747454,589.236986 806.72995,590.496372 C810.712446,591.755757 815.050607,590.284324 817.449108,586.860607 C817.782012,586.384602 818.384758,586.179813 818.938184,586.354678 C819.514283,586.535411 819.896466,587.082151 819.868857,587.686071 L819.868857,598.337214 L852.030237,598.337214 C856.66051,598.329883 860.412264,594.572878 860.419585,589.936125 L860.419585,589.936125 L860.419585,557.716416 L850.727296,557.716416 C854.823843,562.703389 854.350659,570.018541 849.645874,574.434602 C844.941089,578.850663 837.620852,578.850663 832.916067,574.434602 C828.211282,570.018541 827.738099,562.703389 831.834645,557.716416 L831.834645,557.716416 Z M817.209792,514.45946 L785.048412,514.45946 C780.418139,514.466791 776.666385,518.223796 776.659064,522.860549 L776.659064,522.860549 L776.659064,555.066944 L785.726473,555.066944 C782.017484,550.000055 782.737905,542.944647 787.394182,538.73432 C792.050459,534.523994 799.132743,534.523994 803.78902,538.73432 C808.445297,542.944647 809.165718,550.000055 805.456729,555.066944 L805.456729,555.066944 L817.209792,555.066944 L817.209792,542.418711 C817.214678,541.877964 817.545699,541.393893 818.047398,541.19383 C818.551483,540.986007 819.131178,541.107386 819.509883,541.50005 C821.296433,543.380626 823.778296,544.440265 826.370268,544.429115 C831.514715,544.237024 835.58621,540.00497 835.58621,534.849743 C835.58621,529.694516 831.514715,525.462461 826.370268,525.270371 C823.774954,525.26186 821.289975,526.320779 819.496588,528.199435 C819.120284,528.586449 818.547766,528.707424 818.047398,528.505655 C817.545699,528.305593 817.214678,527.821522 817.209792,527.280774 L817.209792,527.280774 L817.209792,514.45946 Z M851.437805,481.247838 C854.312544,480.628104 857.315389,481.18155 859.781409,482.785622 L859.781409,482.785622 L887.954194,500.945822 C888.24794,501.138795 888.453475,501.44035 888.525893,501.784599 C888.598065,502.129001 888.531144,502.488009 888.339758,502.783144 L888.339758,502.783144 L882.449931,512.036325 C888.677229,511.341374 894.420179,515.476334 895.745252,521.60904 L895.745252,521.60904 L895.731957,521.60904 C897.081127,527.98209 893.212646,534.297635 886.928198,535.981743 C880.643751,537.66585 874.142451,534.129201 872.132762,527.933156 L872.132762,527.933156 L864.913403,539.156799 C864.516259,539.773544 863.695641,539.952188 863.078649,539.556217 L863.078649,539.556217 L851.418653,531.953963 C850.977403,531.665477 850.747942,531.143245 850.833659,530.62257 C850.939183,530.086678 851.360856,529.669693 851.897284,529.57077 C854.447127,529.076996 856.682402,527.555844 858.079608,525.363568 C860.712297,520.927174 859.365309,515.19987 855.032231,512.406323 C850.699154,509.612776 844.935288,510.755693 841.99227,514.992017 C840.550081,517.16095 840.068804,519.830956 840.662738,522.367934 C840.789833,522.898536 840.580756,523.453084 840.135192,523.767176 C839.689629,524.081268 839.097787,524.091314 838.641849,523.792524 L838.641849,523.792524 L826.769128,516.123701 C826.153245,515.726001 825.97485,514.904235 826.370268,514.286379 L826.370268,514.286379 L844.4652,486.087477 C846.053641,483.609347 848.563067,481.867571 851.437805,481.247838 Z M858.332219,485.04899 C854.436741,482.538587 849.246656,483.665076 846.7387,487.565323 L846.7387,487.565323 L829.32183,514.605913 L837.737768,520.037996 C837.819018,513.99185 842.298467,508.91183 848.279675,508.082708 C854.260883,507.253586 859.949943,510.924034 861.668276,516.72072 C863.386609,522.517406 860.618846,528.701764 855.154638,531.274953 L855.154638,531.274953 L863.411032,536.600524 L871.787084,523.579502 C872.106562,523.084206 872.713311,522.858335 873.278294,523.024377 C873.843276,523.190419 874.231903,523.70882 874.233423,524.298454 C874.280299,528.522937 877.087094,532.217136 881.140355,533.389103 C885.193617,534.561071 889.534814,532.933655 891.823132,529.384375 L891.823132,529.384375 L891.889609,529.411003 C894.209525,525.844889 893.899672,521.17321 891.129159,517.94567 C888.358647,514.71813 883.792906,513.709927 879.92382,515.471319 C879.386766,515.704558 878.760563,515.5586 878.381563,515.111843 C878.001073,514.665004 877.95786,514.021302 878.275201,513.527485 L878.275201,513.527485 L885.374902,502.490238 Z" id="Combined-Shape"></path>
        </g>
    </g>
</svg>