<?xml version="1.0" encoding="UTF-8"?>
<svg width="136px" height="120px" viewBox="0 0 136 120" version="1.1" xmlns="http://www.w3.org/2000/svg" xmlns:xlink="http://www.w3.org/1999/xlink">
    <!-- Generator: Sketch 57.1 (83088) - https://sketch.com -->
    <title>Combined Shape</title>
    <desc>Created with Sketch.</desc>
    <g id="Steps" stroke="none" stroke-width="1" fill="none" fill-rule="evenodd">
        <g id="03.Not-found-extras" transform="translate(-617.000000, -486.000000)" fill="#ADBFC7" fill-rule="nonzero">
            <path d="M680.495291,486 C681.37558,486 682.123422,486.622475 682.29121,487.469732 L682.314707,487.621501 L683.47398,497.806527 C685.281992,498.398415 687.043433,499.105089 688.737929,499.918776 L689.459984,500.274028 L697.492607,493.893328 C698.1779,493.349066 699.146859,493.366852 699.808848,493.920647 L699.929229,494.030759 L714.844146,508.911623 C715.463772,509.529797 715.554102,510.493422 715.077846,511.210271 L714.981899,511.341643 L708.588003,519.35723 C709.433307,521.029041 710.174513,522.769859 710.799637,524.559359 L711.060405,525.329209 L721.270244,526.484874 C722.143775,526.584328 722.816241,527.286356 722.888264,528.147409 L722.894659,528.30092 L722.894659,543.094328 L727.599737,543.094328 C728.480026,543.094328 729.227868,543.716803 729.395656,544.56406 L729.419153,544.715829 L730.038148,550.149687 C730.769492,550.404558 731.487097,550.691412 732.188214,551.008423 L732.710918,551.251808 L736.997369,547.84728 C737.684346,547.302178 738.651819,547.321495 739.313627,547.87473 L739.433991,547.98471 L748.098132,556.629444 C748.717759,557.248458 748.808088,558.211342 748.331832,558.928844 L748.235885,559.060357 L744.824257,563.335872 C745.157727,564.026951 745.460283,564.735735 745.731009,565.457656 L745.928072,566.001488 L751.373796,566.61814 C752.249016,566.717593 752.921577,567.419622 752.993604,568.280674 L753,568.434185 L753,580.660142 C753,581.538369 752.376063,582.283662 751.526062,582.452472 L751.373796,582.476188 L745.928072,583.09284 C745.673318,583.821757 745.386505,584.537538 745.068549,585.236984 L744.824257,585.758456 L748.235885,590.035756 C748.78311,590.719443 748.761419,591.686922 748.2081,592.345965 L748.098132,592.465776 L739.433991,601.11051 C738.812681,601.731204 737.849071,601.817517 737.129321,601.343409 L736.997369,601.24794 L732.710918,597.843413 C732.018216,598.175387 731.30834,598.477663 730.584037,598.747955 L730.038148,598.944641 L729.419153,604.378499 C729.321155,605.250826 728.616774,605.921763 727.753616,605.993619 L727.599737,606 L715.345067,606 C714.464778,606 713.716936,605.377525 713.549148,604.530268 L713.525651,604.378499 L712.906656,598.944641 C712.175312,598.690484 711.457707,598.404343 710.757506,598.087589 L710.235675,597.844305 L705.949224,601.24794 C705.262247,601.792203 704.296359,601.774416 703.633246,601.220621 L703.512602,601.11051 L694.848461,592.465776 C694.228835,591.847602 694.138506,590.884767 694.614761,590.167268 L694.710708,590.035756 L698.122336,585.758456 C697.788866,585.066663 697.48631,584.357736 697.215584,583.636244 L697.018522,583.09284 L691.572797,582.476188 C690.697577,582.376734 690.025017,581.674706 689.952989,580.813653 L689.946593,580.660142 L689.946593,577.760159 L689.459984,577.373412 C687.7819,578.217517 686.038069,578.956401 684.245272,579.580499 L683.473981,579.840914 L682.314707,590.025939 C682.216709,590.898266 681.512328,591.569203 680.64917,591.64106 L680.495291,591.64744 L659.401158,591.64744 C658.520869,591.64744 657.773027,591.024966 657.605239,590.177708 L657.581742,590.025939 L656.420679,579.840914 C654.614233,579.249026 652.854358,578.542352 651.159029,577.728665 L650.436464,577.373412 L642.402052,583.75322 C641.715075,584.298323 640.749187,584.279005 640.086074,583.725771 L639.965431,583.61579 L625.050513,568.734926 C624.430887,568.116751 624.340558,567.153126 624.816814,566.436278 L624.91276,566.304906 L631.308446,558.289318 C630.460011,556.613604 629.719783,554.87298 629.094953,553.086579 L628.834255,552.318232 L618.624415,551.161674 C617.750885,551.062221 617.078418,550.360192 617.006396,549.49914 L617,549.345629 L617,528.300919 C617,527.422693 617.623937,526.677399 618.472431,526.508589 L618.624415,526.484874 L628.834254,525.329209 C629.425967,523.529338 630.134104,521.773195 630.951476,520.079314 L631.308445,519.35723 L624.91276,511.341643 C624.365535,510.657955 624.387226,509.690476 624.940545,509.031434 L625.050513,508.911622 L639.96543,494.030758 C640.588424,493.410064 641.550549,493.323751 642.270117,493.797859 L642.402052,493.893328 L650.436464,500.274028 C652.109853,499.429924 653.854466,498.691723 655.648731,498.067198 L656.420679,497.806526 L657.581742,487.621501 C657.67974,486.749174 658.384121,486.078237 659.247279,486.006381 L659.401158,486 L680.495291,486 Z M725.964588,546.749621 L716.980216,546.749621 L716.413102,551.731922 C716.330808,552.460125 715.820942,553.068745 715.116075,553.277568 C713.640148,553.715739 712.21789,554.302942 710.89045,555.020436 C710.294299,555.342526 709.571627,555.309513 709.012295,554.942452 L708.876033,554.84374 L704.947383,551.722998 L698.594633,558.05997 L701.72181,561.980308 C702.179795,562.553232 702.249566,563.343011 701.90071,563.987328 C701.177953,565.31969 700.59116,566.738615 700.154644,568.204837 C699.960281,568.857823 699.420386,569.343834 698.758408,569.476382 L698.603578,569.50061 L693.610471,570.066396 L693.610471,579.027933 L698.603578,579.593718 C699.33528,579.676712 699.94533,580.186275 700.154644,580.889491 C700.59116,582.355713 701.177953,583.774638 701.90071,585.107 C702.222731,585.701754 702.188052,586.420452 701.820594,586.978122 L701.72181,587.11402 L698.594633,591.035251 L704.947383,597.372223 L708.876033,594.251481 C709.450303,593.795461 710.24462,593.725854 710.89045,594.074784 C712.219679,594.793171 713.640147,595.379481 715.116075,595.81676 C715.768933,596.010667 716.256738,596.549298 716.388982,597.208296 L716.413102,597.362407 L716.980216,602.344707 L725.964588,602.344707 L726.531702,597.362407 C726.613996,596.634204 727.125651,596.025583 727.828729,595.81676 C729.302868,595.379481 730.725125,594.793171 732.056143,594.073892 C732.652294,593.750978 733.374966,593.78697 733.934298,594.15309 L734.07056,594.251481 L737.999211,597.372223 L744.350171,591.035251 L741.222994,587.11402 C740.765009,586.541096 740.695238,585.750424 741.045883,585.105215 C741.766851,583.775531 742.355433,582.357498 742.79195,580.889491 C742.986312,580.236505 743.526207,579.750495 744.186753,579.617947 L744.341226,579.593718 L749.336122,579.027933 L749.336122,570.066396 L744.341226,569.50061 C743.611313,569.417617 743.001263,568.908053 742.79195,568.204837 C742.355433,566.73683 741.766851,565.318798 741.045883,563.989113 C740.722211,563.393535 740.756763,562.674013 741.124211,562.115519 L741.222994,561.979416 L744.350171,558.05997 L737.999211,551.722998 L734.07056,554.84374 C733.49629,555.301544 732.701973,555.371152 732.056143,555.021329 C730.726914,554.30205 729.302868,553.715739 727.828729,553.277568 C727.17421,553.083661 726.687829,552.545031 726.555796,551.886033 L726.531702,551.731922 L725.964588,546.749621 Z M678.860142,489.655293 L661.036306,489.655293 L659.925335,499.401255 C659.843041,500.129458 659.333175,500.738079 658.628308,500.946902 C655.996685,501.728649 653.465246,502.772764 651.101973,504.051581 C650.507474,504.373671 649.783404,504.340657 649.223848,503.973597 L649.087556,503.874885 L641.400211,497.769045 L628.798474,510.342148 L634.916864,518.012375 C635.374849,518.585299 635.44462,519.375971 635.093976,520.02118 C633.809471,522.388732 632.761116,524.915132 631.982899,527.531666 C631.786876,528.183823 631.248404,528.669774 630.588071,528.802318 L630.433623,528.826546 L620.663878,529.933129 L620.663878,547.713419 L630.433623,548.820895 C631.163536,548.903888 631.773586,549.413452 631.982899,550.115775 C632.761116,552.730524 633.807682,555.257816 635.093975,557.625369 C635.417647,558.220946 635.383095,558.940468 635.015647,559.49826 L634.916864,559.634174 L628.798474,567.3044 L641.40021,579.877503 L649.087556,573.772556 C649.661826,573.315644 650.457932,573.246037 651.101973,573.59586 C653.468824,574.875569 656.000263,575.919684 658.628308,576.700539 C659.282828,576.894446 659.769208,577.433076 659.901241,578.092074 L659.925335,578.246185 L661.036306,587.992147 L678.860142,587.992147 L679.969324,578.246185 C680.051618,577.517982 680.561484,576.909362 681.266351,576.700539 C683.892607,575.920576 686.425835,574.875569 688.794475,573.594967 C689.103078,573.429554 689.443883,573.368141 689.77943,573.391624 L689.946593,573.410351 L689.946593,568.434185 C689.946593,567.555959 690.570529,566.810666 691.42053,566.641856 L691.572796,566.61814 L697.018521,566.001488 C697.273275,565.273999 697.560088,564.557932 697.878044,563.857858 L698.122336,563.335872 L694.710707,559.059464 C694.163483,558.374937 694.185174,557.408199 694.738492,556.749247 L694.848461,556.629444 L703.512602,547.98471 C704.135595,547.364856 705.09772,547.277011 705.817289,547.75168 L705.949223,547.84728 L710.235674,551.250915 C710.926945,550.919654 711.636535,550.617521 712.360781,550.346801 L712.906656,550.149686 L713.525651,544.715829 C713.623648,543.843502 714.32803,543.172565 715.191188,543.100708 L715.345067,543.094328 L719.230781,543.094328 L719.230781,529.933129 L709.461036,528.826546 C708.731123,528.743552 708.122862,528.233989 707.91176,527.531666 C707.131754,524.907993 706.083399,522.381593 704.800684,520.022072 C704.477012,519.426494 704.511564,518.706972 704.879012,518.148479 L704.977795,518.012375 L711.096185,510.342148 L698.494449,497.769045 L690.808892,503.874885 C690.234622,504.332689 689.440305,504.400512 688.794475,504.051581 C686.429413,502.772764 683.896185,501.727757 681.266351,500.946902 C680.611832,500.752995 680.125451,500.214364 679.993418,499.555366 L679.969324,499.401255 L678.860142,489.655293 Z M721.472402,560.774668 C728.937911,560.774668 735.011576,566.834102 735.011576,574.28212 C735.011576,581.729245 728.937911,587.788679 721.472402,587.788679 C714.008682,587.788679 707.935017,581.729245 707.935017,574.28212 C707.935017,566.834102 714.008682,560.774668 721.472402,560.774668 Z M721.472402,564.429961 C716.028466,564.429961 711.598895,568.850047 711.598895,574.28212 C711.598895,579.714193 716.028466,584.133385 721.472402,584.133385 C726.918127,584.133385 731.347698,579.714193 731.347698,574.28212 C731.347698,568.850047 726.918127,564.429961 721.472402,564.429961 Z M669.94733,512.707916 C684.381005,512.707916 696.12402,524.423417 696.12402,538.823274 C696.12402,539.328376 695.714339,539.737098 695.208051,539.737098 C694.701763,539.737098 694.292081,539.328376 694.292081,538.823274 C694.292081,525.430943 683.370219,514.535562 669.94733,514.535562 C656.524441,514.535562 645.602579,525.430943 645.602579,538.823274 C645.602579,552.215606 656.524441,563.110986 669.94733,563.110986 C675.298238,563.110986 680.375428,561.412738 684.627888,558.200078 C685.026835,557.897552 685.602894,557.973407 685.910603,558.376774 C686.216522,558.779249 686.137806,559.352173 685.733491,559.656484 C681.1608,563.111878 675.700763,564.938633 669.94733,564.938633 C655.513655,564.938633 643.77064,553.223132 643.77064,538.823274 C643.77064,524.423417 655.513655,512.707916 669.94733,512.707916 Z M669.94733,516.434602 C682.069613,516.434602 691.930597,526.273374 691.930597,538.366363 C691.930597,550.459351 682.069613,560.298123 669.94733,560.298123 C657.825046,560.298123 647.964062,550.459351 647.964062,538.366363 C647.964062,526.273374 657.825046,516.434602 669.94733,516.434602 Z M669.94733,520.089895 C659.84662,520.089895 651.62794,528.288426 651.62794,538.366363 C651.62794,548.444299 659.84662,556.64283 669.94733,556.64283 C680.04804,556.64283 688.26672,548.444299 688.26672,538.366363 C688.26672,528.288426 680.04804,520.089895 669.94733,520.089895 Z M694.691029,544.008151 C695.181216,544.129518 695.481768,544.624803 695.360116,545.114734 C694.753644,547.559033 693.792949,549.903383 692.504867,552.081745 C692.333123,552.370884 692.028992,552.531517 691.715917,552.531517 C691.556696,552.531517 691.397474,552.490467 691.250776,552.404796 C690.814259,552.148675 690.66935,551.588245 690.926967,551.153643 C692.125599,549.12699 693.018311,546.947735 693.581847,544.67567 C693.705288,544.188417 694.195475,543.891246 694.691029,544.008151 Z" id="Combined-Shape"></path>
        </g>
    </g>
</svg>