<?xml version="1.0" encoding="UTF-8"?>
<svg width="140px" height="122px" viewBox="0 0 140 122" version="1.1" xmlns="http://www.w3.org/2000/svg" xmlns:xlink="http://www.w3.org/1999/xlink">
    <!-- Generator: Sketch 57.1 (83088) - https://sketch.com -->
    <title>Group 5</title>
    <desc>Created with Sketch.</desc>
    <g id="Steps" stroke="none" stroke-width="1" fill="none" fill-rule="evenodd" stroke-linecap="round" stroke-linejoin="round">
        <g id="15.Payment-error" transform="translate(-765.000000, -484.000000)" stroke="#ADBFC7" stroke-width="2.5">
            <g id="Group-5" transform="translate(767.000000, 486.000000)">
                <rect id="Rectangle" x="10.4635" y="46.8016901" width="20.9219" height="10.404507"></rect>
                <path d="M31.3837,25.9977465 C31.3837,28.8625352 29.0309,31.2016901 26.1511,31.2016901 L15.6927,31.2016901 C12.8163,31.2016901 10.4635,28.8642254 10.4635,25.9977465 L10.4635,15.6016901 C10.4635,12.7402817 12.8163,10.3960563 15.6927,10.3960563 L26.1511,10.3960563 C29.0309,10.3960563 31.3837,12.7402817 31.3837,15.6016901 L31.3837,25.9977465 Z" id="Path"></path>
                <rect id="Rectangle" x="41.8472" y="46.8016901" width="20.9219" height="10.404507"></rect>
                <rect id="Rectangle" x="73.2309" y="46.8016901" width="20.9236" height="10.404507"></rect>
                <rect id="Rectangle" x="104.6129" y="46.8016901" width="20.9236" height="10.404507"></rect>
                <path d="M109.8438,10.4011268 C118.5121,10.4011268 125.5348,14.5876056 125.5348,19.764507 C125.5348,24.9295775 118.5104,29.1211268 109.8438,29.1211268 C101.1772,29.1211268 94.1545,24.9295775 94.1545,19.764507 C94.1545,14.5876056 101.1772,10.4011268 109.8438,10.4011268 Z" id="Path"></path>
                <path d="M10.4635,67.6073239 L73.2309,67.6073239 L10.4635,67.6073239 Z" id="Path"></path>
                <path d="M10.4635,78.0016901 L52.3107,78.0016901 L10.4635,78.0016901 Z" id="Path"></path>
                <path d="M101.3421,70.8321127 C98.6425,66.5290141 94.2225,66.5290141 91.5212,70.8321127 L66.5839,110.492958 C63.8809,114.796056 65.8427,118.313239 70.941,118.313239 L121.9223,118.313239 C127.0206,118.313239 128.9807,114.796056 126.2794,110.492958 L101.3421,70.8321127 Z" id="Path"></path>
                <path d="M125.5365,8.52651283e-14 L10.4635,8.52651283e-14 C4.7073,8.52651283e-14 0,4.67830986 0,10.3960563 L0,83.2090141 C0,88.9267606 4.7073,93.6050704 10.4635,93.6050704 L77.2021,93.6050704 L91.5212,70.8321127 C94.2225,66.5290141 98.6425,66.5290141 101.3421,70.8321127 L115.6629,93.6050704 L125.5365,93.6050704 C131.2944,93.6050704 136,88.9250704 136,83.2090141 L136,10.3960563 C136,4.67830986 131.2927,8.52651283e-14 125.5365,8.52651283e-14 Z" id="Path"></path>
                <rect id="Rectangle" x="93.2416" y="78.1690141" width="6.375" height="21.1267606"></rect>
                <rect id="Rectangle" x="93.2416" y="105.633803" width="6.375" height="6.33802817"></rect>
            </g>
        </g>
    </g>
</svg>