<?xml version="1.0" encoding="UTF-8"?>
<svg width="421px" height="373px" viewBox="0 0 421 373" version="1.1" xmlns="http://www.w3.org/2000/svg" xmlns:xlink="http://www.w3.org/1999/xlink">
    <!-- Generator: sketchtool 61 (101010) - https://sketch.com -->
    <title>D6AF43CD-BFDA-42EC-B357-4BC6A99372E1</title>
    <desc>Created with sketchtool.</desc>
    <g id="SAAS" stroke="none" stroke-width="1" fill="none" fill-rule="evenodd">
        <g id="Congratulations!" transform="translate(-510.000000, -152.000000)">
            <g id="Asset-2" transform="translate(510.000000, 152.000000)">
                <g id="Asset-1">
                    <rect id="Rectangle" fill="#EBEBEB" fill-rule="nonzero" x="14.25" y="336.97" width="33.12" height="1"></rect>
                    <rect id="Rectangle" fill="#EBEBEB" fill-rule="nonzero" x="132.93" y="334.26" width="55.42" height="1"></rect>
                    <rect id="Rectangle" fill="#EBEBEB" fill-rule="nonzero" x="52.79" y="342.91" width="19.19" height="1"></rect>
                    <rect id="Rectangle" fill="#EBEBEB" fill-rule="nonzero" x="347.25" y="336.84" width="43.19" height="1"></rect>
                    <rect id="Rectangle" fill="#EBEBEB" fill-rule="nonzero" x="399.35" y="336.84" width="6.33" height="1"></rect>
                    <rect id="Rectangle" fill="#EBEBEB" fill-rule="nonzero" x="239.01" y="340.35" width="46.84" height="1"></rect>
                    <path d="M198.81,282.85 L5.71,282.85 C4.19561384,282.85 2.743253,282.248412 1.67242028,281.17758 C0.601587558,280.106747 0,278.654386 0,277.14 L0,5.71 C0,2.55645408 2.55645408,0 5.71,0 L198.81,0 C201.95964,0.00551601541 204.51,2.5603552 204.51,5.71 L204.51,277.14 C204.51,280.289645 201.95964,282.844484 198.81,282.85 Z M5.71,0.25 C2.69680786,0.255503561 0.255503561,2.69680786 0.25,5.71 L0.25,277.14 C0.255503561,280.153192 2.69680786,282.594496 5.71,282.6 L198.81,282.6 C201.821569,282.594484 204.26,280.151574 204.26,277.14 L204.26,5.71 C204.26,2.6984262 201.821569,0.255515703 198.81,0.25 L5.71,0.25 Z" id="Shape" fill="#EBEBEB" fill-rule="nonzero"></path>
                    <path d="M415.1,282.85 L222,282.85 C218.85036,282.844484 216.3,280.289645 216.3,277.14 L216.3,5.71 C216.3,2.5603552 218.85036,0.00551601541 222,0 L415.1,0 C418.253546,0 420.81,2.55645408 420.81,5.71 L420.81,277.14 C420.81,278.654386 420.208412,280.106747 419.13758,281.17758 C418.066747,282.248412 416.614386,282.85 415.1,282.85 Z M222,0.25 C218.988431,0.255515703 216.55,2.6984262 216.55,5.71 L216.55,277.14 C216.55,280.151574 218.988431,282.594484 222,282.6 L415.1,282.6 C418.113192,282.594496 420.554496,280.153192 420.56,277.14 L420.56,5.71 C420.554496,2.69680786 418.113192,0.255503561 415.1,0.25 L222,0.25 Z" id="Shape" fill="#EBEBEB" fill-rule="nonzero"></path>
                    <rect id="Rectangle" fill="#FAFAFA" fill-rule="nonzero" x="66.58" y="19.44" width="193.06" height="138.59"></rect>
                    <polygon id="Path" fill="#FFFFFF" fill-rule="nonzero" points="248.65 158.03 199.54 19.44 162.69 19.44 211.8 158.03"></polygon>
                    <polygon id="Path" fill="#FFFFFF" fill-rule="nonzero" points="149.56 158.03 100.45 19.44 87.01 19.44 136.12 158.03"></polygon>
                    <path d="M57.37,14.68 L268.84,14.68 C269.311087,14.6799682 269.694522,15.058945 269.7,15.53 L269.7,15.53 C269.694597,16.0027088 269.312709,16.3845971 268.84,16.39 L57.37,16.39 C56.8972912,16.3845971 56.5154029,16.0027088 56.51,15.53 L56.51,15.53 C56.5154778,15.058945 56.8989131,14.6799682 57.37,14.68 L57.37,14.68 Z" id="Path" fill="#E0E0E0" fill-rule="nonzero"></path>
                    <rect id="Rectangle" fill="#F0F0F0" fill-rule="nonzero" x="161.96" y="19.14" width="2.29" height="139.19"></rect>
                    <rect id="Rectangle" fill="#E0E0E0" fill-rule="nonzero" x="160.82" y="19.14" width="1.14" height="139.19"></rect>
                    <rect id="Rectangle" fill="#F0F0F0" fill-rule="nonzero" transform="translate(163.105000, 88.735000) rotate(-90.000000) translate(-163.105000, -88.735000) " x="161.96" y="-9.13" width="2.29" height="195.73"></rect>
                    <path d="M65.24,157.08 L65.24,157.08 L65.24,18.08 L261,18.08 L261,157.08 L261,157.08 L261,159.37 L65.24,159.37 L65.24,157.08 Z M258.68,157.08 L258.68,20.39 L67.53,20.39 L67.53,157.08 L258.68,157.08 Z" id="Shape" fill="#F0F0F0" fill-rule="nonzero"></path>
                    <rect id="Rectangle" fill="#E0E0E0" fill-rule="nonzero" x="64.1" y="18.11" width="1.14" height="141.26"></rect>
                    <polygon id="Path" fill="#EBEBEB" fill-rule="nonzero" opacity="0.5" points="93.62 12.58 93.62 175.34 52.3 175.34 59.88 12.58"></polygon>
                    <polygon id="Path" fill="#EBEBEB" fill-rule="nonzero" opacity="0.5" points="231.44 12.58 231.44 175.34 272.76 175.34 265.19 12.58"></polygon>
                    <rect id="Rectangle" fill="#F0F0F0" fill-rule="nonzero" x="23.72" y="194.84" width="15.76" height="127.83"></rect>
                    <rect id="Rectangle" fill="#F0F0F0" fill-rule="nonzero" x="26.74" y="322.67" width="173.63" height="4.78"></rect>
                    <rect id="Rectangle" fill="#F5F5F5" fill-rule="nonzero" transform="translate(121.430000, 258.745000) rotate(180.000000) translate(-121.430000, -258.745000) " x="39.47" y="194.83" width="163.92" height="127.83"></rect>
                    <rect id="Rectangle" fill="#F0F0F0" fill-rule="nonzero" x="21.73" y="190.67" width="16.11" height="4.17"></rect>
                    <rect id="Rectangle" fill="#FAFAFA" fill-rule="nonzero" transform="translate(121.610000, 192.745000) rotate(180.000000) translate(-121.610000, -192.745000) " x="37.84" y="190.66" width="167.54" height="4.17"></rect>
                    <path d="M197.73,266.77 L45.14,266.77 L45.14,203.59 L197.73,203.59 L197.73,266.77 Z M46.2,265.71 L196.67,265.71 L196.67,204.65 L46.2,204.65 L46.2,265.71 Z" id="Shape" fill="#E0E0E0" fill-rule="nonzero"></path>
                    <path d="M197.73,313.91 L45.14,313.91 L45.14,273.1 L197.73,273.1 L197.73,313.91 Z M46.2,312.85 L196.67,312.85 L196.67,274.16 L46.2,274.16 L46.2,312.85 Z" id="Shape" fill="#E0E0E0" fill-rule="nonzero"></path>
                    <rect id="Rectangle" fill="#E0E0E0" fill-rule="nonzero" x="65.7" y="204.12" width="111.47" height="3.39" rx="1.4"></rect>
                    <rect id="Rectangle" fill="#E0E0E0" fill-rule="nonzero" x="65.7" y="273.63" width="111.47" height="3.39" rx="1.4"></rect>
                    <rect id="Rectangle" fill="#F0F0F0" fill-rule="nonzero" transform="translate(355.490000, 181.450000) rotate(180.000000) translate(-355.490000, -181.450000) " x="309.65" y="41.59" width="91.68" height="279.72"></rect>
                    <rect id="Rectangle" fill="#E0E0E0" fill-rule="nonzero" x="306.74" y="41.6" width="2.91" height="279.72"></rect>
                    <rect id="Rectangle" fill="#FAFAFA" fill-rule="nonzero" transform="translate(355.485000, 181.450000) rotate(180.000000) translate(-355.485000, -181.450000) " x="324.52" y="52.26" width="61.93" height="258.38"></rect>
                    <ellipse id="_Path_" fill="#F5F5F5" fill-rule="nonzero" cx="211.79" cy="361.29" rx="193.89" ry="11.32"></ellipse>
                    <polygon id="Path" fill="#F2C9BE" fill-rule="nonzero" points="105.15 352.58 112.98 349.61 108.19 330.69 100.36 333.66"></polygon>
                    <polygon id="Path" fill="#F2C9BE" fill-rule="nonzero" points="46.32 352.73 54.69 352.73 55.95 333.34 47.57 333.34"></polygon>
                    <path d="M55.53,351.76 L45.32,351.76 C44.9850231,351.75975 44.6982568,352.000128 44.64,352.33 L43.35,359.78 C43.2978881,360.155657 43.4111358,360.535461 43.6604687,360.821235 C43.9098016,361.107009 44.2707467,361.270702 44.65,361.27 C47.93,361.21 50.32,361.02 54.46,361.02 C57,361.02 64.69,361.28 68.21,361.28 C71.73,361.28 72.01,357.81 70.56,357.49 C64.03,356.08 59.07,354.13 56.92,352.28 C56.5344516,351.944855 56.0408516,351.760199 55.53,351.76 Z" id="Path" fill="#263238" fill-rule="nonzero"></path>
                    <path d="M112.58,348.72 L104,352 C103.680353,352.122846 103.489061,352.45137 103.54,352.79 L104.63,360.33 C104.672911,360.704995 104.886974,361.039013 105.209762,361.234643 C105.53255,361.430272 105.92771,361.46548 106.28,361.33 C109.35,360.1 111.95,358.55 115.85,357.15 C120.305959,355.698583 124.593725,353.774284 128.64,351.41 C131.53,349.56 130.31,346.07 128.95,346.62 C122.72,349.11 121.2,349.94 114.67,348.68 C113.982614,348.503407 113.260126,348.517235 112.58,348.72 L112.58,348.72 Z" id="Path" fill="#263238" fill-rule="nonzero"></path>
                    <path d="M90.49,97.54 C93.13,102.2 95.9,107 98.7,111.64 C101.5,116.28 104.37,120.91 107.42,125.24 C108.16,126.33 108.98,127.38 109.71,128.39 C109.882619,128.677916 110.102338,128.934818 110.36,129.15 C110.828201,129.389836 111.361802,129.470578 111.88,129.38 C112.839338,129.290387 113.781632,129.068275 114.68,128.72 C116.944313,127.819519 119.10921,126.686802 121.14,125.34 C122.21,124.63 123.31,123.9 124.38,123.12 C125.45,122.34 126.53,121.5 127.51,120.74 L132.2,124.92 C131.3,126.23 130.42,127.35 129.46,128.5 C128.5,129.65 127.46,130.75 126.46,131.81 C125.37464,132.900025 124.225982,133.925135 123.02,134.88 C121.762776,135.899758 120.425075,136.816083 119.02,137.62 C117.426572,138.533489 115.71808,139.229666 113.94,139.69 C111.721618,140.251277 109.398382,140.251277 107.18,139.69 C104.790829,139.022753 102.649367,137.670434 101.02,135.8 C100.02,134.63 99.02,133.55 98.12,132.4 C94.4994295,127.921864 91.1276795,123.248151 88.02,118.4 C84.93,113.58 82.07,108.75 79.37,103.61 L90.49,97.54 Z" id="Path" fill="#F2C9BE" fill-rule="nonzero"></path>
                    <path d="M75.64,97.92 C73.38,105.61 89.27,126.55 89.27,126.55 L105.27,116.23 C102.261566,109.576779 98.5504793,103.264244 94.2,97.4 C87.63,89 78.12,89.49 75.64,97.92 Z" id="Path" fill="#407BFF" fill-rule="nonzero"></path>
                    <path d="M75.64,97.92 C73.38,105.61 89.27,126.55 89.27,126.55 L105.27,116.23 C102.261566,109.576779 98.5504793,103.264244 94.2,97.4 C87.63,89 78.12,89.49 75.64,97.92 Z" id="Path" fill="#000000" fill-rule="nonzero" opacity="0.2"></path>
                    <path d="M85.41,106.94 C88.7,108.35 93.55,116.29 96.08,122.17 L89.28,126.54 C85.4771778,121.468265 82.0577038,116.120114 79.05,110.54 C81.2,108.16 83.66,106.2 85.41,106.94 Z" id="Path" fill="#000000" fill-rule="nonzero" opacity="0.2"></path>
                    <path d="M126.52,123.35 L129.46,115.13 L137.79,119.13 C137.79,119.13 136.06,126.46 129.97,126.45001 L126.52,123.35 Z" id="Path" fill="#F2C9BE" fill-rule="nonzero"></path>
                    <polygon id="Path" fill="#F2C9BE" fill-rule="nonzero" points="136.88 109.71 140.4 113.61 137.79 119.11 129.46 115.13"></polygon>
                    <polygon id="Path" fill="#000000" fill-rule="nonzero" opacity="0.2" points="108.18 330.69 110.66 340.45 102.82 343.42 100.35 333.67"></polygon>
                    <polygon id="Path" fill="#000000" fill-rule="nonzero" opacity="0.2" points="47.57 333.35 55.95 333.35 55.3 343.34 46.92 343.34"></polygon>
                    <path d="M38.31,94.53 C47.31,126.34 45.85,160.09 46.42,166.94 C52.98,166.71 77.7,165.78 91.18,165.27 C98.78,117.85 85.13,91.46 85.13,91.46 C85.13,91.46 82.25,90.9 78.35,90.46 C77.12,90.34 75.8,90.23 74.43,90.16 C73.67,90.16 72.89,90.09 72.11,90.07 C65.7550711,90.1797182 59.4115118,90.6504771 53.11,91.48 C51.92,91.63 50.71,91.81 49.54,92 C48.37,92.19 47.38,92.39 46.38,92.59 C41.83,93.54 38.31,94.53 38.31,94.53 Z" id="Path" fill="#407BFF" fill-rule="nonzero"></path>
                    <path d="M38.31,94.53 C47.31,126.34 45.85,160.09 46.42,166.94 C52.98,166.71 77.7,165.78 91.18,165.27 C98.78,117.85 85.13,91.46 85.13,91.46 C85.13,91.46 82.25,90.9 78.35,90.46 C77.12,90.34 75.8,90.23 74.43,90.16 C73.67,90.16 72.89,90.09 72.11,90.07 C65.7550711,90.1797182 59.4115118,90.6504771 53.11,91.48 C51.92,91.63 50.71,91.81 49.54,92 C48.37,92.19 47.38,92.39 46.38,92.59 C41.83,93.54 38.31,94.53 38.31,94.53 Z" id="Path" fill="#000000" fill-rule="nonzero" opacity="0.2"></path>
                    <path d="M47.84,108.17 C48.64,111.25 47.72,125.29 44.51,128.76 C44.07,124.26 43.51,119.57 42.72,114.76 L47.84,108.17 Z" id="Path" fill="#000000" fill-rule="nonzero" opacity="0.2"></path>
                    <path d="M53.41,70 C55.07,76 57.09,87.13 53.12,91.52 C56.69,94.58 61.31,98.07 68.59,97.78 C75.87,97.49 74.22,92.6 72.11,90.11 C65.18,88.99 64.98,83.92 65.81,79.11 L53.41,70 Z" id="Path" fill="#F2C9BE" fill-rule="nonzero"></path>
                    <polygon id="Path" fill="#407BFF" fill-rule="nonzero" points="68.77 96.75 70.09 97.64 65.27 99.04 66.52 96.81"></polygon>
                    <polygon id="Path" fill="#407BFF" fill-rule="nonzero" points="70.59 96.28 70.09 97.64 74.93 99.04 74.61 96.45"></polygon>
                    <path d="M50.23,91.06 L52.14,90.06 C52.7568495,89.7470592 53.4981159,89.8130358 54.05,90.23 C58.4401342,93.4120149 63.4584179,95.6211506 68.77,96.71 C64.95,98.53 65.89,103.43 65.89,103.43 C65.89,103.43 53.74,99.43 49.89,92.17 C49.6988412,91.7677773 49.8463638,91.2861593 50.23,91.06 Z" id="Path" fill="#FFFFFF" fill-rule="nonzero"></path>
                    <path d="M74.23,89.8 L71.44,89.38 C71.2944559,89.3611583 71.1515328,89.4301191 71.0757078,89.555772 C70.9998828,89.6814248 71.0054901,89.840016 71.09,89.96 C72.09,91.34 73.68,94.4 70.59,96.28 C74.42,98.1 75.59,102.57 75.59,102.57 C75.59,102.57 80.59,97.2 74.76,90.11 C74.6294546,89.9427175 74.4397979,89.8317863 74.23,89.8 Z" id="Path" fill="#FFFFFF" fill-rule="nonzero"></path>
                    <path d="M58.47,73.71 L65.8,79.08 C65.5925389,80.2084847 65.4821353,81.3526681 65.47,82.5 C62.84,82.31 59.05,79.72 58.57,77.02 C58.332223,75.9323491 58.2983159,74.8100213 58.47,73.71 Z" id="Path" fill="#000000" fill-rule="nonzero" opacity="0.2"></path>
                    <path d="M74.66,57.66 C74.33,60.56 71.54,63.07 69.73,63.66 L67.48,51 C72.53,47.48 75.13,53.57 74.66,57.66 Z" id="Path" fill="#263238" fill-rule="nonzero"></path>
                    <path d="M50.88,61.15 C52.34,69.33 52.78,74.15 57.42,77.94 C64.42,83.58 74.16,78.64 75.17,70.19 C76.09,62.58 73.56,50.48 65.11,48.13 C61.3299733,47.0603294 57.2655975,48.0232456 54.3672665,50.6751269 C51.4689354,53.3270081 50.1495728,57.2900423 50.88,61.15 L50.88,61.15 Z" id="Path" fill="#F2C9BE" fill-rule="nonzero"></path>
                    <path d="M52.44,66.67 C56.23,68.67 57.9,64.15 57.93,62.32 C57.93,59.4 56.72,56.19 55.21,55.02 C62.52,55 77,54.65 73.35,47.68 C69.7,40.71 62.35,41.51 56.87,45.32 C53.96,47.32 44.54,45.58 46.87,51.02 C42,53.63 46.22,63.36 52.44,66.67 Z" id="Path" fill="#263238" fill-rule="nonzero"></path>
                    <path d="M47.68,50.57 C46.3749194,50.5635282 45.1075358,50.1317049 44.07,49.34 C44.4083871,50.84668 45.7170371,51.9379053 47.26,52 L47.68,50.57 Z" id="Path" fill="#263238" fill-rule="nonzero"></path>
                    <path d="M47.81,67.88 C48.7479269,69.7456396 50.3880044,71.1627242 52.37,71.82 C55.01,72.67 55.61,70.26 54.97,67.71 C54.4,65.42 53.16,62.3 50.47,62.56 C47.78,62.82 46.68,65.58 47.81,67.88 Z" id="Path" fill="#F2C9BE" fill-rule="nonzero"></path>
                    <path d="M100.93,253.8 C97.52,228.47 91.18,165.27 91.18,165.27 L61.75,166.37 C61.75,166.37 75.63,229.53 80.65,255.14 C85.67,280.75 99.65,342.55 99.65,342.55 L112.9,337.55 C112.9,337.55 104.47,280.13 100.93,253.8 Z" id="Path" fill="#263238" fill-rule="nonzero"></path>
                    <path d="M72.74,183.4 C70.3228615,183.97595 68.0797524,185.124944 66.2,186.75 C68.97,199.52 72.6,216.33 75.72,231.14 C77.85,218.31 77.91,194.09 72.74,183.4 Z" id="Path" fill="#000000" fill-rule="nonzero" opacity="0.2"></path>
                    <path d="M75.3,165.87 C75.3,165.87 69.06,234.42 66.2,258.79 C63.07,285.48 59.2,341.41 59.2,341.41 L43.82,341.41 C43.82,341.41 43.18,291.94 45.18,265.82 C47.45,236.06 46.42,167 46.42,167 L75.3,165.87 Z" id="Path" fill="#263238" fill-rule="nonzero"></path>
                    <polygon id="Path" fill="#407BFF" fill-rule="nonzero" points="61.19 341.74 43.13 341.74 42.75 336.34 62.92 335.99"></polygon>
                    <polygon id="Path" fill="#407BFF" fill-rule="nonzero" points="114.69 337.2 98.89 343.19 96.95 338.09 114.51 331.12"></polygon>
                    <path d="M63.65,62 C63.73,62.67 64.14,63.18 64.58,63.12 C65.02,63.06 65.31,62.49 65.24,61.82 C65.17,61.15 64.74,60.64 64.3,60.7 C63.86,60.76 63.57,61.34 63.65,62 Z" id="Path" fill="#263238" fill-rule="nonzero"></path>
                    <path d="M71.23,61.14 C71.31,61.81 71.73,62.31 72.17,62.26 C72.61,62.21 72.9,61.63 72.82,60.95 C72.74,60.27 72.33,59.78 71.89,59.83 C71.45,59.88 71.16,60.47 71.23,61.14 Z" id="Path" fill="#263238" fill-rule="nonzero"></path>
                    <path d="M68.86,61.75 C69.8978469,63.7088715 71.2000349,65.5157835 72.73,67.12 C71.8810777,67.8984567 70.7327511,68.2641658 69.59,68.12 L68.86,61.75 Z" id="Path" fill="#C1A098" fill-rule="nonzero"></path>
                    <path d="M67,70.21 C65.4818306,70.1962155 64.035843,69.5599809 63,68.45 C62.9437065,68.3661614 62.9587435,68.2535105 63.0350563,68.1873727 C63.1113692,68.1212349 63.2250137,68.1223618 63.3,68.19 C64.4857389,69.4129049 66.182148,69.9994096 67.87,69.77 C67.9650106,69.8030614 68.0206778,69.9015495 68,70 C68.0085484,70.0520249 67.9950953,70.1052628 67.9628582,70.1469814 C67.9306211,70.1886999 67.8824988,70.2151479 67.83,70.22 C67.5533926,70.2338244 67.2761941,70.2304847 67,70.21 Z" id="Path" fill="#263238" fill-rule="nonzero"></path>
                    <path d="M61,59.83 C60.9340423,59.8437501 60.8659577,59.8437501 60.8,59.83 C60.6134818,59.713809 60.5517337,59.4712271 60.66,59.28 C61.2758773,58.1657108 62.3945495,57.4199294 63.66,57.28 C63.8161203,57.255081 63.9722702,57.3244538 64.0584287,57.4570103 C64.1445872,57.5895667 64.1445872,57.7604333 64.0584287,57.8929897 C63.9722702,58.0255462 63.8161203,58.094919 63.66,58.07 L63.66,58.07 C62.6563272,58.1923668 61.7735838,58.7920364 61.29,59.68 C61.217519,59.7670645 61.1129403,59.8211568 61,59.83 L61,59.83 Z" id="Path" fill="#263238" fill-rule="nonzero"></path>
                    <path d="M74.2,58.1500024 C74.0664344,58.1504675 73.9419196,58.0825503 73.87,57.97 C73.3506774,57.1013364 72.4477948,56.5328547 71.44,56.44 C71.3356549,56.4401446 71.2358413,56.3973754 71.1639735,56.3217252 C71.0921058,56.2460749 71.054508,56.1442006 71.06,56.04 C71.0599654,55.9348094 71.1024244,55.8340653 71.1777409,55.7606317 C71.2530574,55.6871982 71.354844,55.6473028 71.46,55.65 C72.7326085,55.7426429 73.8810289,56.4473554 74.54,57.54 C74.5992476,57.6282085 74.6199381,57.736773 74.5972871,57.8405899 C74.5746362,57.9444069 74.5106052,58.0344866 74.42,58.09 C74.3534028,58.1294347 74.2773967,58.1501637 74.2,58.1500024 L74.2,58.1500024 Z" id="Path" fill="#263238" fill-rule="nonzero"></path>
                    <path d="M58.37,353.23 C57.627051,353.213253 56.8886481,353.109205 56.17,352.92 C56.0907585,352.90566 56.0278468,352.845194 56.0103777,352.766583 C55.9929086,352.687972 56.0242901,352.606552 56.09,352.56 C56.39,352.37 59.01,350.71 59.96,351.19 C60.1722501,351.29804 60.3098295,351.512052 60.32,351.75 C60.3999499,352.131695 60.2792405,352.527773 60,352.8 C59.5257635,353.134059 58.9473091,353.286658 58.37,353.23 Z M56.73,352.65 C58.16,352.93 59.26,352.88 59.73,352.49 C59.9309908,352.313134 60.0224594,352.042539 59.97,351.78 C59.97,351.62 59.89,351.57 59.83,351.54 C59.3,351.3 57.8,352 56.73,352.65 L56.73,352.65 Z" id="Shape" fill="#407BFF" fill-rule="nonzero"></path>
                    <path d="M56.21,352.93 L56.1,352.93 C56.0380785,352.892119 56.0031522,352.822266 56.01,352.75 C56.01,352.64 56.09,350.23 57.01,349.43 C57.2390126,349.233313 57.5404543,349.142517 57.84,349.18 L57.84,349.18 C58.1523419,349.183959 58.4230651,349.397256 58.5,349.7 C58.73,350.63 57.14,352.47 56.3,352.94 L56.21,352.93 Z M57.74,349.54 C57.5737794,349.537035 57.4127406,349.597871 57.29,349.71 C56.7386264,350.473046 56.438093,351.388625 56.43,352.33 C57.26,351.68 58.26,350.33 58.13,349.74 C58.13,349.69 58.13,349.57 57.83,349.54 L57.74,349.54 L57.74,349.54 Z" id="Shape" fill="#407BFF" fill-rule="nonzero"></path>
                    <path d="M113.76,349.51 C113.684976,349.517665 113.613127,349.477749 113.58,349.41 C113.531508,349.341001 113.531508,349.248999 113.58,349.18 C113.86,348.87 116.41,346.08 117.58,346.24 C117.796373,346.277278 117.980041,346.419715 118.07,346.62 L118.07,346.62 C118.22707,346.93483 118.22707,347.30517 118.07,347.62 C117.5,348.7 115.13,349.24 113.78,349.47 L113.76,349.51 Z M117.45,346.63 C116.78,346.63 115.32,347.95 114.31,349.01 C116.14,348.65 117.4,348.08 117.72,347.47 C117.839445,347.259069 117.839445,347.000931 117.72,346.79 C117.69023,346.708019 117.616651,346.649931 117.53,346.64 L117.45,346.63 Z" id="Shape" fill="#407BFF" fill-rule="nonzero"></path>
                    <path d="M113.76,349.51 L113.7,349.51 C113.633785,349.488155 113.581845,349.436215 113.56,349.37 C113.56,349.28 112.95,347.09 113.64,345.89 C113.829741,345.539759 114.155212,345.282999 114.54,345.18 L114.54,345.18 C115.07,345.04 115.32,345.24 115.43,345.44 C115.91,346.27 114.68,348.67 113.89,349.44 C113.857876,349.479905 113.810998,349.505146 113.76,349.51 L113.76,349.51 Z M114.85,345.51 C114.783836,345.498419 114.716164,345.498419 114.65,345.51 L114.65,345.51 C114.360583,345.575354 114.115131,345.765854 113.98,346.03 C113.653472,346.932334 113.611588,347.913114 113.86,348.84 C114.61,347.89 115.37,346.08 115.09,345.58 C115.024223,345.522561 114.933242,345.503606 114.85,345.53 L114.85,345.51 Z" id="Shape" fill="#407BFF" fill-rule="nonzero"></path>
                    <path d="M47.52,106.36 C45,111.54 42.45,116.88 40,122.14 C38.77,124.79 37.54,127.42 36.37,130.07 L34.64,134.07 L33.81,136.07 L33.6,136.57 L33.45,136.94 C33.35,137.17 33.29,137.41 33.2,137.65 C32.5691,139.614589 32.4554411,141.708668 32.87,143.73 C33.3581809,146.085981 34.2514276,148.339399 35.51,150.39 C36.8823433,152.687099 38.476639,154.844088 40.27,156.83 C41.18,157.83 42.13,158.89 43.13,159.83 C43.63,160.323333 44.14,160.803333 44.66,161.27 L46.16,162.62 L42.83,167.95 C41.3858065,167.213778 39.9866704,166.392328 38.64,165.49 C37.31,164.62 36,163.69 34.74,162.69 C32.146791,160.631881 29.7981191,158.283209 27.74,155.69 C25.5003306,152.903819 23.7888658,149.731678 22.69,146.33 C21.5187449,142.578627 21.3532241,138.585437 22.21,134.75 C22.33,134.27 22.44,133.75 22.58,133.32 L22.97,132.08 L23.68,129.88 C24.17,128.43 24.68,126.96 25.2,125.54 C26.2,122.66 27.35,119.83 28.53,117.03 C30.86,111.4 33.39,106.03 36.25,100.53 L47.52,106.36 Z" id="Path" fill="#F2C9BE" fill-rule="nonzero"></path>
                    <path d="M38.31,94.53 C30.67,96.92 23.16,122.83 23.16,122.83 L40.84,130.56 C40.84,130.56 46.55,118.05 49.84,108.23 C53.42,97.55 47.57,91.63 38.31,94.53 Z" id="Path" fill="#407BFF" fill-rule="nonzero"></path>
                    <path d="M38.31,94.53 C30.67,96.92 23.16,122.83 23.16,122.83 L40.84,130.56 C40.84,130.56 46.55,118.05 49.84,108.23 C53.42,97.55 47.57,91.63 38.31,94.53 Z" id="Path" fill="#000000" fill-rule="nonzero" opacity="0.2"></path>
                    <path d="M44.26,161 L51.57,165.35 L44.46,172.43 C44.46,172.43 38.28,167.68 40.12,163.95 L44.26,161 Z" id="Path" fill="#F2C9BE" fill-rule="nonzero"></path>
                    <polygon id="Path" fill="#F2C9BE" fill-rule="nonzero" points="56.45 172.24 49.12 177.38 44.46 172.39 51.57 165.31"></polygon>
                    <rect id="Rectangle" fill="#407BFF" fill-rule="nonzero" transform="translate(410.485108, 161.528369) rotate(-85.860000) translate(-410.485108, -161.528369) " x="408.070108" y="161.028369" width="4.83" height="1"></rect>
                    <rect id="Rectangle" fill="#407BFF" fill-rule="nonzero" transform="translate(411.461502, 147.874760) rotate(-85.860000) translate(-411.461502, -147.874760) " x="404.456502" y="147.37476" width="14.01" height="1"></rect>
                    <path d="M384.12,298.00086 L139.18,298.00086 C135.643626,298.041408 132.25444,296.586419 129.848749,293.994063 C127.443058,291.401708 126.244926,287.913434 126.55,284.39 L139.55,103.59 C140.217204,96.0126708 146.484921,90.154467 154.09,89.9991397 L399,89.9991397 C402.536374,89.9585921 405.92556,91.4135809 408.331251,94.0059365 C410.736942,96.5982922 411.935074,100.086566 411.63,103.61 L398.63,284.41 C397.95972,291.974022 391.711667,297.82592 384.12,298.00086 Z" id="Path" fill="#407BFF" fill-rule="nonzero"></path>
                    <polygon id="Path" fill="#407BFF" fill-rule="nonzero" points="327.14 361.29 247.64 361.29 233.47 263.04 312.97 263.04"></polygon>
                    <polygon id="Path" fill="#407BFF" fill-rule="nonzero" points="314.52 355.43 228.51 355.43 226.81 361.29 312.81 361.29"></polygon>
                    <polygon id="Path" fill="#263238" fill-rule="nonzero" points="317.17 310.34 239.68 306.1 233.47 263.04 310.35 263.04"></polygon>
                    <path d="M381.35,298.000737 L136.41,298.000737 C132.874608,298.038287 129.487326,296.582352 127.082328,293.990742 C124.677329,291.399132 123.478111,287.912687 123.78,284.39 L136.78,103.59 C137.451608,96.014818 143.716767,90.159006 151.32,89.9991397 L396.26,89.9991397 C399.796374,89.9585921 403.18556,91.4135809 405.591251,94.0059365 C407.996942,96.5982922 409.195074,100.086566 408.89,103.61 L395.89,284.41 C395.227211,291.98948 388.956927,297.850083 381.35,298.000737 L381.35,298.000737 Z" id="Path" fill="#263238" fill-rule="nonzero"></path>
                    <rect id="Rectangle" fill="#FFFFFF" fill-rule="nonzero" transform="translate(405.017603, 157.229584) rotate(-85.900000) translate(-405.017603, -157.229584) " x="353.027603" y="156.749584" width="103.98" height="1"></rect>
                    <rect id="Rectangle" fill="#FFFFFF" fill-rule="nonzero" transform="translate(399.412257, 236.076281) rotate(-85.900000) translate(-399.412257, -236.076281) " x="381.407257" y="235.596281" width="36.01" height="1"></rect>
                    <path d="M380.83,294.620715 L137.42,294.620715 C134.661483,294.653361 132.01769,293.517761 130.14271,291.494155 C128.267731,289.470549 127.336714,286.74797 127.58,284 L140.49,104 C141.005973,98.0856773 145.90415,93.5154836 151.84,93.409305 L395.26,93.409305 C398.012073,93.377167 400.649831,94.5090181 402.52225,96.5262022 C404.394669,98.5433863 405.327314,101.257981 405.09,104 L392.18,284 C391.687464,289.93049 386.780104,294.522222 380.83,294.620715 Z" id="Path" fill="#FFFFFF" fill-rule="nonzero"></path>
                    <path d="M380.83,294.620715 L137.42,294.620715 C134.661483,294.653361 132.01769,293.517761 130.14271,291.494155 C128.267731,289.470549 127.336714,286.74797 127.58,284 L140.49,104 C141.005973,98.0856773 145.90415,93.5154836 151.84,93.409305 L395.26,93.409305 C398.012073,93.377167 400.649831,94.5090181 402.52225,96.5262022 C404.394669,98.5433863 405.327314,101.257981 405.09,104 L392.18,284 C391.687464,289.93049 386.780104,294.522222 380.83,294.620715 Z" id="Path" fill="#407BFF" fill-rule="nonzero" opacity="0.2"></path>
                    <path d="M199.86,286.640346 L143,286.640346 C141.6714,286.656093 140.397806,286.110268 139.493181,285.137082 C138.588556,284.163896 138.137062,282.853889 138.25,281.53 L150.8,106.53 C151.040994,103.669391 153.409632,101.456357 156.28,101.409766 L213.13,101.409766 C214.459515,101.396761 215.732952,101.944878 216.637229,102.919592 C217.541505,103.894307 217.992742,105.205208 217.88,106.53 L205.33,281.53 C205.080141,284.380759 202.72115,286.584497 199.86,286.640346 Z" id="Path" fill="#FFFFFF" fill-rule="nonzero" opacity="0.5"></path>
                    <path d="M197.66,126 L168.23,126 C167.032388,126.012764 165.884981,125.519619 165.070092,124.641899 C164.255203,123.76418 163.848481,122.583369 163.95,121.39 L164.28,116.88 C164.482153,114.294848 166.62706,112.293225 169.22,112.27 L198.64,112.27 C199.837612,112.257236 200.985019,112.750381 201.799908,113.628101 C202.614797,114.50582 203.021519,115.686631 202.92,116.88 L202.59,121.39 C202.388195,123.971366 200.249087,125.971627 197.66,126 L197.66,126 Z" id="Path" fill="#407BFF" fill-rule="nonzero" opacity="0.4"></path>
                    <path d="M179,196.850357 L134,196.850357 C131.918683,196.870402 129.924494,196.01568 128.503966,194.494365 C127.083438,192.973051 126.367202,190.925041 126.53,188.85 L129.75,143.94 C130.16249,139.465158 133.876863,136.017944 138.37,135.939643 L183.29,135.939643 C185.371317,135.919598 187.365506,136.77432 188.786034,138.295635 C190.206562,139.816949 190.922798,141.864959 190.76,143.94 L187.54,188.85 C187.131148,193.29511 183.462312,196.731959 179,196.850357 L179,196.850357 Z" id="Path" fill="#407BFF" fill-rule="nonzero"></path>
                    <path d="M185.39,160 C183.672326,160.028951 182.253142,161.348921 182.1,163.06 L181.64,169.59 C181.572301,170.382039 181.842033,171.165863 182.382796,171.748516 C182.923559,172.331169 183.685119,172.658526 184.48,172.65 L189,172.65 C189.428554,172.646362 189.783871,172.317043 189.82,171.89 L190.61,160.76 C190.630081,160.563454 190.564948,160.367729 190.4311,160.222408 C190.297252,160.077087 190.107531,159.996113 189.91,160 L185.39,160 Z" id="Path" fill="#FFFFFF" fill-rule="nonzero"></path>
                    <path d="M168.06,147.27 L139.74,147.27 C139.422306,147.273823 139.117681,147.143725 138.900761,146.911584 C138.683842,146.679442 138.574672,146.366705 138.6,146.05 L138.6,146.05 C138.656719,145.360825 139.228541,144.827991 139.92,144.82 L168.23,144.82 C168.549587,144.815915 168.855956,144.94736 169.073218,145.181774 C169.29048,145.416188 169.39831,145.731643 169.37,146.05 L169.37,146.05 C169.308843,146.731475 168.744098,147.25742 168.06,147.27 Z" id="Path" fill="#FFFFFF" fill-rule="nonzero"></path>
                    <path d="M167.61,153.53 L139.3,153.53 C138.97966,153.533812 138.672501,153.40266 138.453708,153.168647 C138.234916,152.934634 138.124686,152.619361 138.15,152.3 L138.15,152.3 C138.215551,151.615142 138.782225,151.087105 139.47,151.069997 L167.78,151.069997 C168.09938,151.069226 168.404696,151.201305 168.622818,151.434601 C168.84094,151.667896 168.952219,151.981393 168.93,152.3 L168.93,152.3 C168.868807,152.986997 168.299602,153.517393 167.61,153.53 Z" id="Path" fill="#FFFFFF" fill-rule="nonzero"></path>
                    <path d="M157.38,159.78 L138.85,159.78 C138.531332,159.786972 138.224788,159.657835 138.007167,159.424942 C137.789546,159.192049 137.681464,158.877465 137.71,158.56 L137.71,158.56 C137.761794,157.872403 138.330506,157.338421 139.02,157.33 L157.55,157.33 C157.869587,157.325915 158.175956,157.45736 158.393218,157.691774 C158.61048,157.926188 158.71831,158.241643 158.69,158.56 L158.69,158.56 C158.63331,159.243652 158.065952,159.772031 157.38,159.78 L157.38,159.78 Z" id="Path" fill="#FFFFFF" fill-rule="nonzero"></path>
                    <path d="M168.13,189.59 L140.74,189.59 C139.373221,189.606461 138.063206,189.044228 137.13355,188.042182 C136.203895,187.040135 135.741287,185.691714 135.86,184.33 L136.86,169.94 C137.11523,167.004826 139.544271,164.735419 142.49,164.679768 L169.89,164.679768 C171.255797,164.666657 172.563909,165.229835 173.492873,166.231137 C174.421837,167.232438 174.88553,168.579033 174.77,169.94 L173.77,184.33 C173.518811,187.271085 171.081437,189.544238 168.13,189.59 Z" id="Path" fill="#FFFFFF" fill-rule="nonzero" opacity="0.5"></path>
                    <path d="M193.7,213.67 L159.62,213.67 C159.028673,213.674994 158.462646,213.430441 158.060993,212.996427 C157.659341,212.562414 157.459292,211.97917 157.51,211.39 L157.51,211.39 C157.61762,210.116405 158.672041,209.131126 159.95,209.11 L194,209.11 C194.592081,209.105267 195.158907,209.349525 195.562093,209.783141 C195.96528,210.216757 196.167724,210.799827 196.12,211.39 L196.12,211.39 C196.008841,212.654014 194.968389,213.634274 193.7,213.67 L193.7,213.67 Z" id="Path" fill="#407BFF" fill-rule="nonzero" opacity="0.4"></path>
                    <path d="M186.84,222.61 L165.21,222.61 C164.61786,222.62071 164.048977,222.379698 163.644747,221.946866 C163.240517,221.514035 163.038897,220.930028 163.09,220.34 L163.09,220.34 C163.19762,219.066405 164.252041,218.081126 165.53,218.06 L187.16,218.06 C187.753058,218.052164 188.321775,218.295479 188.725649,218.729835 C189.129524,219.16419 189.33089,219.749077 189.28,220.34 L189.28,220.34 C189.16755,221.60965 188.114453,222.589375 186.84,222.61 L186.84,222.61 Z" id="Path" fill="#FFFFFF" fill-rule="nonzero" opacity="0.8"></path>
                    <path d="M191.93,238.36 L157.85,238.36 C157.258673,238.364994 156.692646,238.120441 156.290993,237.686427 C155.889341,237.252414 155.689292,236.66917 155.74,236.08 L155.74,236.08 C155.84762,234.806405 156.902041,233.821126 158.18,233.8 L192.26,233.8 C192.853058,233.792164 193.421775,234.035479 193.825649,234.469835 C194.229524,234.90419 194.43089,235.489077 194.38,236.08 L194.38,236.08 C194.267516,237.355173 193.209957,238.339349 191.93,238.36 L191.93,238.36 Z" id="Path" fill="#407BFF" fill-rule="nonzero" opacity="0.4"></path>
                    <path d="M185.07,247.3 L163.44,247.3 C162.846942,247.307836 162.278225,247.064521 161.874351,246.630165 C161.470476,246.19581 161.26911,245.610923 161.32,245.02 L161.32,245.02 C161.432484,243.744827 162.490043,242.760651 163.77,242.74 L185.39,242.74 C185.983058,242.732164 186.551775,242.975479 186.955649,243.409835 C187.359524,243.84419 187.56089,244.429077 187.51,245.02 L187.51,245.02 C187.40238,246.293595 186.347959,247.278874 185.07,247.3 L185.07,247.3 Z" id="Path" fill="#FFFFFF" fill-rule="nonzero" opacity="0.8"></path>
                    <path d="M190.16,263 L156.08,263 C155.487685,263.008127 154.919743,262.764521 154.517395,262.329757 C154.115048,261.894993 153.916092,261.309913 153.97,260.72 L153.97,260.72 C154.082061,259.448565 155.133895,258.465704 156.41,258.44 L190.49,258.44 C191.083058,258.432164 191.651775,258.675479 192.055649,259.109835 C192.459524,259.54419 192.66089,260.129077 192.61,260.72 L192.61,260.72 C192.501987,261.997353 191.441812,262.983966 190.16,263 L190.16,263 Z" id="Path" fill="#407BFF" fill-rule="nonzero" opacity="0.4"></path>
                    <path d="M183.3,272 L161.67,272 C161.077919,272.004733 160.511093,271.760475 160.107907,271.326859 C159.70472,270.893243 159.502276,270.310173 159.55,269.72 L159.55,269.72 C159.662484,268.444827 160.720043,267.460651 162,267.44 L183.62,267.44 C184.213058,267.432164 184.781775,267.675479 185.185649,268.109835 C185.589524,268.54419 185.79089,269.129077 185.74,269.72 L185.74,269.72 C185.627939,270.991435 184.576105,271.974296 183.3,272 Z" id="Path" fill="#FFFFFF" fill-rule="nonzero" opacity="0.8"></path>
                    <path d="M383.48,235.31 C384.95,233.06 388.34,234.01 388.15,236.62 L384.87,282.37 C384.7,284.73 382.93,286.64 380.87,286.64 L216.07,286.64 C214.07,286.64 212.54,284.73 212.71,282.37 L214.66,255.19 C214.792263,253.437613 215.700111,251.83582 217.135613,250.82207 C218.571114,249.808319 220.384303,249.488517 222.08,249.95 C231.37,252.85 239.33,251.15 246.73,247.48 C262.56,239.63 275.8,222.77 293.99,222.77 C294.68,222.77 295.37,222.77 296.04,222.83 C323.1,224.46 331.34,258.07 352.31,258.07 C358.5,258.07 364.16,255.4 369.08,251.59 C375.11,246.92 380,240.55 383.48,235.31 Z" id="Path" fill="#407BFF" fill-rule="nonzero" opacity="0.5"></path>
                    <path d="M386.9,254.16 L384.9,282.37 C384.73,284.73 382.96,286.64 380.9,286.64 L216.07,286.64 C214.07,286.64 212.54,284.73 212.71,282.37 L216.71,226.31 C216.98,222.48 222.02,220.86 224.05,223.97 C229.31,231.97 237.41,242.35 246.71,247.48 C250.096801,249.45611 253.929882,250.539971 257.85,250.63 C271.17,250.63 282.49,234.83 296.02,222.83 C304.31,215.47 313.43,209.53 324.34,209.53 C347.12,209.53 350.47,246.53 369.06,251.59 C372.65,252.59 376.79,252.35 381.76,250.46 C382.951459,249.945335 384.325696,250.09445 385.379036,250.85269 C386.432376,251.610931 387.009923,252.866798 386.9,254.16 L386.9,254.16 Z" id="Path" fill="#407BFF" fill-rule="nonzero" opacity="0.5"></path>
                    <g id="Group" opacity="0.8" transform="translate(213.000000, 240.000000)" fill="#FFFFFF" fill-rule="nonzero">
                        <path d="M174.7,3.23 C174.610537,3.22679791 174.525268,3.19126939 174.46,3.13 C174.427702,3.09987403 174.403612,3.06201703 174.39,3.02 C174.380812,2.97715372 174.380812,2.93284628 174.39,2.89 C174.389086,2.79968623 174.425228,2.71294456 174.49,2.65 C174.622682,2.51777586 174.837318,2.51777586 174.97,2.65 C175.036892,2.71148088 175.073446,2.79921137 175.07,2.89 C175.074789,2.93320104 175.074789,2.97679896 175.07,3.02 C175.049196,3.0605916 175.022207,3.09770155 174.99,3.13 C174.913867,3.2061759 174.806904,3.24305993 174.7,3.23 Z" id="Path"></path>
                        <path d="M14.43,26.66 C14.2422232,26.66 14.09,26.5077768 14.09,26.32 L14.09,26.32 C14.09541,26.1361397 14.2460601,25.9899204 14.43,25.99 L14.43,25.99 C14.6177768,25.99 14.77,26.1422232 14.77,26.33 L14.77,26.33 C14.7700773,26.5194608 14.6193835,26.6745868 14.43,26.68 L14.43,26.68 L14.43,26.66 Z M11,26.47 L11,26.47 C10.9086069,26.4651439 10.8233352,26.4225509 10.7645579,26.3523974 C10.7057807,26.2822439 10.6787775,26.1908313 10.69,26.1 L10.69,26.1 C10.7000057,26.0095626 10.7458431,25.926909 10.817259,25.8705281 C10.8886749,25.8141471 10.9797097,25.7887436 11.07,25.8 L11.07,25.8 C11.2541217,25.8209693 11.3875413,25.9855202 11.37,26.17 L11.37,26.17 C11.350052,26.3437754 11.2048741,26.4761436 11.03,26.48 L11.03,26.48 L11,26.47 Z M17.47,26.17 C17.4587436,26.0797097 17.4841471,25.9886749 17.5405281,25.917259 C17.596909,25.8458431 17.6795626,25.8000057 17.77,25.79 L17.77,25.79 C17.8602903,25.7787436 17.9513251,25.8041471 18.022741,25.8605281 C18.0941569,25.916909 18.1399943,25.9995626 18.15,26.09 L18.15,26.09 C18.1612564,26.1802903 18.1358529,26.2713251 18.0794719,26.342741 C18.023091,26.4141569 17.9404374,26.4599943 17.85,26.47 L17.85,26.47 C17.7597097,26.4812564 17.6686749,26.4558529 17.597259,26.3994719 C17.5258431,26.343091 17.4800057,26.2604374 17.47,26.17 Z M7.62,25.95 C7.43632296,25.9054049 7.31841204,25.726355 7.35,25.54 L7.35,25.54 C7.3945951,25.356323 7.57364502,25.238412 7.76,25.27 L7.76,25.27 C7.94367704,25.3145951 8.06158796,25.493645 8.03,25.68 L8.03,25.68 C7.99292455,25.8379127 7.8522063,25.9496595 7.69,25.95 L7.62,25.95 L7.62,25.95 Z M20.81,25.61 C20.7858556,25.5210822 20.7988323,25.4261726 20.8459592,25.3469995 C20.893086,25.2678264 20.9703274,25.2111696 21.06,25.19 L21.06,25.19 C21.2412988,25.1516548 21.4210651,25.2612684 21.47,25.44 L21.47,25.44 C21.5144095,25.6246393 21.4034763,25.8110071 21.22,25.86 L21.14,25.86 C20.9849054,25.8646114 20.8475468,25.7605518 20.81,25.61 Z M130.18,25.75 C129.992223,25.75 129.84,25.5977768 129.84,25.41 L129.84,25.41 C129.84,25.2222232 129.992223,25.07 130.18,25.07 L130.18,25.07 C130.367777,25.07 130.52,25.2222232 130.52,25.41 L130.52,25.41 C130.52,25.5977768 130.367777,25.75 130.18,25.75 L130.18,25.75 Z M133.23,25.27 C133.21879,25.180788 133.244468,25.0908646 133.301096,25.0210238 C133.357724,24.9511829 133.440397,24.9074725 133.53,24.9 L133.53,24.9 C133.620787,24.8857907 133.713387,24.9100793 133.785511,24.9670195 C133.857635,25.0239598 133.902751,25.1083945 133.91,25.2 L133.91,25.2 C133.927513,25.3899883 133.789635,25.5590005 133.6,25.58 L133.6,25.58 C133.41374,25.5918449 133.250954,25.4554558 133.23,25.27 Z M126.76,25.54 C126.670201,25.530177 126.588354,25.4839709 126.53355,25.412159 C126.478746,25.3403471 126.455777,25.2492083 126.47,25.16 L126.47,25.16 C126.480006,25.0695626 126.525843,24.986909 126.597259,24.9305281 C126.668675,24.8741471 126.75971,24.8487436 126.85,24.86 L126.85,24.86 C127.035609,24.8859195 127.167865,25.0534431 127.15,25.24 L127.15,25.24 C127.130052,25.4137754 126.984874,25.5461436 126.81,25.55 L126.76,25.55 L126.76,25.54 Z M4.3,25.13 C4.21217205,25.1066174 4.13736201,25.0490441 4.09226929,24.9701318 C4.04717658,24.8912196 4.03555544,24.7975383 4.06,24.71 L4.06,24.71 C4.11764587,24.5291474 4.30580908,24.4241261 4.49,24.47 L4.49,24.47 C4.67033305,24.5275531 4.77222862,24.7180535 4.72,24.9 L4.72,24.9 C4.67856825,25.0465703 4.54220527,25.1457433 4.39,25.14 L4.3,25.14 L4.3,25.13 Z M136.59,24.8 C136.569467,24.7108381 136.586874,24.6171535 136.638063,24.5413175 C136.689252,24.4654815 136.769629,24.4143019 136.86,24.4 L136.86,24.4 C136.948884,24.3824145 137.04111,24.4010342 137.11621,24.4517262 C137.191309,24.5024183 137.243069,24.5809892 137.26,24.67 L137.26,24.67 C137.277585,24.7588839 137.258966,24.8511104 137.208274,24.9262098 C137.157582,25.0013092 137.079011,25.0530686 136.99,25.07 L136.93,25.07 C136.767794,25.0696595 136.627075,24.9579127 136.59,24.8 L136.59,24.8 Z M123.4,24.92 C123.309503,24.9040293 123.23024,24.8499238 123.182399,24.7714641 C123.134558,24.6930044 123.122756,24.5977638 123.15,24.51 L123.15,24.51 C123.194395,24.3279013 123.377787,24.2160773 123.56,24.26 L123.56,24.26 C123.742099,24.3043954 123.853923,24.4877867 123.81,24.67 L123.81,24.67 C123.773108,24.8223894 123.636791,24.9297905 123.48,24.93 L123.4,24.93 L123.4,24.92 Z M24.05,24.64 C24.0147143,24.5553819 24.0162208,24.4598985 24.0541585,24.3764357 C24.0920961,24.2929728 24.1630451,24.2290542 24.25,24.2 L24.25,24.2 C24.4239594,24.1316209 24.6204937,24.2164879 24.69,24.39 L24.69,24.39 C24.7223176,24.4748383 24.7193638,24.5690779 24.6817966,24.6517257 C24.6442294,24.7343736 24.5751692,24.7985648 24.49,24.83 L24.49,24.83 C24.4505064,24.8390014 24.4094936,24.8390014 24.37,24.83 L24.37,24.83 C24.2357104,24.8333227 24.1113672,24.759494 24.05,24.64 L24.05,24.64 Z M139.9,24.05 C139.872431,23.9611201 139.882496,23.8648246 139.927849,23.783567 C139.973202,23.7023094 140.049879,23.6431922 140.14,23.62 L140.14,23.62 C140.227538,23.5955554 140.32122,23.6071766 140.400132,23.6522693 C140.479044,23.697362 140.536617,23.772172 140.56,23.86 L140.56,23.86 C140.584445,23.9475383 140.572823,24.0412196 140.527731,24.1201318 C140.482638,24.1990441 140.407828,24.2566174 140.32,24.28 L140.32,24.28 L140.23,24.28 L140.23,24.28 C140.081582,24.2836031 139.947988,24.1904917 139.9,24.05 L139.9,24.05 Z M120.12,23.93 L120.12,23.93 C119.943906,23.8685294 119.850208,23.6766708 119.91,23.5 L119.91,23.5 C119.975777,23.3225606 120.17068,23.229539 120.35,23.29 L120.35,23.29 C120.527439,23.3557771 120.620461,23.5506795 120.56,23.73 L120.56,23.73 C120.506173,23.8645956 120.374945,23.9520808 120.23,23.95 L120.23,23.95 C120.192178,23.9539259 120.15402,23.9469881 120.12,23.93 L120.12,23.93 Z M27.12,23.29 C27.0783045,23.2092125 27.0706999,23.1150916 27.0988848,23.0286581 C27.1270696,22.9422246 27.1886959,22.8706789 27.27,22.83 L27.27,22.83 C27.4413843,22.7504141 27.6449982,22.8212364 27.73,22.99 L27.73,22.99 C27.7713035,23.0693019 27.7786596,23.1619698 27.7503845,23.2467948 C27.7221095,23.3316199 27.6606239,23.4013406 27.58,23.44 L27.58,23.44 C27.5277219,23.4550037 27.4722781,23.4550037 27.42,23.44 L27.42,23.44 C27.3147588,23.4330338 27.2187097,23.3776209 27.16,23.29 L27.12,23.29 Z M143.12,23.05 C143.087981,22.9665444 143.091187,22.8736697 143.128884,22.7926204 C143.166581,22.7115712 143.235545,22.6492816 143.32,22.62 L143.32,22.62 C143.496275,22.5657768 143.684381,22.6576423 143.75,22.83 L143.75,22.83 C143.810461,23.0093205 143.717439,23.2042229 143.54,23.27 L143.54,23.27 L143.43,23.27 L143.43,23.27 C143.302657,23.2553131 143.194398,23.1702528 143.15,23.05 L143.12,23.05 Z M117,22.63 L117,22.63 C116.917756,22.5929003 116.85363,22.5246323 116.821745,22.4402297 C116.78986,22.3558271 116.792829,22.2622119 116.83,22.18 L116.83,22.18 C116.911124,22.0128997 117.108654,21.9382771 117.28,22.01 L117.28,22.01 C117.364829,22.0469986 117.43091,22.1169781 117.462991,22.2037859 C117.495072,22.2905938 117.490381,22.3867282 117.45,22.47 L117.45,22.47 C117.393041,22.590135 117.272933,22.6676242 117.14,22.67 L117.14,22.67 C117.090233,22.6721795 117.041104,22.6581425 117,22.63 Z M146.36,21.85 C146.324273,21.7666858 146.324393,21.6723434 146.36033,21.5891199 C146.396268,21.5058964 146.464858,21.4411211 146.55,21.41 L146.55,21.41 C146.631653,21.3706647 146.726157,21.3677998 146.810043,21.4021168 C146.893929,21.4364338 146.959328,21.5047135 146.99,21.59 L146.99,21.59 C147.026562,21.6734596 147.028094,21.768102 146.994254,21.8527018 C146.960415,21.9373016 146.894034,22.0047787 146.81,22.04 L146.81,22.04 C146.767188,22.0495017 146.722812,22.0495017 146.68,22.04 L146.68,22.04 C146.531722,22.0601357 146.387045,21.9837786 146.32,21.85 L146.36,21.85 Z M30.16,21.65 C30.0588731,21.4869006 30.107941,21.2727859 30.27,21.17 L30.27,21.17 C30.3468182,21.1219045 30.4396596,21.1064698 30.5279073,21.1271235 C30.6161549,21.1477772 30.692504,21.2028097 30.74,21.28 L30.74,21.28 C30.7880955,21.3568182 30.8035302,21.4496596 30.7828765,21.5379073 C30.7622228,21.6261549 30.7071903,21.702504 30.63,21.75 L30.63,21.75 C30.5780711,21.7889466 30.5149111,21.81 30.45,21.81 L30.45,21.81 C30.3190423,21.8208936 30.1925532,21.7595655 30.12,21.65 L30.16,21.65 Z M113.95,21.1 L113.95,21.1 C113.783029,21.0076794 113.720762,20.7986381 113.81,20.63 L113.81,20.63 C113.905735,20.4666989 114.113956,20.4091058 114.28,20.5 L114.28,20.5 C114.441998,20.5918553 114.499957,20.7969399 114.41,20.96 L114.41,20.96 C114.349312,21.0692608 114.234966,21.1378683 114.11,21.14 L114.11,21.14 C114.041209,21.1414671 113.972935,21.1278123 113.91,21.1 L113.95,21.1 Z M149.47,20.48 C149.391268,20.3114864 149.462557,20.1109847 149.63,20.03 L149.63,20.03 C149.801384,19.9504141 150.004998,20.0212364 150.09,20.19 L150.09,20.19 C150.127171,20.2722119 150.13014,20.3658271 150.098255,20.4502297 C150.06637,20.5346323 150.002244,20.6029003 149.92,20.64 L149.92,20.64 C149.870447,20.6494589 149.819553,20.6494589 149.77,20.64 L149.77,20.64 C149.634813,20.6598283 149.500889,20.5968053 149.43,20.48 L149.47,20.48 Z M32.98,19.77 C32.8728831,19.6146015 32.9082737,19.402258 33.06,19.29 L33.06,19.29 C33.2128491,19.1806985 33.4247326,19.2115982 33.54,19.36 L33.54,19.36 C33.6471169,19.5153985 33.6117263,19.727742 33.46,19.84 L33.46,19.84 C33.4015833,19.8823323 33.3320653,19.9066636 33.26,19.91 L33.26,19.91 C33.136006,19.9236958 33.0140948,19.8703597 32.94,19.77 L32.98,19.77 Z M110.98,19.39 L110.98,19.39 C110.903471,19.3444246 110.848616,19.2698485 110.827901,19.1832194 C110.807185,19.0965903 110.822368,19.0052659 110.87,18.93 L110.87,18.93 C110.911721,18.8495398 110.985606,18.7905456 111.073305,18.7676676 C111.161004,18.7447895 111.254291,18.7601738 111.33,18.81 L111.33,18.81 C111.408863,18.8558425 111.465997,18.9314515 111.488563,19.019835 C111.511129,19.1082184 111.497234,19.2019626 111.45,19.28 L111.45,19.28 C111.388653,19.3824175 111.279334,19.4465014 111.16,19.45 L111.16,19.45 C111.102716,19.4427584 111.047921,19.4222104 111,19.39 L110.98,19.39 Z M152.49,18.96 C152.447565,18.8804351 152.438476,18.7872718 152.464731,18.7010051 C152.490986,18.6147383 152.550435,18.5424346 152.63,18.5 L152.63,18.5 C152.796197,18.4172893 152.998059,18.4787256 153.09,18.64 L153.09,18.64 C153.179238,18.8086381 153.116971,19.0176794 152.95,19.11 L152.95,19.11 C152.897059,19.1191447 152.842941,19.1191447 152.79,19.11 L152.79,19.11 C152.671366,19.1327851 152.549551,19.0909111 152.47,19 L152.49,18.96 Z M35.68,17.72 C35.6226557,17.6498485 35.5956841,17.55971 35.6050715,17.4695908 C35.6144589,17.3794715 35.6594288,17.2968269 35.73,17.24 L35.73,17.24 C35.8777508,17.1260616 36.0889035,17.1480567 36.21,17.29 L36.21,17.29 C36.3251591,17.4409618 36.3032767,17.6554092 36.16,17.78 L36.16,17.78 C36.09634,17.8268526 36.0190295,17.8514514 35.94,17.85 L35.94,17.85 C35.8298216,17.861697 35.7221661,17.8117141 35.66,17.72 L35.68,17.72 Z M108.1,17.57 L108.1,17.57 C107.942707,17.4677527 107.897957,17.2574251 108,17.1 L108,17.1 C108.106023,16.9414433 108.319481,16.8969729 108.48,17 L108.48,17 C108.632601,17.1054225 108.676465,17.3115846 108.58,17.47 L108.58,17.47 C108.517601,17.5699946 108.407865,17.6305386 108.29,17.63 L108.29,17.63 C108.215863,17.629355 108.143288,17.6086192 108.08,17.57 L108.1,17.57 Z M155.46,17.32 C155.412766,17.2419626 155.398871,17.1482184 155.421437,17.059835 C155.444003,16.9714515 155.501137,16.8958425 155.58,16.85 L155.58,16.85 C155.743478,16.7573473 155.950948,16.8103182 156.05,16.97 L156.05,16.97 C156.142653,17.1334782 156.089682,17.3409476 155.93,17.44 L155.93,17.44 C155.874647,17.4702962 155.813048,17.487407 155.75,17.49 L155.75,17.49 C155.623012,17.4957395 155.503429,17.4301617 155.44,17.32 L155.46,17.32 Z M105.27,15.68 C105.114888,15.5708218 105.074975,15.3579538 105.18,15.2 L105.18,15.2 C105.292081,15.0494703 105.501,15.010298 105.66,15.11 L105.66,15.11 C105.81053,15.2220814 105.849702,15.4310001 105.75,15.59 L105.75,15.59 C105.684004,15.6847867 105.575495,15.7409122 105.46,15.74 L105.46,15.74 C105.385392,15.7429114 105.311808,15.7218874 105.25,15.68 L105.27,15.68 Z M158.36,15.56 C158.264388,15.3960214 158.312522,15.1859788 158.47,15.08 L158.47,15.08 C158.546818,15.0319045 158.63966,15.0164698 158.727907,15.0371235 C158.816155,15.0577772 158.892504,15.1128097 158.94,15.19 L158.94,15.19 C158.988096,15.2668182 159.00353,15.3596596 158.982876,15.4479073 C158.962223,15.5361549 158.90719,15.612504 158.83,15.66 L158.83,15.66 C158.778811,15.700339 158.715154,15.7215579 158.65,15.72 L158.65,15.72 C158.526001,15.7236402 158.408864,15.6631824 158.34,15.56 L158.36,15.56 Z M38.36,15.56 C38.2330064,15.425199 38.2330064,15.214801 38.36,15.08 L38.36,15.08 C38.4981359,14.9516943 38.7118641,14.9516943 38.85,15.08 L38.85,15.08 C38.9822241,15.2126825 38.9822241,15.4273175 38.85,15.56 L38.85,15.56 C38.7905259,15.6153584 38.711141,15.6442256 38.63,15.64 L38.63,15.64 C38.5140009,15.6811787 38.3848977,15.6583957 38.29,15.58 L38.36,15.56 Z M161.26,13.68 C161.152883,13.5246015 161.188274,13.312258 161.34,13.2 L161.34,13.2 C161.415127,13.1468363 161.508598,13.1264005 161.599057,13.1433615 C161.689516,13.1603226 161.769235,13.2132314 161.82,13.29 L161.82,13.29 C161.923993,13.4448328 161.883836,13.6545387 161.73,13.76 L161.73,13.76 C161.673817,13.7979856 161.607809,13.8188304 161.54,13.82 L161.54,13.82 C161.409877,13.8525393 161.272783,13.8055359 161.19,13.7 L161.26,13.68 Z M102.51,13.76 C102.433859,13.711145 102.381114,13.6331737 102.3641,13.5443213 C102.347085,13.455469 102.367294,13.3635278 102.42,13.29 L102.42,13.29 C102.522247,13.1327074 102.732575,13.0879569 102.89,13.19 L102.89,13.19 C102.966769,13.2407651 103.019677,13.3204838 103.036638,13.4109428 C103.0536,13.5014018 103.033164,13.5948726 102.98,13.67 L102.98,13.67 C102.919822,13.7660641 102.813313,13.8231226 102.7,13.82 L102.7,13.82 C102.611429,13.8409822 102.518168,13.8266343 102.44,13.78 L102.51,13.76 Z M40.97,13.38 C40.9039376,13.317655 40.866495,13.2308358 40.866495,13.14 C40.866495,13.0491642 40.9039376,12.962345 40.97,12.9 L40.97,12.9 C41.104801,12.7730064 41.315199,12.7730064 41.45,12.9 L41.45,12.9 C41.5822241,13.0326825 41.5822241,13.2473175 41.45,13.38 L41.45,13.38 C41.3894027,13.4334956 41.3108053,13.4620764 41.23,13.46 L41.23,13.46 C41.1174905,13.5038688 40.9898671,13.4806645 40.9,13.4 L40.97,13.38 Z M99.69,11.88 C99.6122425,11.8327888 99.5574222,11.7555737 99.5384911,11.6665976 C99.51956,11.5776216 99.5381974,11.4847771 99.59,11.41 L99.59,11.41 C99.6372112,11.3322425 99.7144263,11.2774222 99.8034024,11.2584911 C99.8923784,11.23956 99.9852229,11.2581974 100.06,11.31 L100.06,11.31 C100.217293,11.4122473 100.262043,11.6225749 100.16,11.78 L100.16,11.78 C100.099822,11.8760641 99.9933133,11.9331226 99.88,11.93 L99.88,11.93 C99.7930193,11.9575195 99.6984279,11.9466051 99.62,11.9 L99.69,11.88 Z M164.04,11.72 C163.985339,11.6489741 163.961919,11.5587707 163.975121,11.4701245 C163.988324,11.3814783 164.037014,11.3020148 164.11,11.25 L164.11,11.25 C164.262849,11.1406985 164.474733,11.1715982 164.59,11.32 L164.59,11.32 C164.697117,11.4753985 164.661726,11.687742 164.51,11.8 L164.51,11.8 C164.450725,11.8393193 164.38113,11.8601977 164.31,11.86 L164.31,11.86 C164.192142,11.8834668 164.07134,11.8367045 164,11.74 L164.04,11.72 Z M43.58,11.21 C43.5226557,11.1398485 43.4956841,11.04971 43.5050715,10.9595908 C43.5144589,10.8694715 43.5594288,10.7868269 43.63,10.73 L43.63,10.73 C43.7777508,10.6160616 43.9889035,10.6380567 44.11,10.78 L44.11,10.78 C44.1673443,10.8501515 44.1943159,10.94029 44.1849285,11.0304092 C44.1755411,11.1205285 44.1305712,11.2031731 44.06,11.26 L44.06,11.26 C44.0005259,11.3153584 43.921141,11.3442256 43.84,11.34 L43.84,11.34 C43.7180357,11.3689911 43.5901768,11.3263715 43.51,11.23 L43.58,11.21 Z M96.84,10.05 C96.7628097,10.002504 96.7077772,9.9261549 96.6871235,9.83790727 C96.6664698,9.74965964 96.6819045,9.65681823 96.73,9.58 L96.73,9.58 C96.777496,9.50280965 96.8538451,9.4477772 96.9420927,9.4271235 C97.0303404,9.4064698 97.1231818,9.42190447 97.2,9.47 L97.2,9.47 C97.2771903,9.517496 97.3322228,9.5938451 97.3528765,9.68209273 C97.3735302,9.77034036 97.3580955,9.86318177 97.31,9.94 L97.31,9.94 C97.2486533,10.0424175 97.1393337,10.1065014 97.02,10.11 L97.02,10.11 C96.9348467,10.134206 96.8433498,10.1195665 96.77,10.07 L96.84,10.05 Z M166.76,9.69 C166.703767,9.61859714 166.678463,9.52765247 166.689736,9.43746704 C166.70101,9.34728162 166.747921,9.26536393 166.82,9.21 L166.82,9.21 C166.891403,9.15376721 166.982348,9.12846316 167.072533,9.13973634 C167.162718,9.15100951 167.244636,9.19792136 167.3,9.27 L167.3,9.27 C167.406491,9.42160298 167.380532,9.62927478 167.24,9.75 L167.24,9.75 C167.183625,9.79610084 167.112819,9.82088282 167.04,9.82 L167.04,9.82 C166.911863,9.85482441 166.775177,9.81186609 166.69,9.71 L166.76,9.69 Z M46.24,9.11 C46.1306985,8.95715092 46.1615982,8.74526735 46.31,8.63 L46.31,8.63 C46.4628491,8.52069852 46.6747326,8.55159821 46.79,8.7 L46.79,8.7 C46.8993015,8.85284908 46.8684018,9.06473265 46.72,9.18 L46.72,9.18 C46.6615833,9.22233233 46.5920653,9.24666362 46.52,9.25 L46.52,9.25 C46.3899977,9.27997597 46.2542605,9.2334375 46.17,9.13 L46.24,9.11 Z M93.93,8.32 C93.8511373,8.27415748 93.7940029,8.19854855 93.7714369,8.11016505 C93.7488709,8.02178155 93.7627662,7.92803738 93.81,7.85 L93.81,7.85 C93.8538866,7.771796 93.9277101,7.71482036 94.0144828,7.69218402 C94.1012554,7.66954767 94.1935037,7.68320022 94.27,7.73 L94.27,7.73 C94.3499003,7.77214675 94.4090298,7.84520542 94.4335971,7.93213561 C94.4581643,8.01906581 94.4460212,8.11226674 94.4,8.19 L94.4,8.19 C94.3393117,8.29926083 94.2249658,8.36786832 94.1,8.37 L94.1,8.37 C94.0188034,8.38436123 93.9351632,8.3739062 93.86,8.34 L93.93,8.32 Z M169.41,7.57 C169.352656,7.49984852 169.325684,7.40971001 169.335071,7.31959078 C169.344459,7.22947155 169.389429,7.14682694 169.46,7.09 L169.46,7.09 C169.592682,6.95777586 169.807318,6.95777586 169.94,7.09 L169.94,7.09 C170.066994,7.22480097 170.066994,7.43519903 169.94,7.57 L169.94,7.57 C169.876285,7.61800875 169.79967,7.64586875 169.72,7.65 L169.72,7.65 C169.593109,7.71047384 169.442086,7.68662811 169.34,7.59 L169.41,7.57 Z M49,7.13 C48.9468363,7.05487257 48.9264005,6.96140182 48.9433615,6.87094279 C48.9603226,6.78048376 49.0132314,6.70076512 49.09,6.65 L49.09,6.65 C49.2505194,6.54697292 49.4639772,6.59144331 49.57,6.75 L49.57,6.75 C49.6720431,6.90742512 49.6272926,7.11775269 49.47,7.22 L49.47,7.22 C49.4143615,7.25909879 49.3480026,7.28005424 49.28,7.28 L49.28,7.28 C49.1480316,7.30770763 49.0118828,7.25713806 48.93,7.15 L49,7.13 Z M91,6.71 C90.9204351,6.66756536 90.860986,6.59526168 90.8347309,6.50899495 C90.8084758,6.42272822 90.8175654,6.32956495 90.86,6.25 L90.86,6.25 C90.9006789,6.16869589 90.9722246,6.1070696 91.0586581,6.07888477 C91.1450916,6.05069995 91.2392125,6.05830449 91.32,6.1 L91.32,6.1 C91.4823942,6.19560757 91.5469858,6.39799455 91.47,6.57 L91.47,6.57 C91.4045706,6.67939265 91.2874403,6.74740379 91.16,6.75 L91.16,6.75 C91.0714738,6.78360973 90.972608,6.77628633 90.89,6.73 L91,6.71 Z M172.05,5.38 C171.917776,5.24731754 171.917776,5.03268246 172.05,4.9 L172.05,4.9 C172.184801,4.77300638 172.395199,4.77300638 172.53,4.9 L172.53,4.9 C172.656994,5.03480097 172.656994,5.24519903 172.53,5.38 L172.53,5.38 C172.471538,5.43803984 172.392379,5.47042321 172.31,5.47 L172.31,5.47 C172.183826,5.52333127 172.037971,5.49573708 171.94,5.4 L172.05,5.38 Z M51.91,5.32 C51.8635773,5.24073724 51.8512011,5.14606345 51.8756888,5.05753095 C51.9001765,4.96899845 51.9594443,4.89414108 52.04,4.85 L52.04,4.85 C52.2030601,4.76004286 52.4081447,4.81800156 52.5,4.98 L52.5,4.98 C52.5464227,5.05926276 52.5587989,5.15393655 52.5343112,5.24246905 C52.5098235,5.33100155 52.4505557,5.40585892 52.37,5.45 L52.37,5.45 C52.3140605,5.46283809 52.2559395,5.46283809 52.2,5.45 L52.2,5.45 C52.0571532,5.50834851 51.8929249,5.46318572 51.8,5.34 L51.91,5.32 Z M87.96,5.26 L87.96,5.26 C87.8777559,5.22290034 87.8136303,5.15463226 87.7817449,5.07022969 C87.7498595,4.98582713 87.7528292,4.89221195 87.79,4.81 L87.79,4.81 C87.8270997,4.72775593 87.8953677,4.66363035 87.9797703,4.63174494 C88.0641729,4.59985952 88.1577881,4.6028292 88.24,4.64 L88.24,4.64 C88.3241562,4.67488367 88.3901483,4.74300485 88.4223429,4.82822601 C88.4545376,4.91344717 88.4500705,5.00818622 88.41,5.09 L88.41,5.09 C88.3549624,5.21180565 88.2336628,5.29006342 88.1,5.29 L88.1,5.29 C88.018281,5.31758365 87.9292547,5.3140226 87.85,5.28 L87.96,5.26 Z M84.73,4 C84.6430451,3.97094578 84.5720961,3.90702716 84.5341585,3.82356433 C84.4962208,3.74010149 84.4947143,3.64461814 84.53,3.56 L84.53,3.56 C84.5997049,3.38651191 84.7934564,3.29844306 84.97,3.36 L84.97,3.36 C85.1434881,3.42970494 85.2315569,3.62345641 85.17,3.8 L85.17,3.8 C85.1223369,3.93497469 84.9930918,4.02383071 84.85,4.02 L84.85,4.02 C84.8089634,4.02331592 84.767743,4.01644585 84.73,4 L84.73,4 Z M54.8,3.76 C54.7282771,3.58865417 54.8028997,3.39112374 54.97,3.31 L54.97,3.31 C55.0532718,3.26961907 55.1494062,3.26492778 55.2362141,3.29700895 C55.3230219,3.32909011 55.3930014,3.39517131 55.43,3.48 L55.43,3.48 C55.4665617,3.56345963 55.4680944,3.658102 55.4342545,3.7427018 C55.4004146,3.82730159 55.3340341,3.89477866 55.25,3.93 L55.25,3.93 C55.2039054,3.94033347 55.1560946,3.94033347 55.11,3.93 L55.11,3.93 C54.9850952,3.93778348 54.866012,3.87632119 54.8,3.77 L54.8,3.76 Z M81.53,2.95 C81.349667,2.89244694 81.2477714,2.70194651 81.3,2.52 L81.3,2.52 C81.3575531,2.33966695 81.5480535,2.23777138 81.73,2.29 L81.73,2.29 C81.910333,2.34755306 82.0122286,2.53805349 81.96,2.72 L81.96,2.72 C81.9128343,2.86247887 81.7800796,2.95902773 81.63,2.96 L81.53,2.96 L81.53,2.95 Z M57.94,2.48 C57.9117216,2.39381171 57.9190559,2.29989694 57.9603716,2.21914359 C58.0016872,2.13839024 58.0735584,2.07749436 58.16,2.05 L58.16,2.05 C58.2461883,2.02172163 58.3401031,2.02905589 58.4208564,2.07037156 C58.5016098,2.11168723 58.5625056,2.18355841 58.59,2.27 L58.59,2.27 C58.6182784,2.35618829 58.6109441,2.45010306 58.5696284,2.53085641 C58.5283128,2.61160976 58.4564416,2.67250564 58.37,2.7 L58.37,2.7 L58.26,2.7 L58.26,2.7 C58.1203201,2.70238882 57.9933944,2.61909385 57.94,2.49 L57.94,2.48 Z M78.27,2.12 C78.0886352,2.0800506 77.9728795,1.9019649 78.01,1.72 L78.01,1.72 C78.0264321,1.62923991 78.0800983,1.54949886 78.157992,1.50010281 C78.2358858,1.45070677 78.3308974,1.43616433 78.42,1.46 L78.42,1.46 C78.5085352,1.47670758 78.5863895,1.52888831 78.6354918,1.60443031 C78.6845941,1.67997231 78.7006743,1.77230621 78.68,1.86 L78.68,1.86 C78.646363,2.02006484 78.5035236,2.13349615 78.34,2.13 L78.27,2.13 L78.27,2.12 Z M61.19,1.55 C61.169392,1.45964634 61.1865592,1.36479582 61.2375291,1.28739718 C61.2884989,1.20999855 61.368854,1.15675959 61.46,1.14 L61.46,1.14 C61.6419649,1.10287946 61.8200506,1.21863517 61.86,1.4 L61.86,1.4 C61.8808174,1.4889164 61.864991,1.5824692 61.8160849,1.65959041 C61.7671787,1.73671163 61.6893047,1.79091716 61.6,1.81 L61.53,1.81 C61.3735213,1.8120482 61.2346986,1.70997269 61.19,1.56 L61.19,1.55 Z M74.96,1.55 L74.96,1.55 C74.77412,1.51924413 74.6459405,1.34686472 74.67,1.16 L74.67,1.16 C74.679823,1.07020069 74.7260291,0.988354072 74.797841,0.933550253 C74.8696529,0.878746434 74.9607917,0.855777218 75.05,0.87 L75.05,0.87 C75.23588,0.900755872 75.3640595,1.07313528 75.34,1.26 L75.34,1.26 C75.3111571,1.42585423 75.1683275,1.54767947 75,1.55 L75,1.55 L74.96,1.55 Z M64.53,1 C64.5124587,0.81552017 64.6458783,0.65096932 64.83,0.63 L64.83,0.63 C64.9207866,0.615790655 65.0133865,0.640079264 65.0855109,0.697019537 C65.1576352,0.753959811 65.2027514,0.838394462 65.21,0.93 L65.21,0.93 C65.2275129,1.1199883 65.0896346,1.28900045 64.9,1.31 L64.9,1.31 C64.7137405,1.32184486 64.5509536,1.1854558 64.53,1 L64.53,1 Z M71.61,1.22 L71.61,1.22 C71.5187732,1.21761534 71.4326066,1.17755981 71.3719782,1.10935275 C71.3113497,1.0411457 71.2816727,0.950877238 71.29,0.86 L71.29,0.86 C71.295151,0.76976945 71.3360147,0.685302585 71.4035636,0.625259068 C71.4711126,0.565215551 71.5597878,0.534536768 71.65,0.54 L71.65,0.54 C71.8394571,0.555946405 71.9815343,0.720223194 71.97,0.91 L71.97,0.91 C71.9593982,1.08992394 71.8102357,1.23031208 71.63,1.23 L71.63,1.23 L71.61,1.22 Z M67.91,0.78 C67.9071979,0.688996276 67.9421186,0.600878284 68.0064984,0.536498436 C68.0708783,0.472118588 68.1589963,0.437197874 68.25,0.44 L68.25,0.44 C68.4377768,0.44 68.59,0.592223185 68.59,0.78 L68.59,0.78 C68.59,0.967776815 68.4377768,1.12 68.25,1.12 L68.25,1.12 C68.1562518,1.12016234 68.0665966,1.08160882 68.0022268,1.01345251 C67.9378569,0.945296204 67.9044852,0.853586039 67.91,0.76 L67.91,0.78 Z" id="Shape"></path>
                        <path d="M1,24.06 C0.957153717,24.0691881 0.912846283,24.0691881 0.87,24.06 C0.827315322,24.0427798 0.789534001,24.0153024 0.76,23.98 C0.725586628,23.9516891 0.701071278,23.913165 0.69,23.87 C0.679801169,23.8272668 0.679801169,23.7827332 0.69,23.74 C0.693202091,23.6505369 0.728730614,23.5652684 0.79,23.5 C0.820125967,23.4677024 0.857982969,23.4436116 0.9,23.43 C0.982164462,23.3904935 1.07783554,23.3904935 1.16,23.43 C1.20316497,23.4410713 1.24168909,23.4655866 1.27,23.5 C1.33477188,23.5629446 1.37091424,23.6496862 1.37,23.74 C1.3805878,23.7826866 1.3805878,23.8273134 1.37,23.87 C1.35503284,23.9138934 1.32714653,23.9522371 1.29,23.98 C1.260466,24.0153024 1.22268468,24.0427798 1.18,24.06 C1.12163538,24.0798114 1.05836462,24.0798114 1,24.06 Z" id="Path"></path>
                    </g>
                    <path d="M268.88,161.65 L268.88,161.65 L266.54,159.14 C262.338278,163.117162 256.785341,165.354059 251,165.4 C241.514933,165.552732 233.288983,158.874155 231.49,149.56 L227.98,150.48 L227.98,150.48 L224.78,151.32 C225.686547,156.055544 227.892028,160.445732 231.15,164 C241.3,174.94 259.29,174.94 271.01,164 L268.88,161.65 Z" id="Path" fill="#FFFFFF" fill-rule="nonzero"></path>
                    <path d="M273.87,124.09 L270.81,127 L270.81,127 L268.7,129 C272.463722,133.086639 274.342557,138.563551 273.88,144.1 C273.428397,149.885497 270.806508,155.286447 266.54,159.22 L268.37,161.22 L268.37,161.22 L271,164 C276.642449,158.79822 280.104787,151.652011 280.69,144 C281.277054,136.704607 278.806857,129.493224 273.87,124.09 Z" id="Path" fill="#263238" fill-rule="nonzero"></path>
                    <path d="M273.87,124.09 C263.72,113.17 245.73,113.17 234.01,124.09 C226.46611,130.983112 222.975704,141.258113 224.76,151.32 L228.76,150.32 L228.76,150.32 L231.51,149.6 C231.15714,147.775844 231.046185,145.913145 231.18,144.06 C232.168447,132.127812 242.028978,122.880863 254,122.66 C259.54815,122.599306 264.866954,124.8705 268.66,128.92 L271.37,126.39 L271.37,126.39 L273.87,124.09 Z" id="Path" fill="#407BFF" fill-rule="nonzero"></path>
                    <path d="M302.59,161.65 L302.59,161.65 L305.28,159.13 C301.520514,155.029285 299.646116,149.543862 300.11,144 C300.951424,134.155267 307.880801,125.897626 317.43,123.36 L316.76,119.92 L316.76,119.92 L316.14,116.78 C311.225378,118.098703 306.712013,120.609563 303,124.09 C291.27,135 290,153 300.13,164 L302.59,161.65 Z" id="Path" fill="#FFFFFF" fill-rule="nonzero"></path>
                    <path d="M340,164 L337.36,161.15 L337.36,161.15 L335.53,159.15 C331.32871,163.120318 325.780318,165.353251 320,165.4 C314.449366,165.458568 309.128294,163.187954 305.33,159.14 L303.22,161.14 L303.22,161.14 L300.22,163.98 C305.225773,169.313838 312.235439,172.309173 319.55,172.24 C327.160338,172.162769 334.462114,169.220636 340,164 L340,164 Z" id="Path" fill="#263238" fill-rule="nonzero"></path>
                    <path d="M340,164 C351.71,153.07 353,135.08 342.86,124.14 C335.991013,116.96265 325.723318,114.159223 316.16,116.85 L316.92,120.73 L316.92,120.73 L317.45,123.43 C319.275051,122.952837 321.153602,122.710877 323.04,122.71 C328.57918,122.636208 333.891417,124.9075 337.665055,128.963065 C341.438693,133.018631 343.322013,138.480475 342.85,144 C342.395939,149.781958 339.774251,155.178922 335.51,159.11 L337.85,161.64 L337.85,161.64 L340,164 Z" id="Path" fill="#407BFF" fill-rule="nonzero"></path>
                    <path d="M387.22,118.35 C387.774585,118.340447 388.306472,118.56996 388.68,118.98 C389.058147,119.391726 389.246715,119.942926 389.2,120.5 L388,137.74 C387.875032,138.999556 386.835139,139.970979 385.57,140.010006 L368.29,140.010006 C367.734395,140.011363 367.203262,139.781542 366.823892,139.375615 C366.444521,138.969689 366.251106,138.424244 366.29,137.87 L367.53,120.62 C367.650714,119.358345 368.693057,118.384634 369.96,118.35 L387.21,118.35 L387.22,118.35 Z M387.21,117.469929 L370,117.469929 C368.267815,117.499512 366.83839,118.83393 366.69,120.56 L365.45,137.81 C365.382346,138.610006 365.655262,139.40144 366.201643,139.989704 C366.748023,140.577968 367.517183,140.90849 368.32,140.90016 L385.57,140.90016 C387.300335,140.865919 388.727179,139.53391 388.88,137.81 L390.11,120.56 C390.177481,119.761744 389.905885,118.971945 389.361722,118.384021 C388.81756,117.796097 388.051084,117.464342 387.25,117.469929 L387.21,117.469929 Z" id="Shape" fill="#407BFF" fill-rule="nonzero" opacity="0.3"></path>
                    <path d="M385.09,147.999992 C385.647475,147.99843 386.180307,148.229607 386.560007,148.637784 C386.939707,149.045962 387.131813,149.594093 387.09,150.15 L385.86,167.39 C385.739286,168.651655 384.696943,169.625366 383.43,169.660006 L366.16,169.660006 C365.604395,169.661363 365.073262,169.431542 364.693892,169.025615 C364.314521,168.619689 364.121106,168.074244 364.16,167.52 L365.4,150.27 C365.520714,149.008345 366.563057,148.034634 367.83,147.999992 L385.08,147.999992 L385.09,147.999992 Z M385.08,147.12 L367.84,147.12 C366.107815,147.149512 364.67839,148.48393 364.53,150.21 L363.29,167.46 C363.222346,168.260006 363.495262,169.05144 364.041643,169.639704 C364.588023,170.227968 365.357183,170.55849 366.16,170.55016 L383.41,170.55016 C385.142185,170.520488 386.57161,169.18607 386.72,167.46 L388,150.24 C388.073876,149.440257 387.804464,148.64679 387.258913,148.057366 C386.713361,147.467942 385.94306,147.138081 385.14,147.15 L385.08,147.12 Z" id="Shape" fill="#407BFF" fill-rule="nonzero" opacity="0.3"></path>
                    <path d="M359.84,243.48 C360.308625,243.468802 360.759387,243.659899 361.077178,244.004491 C361.394969,244.349084 361.549023,244.813812 361.5,245.28 C361.412256,246.355977 360.519483,247.188076 359.44,247.2 C358.974798,247.208998 358.527671,247.019969 358.21,246.68 C357.890343,246.333903 357.730701,245.869488 357.77,245.4 C357.862642,244.322447 358.758533,243.491475 359.84,243.48 L359.84,243.48 Z M359.84,242.59 C358.295285,242.610385 357.018603,243.800512 356.89,245.34 C356.824607,246.052468 357.065145,246.759148 357.551616,247.283774 C358.038088,247.8084 358.72463,248.101512 359.44,248.09 C360.980862,248.064521 362.251788,246.87573 362.38,245.34 C362.445191,244.62929 362.205966,243.924268 361.721723,243.39999 C361.237481,242.875712 360.553641,242.581352 359.84,242.59 L359.84,242.59 Z" id="Shape" fill="#407BFF" fill-rule="nonzero"></path>
                    <polygon id="Path" fill="#407BFF" fill-rule="nonzero" points="360.06 242.61 359.62 242.58 359.68 241.7 360.12 241.73"></polygon>
                    <path d="M360.25,239.92 L359.81,239.92 L359.94,238.12 L360.38,238.12 L360.25,239.92 Z M360.51,236.31 L360.07,236.31 L360.2,234.5 L360.64,234.5 L360.51,236.31 Z M360.76,232.7 L360.33,232.7 L360.46,230.89 L360.89,230.89 L360.76,232.7 Z M361.02,229.09 L360.58,229.09 L360.71,227.28 L361.15,227.28 L361.02,229.09 Z M361.28,225.48 L360.84,225.48 L360.97,223.68 L361.41,223.68 L361.28,225.48 Z M361.54,221.86 L361.1,221.86 L361.23,220.06 L361.67,220.06 L361.54,221.86 Z M361.8,218.25 L361.36,218.25 L361.49,216.44 L361.93,216.44 L361.8,218.25 Z M362.06,214.64 L361.62,214.64 L361.75,212.83 L362.19,212.83 L362.06,214.64 Z M362.32,211.03 L361.88,211.03 L362.01,209.22 L362.45,209.22 L362.32,211.03 Z M362.58,207.42 L362.14,207.42 L362.27,205.61 L362.71,205.61 L362.58,207.42 Z M362.84,203.8 L362.4,203.8 L362.53,202 L362.97,202 L362.84,203.8 Z" id="Shape" fill="#407BFF" fill-rule="nonzero"></path>
                    <rect id="Rectangle" fill="#407BFF" fill-rule="nonzero" transform="translate(362.903164, 199.732547) rotate(-85.940000) translate(-362.903164, -199.732547) " x="362.463164" y="199.512547" width="1" height="1"></rect>
                    <path d="M381.58,199.78007 L223.23,199.78007 C222.353706,199.785858 221.515346,199.422927 220.919934,198.779958 C220.324522,198.136989 220.026954,197.273263 220.1,196.4 L220.88,185.5 C221.038433,183.653018 222.566551,182.224185 224.42,182.189838 L382.77,182.189838 C383.647277,182.181042 384.48753,182.543035 385.083628,183.186744 C385.679726,183.830454 385.976212,184.695994 385.9,185.57 L385.12,196.47 C384.961567,198.316982 383.433449,199.745815 381.58,199.78007 L381.58,199.78007 Z M224.42,183.15 C223.064822,183.175595 221.947399,184.219674 221.83,185.57 L221.05,196.47 C221.001495,197.078446 221.207948,197.679697 221.62,198.13 C222.033649,198.579161 222.61947,198.830227 223.23,198.82 L381.58,198.82 C382.935178,198.794405 384.052601,197.750326 384.17,196.4 L384.95,185.5 C385.003787,184.891494 384.797397,184.288666 384.381943,183.840815 C383.966489,183.392963 383.380826,183.141971 382.77,183.15 L224.42,183.15 Z" id="Shape" fill="#407BFF" fill-rule="nonzero"></path>
                    <path d="M378.18,189.22 L228.07,189.22 C227.685784,189.224326 227.317667,189.065922 227.056649,188.783947 C226.795631,188.501971 226.666072,188.12274 226.7,187.74 L226.7,187.74 C226.771752,186.911778 227.458766,186.272293 228.29,186.26 L378.39,186.26 C378.775944,186.252812 379.146761,186.409968 379.410007,186.69229 C379.673254,186.974613 379.804127,187.355501 379.77,187.74 L379.77,187.74 C379.698248,188.568222 379.011234,189.207707 378.18,189.22 Z" id="Path" fill="#FFFFFF" opacity="0.8"></path>
                    <path d="M353.16,195.48 L227.63,195.48 C227.243139,195.484313 226.87249,195.324854 226.609599,195.041009 C226.346709,194.757163 226.216088,194.375396 226.25,193.99 L226.25,193.99 C226.321752,193.161778 227.008766,192.522293 227.84,192.51 L353.37,192.51 C353.754968,192.505945 354.123876,192.664056 354.386425,192.945631 C354.648975,193.227205 354.780933,193.606256 354.75,193.99 L354.75,193.99 C354.67863,194.820004 353.992885,195.462619 353.16,195.48 L353.16,195.48 Z" id="Path" fill="#FFFFFF" opacity="0.8"></path>
                </g>
            </g>
        </g>
    </g>
</svg>