<?xml version="1.0" encoding="UTF-8"?>
<svg width="320px" height="293px" viewBox="0 0 320 293" version="1.1" xmlns="http://www.w3.org/2000/svg" xmlns:xlink="http://www.w3.org/1999/xlink">
    <!-- Generator: Sketch 61 (89581) - https://sketch.com -->
    <title>Group 151</title>
    <desc>Created with Sketch.</desc>
    <g id="SAAS" stroke="none" stroke-width="1" fill="none" fill-rule="evenodd">
        <g id="You-got-new-email!" transform="translate(-560.000000, -344.000000)">
            <g id="Group-151" transform="translate(560.000000, 344.000000)">
                <g id="Group-150">
                    <polygon id="Fill-2" fill="#D1E3FF" points="258.971448 263.15545 279.093641 263.15545 279.093641 262.959824 258.971448 262.959824"></polygon>
                    <polygon id="Fill-3" fill="#D1E3FF" points="292.317597 267.067202 309.660502 267.067202 309.660502 266.872357 292.317597 266.872357"></polygon>
                    <polygon id="Fill-4" fill="#D1E3FF" points="146.743515 266.491277 158.935273 266.491277 158.935273 266.296432 146.743515 266.296432"></polygon>
                    <polygon id="Fill-5" fill="#D1E3FF" points="96.8784025 266.491277 142.383745 266.491277 142.383745 266.296432 96.8784025 266.296432"></polygon>
                    <polygon id="Fill-6" fill="#D1E3FF" points="49.0420936 265.252568 77.9943934 265.252568 77.9943934 265.057724 49.0420936 265.057724"></polygon>
                    <polygon id="Fill-7" fill="#D1E3FF" points="180.644765 262.030206 246.248824 262.030206 246.248824 261.834579 180.644765 261.834579"></polygon>
                    <polygon id="Fill-8" fill="#D1E3FF" points="21.3908335 265.155538 40.4596235 265.155538 40.4596235 264.959911 21.3908335 264.959911"></polygon>
                    <g id="Group-38" transform="translate(0.000000, 0.476547)">
                        <path d="M5.47543674,0.501743319 C3.19596661,0.501743319 1.34209854,2.41731981 1.34209854,4.77266509 L1.34209854,217.169251 C1.34209854,219.524596 3.19596661,221.440173 5.47543674,221.440173 L151.709125,221.440173 C153.987081,221.440173 155.841706,219.524596 155.841706,217.169251 L155.841706,4.77266509 C155.841706,2.41731981 153.987081,0.501743319 151.709125,0.501743319 L5.47543674,0.501743319 Z M151.709125,221.635799 L5.47543674,221.635799 C3.09221664,221.635799 1.15277378,219.632582 1.15277378,217.169251 L1.15277378,4.77266509 C1.15277378,2.31011639 3.09221664,0.306116635 5.47543674,0.306116635 L151.709125,0.306116635 C154.091588,0.306116635 156.031031,2.31011639 156.031031,4.77266509 L156.031031,217.169251 C156.031031,219.632582 154.091588,221.635799 151.709125,221.635799 L151.709125,221.635799 Z" id="Fill-9" fill="#D1E3FF"></path>
                        <path d="M169.276873,0.501743319 C166.99816,0.501743319 165.144292,2.41731981 165.144292,4.77266509 L165.144292,217.169251 C165.144292,219.524596 166.99816,221.440173 169.276873,221.440173 L315.510562,221.440173 C317.789274,221.440173 319.6439,219.524596 319.6439,217.169251 L319.6439,4.77266509 C319.6439,2.41731981 317.789274,0.501743319 315.510562,0.501743319 L169.276873,0.501743319 Z M315.510562,221.635799 L169.276873,221.635799 C166.89441,221.635799 164.954967,219.632582 164.954967,217.169251 L164.954967,4.77266509 C164.954967,2.31011639 166.89441,0.306116635 169.276873,0.306116635 L315.510562,0.306116635 C317.893782,0.306116635 319.833224,2.31011639 319.833224,4.77266509 L319.833224,217.169251 C319.833224,219.632582 317.893782,221.635799 315.510562,221.635799 L315.510562,221.635799 Z" id="Fill-11" fill="#D1E3FF"></path>
                        <polygon id="Fill-13" fill="#E3EEFF" points="209.933305 256.534661 224.549177 256.534661 224.549177 158.085141 209.933305 158.085141"></polygon>
                        <polygon id="Fill-15" fill="#E3EEFF" points="216.269323 227.730979 218.53289 226.6073 199.102111 184.80266 196.838545 185.925557"></polygon>
                        <path d="M211.468199,190.668095 C211.468199,190.668095 214.147523,204.294668 228.418824,200.278843 C234.660482,198.522116 236.017562,193.678399 235.709341,189.045959 C241.473902,193.292623 250.153306,196.748955 249.312704,178.130772 C249.312704,178.130772 267.907425,192.767561 274.141511,171.722042 C280.374082,150.676524 263.683968,148.694434 263.683968,148.694434 C263.683968,148.694434 287.157967,128.654437 279.144986,112.227273 C270.514048,94.5324478 255.477876,103.682299 255.477876,103.682299 C255.477876,103.682299 258.588103,80.2235296 241.804841,81.2337458 C239.648054,81.3636419 237.669231,82.3292552 236.190984,83.8559259 C230.443084,80.7016412 223.185887,90.3327341 223.185887,90.3327341 C223.185887,90.3327341 221.740961,78.52862 210.329221,82.7893692 C205.337106,84.6533003 204.035309,88.9688249 204.052727,93.0128197 C199.727035,89.5901352 193.073405,87.010993 192.829555,103.286351 C192.829555,103.286351 178.92403,91.422766 173.001194,110.191973 C167.078358,128.960397 180.10163,129.831327 180.10163,129.831327 C180.10163,129.831327 160.676152,148.613836 166.175658,162.595666 C172.100008,177.656573 184.362951,168.856503 184.362951,168.856503 C184.362951,168.856503 181.366319,186.220327 191.02794,187.800208 C190.421344,191.318358 191.839765,195.00866 194.910613,196.878851 C202.568421,201.542592 211.468199,190.668095 211.468199,190.668095" id="Fill-16" fill="#E3EEFF"></path>
                        <polygon id="Fill-17" fill="#F3F8FF" points="298.573871 160.686037 298.573871 256.538417 27.6501373 256.538417 27.6501373 160.342516 144.327201 144.018643"></polygon>
                        <polygon id="Fill-18" fill="#E3EEFF" points="144.327429 144.0188 27.6518791 160.34189 27.6518791 256.534661 144.327429 256.534661"></polygon>
                        <polygon id="Fill-19" fill="#D1E3FF" points="156.587646 256.534661 212.231708 256.534661 212.231708 182.801399 156.587646 182.801399"></polygon>
                        <polygon id="Fill-20" fill="#E3EEFF" points="159.213202 256.534661 209.606152 256.534661 209.606152 185.285858 159.213202 185.285858"></polygon>
                        <polygon id="Fill-21" fill="#D1E3FF" points="184.197254 256.534661 184.622099 256.534661 184.622099 185.285858 184.197254 185.285858"></polygon>
                        <polygon id="Fill-22" fill="#D1E3FF" points="309.076246 164.17899 144.362189 146.38244 17.2245528 164.170383 16.6141698 159.51838 144.292517 141.654534 144.56363 141.683487 309.548043 159.509773"></polygon>
                        <path d="M297.329932,52.387574 C301.723024,42.5796346 298.235661,35.5973269 287.498676,35.5973269 C280.764772,35.5973269 272.415551,38.3454906 264.284431,42.8198641 C263.365827,40.2696747 260.778893,38.7406565 256.616778,38.7406565 C249.292181,38.7406565 239.195871,43.4646497 231.274522,50.1292595 C229.358556,48.6432793 226.585327,47.7324414 223.021477,47.5868952 C216.01116,47.2864126 207.521081,50.0001459 200.139687,54.4142664 C199.500526,53.6755801 198.403957,53.2123361 196.890874,53.1434755 C192.850683,52.9721065 187.382984,55.7116626 184.666553,59.2587656 C184.497675,59.4817801 184.34773,59.6961869 184.197027,59.9113763 L192.587143,59.9113763 L199.262734,59.9113763 L222.452746,59.9113763 L233.863728,59.9113763 L242.737001,59.9113763 L256.404734,59.9113763 L258.884888,59.9113763 L292.786895,59.9113763 L302.784757,59.9113763 C306.531873,56.4346988 302.390961,52.5628555 297.329932,52.387574" id="Fill-23" fill="#F3F8FF"></path>
                        <path d="M130.309975,26.1815799 C130.016143,26.1487146 129.717767,26.132282 129.414847,26.132282 C129.692776,22.9247869 128.084273,20.8769667 124.649164,20.8769667 C122.170525,20.8769667 119.128454,21.9458709 116.028829,23.7550265 C116.915626,17.5301854 114.074998,13.4838431 107.643257,13.4838431 C102.455001,13.4838431 95.885432,16.1161957 89.397651,20.4082452 C88.8296767,17.9660417 86.9174967,16.5019716 83.7057914,16.5019716 C78.0631562,16.5019716 70.0448739,21.025643 63.6161623,27.4069854 C63.6161623,27.4069854 63.6138904,27.4148105 63.6085893,27.4069854 C62.2197028,25.9843882 60.1325867,25.1040681 57.3888922,24.9639994 C52.0158555,24.6768194 45.3448082,27.2747418 39.4303026,31.5104508 C38.9797097,30.7952396 38.1603121,30.3507758 36.9887705,30.2928703 C34.0512075,30.1371514 30.0019295,32.472934 27.6497587,35.5974834 L34.5048296,35.5974834 L39.1508593,35.5974834 L57.0200876,35.5974834 L65.3882421,35.5974834 L72.840822,35.5974834 L83.4248334,35.5974834 L103.422072,35.5974834 L111.216951,35.5974834 L113.99018,35.5974834 L125.084611,35.5974834 L135.039307,35.5974834 C137.560356,30.8601877 135.551241,26.716032 130.309975,26.1815799" id="Fill-24" fill="#F3F8FF"></path>
                        <path d="M21.4534621,256.534661 L9.92509875,256.534661 C9.92509875,256.534661 2.82769208,250.01951 0.517929988,241.277345 C-0.545317873,237.251347 4.68913314,234.469536 7.85767235,237.346813 C15.2754165,244.084979 21.4534621,256.534661 21.4534621,256.534661" id="Fill-25" fill="#F3F8FF"></path>
                        <path d="M26.3078248,256.534661 L14.7787041,256.534661 C14.7787041,256.534661 8.18641586,242.54344 10.7332126,232.35755 C11.6169805,228.82375 15.9025359,227.733718 18.2774257,230.433366 C26.9992388,240.345379 26.3078248,256.534661 26.3078248,256.534661" id="Fill-26" fill="#F3F8FF"></path>
                        <path d="M26.3207746,256.534661 L33.7612377,256.534661 C33.7612377,256.534661 38.4322582,248.03116 42.8155051,237.580783 C46.9026481,227.836226 39.9339822,223.763279 35.557551,233.343509 C29.991403,245.528704 26.3207746,256.534661 26.3207746,256.534661" id="Fill-27" fill="#F3F8FF"></path>
                        <path d="M28.3560158,256.534661 L39.8851364,256.534661 C39.8851364,256.534661 51.4937735,250.85914 50.8447682,240.118452 C50.674376,237.30847 47.5626342,235.481317 44.8106094,236.571349 C32.436343,241.472971 28.3560158,256.534661 28.3560158,256.534661" id="Fill-28" fill="#F3F8FF"></path>
                        <path d="M21.8838352,256.534661 L33.4129559,256.534661 C33.4129559,256.534661 36.8957742,236.664467 32.7669798,224.145925 C31.5325823,220.406325 27.145549,219.752149 25.1243178,223.003465 C17.6119113,235.090064 21.8838352,256.534661 21.8838352,256.534661" id="Fill-29" fill="#F3F8FF"></path>
                        <polygon id="Fill-30" fill="#D1E3FF" points="55.6699748 234.965645 116.309181 234.965645 116.309181 170.713235 55.6699748 170.713235"></polygon>
                        <polygon id="Fill-31" fill="#F5FCFF" points="58.5196912 231.657207 113.458708 231.657207 113.458708 174.020108 58.5196912 174.020108"></polygon>
                        <polygon id="Fill-32" fill="#D1E3FF" points="56.8483322 205.05902 115.130067 205.05902 115.130067 200.618295 56.8483322 200.618295"></polygon>
                        <polygon id="Fill-33" fill="#D1E3FF" points="83.8407421 233.798928 88.1384142 233.798928 88.1384142 171.878387 83.8407421 171.878387"></polygon>
                        <polyline id="Fill-34" fill="#D1E3FF" points="298.577582 234.965332 229.817858 234.965332 229.817858 171.878857 298.577582 171.878857"></polyline>
                        <polygon id="Fill-35" fill="#F5FCFF" points="232.611383 231.716677 298.577431 231.716677 298.577431 175.126573 232.611383 175.126573"></polygon>
                        <path d="M192.831524,166.009978 C192.831524,170.816134 189.060932,174.712235 184.409601,174.712235 C179.757513,174.712235 175.987678,170.816134 175.987678,166.009978 C175.987678,161.203039 179.757513,157.306938 184.409601,157.306938 C189.060932,157.306938 192.831524,161.203039 192.831524,166.009978" id="Fill-36" fill="#FFFFFF"></path>
                        <polygon id="Fill-37" fill="#D1E3FF" points="102.970116 256.538573 223.254195 256.538573 223.254195 254.309994 102.970116 254.309994"></polygon>
                    </g>
                    <g id="Group-149" transform="translate(14.405145, 48.192447)">
                        <path d="M293.969994,235.298711 C293.969994,240.192508 228.231135,244.159034 147.138039,244.159034 C66.0449422,244.159034 0.306841111,240.192508 0.306841111,235.298711 C0.306841111,230.404914 66.0449422,226.438387 147.138039,226.438387 C228.231135,226.438387 293.969994,230.404914 293.969994,235.298711" id="Fill-39" fill="#F0F6FF"></path>
                        <path d="M77.9186339,44.9776571 C77.7959515,47.2117138 77.5430136,49.2579689 77.2620556,51.3801272 C76.9795831,53.4835053 76.5971471,55.5704508 76.1617001,57.6527012 C75.3097387,61.8179845 74.1344106,65.9511851 72.5145479,69.9818773 L71.8617561,71.4827252 L71.6981795,71.857546 L71.6163912,72.0445651 C71.5898858,72.1048181 71.5686814,72.1580286 71.504311,72.2855772 C71.2960537,72.7143908 71.0302418,73.1666797 70.6515923,73.6080135 C70.2721854,74.0446523 69.795087,74.4687709 69.2331711,74.765341 C68.6848866,75.0611285 68.0790474,75.2551902 67.5413651,75.3146607 C66.4432815,75.4476869 65.5905627,75.2473651 64.8711286,75.0266982 C63.4602805,74.5478041 62.4530728,73.892846 61.5026625,73.2253677 C60.56967,72.5445869 59.7373984,71.8278107 58.9414771,71.0938194 C55.8176185,68.1054262 53.2253839,64.9151462 50.8406492,61.4408163 L53.3533674,59.2451024 C54.7581572,60.6074466 56.2250454,61.9862235 57.6881472,63.2945747 C59.1436759,64.6162286 60.6514583,65.8651094 62.1630272,66.9801815 C62.9157825,67.5373263 63.6776253,68.0569107 64.4235649,68.4818119 C65.1543585,68.9082781 65.9109002,69.2541461 66.4152614,69.3519594 C66.652296,69.4004748 66.8060277,69.363697 66.6962193,69.3488294 C66.593984,69.3175291 66.231995,69.4951581 66.1441483,69.6086216 C66.0911374,69.660267 66.0835644,69.6680921 66.0896228,69.6328793 L66.3168125,69.017829 L66.814358,67.6719174 C68.0517846,64.022306 68.9862917,60.191153 69.7079976,56.295052 C70.0828607,54.3505228 70.3479153,52.3762583 70.6326598,50.4090363 C70.9052874,48.458247 71.1226323,46.416687 71.2884808,44.5488434 L77.9186339,44.9776571 Z" id="Fill-41" fill="#FFC3BD"></path>
                        <path d="M73.3962712,36.7964709 C70.7184618,37.5007269 68.8456612,48.887765 68.8456612,48.887765 L76.2240258,54.0726546 C76.2240258,54.0726546 83.2994708,42.5854557 81.2396174,39.543852 C79.0941892,36.3754823 77.3039343,35.768257 73.3962712,36.7964709" id="Fill-43" fill="#0053CC"></path>
                        <polygon id="Fill-45" fill="#004DAA" points="73.6380768 39.3396178 71.5812526 50.8166441 75.7282221 53.7220916"></polygon>
                        <path d="M53.4272798,58.820123 L49.9171987,53.0913912 L47.9262595,59.6010647 C47.9262595,59.6010647 50.8055105,62.7209191 53.4083473,61.9775377 L53.4272798,58.820123 Z" id="Fill-47" fill="#FFC3BD"></path>
                        <polygon id="Fill-49" fill="#FFC3BD" points="44.7716546 51.1967859 43.3903412 56.7400636 47.9265625 59.6009082 49.9167444 53.0912347"></polygon>
                        <polygon id="Fill-51" fill="#FFC3BD" points="87.8840835 228.444108 81.3864577 228.444108 80.9532826 212.897264 87.4501512 212.897264"></polygon>
                        <polygon id="Fill-53" fill="#FFC3BD" points="145.216165 197.260041 140.264187 201.606083 128.931964 191.154141 133.883185 186.808881"></polygon>
                        <path d="M138.90741,201.085403 L143.709443,195.405187 C143.884379,195.198605 144.165337,195.15635 144.384954,195.303461 L149.281649,198.582947 C149.789797,198.922555 149.876886,199.708974 149.46643,200.178478 C147.758721,202.128485 146.83936,202.981417 144.727253,205.479179 C143.428485,207.016022 141.684425,209.40032 139.890384,211.522478 C138.134965,213.597686 135.969847,211.924687 136.53252,210.875345 C139.058112,206.168567 138.450001,204.515913 138.493924,202.202041 C138.501497,201.784964 138.651443,201.387451 138.90741,201.085403" id="Fill-55" fill="#14365B"></path>
                        <path d="M81.1641147,227.666218 L88.4637202,227.666218 C88.7287749,227.666218 88.9446051,227.85715 88.9817128,228.124767 L89.8132271,234.092164 C89.8995592,234.711126 89.3845959,235.297224 88.7719409,235.286269 C86.2274161,235.240883 85.0005917,235.085947 81.7911583,235.085947 C79.8161224,235.085947 75.7312513,235.298789 73.0042175,235.298789 C70.3370102,235.298789 70.1317822,232.5115 71.2677308,232.259533 C76.3590523,231.128811 78.3628655,229.568492 80.0781479,228.078599 C80.3878832,227.810982 80.7756203,227.666218 81.1641147,227.666218" id="Fill-57" fill="#14365B"></path>
                        <polygon id="Fill-59" fill="#F29994" points="80.9544943 212.900942 81.1763829 220.914594 87.6762807 220.914594 87.454392 212.900942"></polygon>
                        <polygon id="Fill-61" fill="#F29994" points="133.887729 186.810055 128.933478 191.158445 134.777555 196.542874 139.731805 192.195266"></polygon>
                        <path d="M78.0557808,6.48998499 C82.4420568,-0.24739801 92.9526103,-2.48536728 99.4971887,3.55558473 C107.827478,11.2444959 102.773264,26.3265308 115.584492,22.3091412 C128.394963,18.2925341 140.386036,19.2706675 140.448892,26.1176015 C140.511748,32.9645354 148.341463,24.2755806 157.550976,31.3009261 C176.193407,45.5190735 161.936495,82.0879608 145.538699,68.117868 C134.790353,58.9601917 131.024305,55.0327904 125.659599,62.0104029 C120.29565,68.987233 101.206413,65.6999222 99.4971887,56.8967214 C97.7879647,48.0935206 85.6075669,52.3973077 78.9812002,44.7021364 C72.3548335,37.0077477 68.7076813,20.8458536 78.0557808,6.48998499" id="Fill-63" fill="#0F264C"></path>
                        <path d="M73.3962712,36.7964709 C73.3962712,36.7964709 70.30119,37.9224981 76.5011973,77.3154522 L102.888525,77.3154522 C102.445505,66.2179417 102.433389,59.3749203 107.566361,36.6016267 C107.566361,36.6016267 102.037321,35.359006 96.3606075,35.0765211 C91.9205632,34.8558542 88.2824986,34.7087429 84.378622,35.0773036 C79.2327749,35.5624578 73.3962712,36.7964709 73.3962712,36.7964709" id="Fill-65" fill="#0053CC"></path>
                        <path d="M95.1733898,21.1356158 C94.4176053,25.1193576 93.6633355,32.4177979 96.3608347,35.0767558 C96.3608347,35.0767558 95.3066744,39.1176206 88.1433827,39.1176206 C80.265958,39.1176206 84.3788492,35.0767558 84.3788492,35.0767558 C88.6780358,34.0156767 88.5667129,30.7205408 87.8185014,27.6249442 L95.1733898,21.1356158 Z" id="Fill-67" fill="#FFC3BD"></path>
                        <path d="M92.1749399,23.7834621 L87.8212277,27.6216577 C88.0014649,28.354084 88.1408079,29.0974654 88.1907896,29.8189366 C89.8333713,29.574012 92.0893651,27.7108634 92.2635439,25.9345731 C92.3506333,25.047993 92.3150402,24.1958432 92.1749399,23.7834621" id="Fill-69" fill="#F29994"></path>
                        <path d="M99.2398585,13.8286462 C97.7282896,20.3054544 97.2224138,23.0802233 93.4450062,25.8557747 C87.7637487,30.0304481 80.395229,26.6954044 80.0037054,19.8821183 C79.650804,13.749613 82.1824547,4.18738067 88.8322977,2.71705051 C95.384449,1.26784803 100.751427,7.35183791 99.2398585,13.8286462" id="Fill-71" fill="#FFC3BD"></path>
                        <path d="M76.501273,77.3152174 C76.501273,77.3152174 71.3766304,129.02874 71.8022324,149.501464 C72.2452524,170.796602 79.7970385,219.362883 79.7970385,219.362883 L88.5824647,219.362883 C88.5824647,219.362883 87.1920637,172.040788 87.9690525,151.127513 C88.8149555,128.328397 95.8237582,77.3152174 95.8237582,77.3152174 L76.501273,77.3152174 Z" id="Fill-73" fill="#19437F"></path>
                        <polygon id="Fill-75" fill="#4EA4F9" points="89.3439289 219.688327 79.0355743 219.688327 78.2797898 216.290683 89.8232992 215.875172"></polygon>
                        <path d="M87.8833262,90.1818975 C81.402361,103.653533 86.5822865,128.22894 88.8738734,137.372531 C90.0492015,123.64032 92.0302958,106.854768 93.5751859,94.5279399 C92.592969,87.5534573 90.8723856,83.9711415 87.8833262,90.1818975" id="Fill-77" fill="#133A68"></path>
                        <path d="M83.4697116,77.3152174 C83.4697116,77.3152174 89.447073,131.078908 93.9613326,148.338659 C99.3199807,168.831728 132.610089,196.410395 132.610089,196.410395 L139.362168,190.483689 C139.362168,190.483689 115.233863,160.524636 111.136875,149.729956 C102.391586,126.688262 109.877487,92.3503019 102.888374,77.3152174 L83.4697116,77.3152174 Z" id="Fill-79" fill="#19437F"></path>
                        <polygon id="Fill-81" fill="#4EA4F9" points="140.440183 190.165444 132.062941 197.517877 128.933781 195.579608 138.410622 186.471229"></polygon>
                        <path d="M89.3136369,13.8996978 C89.2220037,14.4325849 88.8744035,14.8152307 88.5374054,14.7534126 C88.19965,14.6915946 88.0004804,14.2095704 88.0921136,13.6759009 C88.1837468,13.1430138 88.531347,12.760368 88.8683451,12.8229685 C89.2053432,12.884004 89.4052701,13.3660282 89.3136369,13.8996978" id="Fill-83" fill="#0F264C"></path>
                        <path d="M83.4811469,12.8322021 C83.3895137,13.3658717 83.0419134,13.747735 82.7049153,13.6859169 C82.36716,13.6240989 82.1679903,13.1420748 82.2596235,12.6084052 C82.3504994,12.0755181 82.6980997,11.6928723 83.035855,11.7554728 C83.3728531,11.8165083 83.57278,12.299315 83.4811469,12.8322021" id="Fill-85" fill="#0F264C"></path>
                        <path d="M83.1797418,11.8116568 L82.0036564,11.2153867 C82.0036564,11.2153867 82.4678807,12.3328063 83.1797418,11.8116568" id="Fill-87" fill="#0F264C"></path>
                        <path d="M84.8655653,14.0303764 C84.8655653,14.0303764 83.596332,16.1658373 82.4422083,17.0962378 C83.0109399,17.877962 84.2211038,17.7903213 84.2211038,17.7903213 L84.8655653,14.0303764 Z" id="Fill-89" fill="#ED847E"></path>
                        <path d="M86.5550994,20.3038112 C86.2794426,20.3038112 85.9871251,20.2787709 85.6773898,20.2224305 C85.5933296,20.2067803 85.5380468,20.1246171 85.5524355,20.0377589 C85.5675815,19.9516831 85.6463406,19.8961251 85.7311581,19.9094278 C87.9879092,20.3233738 89.3336296,18.8819964 89.347261,18.8679113 C89.405573,18.8037457 89.50175,18.8013982 89.5646058,18.8608687 C89.6259471,18.9211218 89.6297336,19.0212826 89.5714215,19.0854482 C89.5199252,19.1417887 88.4415314,20.3038112 86.5550994,20.3038112" id="Fill-91" fill="#0F264C"></path>
                        <path d="M89.0943231,2.16632227 C86.1915959,3.88705458 93.3458,20.1639772 98.5840375,17.8814051 C103.821518,15.5996154 102.117595,6.5139297 99.5306613,4.22588 C96.9429704,1.9378303 93.1095227,-0.214063223 89.0943231,2.16632227" id="Fill-93" fill="#0F264C"></path>
                        <path d="M87.4599203,1.4036912 C87.4599203,1.4036912 83.9718009,1.9256232 81.637048,6.42503693 C79.3015377,10.9244507 92.7125465,2.02343654 90.8192989,1.4036912 C88.9260513,0.783945868 87.4599203,1.4036912 87.4599203,1.4036912" id="Fill-95" fill="#0F264C"></path>
                        <path d="M99.507185,18.712036 C99.0028239,19.9914345 97.9744117,20.9108799 96.9550872,21.334216 C95.4215567,21.9711765 94.4741756,20.6002247 94.7490751,19.007041 C94.9959546,17.5734887 96.0917663,15.5147134 97.7032987,15.5554038 C99.2913548,15.5960941 100.08349,17.2487484 99.507185,18.712036" id="Fill-97" fill="#FFC3BD"></path>
                        <path d="M90.9106292,10.3933633 C90.8295982,10.3933633 90.7478099,10.3604981 90.6872259,10.2947675 C89.7421167,9.26498863 88.6251006,9.46296283 88.6137412,9.46609286 C88.44865,9.49739313 88.2858307,9.38314715 88.2555387,9.21021316 C88.2244894,9.03806168 88.3358124,8.87217025 88.5024182,8.84008747 C88.5607302,8.82991488 89.9624908,8.58107774 91.1340324,9.85656372 C91.2506564,9.98411232 91.2453553,10.1852166 91.1226729,10.3065051 C91.0628463,10.3644106 90.9871164,10.3933633 90.9106292,10.3933633" id="Fill-99" fill="#0F264C"></path>
                        <path d="M81.3626785,9.5753308 C81.2861913,9.5753308 81.2097041,9.54637805 81.1498775,9.48769005 C81.027195,9.36561899 81.0226512,9.16451476 81.1400326,9.03774867 C82.3168753,7.76539272 83.7163639,8.01970741 83.774676,8.0306625 C83.9420391,8.06352779 84.0518474,8.22941921 84.0207982,8.4015707 C83.9897489,8.57450468 83.8299588,8.68718565 83.6625957,8.65666789 C83.6073129,8.64493029 82.5190742,8.46651875 81.5853244,9.47751746 C81.5247405,9.54246552 81.4437095,9.5753308 81.3626785,9.5753308" id="Fill-101" fill="#0F264C"></path>
                        <path d="M110.417062,43.7775265 C111.868805,47.4247904 113.060036,51.0172788 114.102837,54.7553135 C115.140336,58.4808281 116.019561,62.2759857 116.504989,66.2628576 C116.602681,67.2715087 116.719305,68.2668573 116.74581,69.3115038 L116.779889,70.085403 C116.786705,70.2137341 116.834414,70.907035 116.662508,71.6292888 C116.574661,72.004892 116.422444,72.4329232 116.17102,72.8539118 C115.920354,73.2756829 115.562152,73.6794564 115.181988,73.9627238 C114.397426,74.5480389 113.662846,74.6998452 113.126678,74.7616632 C112.572335,74.8172212 112.152792,74.7773134 111.781715,74.7241029 C111.402308,74.6708924 111.085757,74.5926418 110.779051,74.509696 C110.178513,74.3398921 109.658249,74.1395704 109.162975,73.929076 C108.177729,73.5112175 107.303049,73.0291933 106.454116,72.5354316 C103.098524,70.5220417 100.143543,68.2605973 97.2847395,65.7362305 L99.1461806,62.9325089 C102.337439,64.5984657 105.580951,66.3340657 108.754034,67.6737172 C109.541625,68.0047175 110.331487,68.2981576 111.057737,68.524302 C111.419726,68.6346355 111.768841,68.7207112 112.055857,68.7645316 C112.192929,68.7833118 112.324699,68.7973969 112.398157,68.7903543 C112.47843,68.7903543 112.51781,68.7684441 112.416332,68.7653141 C112.33,68.7700091 112.047527,68.7880068 111.629498,69.0892719 C111.201624,69.3858419 110.902491,69.977417 110.853267,70.2512944 C110.779809,70.5118691 110.812372,70.729406 110.776779,70.3905806 L110.710137,69.7559676 C110.644252,68.9186854 110.489763,68.0508854 110.35875,67.191693 C110.052801,65.4607881 109.690055,63.7142331 109.229617,61.9668956 C108.800986,60.2187755 108.301926,58.4667429 107.778632,56.7225354 C106.700996,53.2560306 105.515823,49.7230127 104.267794,46.3746663 L110.417062,43.7775265 Z" id="Fill-103" fill="#FFC3BD"></path>
                        <path d="M107.566059,36.6019397 C110.20979,37.4329619 113.385144,46.8386928 113.385144,46.8386928 L103.128286,54.4157056 C103.128286,54.4157056 99.3879861,46.5632505 100.498944,43.0325801 C101.655339,39.3555809 104.548979,35.6543241 107.566059,36.6019397" id="Fill-105" fill="#0053CC"></path>
                        <path d="M138.799873,202.282874 C137.904746,202.577879 136.742292,203.089638 136.615823,203.522364 C136.59992,203.576357 136.592347,203.65226 136.678679,203.754769 C136.836954,203.944135 137.002803,204.030994 137.194399,204.003606 C137.636662,203.95196 138.225841,203.315782 138.799873,202.282874 M137.132301,204.325216 C136.877848,204.325216 136.647629,204.203928 136.445431,203.962133 C136.274281,203.757899 136.283369,203.559924 136.321233,203.430028 C136.561297,202.609179 138.818048,201.940136 139.074773,201.86658 C139.13157,201.845452 139.197455,201.870492 139.236077,201.919008 C139.273942,201.969088 139.280758,202.037949 139.251981,202.093507 C138.84834,202.883839 138.048633,204.22349 137.229235,204.320521 C137.196671,204.323651 137.164107,204.325216 137.132301,204.325216" id="Fill-107" fill="#9FC6FF"></path>
                        <path d="M136.945399,201.014352 C136.911321,201.014352 136.878757,201.016699 136.84695,201.020612 C136.68716,201.04174 136.56675,201.117643 136.478146,201.251451 C136.366823,201.420473 136.405445,201.512809 136.450126,201.573844 C136.728055,201.946317 138.005618,202.091081 138.783364,201.943187 C138.318383,201.569932 137.504286,201.014352 136.945399,201.014352 M138.085892,202.310183 C137.336923,202.310183 136.494806,202.154464 136.206275,201.767123 C136.119186,201.649747 136.005591,201.40404 136.223693,201.072257 C136.362279,200.861763 136.559177,200.738127 136.807571,200.705262 C137.742078,200.574583 139.15747,201.845374 139.217296,201.899367 C139.258191,201.936927 139.27788,201.99405 139.267278,202.048826 C139.256676,202.105166 139.218054,202.150552 139.167315,202.169332 C138.920435,202.258538 138.518309,202.310183 138.085892,202.310183" id="Fill-109" fill="#9FC6FF"></path>
                        <path d="M77.5669442,227.450716 C77.4480483,227.450716 77.3503567,227.467931 77.2799279,227.507839 C77.2170721,227.543834 77.1852655,227.597045 77.1776925,227.680773 C77.1595173,227.89518 77.2170721,228.061854 77.3549005,228.189402 C77.7494533,228.555615 78.817245,228.618998 80.2576277,228.373291 C79.3662868,227.931175 78.1818711,227.450716 77.5669442,227.450716 M78.7256118,228.839665 C78.0788784,228.839665 77.482884,228.736374 77.1489152,228.426502 C76.9368714,228.22931 76.8437236,227.968735 76.8717437,227.65182 C76.8884043,227.462454 76.9785229,227.316125 77.1322546,227.229267 C77.9304478,226.778543 80.5181386,228.145582 80.810456,228.302866 C80.8687681,228.334166 80.9013319,228.399897 80.8922443,228.46641 C80.8823995,228.533705 80.833175,228.586916 80.7695619,228.600218 C80.2174909,228.712899 79.4405021,228.839665 78.7256118,228.839665" id="Fill-111" fill="#9FC6FF"></path>
                        <path d="M79.192108,225.881868 C79.161816,225.881868 79.1307668,225.883433 79.0989602,225.886563 C78.8180023,225.915516 78.7998271,226.031327 78.794526,226.06967 C78.7218253,226.525871 79.7615969,227.665201 80.5507025,228.159745 C80.4749726,227.633118 80.2591423,226.549346 79.7229746,226.08845 C79.5616699,225.949946 79.3874911,225.881868 79.192108,225.881868 M80.7392699,228.603427 C80.7180656,228.603427 80.6961039,228.598732 80.6764141,228.589341 C79.9016972,228.227041 78.3704385,226.778621 78.4900918,226.018807 C78.5188691,225.838048 78.6423089,225.614251 79.0679109,225.57043 C79.3829473,225.536783 79.670721,225.629901 79.9198724,225.844308 C80.736998,226.546999 80.8869433,228.354589 80.8930016,228.431275 C80.8975454,228.487616 80.8725546,228.541609 80.8286312,228.573691 C80.8013685,228.593254 80.7703192,228.603427 80.7392699,228.603427" id="Fill-113" fill="#9FC6FF"></path>
                        <path d="M103.283684,75.7150694 L103.958437,78.1557079 C104.050828,78.3450746 103.833483,78.5375712 103.528291,78.5375712 L76.3707904,78.5375712 C76.1329985,78.5375712 75.9361007,78.4178477 75.9209548,78.2629114 L75.6831629,75.8222728 C75.6665023,75.6532514 75.8724876,75.5100527 76.1329985,75.5100527 L102.853538,75.5100527 C103.050436,75.5100527 103.223857,75.5929984 103.283684,75.7150694" id="Fill-115" fill="#9FC6FF"></path>
                        <path d="M99.6946923,78.8022933 L100.41034,78.8022933 C100.552712,78.8022933 100.661763,78.7263901 100.651918,78.6332718 L100.316435,75.4625545 C100.30659,75.3702187 100.181636,75.2943156 100.039263,75.2943156 L99.3236157,75.2943156 C99.1812435,75.2943156 99.0721924,75.3702187 99.0820373,75.4625545 L99.4175208,78.6332718 C99.4273657,78.7263901 99.55232,78.8022933 99.6946923,78.8022933" id="Fill-117" fill="#19437F"></path>
                        <path d="M78.3819495,78.8022933 L79.0975971,78.8022933 C79.2399693,78.8022933 79.3490203,78.7263901 79.3391755,78.6332718 L79.003692,75.4625545 C78.9938471,75.3702187 78.8688928,75.2943156 78.7265205,75.2943156 L78.0108729,75.2943156 C77.8685007,75.2943156 77.7594496,75.3702187 77.7692945,75.4625545 L78.104778,78.6332718 C78.1146229,78.7263901 78.2395772,78.8022933 78.3819495,78.8022933" id="Fill-119" fill="#19437F"></path>
                        <path d="M89.0385102,78.8022933 L89.7541578,78.8022933 C89.89653,78.8022933 90.0048238,78.7263901 89.9957362,78.6332718 L89.6594954,75.4625545 C89.6504078,75.3702187 89.5254535,75.2943156 89.3830813,75.2943156 L88.6674337,75.2943156 C88.5243041,75.2943156 88.4160104,75.3702187 88.4258553,75.4625545 L88.7613387,78.6332718 C88.7711836,78.7263901 88.896138,78.8022933 89.0385102,78.8022933" id="Fill-121" fill="#19437F"></path>
                        <path d="M100.008971,63.6454508 L97.8287074,56.7515664 L94.3489183,62.5554189 C94.3489183,62.5554189 96.3966549,66.3106687 99.0971833,66.2519807 L100.008971,63.6454508 Z" id="Fill-123" fill="#FFC3BD"></path>
                        <path d="M95.5095548,48.8446489 L93.8010882,71.7227983 C93.7086977,72.9615065 92.6515082,73.8973845 91.4527038,73.8019187 L49.3029535,70.4402698 C48.1041491,70.3448039 47.1991767,69.2524245 47.2915672,68.0137164 L49.0000339,45.1355669 C49.048501,44.4884339 49.3612655,43.921899 49.8194314,43.5431657 C50.2374605,43.2004278 50.7766574,43.0110611 51.3491755,43.057229 L93.4974112,46.4180955 C94.0699293,46.4642634 94.5742905,46.7365757 94.9370367,47.1411317 C95.3331041,47.587943 95.558022,48.1967333 95.5095548,48.8446489" id="Fill-125" fill="#DCE9FF"></path>
                        <path d="M94.9367338,47.1409752 L76.8834818,59.90053 C73.434742,62.337256 68.8099167,61.9686953 65.7648172,59.0131674 L49.8191285,43.5430092 C50.2379149,43.2002713 50.7763545,43.0109046 51.3488726,43.0570725 L93.4978656,46.417939 C94.0696264,46.4641069 94.5739876,46.7364192 94.9367338,47.1409752" id="Fill-127" fill="#9FC6FF"></path>
                        <polygon id="Fill-129" fill="#FFC3BD" points="93.2920317 53.6069849 90.6339121 58.6291131 94.9368853 63.4665697 97.828253 56.7518794"></polygon>
                        <path d="M89.0122319,12.8791525 L87.8361465,12.2828824 C87.8361465,12.2828824 88.3003708,13.400302 89.0122319,12.8791525" id="Fill-131" fill="#0F264C"></path>
                        <polygon id="Fill-133" fill="#9FC6FF" points="200.929974 235.298789 210.21749 235.298789 210.21749 105.216434 200.929974 105.216434"></polygon>
                        <polygon id="Fill-135" fill="#77B3FC" points="200.930126 105.216121 210.217641 105.216121 210.217641 114.812784 200.930126 111.280548"></polygon>
                        <path d="M190.907046,74.0063877 C190.907046,61.3297786 180.961437,51.0531176 168.693193,51.0531176 C156.424948,51.0531176 146.478583,61.3297786 146.478583,74.0063877 L146.478583,105.215886 L190.907046,105.215886 L190.907046,74.0063877 Z" id="Fill-136" fill="#0053CC"></path>
                        <path d="M142.272014,118.605829 C139.303401,131.282438 146.843071,141.559099 159.111315,141.559099 C171.380317,141.559099 183.731865,131.282438 186.700477,118.605829 L189.791772,105.405723 C189.969737,104.645126 189.411607,103.911917 188.653551,103.911917 L146.634056,103.911917 C146.093345,103.911917 145.623062,104.29378 145.495836,104.83684 L142.272014,118.605829 Z" id="Fill-137" fill="#77B3FC"></path>
                        <path d="M140.483803,118.605829 C137.515191,131.282438 145.05486,141.559099 157.323105,141.559099 C169.592107,141.559099 181.944412,131.282438 184.912267,118.605829 L188.003561,105.405723 C188.181527,104.645126 187.623397,103.911917 186.865341,103.911917 L144.845846,103.911917 C144.305134,103.911917 143.834852,104.29378 143.707625,104.83684 L140.483803,118.605829 Z" id="Fill-138" fill="#9FC6FF"></path>
                        <path d="M243.196879,74.0029447 L243.196879,105.218703 L190.90538,105.218703 L190.90538,74.0029447 C190.90538,68.6897239 189.163592,63.8068819 186.226029,59.9178234 C182.166149,54.518527 175.819983,51.0512396 168.693799,51.0512396 L220.985298,51.0512396 C228.111482,51.0512396 234.457648,54.518527 238.516771,59.9178234 C241.455091,63.8068819 243.196879,68.6897239 243.196879,74.0029447" id="Fill-139" fill="#9FC6FF"></path>
                        <path d="M243.196879,74.0029447 L243.196879,82.3515091 L190.90538,82.3515091 L190.90538,74.0029447 C190.90538,68.6897239 189.163592,63.8068819 186.226029,59.9178234 L238.516771,59.9178234 C241.455091,63.8068819 243.196879,68.6897239 243.196879,74.0029447" id="Fill-140" fill="#B6D7FF"></path>
                        <path d="M198.185674,86.3706202 L198.185674,40.2199379 C198.185674,38.4694703 199.706331,37.1368613 201.37769,37.4224763 L212.082869,39.250412 C212.875761,39.3865682 213.458124,40.0947368 213.458124,40.9257589 L213.458124,43.7873861 C213.458124,44.7248291 212.722029,45.4846432 211.814785,45.4846432 L201.59352,45.4846432 L201.59352,86.3706202 C201.59352,87.343276 200.830162,88.1312603 199.889597,88.1312603 C198.948274,88.1312603 198.185674,87.343276 198.185674,86.3706202" id="Fill-141" fill="#0053CC"></path>
                        <path d="M168.69395,57.1465758 L168.69395,80.0928034 C168.69395,81.3354241 167.710219,82.3519003 166.506871,82.3519003 L124.232923,82.3519003 C123.030332,82.3519003 122.045844,81.3354241 122.045844,80.0928034 L122.045844,57.1465758 C122.045844,56.4970952 122.316199,55.9078677 122.744073,55.4939216 C123.135597,55.1191009 123.65889,54.8874789 124.232923,54.8874789 L166.506871,54.8874789 C167.080903,54.8874789 167.604954,55.1191009 167.99572,55.4939216 C168.424352,55.9078677 168.69395,56.4970952 168.69395,57.1465758" id="Fill-142" fill="#DCE9FF"></path>
                        <path d="M167.995796,55.4936868 L150.945965,69.6507987 C147.68958,72.3543595 143.050366,72.3543595 139.79398,69.6507987 L122.744149,55.4936868 C123.135673,55.1188661 123.658966,54.8872441 124.232999,54.8872441 L166.506946,54.8872441 C167.080979,54.8872441 167.604273,55.1188661 167.995796,55.4936868" id="Fill-143" fill="#9FC6FF"></path>
                        <path d="M136.297606,91.603634 L136.297606,114.549861 C136.297606,115.792482 135.313874,116.808958 134.110526,116.808958 L91.8365787,116.808958 C90.6339878,116.808958 89.6494991,115.792482 89.6494991,114.549861 L89.6494991,91.603634 C89.6494991,90.9541534 89.9190975,90.3649258 90.3477288,89.9509797 C90.7392524,89.576159 91.262546,89.344537 91.8365787,89.344537 L134.110526,89.344537 C134.685316,89.344537 135.207852,89.576159 135.599376,89.9509797 C136.028007,90.3649258 136.297606,90.9541534 136.297606,91.603634" id="Fill-144" fill="#DCE9FF"></path>
                        <path d="M135.599452,89.950745 L118.549621,104.107857 C115.293235,106.811418 110.654021,106.811418 107.397635,104.107857 L90.3478045,89.950745 C90.7393281,89.5759242 91.2626218,89.3443023 91.8366544,89.3443023 L134.110602,89.3443023 C134.684634,89.3443023 135.207928,89.5759242 135.599452,89.950745" id="Fill-145" fill="#9FC6FF"></path>
                        <path d="M190.907046,74.3984236 L190.907046,101.86441 L175.110545,101.86441 C173.905682,101.86441 172.921193,100.847151 172.921193,99.6029656 L172.921193,76.6598681 C172.921193,76.0103875 173.193821,75.4235074 173.626239,75.0087788 C174.011704,74.6331756 174.53424,74.3984236 175.110545,74.3984236 L190.907046,74.3984236 Z" id="Fill-146" fill="#DCE9FF"></path>
                        <path d="M190.907046,74.3984236 L190.907046,89.3443023 C190.8245,89.2895268 190.748013,89.2269262 190.672283,89.1643257 L173.626239,75.0087788 C174.011704,74.6331756 174.53424,74.3984236 175.110545,74.3984236 L190.907046,74.3984236 Z" id="Fill-147" fill="#9FC6FF"></path>
                        <polygon id="Fill-148" fill="#B6D7FF" points="187.443993 101.864175 190.907122 101.864175 190.907122 74.3981888 187.443993 74.3981888"></polygon>
                    </g>
                </g>
            </g>
        </g>
    </g>
</svg>