<?xml version="1.0" encoding="UTF-8"?>
<svg width="18px" height="18px" viewBox="0 0 18 18" version="1.1" xmlns="http://www.w3.org/2000/svg" xmlns:xlink="http://www.w3.org/1999/xlink">
    <!-- Generator: Sketch 52.3 (67297) - http://www.bohemiancoding.com/sketch -->
    <title>Shape</title>
    <desc>Created with Sketch.</desc>
    <g id="Page-1" stroke="none" stroke-width="1" fill="none" fill-rule="evenodd">
        <g id="Add-new-appointment-(-Monthly-recurring-type)" transform="translate(-1867.000000, -761.000000)" fill="#f9ca24" fill-rule="nonzero">
            <path d="M1876,761 C1871.03579,761 1867,765.035789 1867,770 C1867,774.964211 1871.03579,779 1876,779 C1880.96421,779 1885,774.964211 1885,770 C1885,765.035789 1880.96421,761 1876,761 Z M1878.00842,770.454737 L1879.31579,771.762105 C1879.56211,772.008421 1879.56211,772.406316 1879.31579,772.652632 L1878.65263,773.334737 C1878.40632,773.581053 1878.00842,773.581053 1877.76211,773.334737 L1876.45474,772.027368 C1876.20842,771.781053 1875.81053,771.781053 1875.56421,772.027368 L1874.25684,773.334737 C1874.01053,773.581053 1873.61263,773.581053 1873.36632,773.334737 L1872.66526,772.652632 C1872.41895,772.406316 1872.41895,772.008421 1872.66526,771.762105 L1873.97263,770.454737 C1874.21895,770.208421 1874.21895,769.810526 1873.97263,769.564211 L1872.66526,768.256842 C1872.41895,768.010526 1872.41895,767.612632 1872.66526,767.366316 L1873.32842,766.703158 C1873.57474,766.456842 1873.97263,766.456842 1874.21895,766.703158 L1875.52632,768.010526 C1875.77263,768.256842 1876.17053,768.256842 1876.41684,768.010526 L1877.72421,766.703158 C1877.97053,766.456842 1878.36842,766.456842 1878.61474,766.703158 L1879.27789,767.366316 C1879.52421,767.612632 1879.52421,768.010526 1879.27789,768.256842 L1877.97053,769.564211 C1877.76211,769.791579 1877.76211,770.208421 1878.00842,770.454737 Z" id="Shape"></path>
        </g>
    </g>
</svg>