<?xml version="1.0" encoding="utf-8"?>
<!-- Generator: Adobe Illustrator 25.2.0, SVG Export Plug-In . SVG Version: 6.00 Build 0)  -->
<svg version="1.1" id="Layer_1" xmlns="http://www.w3.org/2000/svg" xmlns:xlink="http://www.w3.org/1999/xlink" x="0px" y="0px"
	 viewBox="0 0 24 24" style="enable-background:new 0 0 24 24;" xml:space="preserve">
<style type="text/css">
	.st0{fill-rule:evenodd;clip-rule:evenodd;fill:#C7CFD9;}
	.st1{fill:#FFFFFF;stroke:#FFFFFF;stroke-width:0.5;stroke-miterlimit:10;}
</style>
<desc>Created with Sketch.</desc>
<g id="Page-1">
	<g id="Booking-settings---labels-edit" transform="translate(-981.000000, -118.000000)">
		<g id="Hide" transform="translate(981.000000, 118.000000)">
			<g>
				<g id="Group-23-Copy">
					<circle id="Oval" class="st0" cx="12" cy="12" r="12"/>
				</g>
			</g>
		</g>
	</g>
</g>
<g>
	<path class="st1" d="M14.5,18.9H7.2c-0.9,0-1.6-0.7-1.6-1.6V9.5c0-0.9,0.7-1.6,1.6-1.6h0.3c0.2,0,0.4,0.2,0.4,0.4
		c0,0.2-0.2,0.4-0.4,0.4H7.2c-0.4,0-0.7,0.3-0.7,0.7v7.8c0,0.4,0.3,0.7,0.7,0.7h7.2c0.4,0,0.7-0.3,0.7-0.7v-0.3
		c0-0.2,0.2-0.4,0.4-0.4c0.2,0,0.4,0.2,0.4,0.4v0.3C16.1,18.2,15.3,18.9,14.5,18.9z"/>
	<path class="st1" d="M16.8,15.5h-6.1c-0.9,0-1.6-0.7-1.6-1.6V6.6c0-0.9,0.7-1.6,1.6-1.6h6.1c0.9,0,1.6,0.7,1.6,1.6v7.2
		C18.4,14.8,17.7,15.5,16.8,15.5z M10.7,5.9c-0.4,0-0.7,0.3-0.7,0.7v7.2c0,0.4,0.3,0.7,0.7,0.7h6.1c0.4,0,0.7-0.3,0.7-0.7V6.6
		c0-0.4-0.3-0.7-0.7-0.7H10.7z"/>
</g>
</svg>
