<?xml version="1.0" encoding="UTF-8"?>
<svg width="162px" height="35px" viewBox="0 0 162 35" version="1.1" xmlns="http://www.w3.org/2000/svg" xmlns:xlink="http://www.w3.org/1999/xlink">
    <!-- Generator: Sketch 52.3 (67297) - http://www.bohemiancoding.com/sketch -->
    <title>Group 56</title>
    <desc>Created with Sketch.</desc>
    <g id="Page-1" stroke="none" stroke-width="1" fill="none" fill-rule="evenodd">
        <g id="Form-builder" transform="translate(-30.000000, -27.000000)">
            <g id="Group-56" transform="translate(30.000000, 27.000000)">
                <g id="Group-55" transform="translate(-0.000000, 0.000000)">
                    <g id="Group-51" transform="translate(42.379747, 8.658228)" fill="#FFFFFF">
                        <path d="M8.50329114,0.455696203 C11.8982278,0.455696203 14.5777215,2.01417722 14.5777215,5.55949367 C14.6005887,7.15237268 13.6050542,8.58242225 12.1032911,9.11392405 C13.8822857,9.69910831 15.0986469,11.3428395 15.1382278,13.2151899 C15.1382278,17.1205063 12.0258228,18.3189873 8.50329114,18.3189873 L0.300759494,18.3189873 L0.300759494,0.455696203 L8.50329114,0.455696203 Z M3.1443038,7.84253165 L8.53063291,7.84253165 C10.6724051,7.84253165 11.7478481,6.99949367 11.7478481,5.59594937 C11.7478481,4.34734177 10.6496203,3.01670886 8.5078481,3.01670886 L3.1443038,3.01670886 L3.1443038,7.84253165 Z M3.1443038,15.6531646 L8.50329114,15.6531646 C10.084557,15.6531646 12.2810127,15.1427848 12.2810127,13.1787342 C12.2810127,11.2146835 10.1620253,10.3989873 8.53063291,10.3989873 L3.1443038,10.3989873 L3.1443038,15.6531646 Z" id="Shape" fill-rule="nonzero"></path>
                        <path d="M30.2217722,12.0258228 C30.2217722,15.7534177 27.6425316,18.5605063 23.6870886,18.5605063 C19.7316456,18.5605063 17.2070886,15.7534177 17.2070886,12.0258228 C17.2070886,8.29822785 19.7863291,5.46835443 23.6962025,5.46835443 C27.6060759,5.46835443 30.2217722,8.32556962 30.2217722,12.0258228 Z M19.8364557,12.0258228 C19.8364557,14.2724051 21.2901266,16.1270886 23.6916456,16.1270886 C26.0931646,16.1270886 27.5696203,14.3043038 27.5696203,12.0258228 C27.5696203,9.74734177 25.9746835,7.89265823 23.6962025,7.89265823 C21.2901266,7.89265823 19.8364557,9.80658228 19.8364557,12.0258228 Z" id="Shape" fill-rule="nonzero"></path>
                        <path d="M45.2278481,12.0258228 C45.2278481,15.7534177 42.6486076,18.5605063 38.6931646,18.5605063 C34.7377215,18.5605063 32.2131646,15.7534177 32.2131646,12.0258228 C32.2131646,8.29822785 34.7878481,5.46835443 38.6931646,5.46835443 C42.598481,5.46835443 45.2278481,8.32556962 45.2278481,12.0258228 Z M34.8425316,12.0258228 C34.8425316,14.2724051 36.2962025,16.1270886 38.6977215,16.1270886 C41.0992405,16.1270886 42.5756962,14.3043038 42.5756962,12.0258228 C42.5756962,9.74734177 40.9944304,7.89265823 38.6977215,7.89265823 C36.2962025,7.89265823 34.8425316,9.80658228 34.8425316,12.0258228 Z" id="Shape" fill-rule="nonzero"></path>
                        <polygon id="Path" points="50.6597468 0.455696203 50.6597468 10.8774684 55.3306329 5.7235443 58.5205063 5.7235443 58.5205063 5.87848101 53.0840506 11.643038 59.2405063 18.1275949 59.2405063 18.3053165 56.0506329 18.3053165 50.6597468 12.4860759 50.6597468 18.3053165 48.0075949 18.3053165 48.0075949 0.455696203"></polygon>
                        <path d="M70.6693671,18.3053165 L70.6693671,11.5655696 C70.6693671,9.3964557 69.4435443,7.92 67.2744304,7.92 C65.1827848,7.92 63.7518987,9.62886076 63.7518987,11.6977215 L63.7518987,18.3053165 L61.1225316,18.3053165 L61.1225316,5.69620253 L63.5194937,5.69620253 L63.6744304,7.51898734 C64.7126158,6.24482944 66.2688397,5.5052048 67.9124051,5.50481013 C70.9746835,5.50481013 73.321519,7.67392405 73.321519,11.5291139 L73.321519,18.3053165 L70.6693671,18.3053165 Z" id="Path"></path>
                        <path d="M78.6577215,12.9964557 C78.8855696,14.9103797 80.4805063,16.1589873 82.7589873,16.1589873 C84.0349367,16.1589873 85.6435443,15.6759494 86.404557,14.7918987 L88.1134177,16.4506329 C86.8101266,17.881519 84.6410127,18.5924051 82.7043038,18.5924051 C78.5711392,18.5924051 75.9144304,15.963038 75.9144304,11.9301266 C75.9144304,8.10227848 78.5939241,5.37265823 82.5220253,5.37265823 C86.5777215,5.37265823 89.3574684,7.84708861 88.8516456,12.9782278 L78.6577215,12.9964557 Z M86.3407595,10.7772152 C86.1858228,8.78582278 84.7321519,7.74227848 82.6131646,7.74227848 C80.6992405,7.74227848 79.1179747,8.79037975 78.7078481,10.7772152 L86.3407595,10.7772152 Z" id="Shape" fill-rule="nonzero"></path>
                        <path d="M95.6005063,2.10075949 L95.6005063,5.74632911 L99.2734177,5.74632911 L99.2734177,8.02481013 L95.5731646,8.02481013 L95.5731646,14.0172152 C95.5731646,15.3432911 96.1610127,16.0860759 97.3959494,16.0860759 C97.959406,16.0559208 98.509002,15.9002279 99.004557,15.6303797 L99.7701266,17.876962 C98.9798627,18.2465797 98.1179995,18.437932 97.2455696,18.4374684 C94.5113924,18.5149367 92.9574684,16.9564557 92.9574684,13.9989873 L92.9574684,8.02025316 L90.5331646,8.02025316 L90.5331646,5.74177215 L92.9620253,5.74177215 L92.9620253,2.37873418 L95.6005063,2.10075949 Z" id="Path"></path>
                        <path d="M104.887595,2.02329114 C104.887595,4.19240506 101.620253,4.19240506 101.620253,2.02329114 C101.620253,-0.145822785 104.887595,-0.118481013 104.887595,2.02329114 Z M101.92557,5.66886076 L101.92557,18.3053165 L104.554937,18.3053165 L104.554937,5.67341772 L101.92557,5.66886076 Z" id="Shape" fill-rule="nonzero"></path>
                        <path d="M118.772658,16.6693671 C117.523038,17.956741 115.795311,18.6679638 114.001519,18.6334177 C110.355949,18.6334177 107.366582,16.3549367 107.366582,12.0258228 C107.366582,7.69670886 110.351392,5.41822785 114.001519,5.41822785 C115.714753,5.37247093 117.368354,6.04879374 118.558481,7.28202532 L116.872405,9.04101266 C116.106691,8.31708896 115.091713,7.91566704 114.037975,7.92 C112.945389,7.88287347 111.887262,8.30540099 111.120764,9.08489034 C110.354266,9.86437969 109.949581,10.929458 110.005063,12.0212658 C110.005063,14.6734177 111.827848,16.076962 114.010633,16.076962 C115.124491,16.1097746 116.203173,15.6848893 116.995443,14.9012658 L118.772658,16.6693671 Z" id="Path"></path>
                    </g>
                    <g id="Group-54">
                        <path d="M20.9998007,8.5 C20.9998007,13.1942149 17.0453529,17 12.1724234,17 L0.0014111459,17 L0.0014111459,3.7768595 C-0.0568547202,1.74632673 1.69644487,0.0562958207 3.91966268,-2.91322522e-13 L12.1724234,-2.91322522e-13 C14.5370538,0.00756043289 16.7938635,0.904353289 18.4117639,2.47933884 C20.0889333,4.10826352 21.0156214,6.26405798 20.9998007,8.5 Z" id="Path" fill="#FB3E6E"></path>
                        <path d="M24.9557094,16.3049053 C23.0536884,14.2697188 20.3959937,13.1098202 17.6103959,13.0991878 L3.88956589,13.0991878 C1.68521592,13.0380069 -0.0538994718,11.2045054 0.00139874281,9 L0.00139874281,13.0991878 L0.00139874281,30.9012464 C-0.0563979971,33.1067113 1.6841258,34.9416977 3.88956589,35.0004341 L17.6103959,35.0004341 C23.3483608,35.0004341 27.9997941,30.0975721 27.9997941,24.0587906 C28.0172259,21.1793847 26.9274076,18.4034019 24.9557094,16.3049053 Z" id="Path" fill="#6C70DC"></path>
                    </g>
                </g>
            </g>
        </g>
    </g>
</svg>