<?xml version="1.0" encoding="UTF-8"?>
<svg width="348px" height="255px" viewBox="0 0 348 255" version="1.1" xmlns="http://www.w3.org/2000/svg" xmlns:xlink="http://www.w3.org/1999/xlink">
    <!-- Generator: sketchtool 61 (101010) - https://sketch.com -->
    <title>2DAF8911-9F3A-48A9-8CAF-C1F743BBD473</title>
    <desc>Created with sketchtool.</desc>
    <g id="Page-1" stroke="none" stroke-width="1" fill="none" fill-rule="evenodd">
        <g id="Upgrade-to-premium" transform="translate(-626.000000, -441.000000)" fill-rule="nonzero">
            <g id="Asset-1" transform="translate(626.000000, 441.000000)">
                <rect id="Rectangle" fill="#EBEBEB" x="0" y="223.85992" width="348" height="1"></rect>
                <path d="M164.952,193.369303 L30.56136,193.369303 C28.3692106,193.365532 26.59416,191.618926 26.59416,189.465684 L26.59416,3.9036193 C26.59416,1.75037688 28.3692106,0.00377100249 30.56136,0 L164.952,0 C167.146868,0 168.92616,1.74770989 168.92616,3.9036193 L168.92616,189.465684 C168.92616,190.500988 168.507455,191.493889 167.762155,192.225959 C167.016856,192.95803 166.006013,193.369303 164.952,193.369303 Z M30.56136,0.170911528 C28.4653081,0.174682317 26.76816,1.84476858 26.76816,3.9036193 L26.76816,189.465684 C26.76816,191.524534 28.4653081,193.194621 30.56136,193.198391 L164.952,193.198391 C167.049182,193.194629 168.74833,191.525641 168.75216,189.465684 L168.75216,3.9036193 C168.74833,1.84366221 167.049182,0.174674016 164.952,0.170911528 L30.56136,0.170911528 Z" id="Shape" fill="#EBEBEB"></path>
                <path d="M315.50376,193.369303 L181.10616,193.369303 C178.912881,193.36554 177.135831,191.620032 177.132,189.465684 L177.132,3.9036193 C177.135831,1.74927053 178.912881,0.00376306323 181.10616,0 L315.50376,0 C317.69319,0.00753268322 319.464,1.75303823 319.464,3.9036193 L319.464,189.465684 C319.464,191.616265 317.69319,193.36177 315.50376,193.369303 Z M181.10616,0.170911528 C179.008978,0.174674016 177.30983,1.84366221 177.306,3.9036193 L177.306,189.465684 C177.30983,191.525641 179.008978,193.194629 181.10616,193.198391 L315.50376,193.198391 C317.600942,193.194629 319.30009,191.525641 319.30392,189.465684 L319.30392,3.9036193 C319.30009,1.84366221 317.600942,0.174674016 315.50376,0.170911528 L181.10616,0.170911528 Z" id="Shape" fill="#EBEBEB"></path>
                <rect id="Rectangle" fill="#EBEBEB" x="291.15768" y="230.368231" width="21.97272" height="1"></rect>
                <rect id="Rectangle" fill="#EBEBEB" x="210.14328" y="228.51555" width="23.25336" height="1"></rect>
                <rect id="Rectangle" fill="#EBEBEB" x="276.02664" y="236.719303" width="43.45128" height="1"></rect>
                <rect id="Rectangle" fill="#EBEBEB" x="36.51216" y="235.570777" width="13.38408" height="1"></rect>
                <rect id="Rectangle" fill="#EBEBEB" x="56.0976" y="235.570777" width="21.08184" height="1"></rect>
                <rect id="Rectangle" fill="#EBEBEB" x="131.94768" y="232.678954" width="37.97376" height="1"></rect>
                <polygon id="Rectangle" fill="#F0F0F0" transform="translate(245.590560, 164.457909) rotate(90.000000) translate(-245.590560, -164.457909) " points="186.195386 149.299029 304.985734 149.299029 304.985734 179.616789 186.195386 179.616789"></polygon>
                <polygon id="Rectangle" fill="#F5F5F5" transform="translate(245.590560, 121.634316) rotate(90.000000) translate(-245.590560, -121.634316) " points="232.4919 108.138876 258.68922 108.138876 258.68922 135.129756 232.4919 135.129756"></polygon>
                <path d="M251.5692,108.186997 L239.61888,108.186997 C239.61888,109.697267 240.865319,110.921582 242.40288,110.921582 L248.82,110.921582 C250.343953,110.902869 251.5692,109.684018 251.5692,108.186997 Z" id="Path" fill="#E6E6E6"></path>
                <polygon id="Rectangle" fill="#F5F5F5" transform="translate(245.590560, 150.183378) rotate(90.000000) translate(-245.590560, -150.183378) " points="232.4919 136.687938 258.68922 136.687938 258.68922 163.678818 232.4919 163.678818"></polygon>
                <polygon id="Rectangle" fill="#F5F5F5" transform="translate(245.590560, 178.739276) rotate(90.000000) translate(-245.590560, -178.739276) " points="232.4919 165.243836 258.68922 165.243836 258.68922 192.234716 232.4919 192.234716"></polygon>
                <polygon id="Rectangle" fill="#F5F5F5" transform="translate(245.590560, 207.288338) rotate(90.000000) translate(-245.590560, -207.288338) " points="232.4919 193.792898 258.68922 193.792898 258.68922 220.783778 232.4919 220.783778"></polygon>
                <path d="M251.5692,136.729223 L239.61888,136.729223 C239.61888,138.239492 240.865319,139.463807 242.40288,139.463807 L248.82,139.463807 C250.343953,139.445094 251.5692,138.226243 251.5692,136.729223 Z" id="Path" fill="#E6E6E6"></path>
                <path d="M251.5692,165.291957 L239.61888,165.291957 C239.61888,166.802226 240.865319,168.026542 242.40288,168.026542 L248.82,168.026542 C250.343953,168.007829 251.5692,166.788977 251.5692,165.291957 Z" id="Path" fill="#E6E6E6"></path>
                <path d="M251.5692,193.841019 L239.61888,193.841019 C239.61888,195.351288 240.865319,196.575603 242.40288,196.575603 L248.82,196.575603 C250.343953,196.55689 251.5692,195.338039 251.5692,193.841019 Z" id="Path" fill="#E6E6E6"></path>
                <polygon id="Rectangle" fill="#F5F5F5" transform="translate(268.321920, 164.464745) rotate(90.000000) translate(-268.321920, -164.464745) " points="208.926746 156.892265 327.717094 156.892265 327.717094 172.037225 208.926746 172.037225"></polygon>
                <polygon id="Rectangle" fill="#F0F0F0" transform="translate(278.643600, 164.464745) rotate(90.000000) translate(-278.643600, -164.464745) " points="219.248426 149.305865 338.038774 149.305865 338.038774 179.623625 219.248426 179.623625"></polygon>
                <polygon id="Rectangle" fill="#F5F5F5" transform="translate(278.643600, 121.634316) rotate(90.000000) translate(-278.643600, -121.634316) " points="265.54494 108.138876 291.74226 108.138876 291.74226 135.129756 265.54494 135.129756"></polygon>
                <path d="M284.62224,108.186997 L272.67192,108.186997 C272.67192,109.697267 273.918359,110.921582 275.45592,110.921582 L281.88,110.921582 C283.401228,110.899166 284.622411,109.681392 284.62224,108.186997 Z" id="Path" fill="#E6E6E6"></path>
                <polygon id="Rectangle" fill="#F5F5F5" transform="translate(278.643600, 150.183378) rotate(90.000000) translate(-278.643600, -150.183378) " points="265.54494 136.687938 291.74226 136.687938 291.74226 163.678818 265.54494 163.678818"></polygon>
                <polygon id="Rectangle" fill="#F5F5F5" transform="translate(278.643600, 178.732440) rotate(90.000000) translate(-278.643600, -178.732440) " points="265.54494 165.237 291.74226 165.237 291.74226 192.22788 265.54494 192.22788"></polygon>
                <polygon id="Rectangle" fill="#F5F5F5" transform="translate(278.650560, 207.288338) rotate(90.000000) translate(-278.650560, -207.288338) " points="265.5519 193.792898 291.74922 193.792898 291.74922 220.783778 265.5519 220.783778"></polygon>
                <path d="M284.62224,136.729223 L272.67192,136.729223 C272.67192,138.239492 273.918359,139.463807 275.45592,139.463807 L281.88,139.463807 C283.401228,139.441391 284.622411,138.223617 284.62224,136.729223 Z" id="Path" fill="#E6E6E6"></path>
                <path d="M284.62224,165.291957 L272.67192,165.291957 C272.67192,166.802226 273.918359,168.026542 275.45592,168.026542 L281.88,168.026542 C283.401228,168.004126 284.622411,166.786352 284.62224,165.291957 Z" id="Path" fill="#E6E6E6"></path>
                <path d="M284.62224,193.841019 L272.67192,193.841019 C272.67192,195.351288 273.918359,196.575603 275.45592,196.575603 L281.88,196.575603 C283.401228,196.553187 284.622411,195.335413 284.62224,193.841019 Z" id="Path" fill="#E6E6E6"></path>
                <polygon id="Rectangle" fill="#F5F5F5" transform="translate(301.374960, 164.464745) rotate(90.000000) translate(-301.374960, -164.464745) " points="241.979786 156.892265 360.770134 156.892265 360.770134 172.037225 241.979786 172.037225"></polygon>
                <rect id="Rectangle" fill="#E0E0E0" x="281.14224" y="81.3470509" width="8.85312" height="23.7225201"></rect>
                <polygon id="Path" fill="#E6E6E6" points="253.344 105.069571 287.11392 105.069571 292.13904 66.6760054 258.36912 66.6760054"></polygon>
                <polygon id="Path" fill="#F0F0F0" points="249.48816 105.069571 286.25088 105.069571 291.28296 66.6760054 254.51328 66.6760054"></polygon>
                <polygon id="Path" fill="#FFFFFF" points="283.57128 102.041019 287.80296 69.7045576 257.19984 69.7045576 252.9612 102.041019"></polygon>
                <ellipse id="Oval" fill="#E6E6E6" transform="translate(270.380226, 85.873243) rotate(-43.160000) translate(-270.380226, -85.873243) " cx="270.380226" cy="85.873243" rx="8.86960014" ry="7.79093171"></ellipse>
                <rect id="Rectangle" fill="#E6E6E6" transform="translate(172.782000, 125.821649) rotate(180.000000) translate(-172.782000, -125.821649) " x="125.5584" y="27.7902145" width="94.4472" height="196.062869"></rect>
                <rect id="Rectangle" fill="#F5F5F5" transform="translate(170.680080, 125.821649) rotate(180.000000) translate(-170.680080, -125.821649) " x="123.45648" y="27.7902145" width="94.4472" height="196.062869"></rect>
                <polygon id="Rectangle" fill="#FFFFFF" transform="translate(170.683560, 125.828485) rotate(90.000000) translate(-170.683560, -125.828485) " points="76.808694 82.3737253 264.558426 82.3737253 264.558426 169.283245 76.808694 169.283245"></polygon>
                <polygon id="Rectangle" fill="#E6E6E6" transform="translate(128.022240, 125.821649) rotate(90.000000) translate(-128.022240, -125.821649) " points="34.147374 125.028209 221.897106 125.028209 221.897106 126.615089 34.147374 126.615089"></polygon>
                <rect id="Rectangle" fill="#F5F5F5" transform="translate(170.687040, 90.056702) rotate(180.000000) translate(-170.687040, -90.056702) " x="125.02248" y="87.2674263" width="91.32912" height="5.57855228"></rect>
                <rect id="Rectangle" fill="#F0F0F0" transform="translate(100.617240, 176.623391) rotate(180.000000) translate(-100.617240, -176.623391) " x="94.03656" y="134.70563" width="13.16136" height="83.8355228"></rect>
                <rect id="Rectangle" fill="#F0F0F0" transform="translate(72.213480, 221.197118) rotate(180.000000) translate(-72.213480, -221.197118) " x="39.75552" y="218.541153" width="64.91592" height="5.31193029"></rect>
                <rect id="Rectangle" fill="#F5F5F5" x="37.22904" y="134.712466" width="56.80752" height="83.8355228"></rect>
                <rect id="Rectangle" fill="#F0F0F0" x="42.40032" y="145.028686" width="46.458" height="27.4962466"></rect>
                <rect id="Rectangle" fill="#F0F0F0" x="42.40032" y="180.728686" width="46.458" height="27.4962466"></rect>
                <path d="M45.4319453,156.85585 L54.3605347,156.85585 C55.4214516,156.85585 56.2814947,157.715893 56.2814947,158.77681 C56.2814947,159.837727 55.4214516,160.69777 54.3605347,160.69777 L45.4319453,160.69777 C44.3710284,160.69777 43.5109853,159.837727 43.5109853,158.77681 C43.5109853,157.715893 44.3710284,156.85585 45.4319453,156.85585 Z" id="Rectangle" fill="#F5F5F5" transform="translate(49.896240, 158.776810) rotate(90.000000) translate(-49.896240, -158.776810) "></path>
                <path d="M45.4389053,192.562686 L54.3674947,192.562686 C55.4284116,192.562686 56.2884547,193.422729 56.2884547,194.483646 C56.2884547,195.544563 55.4284116,196.404606 54.3674947,196.404606 L45.4389053,196.404606 C44.3779884,196.404606 43.5179453,195.544563 43.5179453,194.483646 C43.5179453,193.422729 44.3779884,192.562686 45.4389053,192.562686 Z" id="Rectangle" fill="#F5F5F5" transform="translate(49.903200, 194.483646) rotate(90.000000) translate(-49.903200, -194.483646) "></path>
                <path d="M93.77208,87.3563003 C92.30352,88.0809651 88.30152,87.3016086 89.63088,89.960992 C90.4027904,91.3494593 91.3194712,92.6553972 92.36616,93.8577748 C93.8556,95.6626005 93.5772,97.6178284 91.81632,98.3288204 C91.4344051,98.4656758 91.0975815,98.7019937 90.84192,99.0124665 C90.03456,100.147319 91.94856,101.678686 92.88816,102.820375 C93.82776,103.962064 94.2036,105.09008 93.51456,105.937802 C92.82552,106.785523 91.14816,106.532574 89.88144,106.819705 C86.826,107.503351 89.96496,111.605228 89.6448,113.751877 C89.42208,115.208043 88.218,115.611394 86.58936,115.802815 C85.26,115.973727 83.4852,116.089946 83.40864,117.429893 C83.346,118.585255 84.88416,119.904692 85.28784,121.121582 C85.6775821,122.180997 85.5679299,123.355742 84.98856,124.327882 C84.4454886,125.147811 83.5767391,125.705948 82.59432,125.866086 C81.084,126.187399 78.80112,125.866086 78.68976,127.534182 C78.64104,128.279357 79.17,128.942493 78.80112,129.632976 C78.3963743,130.214902 77.7479025,130.588553 77.03328,130.651609 C75.5872696,130.871483 74.1135733,130.846047 72.67632,130.576408 C70.90152,130.26193 68.28456,128.723727 69.24504,127.240214 C69.5863178,126.811502 70.0870715,126.533598 70.63704,126.467694 C71.0616,126.385657 72.30048,126.51555 72.46056,126.235255 C72.62064,125.95496 72.19608,124.867962 72.1752,124.464611 C72.1330979,123.377584 72.3080688,122.292975 72.69024,121.271984 C73.181543,119.935667 73.9628838,118.720309 74.98008,117.710188 C75.40464,117.293164 76.0728,116.985523 76.15632,116.342895 C76.1534586,115.655874 75.9073997,114.991223 75.46032,114.462869 C74.76432,113.526273 73.72728,112.630697 73.37232,111.625737 C72.77376,110.046515 74.22144,109.574799 75.55776,109.191957 C76.77576,108.863807 78.34176,108.446783 77.95896,107.00429 C77.65968,105.958311 76.32336,105.103753 75.91968,104.085121 C75.3768,102.717828 76.69224,102.663137 77.63184,102.177748 C78.8568,101.541957 79.16304,100.413941 78.72456,98.9782842 C78.02856,96.6197051 73.58112,93.2835121 75.83616,91.7453083 C76.41384,91.35563 76.9428,91.2257373 77.2908,90.6378016 C77.6388,90.049866 77.7084,89.2294906 78.18864,88.6620643 C78.94728,87.7596515 80.52024,87.6092493 81.34152,86.7683646 C83.02584,85.0524129 79.38576,81.9828418 82.73352,81.2991957 C83.4418217,81.2119106 84.1128454,80.9378707 84.67536,80.5061662 C84.9816,80.2327078 85.2252,78.8859249 85.56624,78.7902145 C87.09048,78.3731903 89.83968,81.2786863 90.70272,82.208445 C91.64928,83.274933 95.53992,86.4880697 93.77208,87.3563003 Z" id="Path" fill="#E0E0E0"></path>
                <path d="M67.63728,127.411126 C68.54208,125.763539 72.50928,124.122788 69.87144,122.215416 C68.4559777,121.269904 66.9330426,120.489832 65.33352,119.891019 C63.03672,118.947587 62.2224,116.773592 63.38472,114.968767 C63.6559131,114.592589 63.8258982,114.15518 63.87888,113.697185 C63.97632,112.035925 61.44984,111.646247 60.00216,111.037802 C58.55448,110.429357 57.60096,109.520107 57.75408,108.228016 C57.91416,106.799196 59.51496,106.177078 60.47544,105.117426 C62.80008,102.553753 57.77496,100.236193 56.90496,97.863941 C56.31336,96.2436997 57.14856,95.0951743 58.47792,93.8919571 C59.55672,92.9075067 61.06008,91.7042895 60.39192,90.2891421 C59.8212,89.0585791 57.74712,88.6552279 56.73096,87.6502681 C55.7789565,86.7394567 55.2418513,85.4895558 55.24152,84.1841823 C55.2574441,83.0500633 55.7129308,81.9645636 56.5152,81.1487936 C57.67752,79.8977212 59.86992,78.8449062 59.0556,77.0469169 C58.68672,76.2538874 57.85848,75.8983914 57.80976,74.9959786 C57.8414236,74.1808406 58.205033,73.4123406 58.81896,72.8630027 C59.9442653,71.7803557 61.2601117,70.907114 62.70264,70.2856568 C64.44264,69.5268097 67.57464,69.5063003 67.57464,71.6050938 C67.5208456,72.2243014 67.2386935,72.8029002 66.7812,73.2321716 C66.45408,73.5808311 65.29176,74.2029491 65.30568,74.5994638 C65.3196,74.9959786 66.28704,75.8368633 66.51672,76.233378 C67.1601378,77.3448764 67.5961899,78.5603573 67.80432,79.8225201 C68.1025844,81.4917191 68.0766075,83.2012799 67.72776,84.860992 C67.5816,85.5446381 67.15704,86.2693029 67.41456,86.9461126 C67.7744095,87.6181404 68.3667939,88.1418231 69.08496,88.4227882 C70.1916,88.9697051 71.61144,89.2431635 72.49536,90.036193 C73.88736,91.2872654 72.87816,92.6887399 71.88984,93.8714477 C70.992,94.9447721 69.80184,96.3462466 70.96416,97.5768097 C71.79936,98.4655496 73.44192,98.5202413 74.35368,99.3201072 C75.57168,100.386595 74.44416,101.247989 73.8804,102.321314 C73.1844,103.688606 73.49064,105.055898 74.65992,106.259115 C76.5948,108.228016 82.31592,108.952681 81.14664,111.906032 C80.85432,112.651206 80.45064,113.116086 80.45064,113.956971 C80.45064,114.797855 80.84736,115.659249 80.736,116.534316 C80.55504,117.901609 79.25352,119.036461 78.98208,120.39008 C78.43224,123.179357 83.30424,124.081769 80.7708,126.850536 C80.1794023,127.396537 79.7387656,128.081044 79.49016,128.839946 C79.37184,129.311662 79.88688,130.843029 79.63632,131.15067 C78.52272,132.517962 74.51376,131.205362 73.26792,130.815684 C71.73672,130.289276 66.55848,129.37319 67.63728,127.411126 Z" id="Path" fill="#F5F5F5"></path>
                <path d="M57.50352,123.698928 C57.50352,123.698928 57.98376,134.712466 76.33728,134.712466 C94.6908,134.712466 95.178,123.698928 95.178,123.698928 L57.50352,123.698928 Z" id="Path" fill="#F0F0F0"></path>
                <ellipse id="_Path_" fill="#F5F5F5" cx="174" cy="246.994504" rx="134.94744" ry="7.73887399"></ellipse>
                <polygon id="Path" fill="#FFB573" points="218.22384 241.368097 212.64192 241.286059 211.35432 228.549732 216.9432 228.638606"></polygon>
                <polygon id="Path" fill="#FFB573" points="246.96168 241.388606 241.37976 241.388606 237.02976 228.679625 242.61168 228.679625"></polygon>
                <path d="M240.63504,240.752815 L247.44192,240.752815 C247.671483,240.753367 247.870428,240.909132 247.92216,241.12882 L249.02184,246.003217 C249.074923,246.243613 249.01344,246.494663 248.854858,246.685045 C248.696275,246.875427 248.457925,246.984336 248.20752,246.980831 C246.01512,246.980831 244.41432,246.816756 241.65816,246.816756 C239.95992,246.816756 234.83736,246.994504 232.49184,246.994504 C230.14632,246.994504 229.84008,244.711126 230.80056,244.506032 C235.10184,243.58311 238.3452,242.304692 239.72328,241.087802 C239.97625,240.871994 240.29998,240.753054 240.63504,240.752815 Z" id="Path" fill="#263238"></path>
                <path d="M212.69064,240.643432 L218.7876,240.732306 C219.015705,240.739178 219.210273,240.896567 219.26088,241.115147 L220.284,246.010054 C220.335,246.248798 220.272295,246.497353 220.113705,246.685083 C219.955114,246.872812 219.717976,246.979194 219.46968,246.973995 C217.26336,246.90563 214.0896,246.727882 211.31952,246.686863 C208.09008,246.639008 205.29216,246.768901 201.49896,246.686863 C199.20912,246.652681 198.61056,244.362466 199.57104,244.171046 C203.95584,243.302815 207.52632,243.25496 211.3404,241.026273 C211.746232,240.779475 212.213338,240.647033 212.69064,240.643432 L212.69064,240.643432 Z" id="Path" fill="#263238"></path>
                <path d="M216.12192,77.8467828 C214.356375,81.6998021 212.388696,85.460343 210.2268,89.1132708 C209.148,90.9386059 208.02048,92.7571046 206.79552,94.5345845 C205.576453,96.3565694 204.256717,98.1116102 202.84224,99.7918231 L202.2924,100.43445 L202.014,100.755764 C201.91656,100.865147 201.85392,100.940349 201.65904,101.145442 C200.86111,102.027513 199.837367,102.683731 198.69408,103.045979 C197.98589,103.263944 197.240484,103.340648 196.50168,103.271582 C195.850138,103.216799 195.212569,103.055036 194.61552,102.793029 C193.753372,102.409388 192.968357,101.876809 192.29784,101.220643 C191.344514,100.288194 190.524977,99.2325061 189.86184,98.0827078 C189.280227,97.0924092 188.752836,96.0723257 188.28192,95.0268097 C186.562333,91.0839193 185.274453,86.9726034 184.44,82.7621984 L188.44896,81.5384718 C189.30504,83.3296247 190.18896,85.1754692 191.11464,86.9461126 C192.04032,88.716756 192.98688,90.4737265 194.01,92.0939678 C194.492893,92.8692602 195.015566,93.6199592 195.576,94.3431635 C196.019721,94.9384912 196.533705,95.4800694 197.1072,95.9565684 C197.316,96.1069705 197.47608,96.1479893 197.39256,96.0796247 C197.277311,96.0146416 197.149083,95.9749899 197.01672,95.9634048 C196.800174,95.9399831 196.581127,95.9538643 196.36944,96.0044236 C195.95184,96.1411528 195.8892,96.2368633 195.93792,96.1479893 L196.71048,95.1020107 C198.967805,91.8780531 201.026995,88.52449 202.87704,85.0592493 C204.79104,81.5589812 206.65632,77.9151475 208.40328,74.3806971 L216.12192,77.8467828 Z" id="Path" fill="#FFB573"></path>
                <path d="M218.44656,74.4080429 C219.94992,79.4465147 209.34984,93.1672922 209.34984,93.1672922 L198.65232,86.4060322 C200.669916,82.056572 203.154817,77.9312854 206.06472,74.1004021 C210.44256,68.583378 216.79008,68.8841823 218.44656,74.4080429 Z" id="Path" fill="#407BFF"></path>
                <path d="M218.44656,74.4080429 C219.94992,79.4465147 209.34984,93.1672922 209.34984,93.1672922 L198.65232,86.4060322 C200.669916,82.056572 203.154817,77.9312854 206.06472,74.1004021 C210.44256,68.583378 216.79008,68.8841823 218.44656,74.4080429 Z" id="Path" fill="#000000" opacity="0.2"></path>
                <path d="M211.92504,80.3215818 C209.72568,81.244504 206.48928,86.4743968 204.80496,90.302815 L209.34288,93.1672922 C211.87807,89.837757 214.157944,86.3278303 216.16368,82.6664879 C214.72992,81.1214477 213.08736,79.836193 211.92504,80.3215818 Z" id="Path" fill="#000000" opacity="0.2"></path>
                <path d="M188.35152,83.5005362 L189.74352,77.3477212 L183.38904,77.299866 C183.38904,77.299866 181.6908,81.9486595 185.10816,84.1363271 L188.35152,83.5005362 Z" id="Path" fill="#FFB573"></path>
                <polygon id="Path" fill="#FFB573" points="188.9988 71.5093834 183.90408 73.3142091 183.36816 77.2656836 189.72264 77.3135389"></polygon>
                <polygon id="Path" fill="#000000" opacity="0.2" points="211.36128 228.556568 212.02248 235.119571 217.6044 235.201609 216.95016 228.645442"></polygon>
                <polygon id="Path" fill="#000000" opacity="0.2" points="242.61168 228.686461 237.02976 228.686461 239.27088 235.235791 244.85976 235.235791"></polygon>
                <path d="M243.34944,72.186193 C237.32904,93.030563 238.54704,115.153351 238.00416,119.631233 L208.20144,117.457239 C204.28992,86.2214477 212.11296,70.1762735 212.11296,70.1762735 C212.11296,70.1762735 214.03392,69.8071046 216.63696,69.547319 C217.45128,69.4652815 218.3352,69.3900804 219.25392,69.3490617 C219.762,69.3490617 220.27704,69.3012064 220.79904,69.2875335 C225.036146,69.3575624 229.265594,69.6679993 233.46624,70.2172922 C234.25968,70.3130027 235.06704,70.4292225 235.85352,70.5591153 C236.64,70.689008 237.28728,70.8052279 237.94152,70.9419571 C241.00392,71.5367292 243.34944,72.186193 243.34944,72.186193 Z" id="Path" fill="#407BFF"></path>
                <path d="M243.34944,72.186193 C237.32904,93.030563 238.54704,115.153351 238.00416,119.631233 L208.20144,117.457239 C204.28992,86.2214477 212.11296,70.1762735 212.11296,70.1762735 C212.11296,70.1762735 214.03392,69.8071046 216.63696,69.547319 C217.45128,69.4652815 218.3352,69.3900804 219.25392,69.3490617 C219.762,69.3490617 220.27704,69.3012064 220.79904,69.2875335 C225.036146,69.3575624 229.265594,69.6679993 233.46624,70.2172922 C234.25968,70.3130027 235.06704,70.4292225 235.85352,70.5591153 C236.64,70.689008 237.28728,70.8052279 237.94152,70.9419571 C241.00392,71.5367292 243.34944,72.186193 243.34944,72.186193 Z" id="Path" fill="#000000" opacity="0.2"></path>
                <path d="M236.988,81.1282842 C236.45208,83.1792225 237.06456,92.3469169 239.20824,94.616622 C239.50056,91.6701072 239.90424,88.5936997 240.40536,85.4489276 L236.988,81.1282842 Z" id="Path" fill="#000000" opacity="0.2"></path>
                <path d="M233.27136,56.1136729 C232.17168,60.058311 230.81448,67.3323056 233.46624,70.2172922 C231.08592,72.2135389 228.00264,74.5037534 223.15152,74.3191689 C218.3004,74.1345845 219.38616,70.9009383 220.79904,69.2875335 C225.42048,68.5560322 225.55968,65.2335121 224.97504,62.0682306 L233.27136,56.1136729 Z" id="Path" fill="#FFB573"></path>
                <path d="M233.0208,69.0824397 C233.0208,69.0824397 231.01632,72.3297587 222.95664,74.305496 C224.29296,75.5155496 224.94024,78.4073727 224.94024,78.4073727 C224.94024,78.4073727 235.4568,75.9120643 235.13664,70.1284182 C234.49625,69.6653859 233.780937,69.3117663 233.0208,69.0824397 L233.0208,69.0824397 Z" id="Path" fill="#263238"></path>
                <path d="M220.08912,77.6621984 C220.08912,77.6621984 221.14704,75.1600536 222.95664,74.305496 C222.11448,73.4509383 220.86864,70.8872654 221.6064,68.9662198 C220.98218,68.9172639 220.354039,68.9564014 219.74112,69.0824397 C219.74112,69.0824397 216.55344,73.0270777 220.08912,77.6621984 Z" id="Path" fill="#263238"></path>
                <path d="M222.60864,77.730563 C222.51816,78.2706434 222.198,78.6671582 221.91264,78.6124665 C221.62728,78.5577748 221.45328,78.086059 221.55072,77.5459786 C221.64816,77.0058981 221.96832,76.6162198 222.24672,76.6709115 C222.52512,76.7256032 222.72,77.197319 222.60864,77.730563 Z" id="Path" fill="#263238"></path>
                <path d="M222.13536,80.813807 C222.08664,81.3538874 221.80824,81.777748 221.50896,81.7504021 C221.20968,81.7230563 221.00784,81.2650134 221.05656,80.724933 C221.10528,80.1848525 221.38368,79.760992 221.68296,79.7815013 C221.98224,79.8020107 222.18408,80.2668901 222.13536,80.813807 Z" id="Path" fill="#263238"></path>
                <path d="M229.90272,58.5406166 L225.03072,62.0613941 C225.176198,62.8003597 225.250765,63.5511031 225.25344,64.3037534 C227.01432,64.1806971 229.5408,62.4852547 229.86096,60.7077748 C230.00288,59.99325 230.017011,59.2599048 229.90272,58.5406166 Z" id="Path" fill="#000000" opacity="0.2"></path>
                <path d="M222.0936,41.1965147 C217.75056,41.1008043 216.8736,51.4033512 219.6924,53.2081769 C222.5112,55.0130027 230.22288,41.3674263 222.0936,41.1965147 Z" id="Path" fill="#263238"></path>
                <path d="M234.21096,50.124933 C233.46624,55.5189008 233.30616,58.7183646 230.3064,61.2957105 C225.79632,65.1719839 219.1704,62.1912869 218.2656,56.6879357 C217.45128,51.7315013 218.80848,43.7396783 224.37648,41.9758713 C226.867576,41.1721947 229.60475,41.6940261 231.608893,43.3547025 C233.613037,45.0153788 234.597813,47.5776354 234.21096,50.124933 Z" id="Path" fill="#FFB573"></path>
                <path d="M233.42448,55.4095174 C230.64048,56.8520107 227.42496,41.9143432 234.81648,42.6936997 C244.10112,43.6713137 239.01336,52.5245308 233.42448,55.4095174 Z" id="Path" fill="#263238"></path>
                <path d="M221.02872,42.6663539 C221.02872,46.0093834 232.07424,49.3319035 235.86048,48.1902145 C239.64672,47.0485255 240.60024,44.1225201 238.56792,42.0373995 C235.12968,38.5029491 221.02872,36.1170241 221.02872,42.6663539 Z" id="Path" fill="#263238"></path>
                <path d="M221.47416,43.1175603 C221.730917,44.2228725 222.280799,45.2417927 223.068,46.0709115 C222.07968,46.0162198 221.09832,44.6420912 220.78512,43.8353887 C220.47192,43.0286863 221.47416,43.1175603 221.47416,43.1175603 Z" id="Path" fill="#263238"></path>
                <path d="M236.25024,56.2845845 C235.422726,57.3883901 234.18416,58.1257123 232.80504,58.3355228 C230.97456,58.5953083 230.29944,56.9272118 231.00936,55.3548257 C231.64968,53.9396783 233.3688,52.1006702 235.1088,52.5655496 C236.8488,53.030429 237.25248,54.9241287 236.25024,56.2845845 Z" id="Path" fill="#FFB573"></path>
                <path d="M209.9484,233.806971 L219.40704,233.9437 C219.40704,233.9437 216.2472,197.245576 217.10328,180.168097 C217.3608,174.972386 218.42568,167.705228 219.81768,159.911662 C221.58552,150.10134 222.43464,146.190885 224.68968,133.782708 C226.31832,124.943164 227.766,118.872386 227.766,118.872386 L208.1736,117.443566 C208.1736,117.443566 199.86336,161.675469 200.05824,178.424799 C200.28096,195.850938 209.9484,233.806971 209.9484,233.806971 Z" id="Path" fill="#263238"></path>
                <path d="M220.89648,130.61059 C217.37472,139.224531 217.30512,159.405764 218.9268,165.086863 C219.2052,163.405094 219.50448,161.668633 219.81768,159.932172 C221.58552,150.115013 222.43464,146.204558 224.68968,133.803217 C224.73144,133.557105 224.78016,133.317828 224.82192,133.078552 C223.668109,132.03972 222.340051,131.204757 220.89648,130.61059 Z" id="Path" fill="#000000" opacity="0.2"></path>
                <path d="M218.77368,118.229759 C218.77368,118.229759 220.49976,164.505764 221.8152,180.530429 C223.24896,198.079625 236.64696,233.964209 236.64696,233.964209 L246.87816,233.964209 C246.87816,233.964209 240.0504,201.149196 237.95544,184.058043 C235.56816,164.642493 237.9972,119.61756 237.9972,119.61756 L218.77368,118.229759 Z" id="Path" fill="#263238"></path>
                <polygon id="Path" fill="#407BFF" points="235.422 234.182976 247.46976 234.182976 247.46976 230.648525 234.00216 230.416086"></polygon>
                <polygon id="Path" fill="#407BFF" points="208.75824 234.018901 220.02648 234.189812 220.08216 230.614343 207.48456 230.231501"></polygon>
                <path d="M225.72672,51.0273458 C225.69192,51.4717158 225.42744,51.8067024 225.13512,51.786193 C224.8428,51.7656836 224.62704,51.3896783 224.66184,50.9521448 C224.69664,50.5146113 224.96112,50.1659517 225.25344,50.1864611 C225.54576,50.2069705 225.76152,50.5898123 225.72672,51.0273458 Z" id="Path" fill="#263238"></path>
                <path d="M220.632,50.6581769 C220.632,51.0957105 220.33272,51.4375335 220.0404,51.4170241 C219.74808,51.3965147 219.53928,51.0205094 219.56712,50.5761394 C219.59496,50.1317694 219.8664,49.7967828 220.16568,49.8172922 C220.46496,49.8378016 220.68072,50.213807 220.632,50.6581769 Z" id="Path" fill="#263238"></path>
                <path d="M222.24672,50.9931635 C221.607807,52.3029072 220.788088,53.5198633 219.81072,54.6096515 C220.392018,55.0829493 221.153897,55.2850052 221.89872,55.1634048 L222.24672,50.9931635 Z" id="Path" fill="#ED893E"></path>
                <path d="M223.73616,56.4828418 C224.755838,56.4366127 225.711693,55.9819928 226.38096,55.224933 C226.415594,55.1888657 226.426304,55.1365785 226.408566,55.090161 C226.390828,55.0437436 226.347736,55.0112929 226.297495,55.0065183 C226.247254,55.0017437 226.198628,55.025478 226.17216,55.0676944 C225.41521,55.902269 224.297996,56.3315694 223.16544,56.2230563 C223.094875,56.2190287 223.033561,56.2702203 223.02624,56.3392761 C223.022353,56.3730497 223.032861,56.4068982 223.055271,56.4327955 C223.077682,56.4586927 223.109999,56.4743322 223.14456,56.4760054 C223.341178,56.4952523 223.539135,56.4975398 223.73616,56.4828418 Z" id="Path" fill="#263238"></path>
                <path d="M227.418,49.5301609 C227.463021,49.5292425 227.506702,49.5149408 227.54328,49.4891421 C227.604342,49.4527261 227.64726,49.3930326 227.661777,49.3243292 C227.676294,49.2556258 227.661105,49.1840863 227.61984,49.1268097 C227.169853,48.4076541 226.389862,47.9505203 225.53184,47.9030831 C225.385772,47.9030831 225.26736,48.0193931 225.26736,48.1628686 C225.26736,48.3063442 225.385772,48.4226542 225.53184,48.4226542 L225.53184,48.4226542 C226.203601,48.4766235 226.807528,48.8457867 227.15352,49.413941 C227.210314,49.500887 227.314156,49.5465185 227.418,49.5301609 L227.418,49.5301609 Z" id="Path" fill="#263238"></path>
                <path d="M218.58576,48.7781501 C218.67673,48.7778211 218.759934,48.7277304 218.80152,48.6482574 C219.122752,48.0648965 219.711349,47.6701254 220.38144,47.5886059 C220.451068,47.5851369 220.516289,47.5540863 220.562199,47.5025497 C220.608108,47.4510131 220.630782,47.383395 220.62504,47.3151475 C220.623262,47.2468179 220.593408,47.1821035 220.542275,47.1357418 C220.491142,47.0893801 220.423084,47.0653178 220.3536,47.0690349 C219.505247,47.1632022 218.755752,47.6548452 218.34216,48.3884718 C218.27277,48.5135148 218.315675,48.6700472 218.4396,48.7439678 C218.483041,48.7711347 218.534516,48.7831732 218.58576,48.7781501 L218.58576,48.7781501 Z" id="Path" fill="#263238"></path>
                <path d="M238.78368,241.70992 C239.27708,241.699991 239.767607,241.633454 240.24528,241.511662 C240.299068,241.503393 240.341261,241.461948 240.34968,241.409115 C240.355521,241.357661 240.331273,241.307379 240.28704,241.279223 C240.0852,241.156166 238.28256,240.062332 237.66312,240.37681 C237.521343,240.446979 237.432335,240.590043 237.43344,240.745979 C237.406385,241.00493 237.510433,241.260436 237.71184,241.429625 C238.025712,241.641265 238.404223,241.740249 238.78368,241.70992 L238.78368,241.70992 Z M239.86248,241.333914 C238.91592,241.518499 238.18512,241.484316 237.87888,241.231367 C237.741927,241.113828 237.673991,240.936737 237.69792,240.759651 C237.693069,240.697714 237.725797,240.638776 237.78144,240.609249 C238.1016,240.445174 239.13168,240.91689 239.86248,241.327078 L239.86248,241.333914 Z" id="Shape" fill="#407BFF"></path>
                <path d="M240.21744,241.518499 C240.240224,241.524603 240.264256,241.524603 240.28704,241.518499 C240.327873,241.490618 240.351472,241.444257 240.34968,241.395442 C240.34968,241.333914 240.21048,239.747855 239.5632,239.228284 C239.406847,239.098226 239.20322,239.036494 238.99944,239.057373 L238.99944,239.057373 C238.79383,239.05944 238.617299,239.201569 238.57488,239.399196 C238.45656,240.014477 239.57712,241.217694 240.1548,241.525335 L240.21744,241.518499 Z M239.08992,239.276139 C239.199787,239.276272 239.305967,239.31508 239.3892,239.385523 C239.781922,239.88088 240.012468,240.481578 240.0504,241.108311 C239.47968,240.677614 238.7628,239.741019 238.8324,239.406032 C238.8324,239.37185 238.8324,239.296649 239.02728,239.276139 L239.08992,239.276139 L239.08992,239.276139 Z" id="Shape" fill="#407BFF"></path>
                <path d="M212.12688,241.395442 C212.175236,241.382159 212.210847,241.341799 212.21736,241.292895 C212.224688,241.237647 212.197154,241.183557 212.14776,241.156166 C211.8972,241.026273 209.67,239.870912 208.98792,240.233244 C208.857476,240.300602 208.772835,240.430507 208.7652,240.575067 L208.7652,240.575067 C208.731004,240.812519 208.819789,241.05106 209.00184,241.210858 C209.6004,241.757775 211.20816,241.566354 212.11296,241.402279 L212.12688,241.395442 Z M209.16192,240.445174 C209.57952,240.308445 210.79056,240.780161 211.67448,241.210858 C210.4356,241.395442 209.51688,241.327078 209.17584,241.019437 C209.057337,240.914114 208.999938,240.757787 209.02272,240.602413 C209.022925,240.543338 209.05832,240.489851 209.1132,240.465684 L209.16192,240.445174 Z" id="Shape" fill="#407BFF"></path>
                <path d="M212.12688,241.395442 L212.16168,241.395442 C212.200984,241.370045 212.222489,241.325159 212.21736,241.279223 C212.21736,241.217694 212.08512,239.734182 211.38216,239.153083 C211.191417,238.986199 210.941222,238.900185 210.68616,238.913807 L210.68616,238.913807 C210.31728,238.947989 210.21288,239.125737 210.18504,239.269303 C210.07368,239.891421 211.38912,241.094638 212.05728,241.402279 C212.080542,241.40854 212.105341,241.406104 212.12688,241.395442 L212.12688,241.395442 Z M210.54,239.187265 L210.6792,239.187265 L210.6792,239.187265 C210.875402,239.169326 211.070151,239.233918 211.21512,239.365013 C211.620702,239.84812 211.863859,240.442836 211.91112,241.067292 C211.21512,240.650268 210.33816,239.7 210.4008,239.330831 C210.42168,239.276139 210.42864,239.221448 210.54,239.187265 Z" id="Shape" fill="#407BFF"></path>
                <path d="M244.7832,75.6044236 C246.732,79.4465147 248.47896,83.2886059 250.08672,87.2264075 C250.90104,89.1953083 251.65272,91.1983914 252.39048,93.2151475 C252.7524,94.2337802 253.08648,95.2660858 253.43448,96.277882 L253.68504,97.0504021 L253.95648,97.9391421 C254.15136,98.5407507 254.26272,99.1491957 254.40888,99.7576408 C255.177213,104.358971 254.959121,109.067181 253.76856,113.580965 C253.252595,115.727153 252.599379,117.839252 251.8128,119.904692 C251.41608,120.930161 250.99152,121.95563 250.53912,122.933244 C250.08672,123.910858 249.62736,124.895308 249.0636,125.920777 L245.21472,124.27319 C245.75064,122.406836 246.29352,120.396917 246.67632,118.434853 C247.05912,116.472788 247.41408,114.490214 247.6368,112.534987 C247.856376,110.615143 247.935459,108.6823 247.87344,106.75134 C247.83593,104.941214 247.578918,103.141929 247.10784,101.391555 C246.9756,100.988204 246.8712,100.57118 246.71112,100.188338 C246.6276,99.983244 246.57888,99.8191689 246.47448,99.5867292 L246.18216,98.9030831 C245.7924,97.9664879 245.36784,97.0298928 244.96416,96.0864611 C244.14984,94.2064343 243.26592,92.3400804 242.4168,90.4600536 L237.162,79.227748 L244.7832,75.6044236 Z" id="Path" fill="#FFB573"></path>
                <path d="M243.34944,72.186193 C248.44416,73.7517426 253.45536,90.7266756 253.45536,90.7266756 L241.66512,95.7993298 C241.66512,95.7993298 237.85104,87.5955764 235.65168,81.1693029 C233.2644,74.1619303 237.16896,70.2856568 243.34944,72.186193 Z" id="Path" fill="#407BFF"></path>
                <path d="M243.34944,72.186193 C248.44416,73.7517426 253.45536,90.7266756 253.45536,90.7266756 L241.66512,95.7993298 C241.66512,95.7993298 237.85104,87.5955764 235.65168,81.1693029 C233.2644,74.1619303 237.16896,70.2856568 243.34944,72.186193 Z" id="Path" fill="#000000" opacity="0.2"></path>
                <path d="M245.52792,123.350268 L242.77872,128.224665 L249.25848,129.885925 C249.25848,129.885925 251.21424,125.155094 248.90352,123.657909 L245.52792,123.350268 Z" id="Path" fill="#FFB573"></path>
                <polygon id="Path" fill="#FFB573" points="242.29848 133.762198 248.24928 134.247587 249.25848 129.885925 242.77872 128.224665"></polygon>
                <polygon id="Path" fill="#407BFF" opacity="0.19" points="206.538 160.191957 59.27832 160.191957 69.66264 15.5529491 216.92232 15.5529491"></polygon>
                <polygon id="Path" fill="#FFFFFF" opacity="0.2" points="92.45664 160.191957 71.27736 160.191957 124.04112 15.5529491 145.2204 15.5529491"></polygon>
                <polygon id="Path" fill="#FFFFFF" opacity="0.2" points="143.898 160.191957 97.18248 160.191957 149.94624 15.5529491 196.66176 15.5529491"></polygon>
                <polygon id="Path" fill="#407BFF" points="70.0524 40.2530831 65.7372 39.9522788 67.64424 13.4268097 94.656 13.4268097 94.656 17.6790885 71.67408 17.6790885"></polygon>
                <polygon id="Path" fill="#407BFF" points="84.27168 162.31126 56.95368 162.31126 58.8816 135.49866 63.1968 135.792627 61.596 158.065818 84.27168 158.065818"></polygon>
                <polygon id="Path" fill="#407BFF" points="217.31208 40.2530831 213.00384 39.9522788 214.59768 17.6790885 191.922 17.6790885 191.922 13.4268097 219.24 13.4268097"></polygon>
                <polygon id="Path" fill="#407BFF" points="208.54944 162.31126 181.53768 162.31126 181.53768 158.065818 204.5196 158.065818 206.14128 135.49866 210.45648 135.792627"></polygon>
                <g id="Group" opacity="0.3" transform="translate(94.656000, 40.335121)" fill="#407BFF">
                    <path d="M40.542,98.5270777 C40.4129061,98.5253973 40.2862185,98.4925267 40.17312,98.4313673 C40.13136,98.4313673 39.10824,97.8571046 37.38912,96.8247989 C36.69312,96.3941019 35.81616,95.8676944 34.86264,95.2660858 C31.83504,93.3382038 28.9188,91.3009383 26.18352,89.2158177 C25.48752,88.7099196 24.86112,88.1903485 24.186,87.6502681 C21.66648,85.5993298 19.314,83.5894102 17.26776,81.5931635 C16.7388,81.080429 16.2168,80.5608579 15.6948,80.0276139 C13.7959761,78.1039995 12.0112735,76.0747824 10.34952,73.95 C9.94584,73.430429 9.55608,72.9108579 9.17328,72.3776139 C7.75613763,70.4383528 6.49266481,68.3950831 5.394,66.2658177 C5.12952,65.7530831 4.86504,65.2198391 4.62144,64.6797587 C3.70693874,62.702728 2.99355316,60.6417777 2.49168,58.5269437 C2.3664,58.0483914 2.25504,57.5219839 2.1576,56.9340483 C2.08104,56.5512064 2.0184,56.1478552 1.96968,55.744504 C1.75392,54.1857909 1.57296,52.586059 1.39896,50.8701072 C1.34328,50.3573727 1.29456,49.8378016 1.24584,49.325067 C1.06488,47.2741287 0.91176,45.2642091 0.8004,43.2747989 L0.8004,43.0697051 C0.8004,42.6116622 0.74472,42.1604558 0.72384,41.7024129 C0.6264,39.7335121 0.5568,37.7030831 0.51504,35.6658177 L0.51504,34.113941 C0.51504,31.9604558 0.51504,29.9300268 0.51504,28.0773458 C0.51504,27.5509383 0.51504,27.0382038 0.54984,26.5254692 C0.59856,24.2899464 0.67512,22.2595174 0.7656,20.488874 L0.7656,20.3726542 C0.7656,19.880429 0.80736,19.3950402 0.8352,18.9301609 C0.96048,16.7288204 1.10664,14.6368633 1.25976,12.8935657 C1.30848,12.2919571 1.35024,11.7928954 1.39896,11.341689 C1.55904,9.6189008 1.67736,8.65495979 1.67736,8.65495979 C1.70695012,8.29010863 2.00191577,8.00037858 2.37336,7.97131367 C2.49864,7.97131367 15.33984,6.99369973 29.01624,4.62828418 C31.80024,4.1497319 34.4868,3.63016086 37.03416,3.09008043 C40.7856,2.28337802 44.21688,1.40831099 47.24448,0.48538874 C47.3961383,0.437759192 47.5591417,0.437759192 47.7108,0.48538874 C50.5992,1.40831099 53.9052,2.28337802 57.53832,3.09008043 C60.00912,3.63016086 62.62608,4.1497319 65.33352,4.62828418 C78.66888,6.99369973 91.37088,7.95764075 91.49616,7.97131367 C91.9003782,8.00048932 92.2082613,8.33919771 92.1927637,8.73699732 C92.1927637,8.73699732 92.1927637,9.69410188 92.08776,11.4237265 C92.08776,11.8817694 92.03904,12.4013405 92.00424,12.9756032 C91.89984,14.7325737 91.74672,16.8176944 91.5588,19.0121984 C91.51704,19.4451743 91.47528,19.9009383 91.43352,20.3794906 L91.43352,20.6050938 C91.27344,22.3894102 91.05072,24.4198391 90.78624,26.6348525 C90.7236,27.1612601 90.66096,27.6739946 90.59136,28.1935657 C90.35472,30.0530831 90.06936,32.0835121 89.73528,34.2233244 L89.49864,35.7683646 C89.16456,37.8193029 88.80264,39.8702413 88.4268,41.8117962 C88.34328,42.2493298 88.2528,42.6936997 88.16232,43.1380697 L88.1136,43.3705094 C87.71688,45.3530831 87.2784,47.3835121 86.80512,49.4071046 L86.42928,50.9658177 C86.00472,52.6817694 85.59408,54.2815013 85.16256,55.8402145 C85.04424,56.2367292 84.92592,56.6400804 84.80064,57.0297587 C84.61272,57.6108579 84.43176,58.1372654 84.23688,58.6294906 C83.4174857,60.7509505 82.4114403,62.7982387 81.23016,64.7481233 C80.91696,65.2676944 80.58288,65.8009383 80.23488,66.3273458 C78.8258212,68.4560644 77.2749981,70.4909325 75.59256,72.4186327 C75.1332,72.9450402 74.67384,73.4714477 74.20056,73.9841823 C72.2429868,76.1084922 70.1754547,78.1324804 68.00616,80.0481233 C67.4076,80.5813673 66.80904,81.1009383 66.21048,81.6136729 C63.85104,83.6099196 61.24104,85.6403485 58.43616,87.6571046 C57.68448,88.197185 56.94672,88.716756 56.21592,89.2226542 C53.18136,91.3077748 49.95192,93.3245308 46.68072,95.2660858 C45.63672,95.8676944 44.71104,96.3941019 43.89672,96.8247989 C42.03144,97.8571046 40.93176,98.4040214 40.89,98.4313673 C40.7833348,98.4898463 40.6640722,98.5226471 40.542,98.5270777 L40.542,98.5270777 Z M3.11808,9.46849866 C3.06936,9.91286863 2.99976,10.6033512 2.91624,11.519437 C2.86752,11.9706434 2.82576,12.4628686 2.784,13.016622 C2.63088,14.7941019 2.48472,16.8655496 2.35944,19.0532172 C2.35944,19.5180965 2.31072,19.9966488 2.28288,20.4820375 L2.28288,20.6050938 C2.18544,22.3620643 2.11584,24.3788204 2.06712,26.6006702 C2.06712,27.1065684 2.06712,27.6193029 2.03232,28.138874 C2.03232,29.977882 2.03232,31.9946381 2.03232,34.1344504 L2.03232,35.6794906 C2.07408,37.730429 2.14368,39.7130027 2.24112,41.6682306 C2.24112,42.1126005 2.28288,42.563807 2.31072,43.0355228 L2.31072,43.2406166 C2.42208,45.2231903 2.56824,47.2399464 2.7492,49.236193 C2.79792,49.7489276 2.84664,50.2616622 2.90232,50.7675603 C3.06936,52.4766756 3.25728,54.0558981 3.46608,55.6077748 C3.5148,55.9769437 3.57048,56.3529491 3.64008,56.722118 C3.73752,57.2827078 3.84192,57.774933 3.96024,58.2329759 C4.4429436,60.2534603 5.12596435,62.2226468 5.99952,64.1123324 C6.23616,64.6319035 6.47976,65.1446381 6.73728,65.6368633 C7.82294428,67.6810744 9.06053738,69.6438991 10.44,71.5093834 C10.81584,72.022118 11.19168,72.5280161 11.5884,73.0339142 C13.2129328,75.1134856 14.958147,77.0993527 16.81536,78.9816354 C17.3304,79.5080429 17.84544,80.0207775 18.36744,80.5266756 C20.39976,82.4887399 22.6896,84.4918231 25.17432,86.4880697 C25.87032,87.0144772 26.49672,87.5272118 27.15096,88.0262735 C29.84448,90.0772118 32.71896,92.1281501 35.71176,94.0081769 C36.65136,94.5961126 37.49352,95.1088472 38.2104,95.5395442 C39.31704,96.2231903 40.13832,96.6743968 40.5768,96.9068365 C41.04312,96.6675603 41.9688,96.2231903 43.16592,95.5395442 C43.9524,95.1088472 44.86416,94.5892761 45.89424,94.0013405 C49.15152,92.0939678 52.32528,90.0840483 55.32504,88.019437 C56.02104,87.5203753 56.77968,87.0076408 57.5244,86.4743968 C60.3084,84.4781501 62.87664,82.4682306 65.1804,80.5061662 C65.772,80.0002681 66.3636,79.4875335 66.94824,78.961126 C69.16152,76.9922252 71.21472,74.9891421 73.0452,72.9997319 C73.51152,72.4938338 73.96392,71.9879357 74.4372,71.4683646 C76.0817933,69.5944648 77.5933534,67.611779 78.9612,65.5343164 C79.30224,65.0284182 79.6572,64.5156836 79.92168,64.0097855 C81.0643421,62.1310734 82.0355674,60.1567566 82.824,58.1099196 C83.01192,57.6450402 83.18592,57.152815 83.35992,56.5922252 C83.4852,56.2162198 83.59656,55.8402145 83.70096,55.4642091 C84.13248,53.9191689 84.54312,52.3399464 84.96072,50.6308311 C85.09296,50.1112601 85.21128,49.5985255 85.33656,49.0857909 C85.80288,47.0827078 86.24136,45.0727882 86.63112,43.1038874 L86.67984,42.8646113 C86.77032,42.4270777 86.85384,41.9895442 86.93736,41.5520107 C87.3132,39.6104558 87.67512,37.5936997 88.00224,35.5564343 L88.24584,34.0182306 C88.57296,31.8920912 88.85832,29.8753351 89.09496,28.0226542 C89.16456,27.5099196 89.22024,26.997185 89.28288,26.4981233 C89.54736,24.2762735 89.77008,22.2595174 89.93016,20.488874 L89.93016,20.2632708 C89.97192,19.8052279 90.01368,19.3676944 90.04848,18.9369973 L90.04848,18.9369973 C90.2364,16.7561662 90.38952,14.6847185 90.48696,12.9414209 C90.52408,12.3762735 90.55192,11.8635389 90.57048,11.4032172 C90.61224,10.5691689 90.64008,9.91286863 90.654,9.46849866 C87.75864,9.22238606 76.65048,8.21742627 65.06904,6.16648794 C62.34072,5.6810992 59.70288,5.16152815 57.2112,4.6077748 C53.6268,3.82158177 50.3556,2.96018767 47.4672,2.04410188 C44.45352,2.96018767 41.05704,3.82158177 37.35432,4.61461126 C34.79304,5.16152815 32.07864,5.6810992 29.28072,6.16648794 C17.2608,8.23793566 5.8812,9.24289544 3.11808,9.46849866 Z" id="Shape"></path>
                    <ellipse id="Oval" transform="translate(45.172193, 33.332861) rotate(-43.990000) translate(-45.172193, -33.332861) " cx="45.1721934" cy="33.3328608" rx="9.37798734" ry="8.7377108"></ellipse>
                    <polygon id="Path" points="47.17488 36.4588472 44.94072 36.4588472 42.71352 36.4588472 36.40776 65.3565684 49.33248 65.3565684"></polygon>
                    <g opacity="0.2" transform="translate(0.696000, 3.418231)" id="Path">
                        <path d="M64.49832,1.99624665 L28.45248,1.99624665 C31.12512,1.53820375 33.83256,1.01863271 36.49824,0.451206434 L56.68224,0.451206434 C59.2644,1.01863271 61.89528,1.53820375 64.49832,1.99624665 Z"></path>
                        <path d="M90.5496,9.57104558 L1.3224,9.57104558 C1.36416,8.99678284 1.40592,8.48404826 1.45464,8.0191689 L90.63312,8.0191689 C90.61224,8.4772118 90.5844,8.98994638 90.5496,9.57104558 Z"></path>
                        <path d="M90.10416,15.5734584 C90.0624,16.0793566 90.01368,16.5920912 89.96496,17.1253351 L0.82128,17.1253351 C0.82128,16.5920912 0.87,16.0793566 0.89784,15.5734584 L90.10416,15.5734584 Z"></path>
                        <path d="M89.31768,23.1414209 C89.25504,23.6541555 89.1924,24.1668901 89.1228,24.6932976 L0.57072,24.6932976 C0.57072,24.1668901 0.57072,23.6541555 0.60552,23.1414209 L89.31768,23.1414209 Z"></path>
                        <path d="M88.27368,30.7025469 C88.19016,31.222118 88.1136,31.7280161 88.03008,32.2544236 L0.57768,32.2544236 C0.57768,31.7280161 0.57768,31.222118 0.57768,30.7025469 L88.27368,30.7025469 Z"></path>
                        <path d="M87,38.2841823 C86.8956,38.8037534 86.7912,39.3164879 86.6868,39.8428954 L0.87,39.8428954 C0.87,39.3164879 0.80736,38.8037534 0.78648,38.2841823 L87,38.2841823 Z"></path>
                        <path d="M85.35048,45.8042895 L84.97464,47.3561662 L1.45464,47.3561662 C1.39896,46.8365952 1.35024,46.3238606 1.30152,45.8042895 L85.35048,45.8042895 Z"></path>
                        <path d="M83.35992,53.3995979 C83.19288,53.9191689 83.01192,54.4319035 82.81008,54.9514745 L2.5404,54.9514745 C2.40816,54.4319035 2.30376,53.9191689 2.21328,53.3995979 L83.35992,53.3995979 Z"></path>
                        <path d="M79.85904,60.9607239 C79.5528,61.4802949 79.21872,61.999866 78.88464,62.5126005 L5.38008,62.5126005 C5.1156,61.999866 4.86504,61.4802949 4.6284,60.9607239 L79.85904,60.9607239 Z"></path>
                        <path d="M74.298,68.5286863 C73.8456,69.0482574 73.3932,69.560992 72.906,70.0737265 L10.266,70.0737265 C9.86232,69.560992 9.47952,69.0482574 9.10368,68.5286863 L74.298,68.5286863 Z"></path>
                        <path d="M66.76728,76.0898123 C66.17568,76.6162198 65.58408,77.1289544 64.98552,77.641689 L17.10768,77.641689 C16.58568,77.1289544 16.06368,76.6162198 15.54864,76.0898123 L66.76728,76.0898123 Z"></path>
                        <path d="M57.25992,83.6509383 L55.04664,85.202815 L25.9608,85.202815 C25.30656,84.6969169 24.64536,84.1841823 23.97024,83.6509383 L57.25992,83.6509383 Z"></path>
                        <path d="M45.56712,91.2189008 C44.53008,91.8136729 43.61136,92.333244 42.82488,92.763941 L37.0968,92.763941 C36.4008,92.333244 35.52384,91.8136729 34.57728,91.2189008 L45.56712,91.2189008 Z"></path>
                    </g>
                </g>
            </g>
        </g>
    </g>
</svg>