<svg width="20" height="20" viewBox="0 0 20 20" fill="none" xmlns="http://www.w3.org/2000/svg">
<path fill-rule="evenodd" clip-rule="evenodd" d="M9.16667 7.5C9.16667 7.04 9.54 6.66667 10 6.66667C10.46 6.66667 10.8333 7.04 10.8333 7.5V10.8333C10.8333 11.2933 10.46 11.6667 10 11.6667C9.54 11.6667 9.16667 11.2933 9.16667 10.8333V7.5ZM9.16667 13.3333C9.16667 12.8733 9.54 12.5 10 12.5C10.46 12.5 10.8333 12.8733 10.8333 13.3333C10.8333 13.7933 10.46 14.1667 10 14.1667C9.54 14.1667 9.16667 13.7933 9.16667 13.3333ZM17.3873 15.2942C17.1964 15.6317 16.8247 15.8333 16.3931 15.8333H3.60642C3.17475 15.8333 2.80308 15.6317 2.61308 15.2942C2.52308 15.1358 2.40475 14.8133 2.62725 14.4467L9.01975 3.84833C9.40892 3.20333 10.5906 3.20333 10.9797 3.84833L17.3731 14.4467C17.5947 14.8133 17.4773 15.1358 17.3873 15.2942ZM18.8006 13.5858L12.4072 2.98667C11.9081 2.16 11.0081 1.66667 9.99975 1.66667C8.99142 1.66667 8.09142 2.16 7.59308 2.98667L1.19975 13.5858C0.725582 14.3717 0.711416 15.3167 1.16142 16.1133C1.64392 16.9692 2.58142 17.5 3.60642 17.5H16.3931C17.4189 17.5 18.3556 16.9692 18.8389 16.1133C19.2889 15.3167 19.2747 14.3717 18.8006 13.5858Z" fill="#FF3D71"/>
</svg>
