<?xml version="1.0" encoding="UTF-8"?>
<svg width="80px" height="80px" viewBox="0 0 80 80" version="1.1" xmlns="http://www.w3.org/2000/svg" xmlns:xlink="http://www.w3.org/1999/xlink">
    <!-- Generator: Sketch 61 (89581) - https://sketch.com -->
    <title>Group 6</title>
    <desc>Created with Sketch.</desc>
    <g id="Steps" stroke="none" stroke-width="1" fill="none" fill-rule="evenodd">
        <g id="05.Employees-step" transform="translate(-560.000000, -431.000000)">
            <g id="Group-5" transform="translate(230.000000, 315.000000)">
                <g id="Group-2" transform="translate(260.000000, 91.000000)">
                    <g id="Group-11" transform="translate(70.000000, 25.000000)">
                        <g id="Group-6">
                            <circle id="Oval" stroke="#E3EAF3" fill="#F7F8FB" cx="40" cy="40" r="39.5"></circle>
                            <g id="Group" transform="translate(23.000000, 20.000000)" fill="#CCD7DD" fill-rule="nonzero">
                                <path d="M20.2028986,21.721519 C26.7072464,21.721519 32.2753623,26.5316456 33.457971,33.1139241 L33.457971,33.1139241 L33.5072464,33.3164557 C34.0985507,36.7088608 31.5362319,39.8481013 28.1855072,39.8481013 L28.1855072,39.8481013 L5.42028986,39.8481013 C2.11884058,39.8481013 -0.443478261,36.8101266 0.0985507246,33.4177215 L0.0985507246,33.4177215 L0.153585097,33.0983987 C1.36119929,26.5272699 6.90559006,21.721519 13.4521739,21.721519 L13.4521739,21.721519 Z M9.30336807,3.86288607 C13.2942546,-1.06519482 20.7102808,-1.08544304 24.7362319,3.89873418 L24.7362319,3.89873418 L24.9160761,4.13018816 C27.7266779,7.86583649 27.3277137,13.1314906 23.9971014,16.4050633 L23.9971014,16.4050633 L23.8985507,16.5063291 C19.9565217,20.3544304 13.7478261,20.2531646 9.90434783,16.3037975 L9.90434783,16.3037975 L9.85507246,16.2531646 C6.65217391,12.9620253 6.35652174,7.74683544 9.11594203,4.10126582 L9.11594203,4.10126582 Z" id="Combined-Shape"></path>
                            </g>
                        </g>
                    </g>
                </g>
            </g>
        </g>
    </g>
</svg>