<?xml version="1.0" encoding="UTF-8"?>
<svg width="18px" height="18px" viewBox="0 0 18 18" version="1.1" xmlns="http://www.w3.org/2000/svg" xmlns:xlink="http://www.w3.org/1999/xlink">
    <!-- Generator: Sketch 57.1 (83088) - https://sketch.com -->
    <title>Combined Shape</title>
    <desc>Created with Sketch.</desc>
    <g id="Steps" stroke="none" stroke-width="1" fill="none" fill-rule="evenodd">
        <g id="14.Success" transform="translate(-629.000000, -716.000000)" fill="#ADBFC7" fill-rule="nonzero">
            <path d="M642.5,716 C642.998462,716 643.34355,716.306746 643.393691,716.778662 L643.4,716.9 L646.1,716.9 C646.598462,716.9 646.94355,717.206746 646.993691,717.678662 L647,717.8 L647,733.1 C647,733.598462 646.693254,733.94355 646.221338,733.993691 L646.1,734 L629.9,734 C629.401538,734 629.05645,733.693254 629.006309,733.221338 L629,733.1 L629,717.8 C629,717.301538 629.306746,716.95645 629.778662,716.906309 L629.9,716.9 L632.6,716.9 C632.6,716.36 632.96,716 633.5,716 C633.998462,716 634.34355,716.306746 634.393691,716.778662 L634.4,716.9 L637.1,716.9 C637.1,716.36 637.46,716 638,716 C638.498462,716 638.84355,716.306746 638.893691,716.778662 L638.9,716.9 L641.6,716.9 C641.6,716.36 641.96,716 642.5,716 Z M645.2,723.2 L630.8,723.2 L630.8,732.2 L645.2,732.2 L645.2,723.2 Z M642.5,728.6 C642.95,728.6 643.4,728.96 643.4,729.5 C643.4,730.04 643.04,730.4 642.5,730.4 L642.5,730.4 L633.5,730.4 C632.96,730.4 632.6,730.04 632.6,729.5 C632.6,728.96 632.96,728.6 633.5,728.6 L633.5,728.6 Z M633.5,725 L642.5,725 C642.95,725 643.4,725.36 643.4,725.9 C643.4,726.398462 643.093254,726.74355 642.621338,726.793691 L642.5,726.8 L633.5,726.8 C632.96,726.8 632.6,726.44 632.6,725.9 C632.6,725.401538 632.906746,725.05645 633.378662,725.006309 L633.5,725 L642.5,725 Z M632.6,718.7 L630.8,718.7 L630.8,721.4 L645.2,721.4 L645.2,718.7 L643.4,718.7 C643.4,719.24 643.04,719.6 642.5,719.6 C642.001538,719.6 641.65645,719.293254 641.606309,718.821338 L641.6,718.7 L638.9,718.7 C638.9,719.24 638.54,719.6 638,719.6 C637.501538,719.6 637.15645,719.293254 637.106309,718.821338 L637.1,718.7 L634.4,718.7 C634.4,719.24 634.04,719.6 633.5,719.6 C632.96,719.6 632.6,719.24 632.6,718.7 Z" id="Combined-Shape"></path>
        </g>
    </g>
</svg>