<svg width="17" height="17" viewBox="0 0 17 17" fill="none" xmlns="http://www.w3.org/2000/svg">
<path d="M6.39117 15.9667C6.76891 15.9667 7.07513 15.656 7.07513 15.2727C7.07513 14.8894 6.76891 14.5787 6.39117 14.5787C6.01343 14.5787 5.70721 14.8894 5.70721 15.2727C5.70721 15.656 6.01343 15.9667 6.39117 15.9667Z" stroke="#2E3A59" stroke-width="1.5" stroke-linecap="round" stroke-linejoin="round"/>
<path d="M13.9147 15.9667C14.2924 15.9667 14.5987 15.656 14.5987 15.2727C14.5987 14.8894 14.2924 14.5787 13.9147 14.5787C13.537 14.5787 13.2307 14.8894 13.2307 15.2727C13.2307 15.656 13.537 15.9667 13.9147 15.9667Z" stroke="#2E3A59" stroke-width="1.5" stroke-linecap="round" stroke-linejoin="round"/>
<path d="M0.919556 1.3924H3.65538L5.48838 10.6852C5.55092 11.0048 5.72223 11.2918 5.97231 11.4961C6.22239 11.7003 6.53531 11.8088 6.85629 11.8026H13.5043C13.8253 11.8088 14.1382 11.7003 14.3883 11.4961C14.6384 11.2918 14.8097 11.0048 14.8722 10.6852L15.9666 4.86246H4.33933" stroke="#2E3A59" stroke-width="1.5" stroke-linecap="round" stroke-linejoin="round"/>
</svg>
