<?xml version="1.0" encoding="UTF-8"?>
<svg width="18px" height="18px" viewBox="0 0 18 18" version="1.1" xmlns="http://www.w3.org/2000/svg" xmlns:xlink="http://www.w3.org/1999/xlink">
    <!-- Generator: Sketch 57.1 (83088) - https://sketch.com -->
    <title>Combined Shape</title>
    <desc>Created with Sketch.</desc>
    <g id="Steps" stroke="none" stroke-width="1" fill="none" fill-rule="evenodd">
        <g id="14.Success" transform="translate(-864.000000, -716.000000)" fill="#A0B2BB" fill-rule="nonzero">
            <path d="M870.3,716 L870.3,716.9 L875.7,716.9 L875.7,716 L877.5,716 L877.5,716.9 L879.3,716.9 C880.83,716.9 882,718.07 882,719.6 L882,719.6 L882,731.3 C882,732.83 880.83,734 879.3,734 L879.3,734 L866.7,734 C865.17,734 864,732.83 864,731.3 L864,731.3 L864,719.6 C864,718.07 865.17,716.9 866.7,716.9 L866.7,716.9 L868.5,716.9 L868.5,716 L870.3,716 Z M880.2,723.2 L865.8,723.2 L865.8,731.3 C865.8,731.84 866.16,732.2 866.7,732.2 L866.7,732.2 L879.3,732.2 C879.84,732.2 880.2,731.84 880.2,731.3 L880.2,731.3 L880.2,723.2 Z M875.34,725 L876.6,726.26 L872.1,730.76 L869.4,728.06 L870.66,726.8 L872.1,728.24 L875.34,725 Z M868.5,718.7 L866.7,718.7 C866.16,718.7 865.8,719.06 865.8,719.6 L865.8,719.6 L865.8,721.4 L880.2,721.4 L880.2,719.6 C880.2,719.06 879.84,718.7 879.3,718.7 L879.3,718.7 L877.5,718.7 L877.5,719.6 L875.7,719.6 L875.7,718.7 L870.3,718.7 L870.3,719.6 L868.5,719.6 L868.5,718.7 Z" id="Combined-Shape"></path>
        </g>
    </g>
</svg>