<svg width="20" height="20" viewBox="0 0 20 20" fill="none" xmlns="http://www.w3.org/2000/svg">
<path fill-rule="evenodd" clip-rule="evenodd" d="M11.1784 10L14.7559 6.4225C15.0817 6.09667 15.0817 5.57 14.7559 5.24417C14.4301 4.91833 13.9034 4.91833 13.5776 5.24417L10.0001 8.82167L6.42258 5.24417C6.09675 4.91833 5.57008 4.91833 5.24425 5.24417C4.91842 5.57 4.91842 6.09667 5.24425 6.4225L8.82175 10L5.24425 13.5775C4.91842 13.9033 4.91842 14.43 5.24425 14.7558C5.40675 14.9183 5.62008 15 5.83342 15C6.04675 15 6.26008 14.9183 6.42258 14.7558L10.0001 11.1783L13.5776 14.7558C13.7401 14.9183 13.9534 15 14.1667 15C14.3801 15 14.5934 14.9183 14.7559 14.7558C15.0817 14.43 15.0817 13.9033 14.7559 13.5775L11.1784 10Z" fill="#2E3A59"/>
</svg>
