<?xml version="1.0" encoding="UTF-8"?>
<svg width="20px" height="20px" viewBox="0 0 20 20" version="1.1" xmlns="http://www.w3.org/2000/svg" xmlns:xlink="http://www.w3.org/1999/xlink">
    <!-- Generator: sketchtool 57.1 (101010) - https://sketch.com -->
    <title>E34F72E5-C739-4DF9-8529-001E00111F70</title>
    <desc>Created with sketchtool.</desc>
    <g id="Page-1" stroke="none" stroke-width="1" fill="none" fill-rule="evenodd">
        <g id="08.Recurring-(Weekly)" transform="translate(-831.000000, -534.000000)" fill="#ADBFC7" fill-rule="nonzero">
            <g id="Group-13" transform="translate(638.000000, 526.000000)">
                <path d="M210,8 C211.639286,8 212.906633,9.20880102 212.995067,10.8194288 L213,11 L213,25.6 L209.6,28 L207.3,26.4 L205,28 L202.7,26.4 L200.4,28 L197,25.7 L197,18 L193,18 L193,11 C193,9.36071429 194.208801,8.09336735 195.819429,8.00493349 L196,8 L210,8 Z M210,10 L198.8,10 C198.883333,10.25 198.966667,10.5 198.99213,10.8078704 L199,11 L199,24.6 L200.4,25.6 L202.7,24 L205,25.6 L207.3,24 L209.6,25.6 L211,24.6 L211,11 C211,10.4 210.6,10 210,10 Z M205,20 L205,22 L201,22 L201,20 L205,20 Z M209,16 L209,18 L201,18 L201,16 L209,16 Z M196,10 C195.442857,10 195.058163,10.344898 195.00605,10.8745627 L195,11 L195,16 L197,16 L197,11 C197,10.4 196.6,10 196,10 Z M209,12 L209,14 L201,14 L201,12 L209,12 Z" id="Combined-Shape-Copy-3"></path>
            </g>
        </g>
    </g>
</svg>