<svg width="20" height="20" viewBox="0 0 20 20" fill="none" xmlns="http://www.w3.org/2000/svg">
<path fill-rule="evenodd" clip-rule="evenodd" d="M9.98599 6.10243L5.30516 10.7833L5.08516 13.2466L7.56599 13.0208L12.2327 8.34909L9.98599 6.10243ZM14.9718 5.60743L12.726 3.36243L11.1027 4.98576L13.3485 7.23243L14.9718 5.60743ZM4.24266 14.9966C4.21683 14.9991 4.19183 14.9999 4.16683 14.9999C3.94683 14.9999 3.73433 14.9133 3.57766 14.7558C3.40266 14.5808 3.31433 14.3374 3.33683 14.0916L3.65266 10.6158C3.68766 10.2349 3.85599 9.87576 4.12683 9.60493L11.6235 2.10743C12.2085 1.52076 13.2702 1.54993 13.8868 2.16576L16.1685 4.44743H16.1693C16.8077 5.08659 16.8327 6.10076 16.226 6.70909L8.72849 14.2066C8.45766 14.4783 8.09933 14.6458 7.71766 14.6808L4.24266 14.9966ZM4.16666 16.6667H15.8333C16.2917 16.6667 16.6667 17.0417 16.6667 17.5C16.6667 17.9583 16.2917 18.3333 15.8333 18.3333H4.16666C3.70833 18.3333 3.33333 17.9583 3.33333 17.5C3.33333 17.0417 3.70833 16.6667 4.16666 16.6667Z" fill="#2E3A59"/>
</svg>
