<?xml version="1.0" encoding="UTF-8"?>
<svg width="31px" height="26px" viewBox="0 0 31 26" version="1.1" xmlns="http://www.w3.org/2000/svg" xmlns:xlink="http://www.w3.org/1999/xlink">
    <!-- Generator: Sketch 61 (89581) - https://sketch.com -->
    <title></title>
    <desc>Created with Sketch.</desc>
    <g id="Steps" stroke="none" stroke-width="1" fill="none" fill-rule="evenodd">
        <g id="Payment-method" transform="translate(-67.000000, -163.000000)" fill="#26C0D6" fill-rule="nonzero">
            <path d="M93.4374381,188.124993 C94.3017034,188.124993 94.9999343,187.35352 94.9999343,186.406237 L94.9999343,175.302777 C97.3436788,174.316441 98.3006886,171.220726 96.8553987,168.916035 L93.6864418,163.857472 C93.4032489,163.403381 92.90033,163.125052 92.3632219,163.125052 L72.6367064,163.125052 C72.0995983,163.125052 71.5966794,163.403381 71.3134865,163.857472 L68.1445296,168.916035 C66.6992396,171.220726 67.6562495,174.316441 69.9999939,175.302777 L69.9999939,186.406237 C69.9999939,187.35352 70.6982249,188.124993 71.5624902,188.124993 L93.4374381,188.124993 Z M93.315368,173.286142 C92.5975868,173.286142 91.9384087,172.98831 91.45504,172.446338 L89.7118705,170.498081 L87.9687011,172.441427 C87.4852847,172.983446 86.8212429,173.281278 86.1083731,173.281278 C85.3954555,173.281278 84.7314137,172.983446 84.2479973,172.441427 L82.4999641,170.498081 L80.7567947,172.441427 C80.273426,172.983446 79.6093365,173.281278 78.8964666,173.281278 C78.1786854,173.281278 77.5195073,172.983446 77.0360909,172.441427 L75.2880577,170.498081 L73.5448883,172.441427 C73.0615196,172.983446 72.3974301,173.281278 71.6845602,173.281278 C71.5624902,173.281278 71.4452839,173.271503 71.332989,173.256864 C70.5517409,173.149433 70.170892,172.578136 70.0146328,172.241251 C69.7704928,171.713918 69.667973,170.893569 70.1269277,170.161149 L73.0663833,165.468797 L91.9286335,165.468797 L94.8680892,170.161149 C95.3319553,170.898481 95.2342992,171.718782 94.9852955,172.246115 C94.8290363,172.578136 94.4530511,173.154344 93.6669392,173.261728 C93.549733,173.276414 93.4325743,173.286142 93.315368,173.286142 Z M92.6464148,178.74024 L72.3437384,178.74024 L72.3437384,175.581058 C73.5156106,175.419935 74.5458625,174.83891 75.2880577,174.008834 C76.1669619,174.990258 77.451129,175.625022 78.8915552,175.625022 C80.3368929,175.625022 81.6161963,174.990258 82.4951004,174.008834 C83.3740046,174.990258 84.6581717,175.625022 86.0985979,175.625022 C87.5438879,175.625022 88.8231913,174.990258 89.7020954,174.008834 C90.4491544,174.83891 91.4745426,175.419935 92.6464148,175.581058 L92.6464148,178.74024 Z M92.6561899,185.781248 L72.3437384,185.781248 L72.3437384,181.093759 L92.6561899,181.093759 L92.6561899,185.781248 Z" id=""></path>
        </g>
    </g>
</svg>