<svg width="20" height="20" viewBox="0 0 20 20" fill="none" xmlns="http://www.w3.org/2000/svg">
<path fill-rule="evenodd" clip-rule="evenodd" d="M10 5.83333C10.92 5.83333 11.6667 5.08667 11.6667 4.16667C11.6667 3.24667 10.92 2.5 10 2.5C9.08 2.5 8.33333 3.24667 8.33333 4.16667C8.33333 5.08667 9.08 5.83333 10 5.83333ZM10 8.33333C9.08 8.33333 8.33333 9.08 8.33333 10C8.33333 10.92 9.08 11.6667 10 11.6667C10.92 11.6667 11.6667 10.92 11.6667 10C11.6667 9.08 10.92 8.33333 10 8.33333ZM8.33333 15.8333C8.33333 14.9133 9.08 14.1667 10 14.1667C10.92 14.1667 11.6667 14.9133 11.6667 15.8333C11.6667 16.7533 10.92 17.5 10 17.5C9.08 17.5 8.33333 16.7533 8.33333 15.8333Z" fill="#2E3A59"/>
</svg>
