<?xml version="1.0" encoding="UTF-8"?>
<svg width="29px" height="23px" viewBox="0 0 29 23" version="1.1" xmlns="http://www.w3.org/2000/svg" xmlns:xlink="http://www.w3.org/1999/xlink">
    <!-- Generator: Sketch 61 (89581) - https://sketch.com -->
    <title></title>
    <desc>Created with Sketch.</desc>
    <g id="Steps" stroke="none" stroke-width="1" fill="none" fill-rule="evenodd">
        <g id="Payment-method" transform="translate(-68.000000, -72.000000)" fill="#469CDC" fill-rule="nonzero">
            <path d="M94.2186885,94.5624963 C95.5126308,94.5624963 96.5624329,93.5126941 96.5624329,92.2187519 L96.5624329,75.0312928 C96.5624329,73.7373506 95.5126308,72.6875484 94.2186885,72.6875484 L70.7812444,72.6875484 C69.4873022,72.6875484 68.4375,73.7373506 68.4375,75.0312928 L68.4375,92.2187519 C68.4375,93.5126941 69.4873022,94.5624963 70.7812444,94.5624963 L94.2186885,94.5624963 Z M71.0839876,85.6855739 L70.1562554,85.6855739 C70.0585994,85.6855739 69.9853574,85.5879178 69.9999963,85.4902618 L70.8007947,80.5048935 C70.8105221,80.3730961 70.9325922,80.27544 71.0546622,80.27544 L73.0077825,80.27544 C73.9111007,80.27544 74.702124,80.6172361 74.702124,81.6426243 C74.702124,83.0488614 73.8476338,83.8789375 72.4511718,83.8789375 C72.2168069,83.8789375 71.6210957,83.7568675 71.5722677,84.1084387 L71.3525416,85.4072447 C71.3379028,85.5439536 71.2158328,85.6855739 71.0839876,85.6855739 Z M85.0341592,85.6806624 L84.033185,85.6806624 C83.9403927,85.6806624 83.8671507,85.5830064 83.8769259,85.4853504 L84.6679491,80.5048935 C84.682588,80.3730961 84.804658,80.27544 84.9365032,80.27544 L86.874937,80.27544 C87.7782551,80.27544 88.5692784,80.6172361 88.5692784,81.6426243 C88.5692784,83.0488614 87.7147883,83.8789375 86.3281014,83.8789375 C86.0936888,83.8789375 85.4980253,83.7568675 85.4491973,84.1084387 L85.2294712,85.524451 C85.2050572,85.6074204 85.1318152,85.6806624 85.0341592,85.6806624 Z M93.9549982,85.6806624 L93.1493361,85.6806624 C93.0516801,85.6806624 92.978438,85.597693 92.978438,85.5097644 L92.9931246,85.4853504 L93.7841002,80.4072375 C93.7938753,80.3339955 93.8671173,80.27544 93.9403593,80.27544 L94.8436775,80.27544 C94.9266947,80.27544 94.9999367,80.348682 94.9999367,80.4463381 L94.9999367,80.4609769 L94.2089134,85.4023809 C94.1991383,85.5390898 94.0770682,85.6806624 93.9549982,85.6806624 Z M71.7724434,82.7998099 L72.1728427,82.7851711 C72.7099508,82.7851711 73.1249888,82.7119291 73.2226448,82.0918038 C73.3349397,81.4375371 72.9199017,81.3642951 72.3681547,81.3642951 L72.1386535,81.3642951 C72.0654115,81.3642951 71.9921695,81.4131231 71.9823943,81.4961403 L71.7724434,82.7998099 Z M85.6542368,82.7998099 L86.0448608,82.7851711 C86.6796249,82.7851711 87.119077,82.638687 87.119077,81.9062669 C87.1145607,81.4256775 86.7142719,81.3702988 86.3248082,81.3648396 L86.0155831,81.3642951 C85.9277022,81.3642951 85.8690991,81.4131231 85.8593239,81.4961403 L85.6542368,82.7998099 Z M75.961877,85.7636796 C75.0097309,85.7636796 74.4140673,85.1435543 74.4140673,84.1914082 C74.4140673,83.0342225 75.3271129,81.9844203 76.5233991,81.9844203 C76.9872652,81.9844203 77.3974396,82.0576623 77.6806325,82.4727004 C77.6904076,82.3408553 77.7001828,82.0723012 77.8857197,82.0723012 L78.8134518,82.0723012 C78.9111078,82.0723012 78.9843499,82.1699572 78.969711,82.2627018 L78.4716558,85.4023809 C78.4472418,85.5390898 78.3349469,85.6806624 78.2031017,85.6806624 L77.3632504,85.6806624 C77.2558193,85.6806624 77.2069913,85.597693 77.2069913,85.4853504 C77.2069913,85.4121084 77.2314053,85.2558969 77.2558193,85.1826549 C76.9482124,85.524451 76.4013291,85.7636796 75.961877,85.7636796 Z M89.8241678,85.7636796 C88.8720216,85.7636796 88.2763104,85.1435543 88.2763104,84.1914082 C88.2763104,83.0342225 89.1894036,81.9844203 90.3856899,81.9844203 C90.8593311,81.9844203 91.2743692,82.0576623 91.5429232,82.4727004 C91.5575621,82.3408553 91.5673372,82.0723012 91.7528741,82.0723012 L92.6806063,82.0723012 C92.7782623,82.0723012 92.8515043,82.1699572 92.8368654,82.2627018 L92.3388102,85.4023809 C92.3143962,85.5390898 92.2021013,85.6806624 92.0702562,85.6806624 L91.2255411,85.6806624 C91.11811,85.6806624 91.069282,85.597693 91.069282,85.4853504 C91.069282,85.4121084 91.1034711,85.2558969 91.11811,85.1826549 C90.8251419,85.524451 90.2782587,85.7636796 89.8241678,85.7636796 Z M80.5712601,86.9795161 L79.6337528,86.9795161 C79.5507357,86.9795161 79.4774937,86.9111378 79.4774937,86.8232569 C79.4774937,86.6767729 80.3466704,85.4658478 80.4784678,85.2803109 C80.3954984,85.0214843 79.4433522,82.3066661 79.4433522,82.248063 C79.4433522,82.1650458 79.5165942,82.0771649 79.5995637,82.0771649 L80.512657,82.0771649 C80.634727,82.0771649 80.7421582,82.1650458 80.781211,82.272477 L81.3183191,84.1035273 L82.6122614,82.199235 C82.6610894,82.125993 82.7489702,82.0771649 82.8319874,82.0771649 L83.7694947,82.0771649 C83.8525118,82.0771649 83.9257539,82.1650458 83.9257539,82.248063 C83.9257539,82.2822521 83.9257539,82.3066661 83.9013399,82.3310801 L80.7909862,86.8525346 C80.7421582,86.9257767 80.659141,86.9746047 80.5712601,86.9795161 Z M76.4599323,84.7822557 C77.0605072,84.7822557 77.5341485,84.3281647 77.5341485,83.7324535 C77.5341485,83.2539486 77.1923524,82.9756194 76.7382615,82.9756194 C76.1425502,82.9756194 75.6786841,83.4541243 75.6786841,84.0498356 C75.6786841,84.5283405 76.0107051,84.7822557 76.4599323,84.7822557 Z M90.3368619,84.7822557 C90.922798,84.7822557 91.3964392,84.3330285 91.3964392,83.7324535 C91.4013029,83.2539486 91.0595068,82.9756194 90.6054159,82.9756194 C90.0097047,82.9756194 89.5458386,83.4492606 89.5458386,84.0498356 C89.5458386,84.5234768 89.8876346,84.7822557 90.3368619,84.7822557 Z" id=""></path>
        </g>
    </g>
</svg>