<?xml version="1.0" encoding="UTF-8"?>
<svg width="18px" height="18px" viewBox="0 0 18 18" version="1.1" xmlns="http://www.w3.org/2000/svg" xmlns:xlink="http://www.w3.org/1999/xlink">
    <!-- Generator: Sketch 57.1 (83088) - https://sketch.com -->
    <title>Combined Shape</title>
    <desc>Created with Sketch.</desc>
    <g id="Steps" stroke="none" stroke-width="1" fill="none" fill-rule="evenodd">
        <g id="14.Success" transform="translate(-864.000000, -716.000000)" fill="#A0B2BB" fill-rule="nonzero">
            <path d="M873,716 C877.95,716 882,720.05 882,725 C882,729.95 877.95,734 873,734 C868.05,734 864,729.95 864,725 C864,720.05 868.05,716 873,716 Z M873,717.8 C869.04,717.8 865.8,721.04 865.8,725 C865.8,728.96 869.04,732.2 873,732.2 C876.96,732.2 880.2,728.96 880.2,725 C880.2,721.04 876.96,717.8 873,717.8 Z M873.9,720.5 L873.9,724.1 L877.5,724.1 L877.5,725.9 L873.9,725.9 L873.9,729.5 L872.1,729.5 L872.1,725.9 L868.5,725.9 L868.5,724.1 L872.1,724.1 L872.1,720.5 L873.9,720.5 Z" id="Combined-Shape"></path>
        </g>
    </g>
</svg>