<svg width="16" height="16" viewBox="0 0 16 16" fill="none" xmlns="http://www.w3.org/2000/svg">
<path fill-rule="evenodd" clip-rule="evenodd" d="M12.6667 7.33334H8.66666V3.33334C8.66666 2.96467 8.36799 2.66667 7.99999 2.66667C7.63199 2.66667 7.33332 2.96467 7.33332 3.33334V7.33334H3.33332C2.96532 7.33334 2.66666 7.63134 2.66666 8C2.66666 8.36867 2.96532 8.66667 3.33332 8.66667H7.33332V12.6667C7.33332 13.0353 7.63199 13.3333 7.99999 13.3333C8.36799 13.3333 8.66666 13.0353 8.66666 12.6667V8.66667H12.6667C13.0347 8.66667 13.3333 8.36867 13.3333 8C13.3333 7.63134 13.0347 7.33334 12.6667 7.33334" fill="#4FBF65"/>
</svg>
