<?xml version="1.0" encoding="UTF-8"?>
<svg width="60px" height="60px" viewBox="0 0 60 60" version="1.1" xmlns="http://www.w3.org/2000/svg" xmlns:xlink="http://www.w3.org/1999/xlink">
    <!-- Generator: Sketch 57.1 (83088) - https://sketch.com -->
    <title>Combined Shape</title>
    <desc>Created with Sketch.</desc>
    <g id="Steps" stroke="none" stroke-width="1" fill="none" fill-rule="evenodd">
        <g id="14.Success" transform="translate(-690.000000, -435.000000)" fill="#4FBF65" fill-rule="nonzero">
            <path d="M720,435 C736.261429,435 750,448.737857 750,465 C750,481.262143 736.261429,495 720,495 C703.738571,495 690,481.262143 690,465 C690,448.737857 703.738571,435 720,435 Z M720,437.857143 C705.287143,437.857143 692.857143,450.287143 692.857143,465 C692.857143,479.712857 705.287143,492.142857 720,492.142857 C734.712857,492.142857 747.142857,479.712857 747.142857,465 C747.142857,450.287143 734.712857,437.857143 720,437.857143 Z M733.288571,455.070714 C733.846429,454.512143 734.751429,454.512857 735.309286,455.070714 C735.867143,455.628571 735.867143,456.532857 735.309286,457.090714 L735.309286,457.090714 L716.376429,476.023571 C716.108571,476.291429 715.745,476.441429 715.366429,476.441429 C714.987857,476.441429 714.624286,476.291429 714.356429,476.023571 L714.356429,476.023571 L705.405714,467.072143 C704.847857,466.514286 704.847857,465.61 705.405714,465.052143 C705.962857,464.494286 706.867857,464.494286 707.425714,465.052143 L707.425714,465.052143 L715.366429,472.992857 Z" id="Combined-Shape"></path>
        </g>
    </g>
</svg>