<?xml version="1.0" encoding="UTF-8"?>
<svg width="27px" height="22px" viewBox="0 0 27 22" version="1.1" xmlns="http://www.w3.org/2000/svg" xmlns:xlink="http://www.w3.org/1999/xlink">
    <!-- Generator: Sketch 61 (89581) - https://sketch.com -->
    <title></title>
    <desc>Created with Sketch.</desc>
    <g id="Steps" stroke="none" stroke-width="1" fill="none" fill-rule="evenodd">
        <g id="Payment-method" transform="translate(-208.000000, -73.000000)" fill="#6974E9" fill-rule="nonzero">
            <path d="M232.660744,94.7857164 C233.888424,94.7857164 234.892889,93.7812509 234.892889,92.5535709 L234.892889,75.589265 C234.892889,74.3615849 233.888424,73.3571194 232.660744,73.3571194 L210.339288,73.3571194 C209.111608,73.3571194 208.107143,74.3615849 208.107143,75.589265 L208.107143,92.5535709 C208.107143,93.7812509 209.111608,94.7857164 210.339288,94.7857164 L232.660744,94.7857164 Z M233.107173,78.7142687 L209.892859,78.7142687 L209.892859,75.589265 C209.892859,75.3520995 210.102123,75.1428359 210.339288,75.1428359 L232.660744,75.1428359 C232.897909,75.1428359 233.107173,75.3520995 233.107173,75.589265 L233.107173,78.7142687 Z M232.660744,93 L210.339288,93 C210.102123,93 209.892859,92.7907364 209.892859,92.5535709 L209.892859,84.0714179 L233.107173,84.0714179 L233.107173,92.5535709 C233.107173,92.7907364 232.897909,93 232.660744,93 Z M215.250009,91.2142836 L215.250009,89.4285672 L211.678576,89.4285672 L211.678576,91.2142836 L215.250009,91.2142836 Z M222.392874,91.2142836 L222.392874,89.4285672 L217.035725,89.4285672 L217.035725,91.2142836 L222.392874,91.2142836 Z" id=""></path>
        </g>
    </g>
</svg>