<svg width="20" height="20" viewBox="0 0 20 20" fill="none" xmlns="http://www.w3.org/2000/svg">
<path fill-rule="evenodd" clip-rule="evenodd" d="M8.33333 13.3333C8.33333 13.7917 7.95833 14.1667 7.5 14.1667C7.04167 14.1667 6.66667 13.7917 6.66667 13.3333V10C6.66667 9.54166 7.04167 9.16666 7.5 9.16666C7.95833 9.16666 8.33333 9.54166 8.33333 10V13.3333ZM13.3333 13.3333C13.3333 13.7917 12.9583 14.1667 12.5 14.1667C12.0417 14.1667 11.6667 13.7917 11.6667 13.3333V10C11.6667 9.54166 12.0417 9.16666 12.5 9.16666C12.9583 9.16666 13.3333 9.54166 13.3333 10V13.3333ZM15 15.8333C15 16.2925 14.6267 16.6667 14.1667 16.6667H5.83333C5.37333 16.6667 5 16.2925 5 15.8333V6.66666H15V15.8333ZM8.33333 3.60666C8.33333 3.4775 8.51167 3.33333 8.75 3.33333H11.25C11.4883 3.33333 11.6667 3.4775 11.6667 3.60666V5H8.33333V3.60666ZM17.5 5H16.6667H13.3333V3.60666C13.3333 2.53666 12.3992 1.66666 11.25 1.66666H8.75C7.60083 1.66666 6.66667 2.53666 6.66667 3.60666V5H3.33333H2.5C2.04167 5 1.66667 5.375 1.66667 5.83333C1.66667 6.29166 2.04167 6.66666 2.5 6.66666H3.33333V15.8333C3.33333 17.2117 4.455 18.3333 5.83333 18.3333H14.1667C15.545 18.3333 16.6667 17.2117 16.6667 15.8333V6.66666H17.5C17.9583 6.66666 18.3333 6.29166 18.3333 5.83333C18.3333 5.375 17.9583 5 17.5 5Z" fill="#FF3D71"/>
</svg>
