<?xml version="1.0" encoding="UTF-8"?>
<svg width="16px" height="16px" viewBox="0 0 16 16" version="1.1" xmlns="http://www.w3.org/2000/svg" xmlns:xlink="http://www.w3.org/1999/xlink">
    <!-- Generator: sketchtool 57.1 (101010) - https://sketch.com -->
    <title>E9627D2C-2E5F-40EC-84E1-7FCFDBA6ED87</title>
    <desc>Created with sketchtool.</desc>
    <g id="Steps" stroke="none" stroke-width="1" fill="none" fill-rule="evenodd">
        <g id="16.Warning" transform="translate(-736.000000, -830.000000)" fill="#FFFFFF">
            <path d="M744,830 C748.418278,830 752,833.581722 752,838 C752,842.418278 748.418278,846 744,846 C739.581722,846 736,842.418278 736,838 C736,833.581722 739.581722,830 744,830 Z M744,837 C743.487164,837 743.064493,837.38604 743.006728,837.883379 L743,838 L743,841 C743,841.552285 743.447715,842 744,842 C744.512836,842 744.935507,841.61396 744.993272,841.116621 L745,841 L745,838 C745,837.447715 744.552285,837 744,837 Z M744.5,834 L743.5,834 C743.223858,834 743,834.223858 743,834.5 L743,834.5 L743,835.5 C743,835.776142 743.223858,836 743.5,836 L743.5,836 L744.5,836 C744.776142,836 745,835.776142 745,835.5 L745,835.5 L745,834.5 C745,834.223858 744.776142,834 744.5,834 L744.5,834 Z" id="Combined-Shape-Copy-2"></path>
        </g>
    </g>
</svg>