<?xml version="1.0" encoding="UTF-8"?>
<svg width="40px" height="40px" viewBox="0 0 40 40" version="1.1" xmlns="http://www.w3.org/2000/svg" xmlns:xlink="http://www.w3.org/1999/xlink">
    <!-- Generator: Sketch 61 (89581) - https://sketch.com -->
    <title>Group 66</title>
    <desc>Created with Sketch.</desc>
    <g id="Page-1" stroke="none" stroke-width="1" fill="none" fill-rule="evenodd">
        <g id="Group-66">
            <g id="Group-6" fill="#FC427B">
                <path d="M39.5518843,26.5401572 C39.5783777,26.3469976 39.6003293,26.1534593 39.6245517,25.9602997 C39.6540729,25.7250994 39.6851079,25.4895204 39.7108443,25.2539415 C39.738473,25.0024552 39.7608031,24.7513477 39.7846471,24.500619 C39.8016785,24.3176855 39.8213593,24.1347519 39.8364983,23.9518184 C39.85845,23.6851824 39.8751029,23.4185464 39.8925128,23.1515316 C39.9038671,22.9814754 39.9174922,22.8114192 39.9269541,22.6409843 C39.9409577,22.3834381 39.9500412,22.125892 39.9598815,21.8683458 C39.9670726,21.6861698 39.9765345,21.5039938 39.9814547,21.3221965 C39.9878888,21.0877538 39.9894027,20.8536898 39.9924305,20.6200045 C39.9950798,20.4132101 40,20.2064157 40,20 C40,19.7935844 39.9950798,19.5867899 39.9924305,19.3799955 C39.9894027,19.1463103 39.9878888,18.9118675 39.9814547,18.6778035 C39.9765345,18.4960063 39.9670726,18.3138302 39.9598815,18.1316542 C39.9500412,17.8741081 39.9409577,17.6161832 39.9269541,17.3590158 C39.9174922,17.1889595 39.9038671,17.0185246 39.8925128,16.8484684 C39.8751029,16.5814536 39.85845,16.3148176 39.8364983,16.0481816 C39.8213593,15.8652481 39.8016785,15.6823146 39.7846471,15.4993811 C39.7608031,15.2486523 39.738473,14.9971661 39.7108443,14.7460586 C39.6851079,14.5104796 39.6540729,14.2752794 39.6245517,14.0397004 C39.6003293,13.846162 39.5783777,13.6530024 39.5518843,13.4598428 C39.5026824,13.0996569 39.4470465,12.7394711 39.3895181,12.3789065 C39.3792993,12.3152774 39.3709728,12.2516484 39.3607539,12.1883981 C39.2108774,11.2733517 39.0367784,10.3590629 38.8346722,9.44628906 C37.8706937,5.09072918 35.0483976,2.22098333 30.7451248,1.20291856 C30.5551298,1.14913686 30.3624855,1.09762763 30.1660564,1.05066333 C29.9885511,1.00786522 29.8057472,0.982110607 29.6202939,0.961658413 C26.4225496,0.321580483 23.2111802,-0.00338215887 19.9998108,0 C16.7884413,-0.00338215887 13.5770719,0.321580483 10.3793276,0.961658413 C10.1942528,0.982110607 10.0110704,1.00786522 9.83356515,1.05066333 C9.63713607,1.09762763 9.44487023,1.14913686 9.25487524,1.20291856 C4.95160237,2.22098333 2.12930635,5.09035043 1.16532781,9.44628906 C0.963221588,10.3590629 0.788744122,11.2733517 0.639246076,12.1883981 C0.628648746,12.2524059 0.620322272,12.3164136 0.609724943,12.3808002 C0.552575057,12.7398498 0.497317551,13.0996569 0.448115662,13.4590853 C0.421243862,13.6530024 0.399670726,13.846162 0.375448258,14.0400791 C0.345927124,14.2756581 0.314892087,14.5112371 0.288777238,14.7468161 C0.261148486,14.9979236 0.238818398,15.249031 0.215352882,15.5005173 C0.198321459,15.6826933 0.178640703,15.8648693 0.163501661,16.0478029 C0.141550049,16.3140601 0.124897102,16.5806961 0.107108727,16.8473322 C0.0957544447,17.0177671 0.0821293063,17.1889595 0.0726674047,17.3593945 C0.0586637902,17.6161832 0.0499588407,17.8729718 0.040118463,18.1297605 C0.0325489417,18.3123152 0.0234655161,18.4952488 0.0181668512,18.6778035 C0.011732758,18.9118675 0.0105973299,19.1463103 0.00756952132,19.3799955 C0.00492018886,19.5867899 0,19.7935844 0,20 C0,20.2064157 0.00492018886,20.4132101 0.00756952132,20.6200045 C0.0105973299,20.8536898 0.011732758,21.0877538 0.0181668512,21.3221965 C0.0234655161,21.5047513 0.0325489417,21.687306 0.040118463,21.8702396 C0.0499588407,22.1270282 0.0586637902,22.3838169 0.0726674047,22.6406055 C0.0821293063,22.8110405 0.0957544447,22.9818542 0.107108727,23.1526679 C0.124897102,23.4193039 0.141550049,23.6859399 0.163501661,23.9521972 C0.178640703,24.1347519 0.198321459,24.3173067 0.215352882,24.4994827 C0.238818398,24.7505902 0.261148486,25.0016977 0.288777238,25.253184 C0.314892087,25.488763 0.345927124,25.7243419 0.375448258,25.9599209 C0.399670726,26.1534593 0.421243862,26.3469976 0.448115662,26.5409147 C0.497317551,26.9003431 0.552575057,27.2597715 0.609724943,27.6191998 C0.620322272,27.6835864 0.628648746,27.7475942 0.639246076,27.8112232 C0.788744122,28.7262695 0.963221588,29.6409371 1.16532781,30.553711 C2.12930635,34.9096496 4.95160237,37.7790167 9.25487524,38.7970815 C9.44487023,38.8508632 9.63713607,38.9023724 9.83356515,38.9497154 C10.0110704,38.9921348 10.1942528,39.0178894 10.3793276,39.0379629 C13.5770719,39.6780408 16.7884413,40.0033822 19.9998108,40 C23.2111802,40.0033822 26.4225496,39.6780408 29.6202939,39.0379629 C29.8057472,39.0178894 29.9885511,38.9921348 30.1660564,38.9497154 C30.3624855,38.9023724 30.5551298,38.8508632 30.7451248,38.7967027 C35.0483976,37.7790167 37.8706937,34.9092709 38.8346722,30.553711 C39.0367784,29.6409371 39.2108774,28.7262695 39.3607539,27.8112232 C39.3709728,27.7479729 39.3792993,27.6843439 39.3895181,27.6210936 C39.4470465,27.260529 39.5026824,26.9003431 39.5518843,26.5401572" id="Combined-Shape-Copy-9"></path>
            </g>
            <path d="M20.6194014,8 C21.0493209,8 21.4033722,8.36245955 21.4033722,8.802589 L21.4033722,8.802589 L21.4033722,9.57928803 L24.109336,9.57928803 C25.2979369,9.57928803 26.2842228,10.5631068 26.2842228,11.8058252 L26.2842228,11.8058252 L26.2842228,18.7443366 C29.5212637,19.1326861 32.0249124,21.9546926 31.9998129,25.3462783 C31.9998129,29.0226537 29.0913442,32 25.500252,32 C22.187343,32 19.4308004,29.4110032 19.0514597,26.1229773 L19.0514597,26.1229773 L10.1748868,26.1229773 C8.98628588,26.1229773 8,25.1391586 8,23.8964401 L8,23.8964401 L8,11.7799353 C8,10.5631068 8.9609965,9.55339806 10.1748868,9.55339806 L10.1748868,9.55339806 L12.8808506,9.55339806 L12.8808506,8.802589 C12.8808506,8.36245955 13.234902,8 13.6648215,8 C14.0947409,8 14.4487923,8.36245955 14.4487923,8.802589 L14.4487923,8.802589 L14.4487923,9.55339806 L19.8354305,9.55339806 L19.8354305,8.802589 C19.8354305,8.36245955 20.1894819,8 20.6194014,8 Z M25.5255414,20.2977346 C22.7942882,20.2977346 20.5688226,22.5501618 20.5688226,25.3462783 C20.5688226,28.1423948 22.7942882,30.420712 25.5255414,30.420712 C28.2567946,30.420712 30.4822601,28.1682848 30.4822601,25.3721683 C30.4822601,22.5760518 28.2567946,20.2977346 25.5255414,20.2977346 Z M25.500252,21.8252427 C25.9301715,21.8252427 26.2842228,22.1877023 26.2842228,22.6278317 L26.2842228,22.6278317 L26.2842228,24.5436893 L27.6751388,24.5436893 C28.1050583,24.5436893 28.4591096,24.9061489 28.4591096,25.3462783 C28.4591096,25.7864078 28.1050583,26.1488673 27.6751388,26.1488673 L27.6751388,26.1488673 L25.500252,26.1488673 C25.0703325,26.1488673 24.7162812,25.7864078 24.7162812,25.3462783 L24.7162812,25.3462783 L24.7162812,22.6278317 C24.7162812,22.1877023 25.0703325,21.8252427 25.500252,21.8252427 Z M24.7415705,16.1035599 L9.56794165,16.1035599 L9.56794165,23.9223301 C9.56794165,24.2588997 9.84612485,24.5436893 10.1748868,24.5436893 L10.1748868,24.5436893 L19.0767491,24.5436893 C19.4308004,21.5145631 21.7827129,19.1067961 24.7415705,18.7443366 L24.7415705,18.7443366 L24.7415705,16.1035599 Z M12.8808506,11.1585761 L10.1748868,11.1585761 C9.84612485,11.1585761 9.56794165,11.4433657 9.56794165,11.8058252 L9.56794165,11.8058252 L9.56794165,14.5242718 L24.7415705,14.5242718 L24.7415705,11.8058252 C24.7415705,11.4433657 24.4633874,11.1585761 24.109336,11.1585761 L24.109336,11.1585761 L21.4033722,11.1585761 L21.4033722,11.9093851 C21.4033722,12.3495146 21.0493209,12.7119741 20.6194014,12.7119741 C20.1894819,12.7119741 19.8354305,12.3495146 19.8354305,11.9093851 L19.8354305,11.9093851 L19.8354305,11.1585761 L14.4487923,11.1585761 L14.4487923,11.9093851 C14.4487923,12.3495146 14.0947409,12.7119741 13.6648215,12.7119741 C13.234902,12.7119741 12.8808506,12.3495146 12.8808506,11.9093851 L12.8808506,11.9093851 L12.8808506,11.1585761 Z" id="Combined-Shape" stroke="#FFFFFF" stroke-width="0.5" fill="#FFFFFF" fill-rule="nonzero"></path>
        </g>
    </g>
</svg>