<?xml version="1.0" encoding="UTF-8"?>
<svg width="40px" height="40px" viewBox="0 0 40 40" version="1.1" xmlns="http://www.w3.org/2000/svg" xmlns:xlink="http://www.w3.org/1999/xlink">
    <!-- Generator: Sketch 52.3 (67297) - http://www.bohemiancoding.com/sketch -->
    <title>Group 5</title>
    <desc>Created with Sketch.</desc>
    <g id="Page-1" stroke="none" stroke-width="1" fill="none" fill-rule="evenodd">
        <g id="Settings-Hover" transform="translate(-740.000000, -231.000000)">
            <g id="Group-5" transform="translate(740.000000, 231.000000)">
                <path d="M39.5518843,26.5401572 C39.5783777,26.3469976 39.6003293,26.1534593 39.6245517,25.9602997 C39.6540729,25.7250994 39.6851079,25.4895204 39.7108443,25.2539415 C39.738473,25.0024552 39.7608031,24.7513477 39.7846471,24.500619 C39.8016785,24.3176855 39.8213593,24.1347519 39.8364983,23.9518184 C39.85845,23.6851824 39.8751029,23.4185464 39.8925128,23.1515316 C39.9038671,22.9814754 39.9174922,22.8114192 39.9269541,22.6409843 C39.9409577,22.3834381 39.9500412,22.125892 39.9598815,21.8683458 C39.9670726,21.6861698 39.9765345,21.5039938 39.9814547,21.3221965 C39.9878888,21.0877538 39.9894027,20.8536898 39.9924305,20.6200045 C39.9950798,20.4132101 40,20.2064157 40,20 C40,19.7935844 39.9950798,19.5867899 39.9924305,19.3799955 C39.9894027,19.1463103 39.9878888,18.9118675 39.9814547,18.6778035 C39.9765345,18.4960063 39.9670726,18.3138302 39.9598815,18.1316542 C39.9500412,17.8741081 39.9409577,17.6161832 39.9269541,17.3590158 C39.9174922,17.1889595 39.9038671,17.0185246 39.8925128,16.8484684 C39.8751029,16.5814536 39.85845,16.3148176 39.8364983,16.0481816 C39.8213593,15.8652481 39.8016785,15.6823146 39.7846471,15.4993811 C39.7608031,15.2486523 39.738473,14.9971661 39.7108443,14.7460586 C39.6851079,14.5104796 39.6540729,14.2752794 39.6245517,14.0397004 C39.6003293,13.846162 39.5783777,13.6530024 39.5518843,13.4598428 C39.5026824,13.0996569 39.4470465,12.7394711 39.3895181,12.3789065 C39.3792993,12.3152774 39.3709728,12.2516484 39.3607539,12.1883981 C39.2108774,11.2733517 39.0367784,10.3590629 38.8346722,9.44628906 C37.8706937,5.09072918 35.0483976,2.22098333 30.7451248,1.20291856 C30.5551298,1.14913686 30.3624855,1.09762763 30.1660564,1.05066333 C29.9885511,1.00786522 29.8057472,0.982110607 29.6202939,0.961658413 C26.4225496,0.321580483 23.2111802,-0.00338215887 19.9998108,2.65401681e-05 C16.7884413,-0.00338215887 13.5770719,0.321580483 10.3793276,0.961658413 C10.1942528,0.982110607 10.0110704,1.00786522 9.83356515,1.05066333 C9.63713607,1.09762763 9.44487023,1.14913686 9.25487524,1.20291856 C4.95160237,2.22098333 2.12930635,5.09035043 1.16532781,9.44628906 C0.963221588,10.3590629 0.788744122,11.2733517 0.639246076,12.1883981 C0.628648746,12.2524059 0.620322272,12.3164136 0.609724943,12.3808002 C0.552575057,12.7398498 0.497317551,13.0996569 0.448115662,13.4590853 C0.421243862,13.6530024 0.399670726,13.846162 0.375448258,14.0400791 C0.345927124,14.2756581 0.314892087,14.5112371 0.288777238,14.7468161 C0.261148486,14.9979236 0.238818398,15.249031 0.215352882,15.5005173 C0.198321459,15.6826933 0.178640703,15.8648693 0.163501661,16.0478029 C0.141550049,16.3140601 0.124897102,16.5806961 0.107108727,16.8473322 C0.0957544447,17.0177671 0.0821293063,17.1889595 0.0726674047,17.3593945 C0.0586637902,17.6161832 0.0499588407,17.8729718 0.040118463,18.1297605 C0.0325489417,18.3123152 0.0234655161,18.4952488 0.0181668512,18.6778035 C0.011732758,18.9118675 0.0105973299,19.1463103 0.00756952132,19.3799955 C0.00492018886,19.5867899 0,19.7935844 0,20 C0,20.2064157 0.00492018886,20.4132101 0.00756952132,20.6200045 C0.0105973299,20.8536898 0.011732758,21.0877538 0.0181668512,21.3221965 C0.0234655161,21.5047513 0.0325489417,21.687306 0.040118463,21.8702396 C0.0499588407,22.1270282 0.0586637902,22.3838169 0.0726674047,22.6406055 C0.0821293063,22.8110405 0.0957544447,22.9818542 0.107108727,23.1526679 C0.124897102,23.4193039 0.141550049,23.6859399 0.163501661,23.9521972 C0.178640703,24.1347519 0.198321459,24.3173067 0.215352882,24.4994827 C0.238818398,24.7505902 0.261148486,25.0016977 0.288777238,25.253184 C0.314892087,25.488763 0.345927124,25.7243419 0.375448258,25.9599209 C0.399670726,26.1534593 0.421243862,26.3469976 0.448115662,26.5409147 C0.497317551,26.9003431 0.552575057,27.2597715 0.609724943,27.6191998 C0.620322272,27.6835864 0.628648746,27.7475942 0.639246076,27.8112232 C0.788744122,28.7262695 0.963221588,29.6409371 1.16532781,30.553711 C2.12930635,34.9096496 4.95160237,37.7790167 9.25487524,38.7970815 C9.44487023,38.8508632 9.63713607,38.9023724 9.83356515,38.9497154 C10.0110704,38.9921348 10.1942528,39.0178894 10.3793276,39.0379629 C13.5770719,39.6780408 16.7884413,40.0033822 19.9998108,39.9999735 C23.2111802,40.0033822 26.4225496,39.6780408 29.6202939,39.0379629 C29.8057472,39.0178894 29.9885511,38.9921348 30.1660564,38.9497154 C30.3624855,38.9023724 30.5551298,38.8508632 30.7451248,38.7967027 C35.0483976,37.7790167 37.8706937,34.9092709 38.8346722,30.553711 C39.0367784,29.6409371 39.2108774,28.7262695 39.3607539,27.8112232 C39.3709728,27.7479729 39.3792993,27.6843439 39.3895181,27.6210936 C39.4470465,27.260529 39.5026824,26.9003431 39.5518843,26.5401572" id="Combined-Shape-Copy-6" fill="#947BBF"></path>
                <path d="M24.8067836,11.6843176 C23.0955694,10.8732745 21.1141634,10.7831586 19.3128853,11.4139699 C16.701032,12.315129 14.8997539,14.7482583 14.6295622,17.4517354 C14.4494344,19.4342853 13.5487953,21.3267192 12.1077728,22.7685737 C10.7568142,24.1203122 10.5766864,26.4633257 11.927645,27.8150643 C13.2786036,29.2569187 15.6202652,29.5272664 17.2414155,27.8150643 C19.9433327,25.1115872 22.6452499,25.4720508 24.3564641,24.8412395 C26.1577422,24.2104281 27.5987647,22.8586896 28.4093399,21.1464874 C29.9404263,17.6319672 28.4093399,13.3965198 24.8067836,11.6843176 Z M13.1885397,26.7336734 C12.5580923,26.0127462 12.6481562,24.8412395 13.3686675,24.1203122 C13.5487953,23.9400804 13.818987,23.6697327 13.9991148,23.399385 L16.6109681,26.0127462 C16.3407764,26.192978 16.1606486,26.4633257 15.8904569,26.6435575 C14.9898178,27.5447165 13.818987,27.4546006 13.1885397,26.7336734 Z M26.6080617,20.5156761 C25.9776144,21.8674147 24.8968475,22.8586896 23.5458889,23.3092691 C23.5458889,23.3092691 23.5458889,23.3092691 23.5458889,23.3092691 C22.1949303,23.8499645 20.57378,23.4895009 18.0519906,25.0214713 L17.1513516,24.1203122 L20.3035883,20.9662556 L23.7260167,20.9662556 C24.2664002,20.9662556 24.6266558,20.605792 24.6266558,20.0650966 C24.6266558,19.5244012 24.2664002,19.1639376 23.7260167,19.1639376 L20.8439717,19.1639376 L20.8439717,16.1901128 C20.8439717,15.6494174 20.4837161,15.2889538 19.9433327,15.2889538 C19.4029492,15.2889538 19.0426936,15.6494174 19.0426936,16.1901128 L19.0426936,19.6145171 L15.8904569,22.7685737 L14.9898178,21.8674147 C15.7103291,20.605792 16.2507125,19.1639376 16.3407764,17.7220831 C16.5209042,15.6494174 17.9619267,13.9372152 19.8532688,13.216288 C21.2042274,12.6755926 22.6452499,12.7657085 23.9962085,13.3965198 C26.6981257,14.5680265 27.9590203,17.812199 26.6080617,20.5156761 Z" id="Shape" fill="#FFFFFF" fill-rule="nonzero"></path>
            </g>
        </g>
    </g>
</svg>