<?xml version="1.0" encoding="UTF-8"?>
<svg width="20px" height="20px" viewBox="0 0 20 20" version="1.1" xmlns="http://www.w3.org/2000/svg" xmlns:xlink="http://www.w3.org/1999/xlink">
    <!-- Generator: Sketch 61 (89581) - https://sketch.com -->
    <title>save</title>
    <desc>Created with Sketch.</desc>
    <g id="Page-1" stroke="none" stroke-width="1" fill="none" fill-rule="evenodd">
        <g id="Booking-settings---labels-edit" transform="translate(-1225.000000, -450.000000)">
            <g id="save" transform="translate(1225.000000, 450.000000)">
                <g id="Group-18">
                    <path d="M10,0 C4.5,0 0,4.5 0,10 C0,15.5 4.5,20 10,20 C15.5,20 20,15.5 20,10 C20,4.5 15.5,0 10,0 Z" id="Shape" fill="#53D56C" fill-rule="nonzero"></path>
                    <path d="M14.6241918,6.45643422 L14.3564288,6.24248237 C13.911965,5.88724873 13.2440664,5.92684556 12.8516586,6.33155628 L8.37231719,10.9508832 L7.02020784,9.86781124 C6.57621306,9.51217935 5.90821248,9.55097969 5.51533573,9.95525424 L5.2785861,10.1989037 C5.08659277,10.3963758 4.98690549,10.6568653 5.00138247,10.9229492 C5.01600219,11.1888814 5.14356275,11.4385424 5.35621127,11.6170316 L7.83469101,13.7279334 C8.04927659,13.9153546 8.33685878,14.013095 8.63080269,13.9985876 C8.9247466,13.9841181 9.19956458,13.8585195 9.3915783,13.6509964 L14.7387842,7.87247608 C14.9255984,7.67058534 15.0184754,7.40797187 14.9969435,7.14243794 C14.9754319,6.87671438 14.8413873,6.62999274 14.6241918,6.45643422 Z" id="Path" fill="#FFFFFF"></path>
                </g>
            </g>
        </g>
    </g>
</svg>