<?xml version="1.0" encoding="UTF-8"?>
<svg width="20px" height="20px" viewBox="0 0 20 20" version="1.1" xmlns="http://www.w3.org/2000/svg" xmlns:xlink="http://www.w3.org/1999/xlink">
    <!-- Generator: Sketch 61 (89581) - https://sketch.com -->
    <title>cancel</title>
    <desc>Created with Sketch.</desc>
    <g id="Page-1" stroke="none" stroke-width="1" fill="none" fill-rule="evenodd">
        <g id="Booking-settings---labels-edit" transform="translate(-1253.000000, -450.000000)">
            <g id="cancel" transform="translate(1253.000000, 450.000000)">
                <g id="Group-5-Copy" fill="#FFFFFF">
                    <circle id="Oval" cx="10" cy="10" r="10"></circle>
                </g>
                <path d="M10,0 C4.48421053,0 0,4.48421053 0,10 C0,15.5157895 4.48421053,20 10,20 C15.5157895,20 20,15.5157895 20,10 C20,4.48421053 15.5157895,0 10,0 Z M12.2315789,10.5052632 L13.6842105,11.9578947 C13.9578947,12.2315789 13.9578947,12.6736842 13.6842105,12.9473684 L12.9473684,13.7052632 C12.6736842,13.9789474 12.2315789,13.9789474 11.9578947,13.7052632 L10.5052632,12.2526316 C10.2315789,11.9789474 9.78947368,11.9789474 9.51578947,12.2526316 L8.06315789,13.7052632 C7.78947368,13.9789474 7.34736842,13.9789474 7.07368421,13.7052632 L6.29473684,12.9473684 C6.02105263,12.6736842 6.02105263,12.2315789 6.29473684,11.9578947 L7.74736842,10.5052632 C8.02105263,10.2315789 8.02105263,9.78947368 7.74736842,9.51578947 L6.29473684,8.06315789 C6.02105263,7.78947368 6.02105263,7.34736842 6.29473684,7.07368421 L7.03157895,6.33684211 C7.30526316,6.06315789 7.74736842,6.06315789 8.02105263,6.33684211 L9.47368421,7.78947368 C9.74736842,8.06315789 10.1894737,8.06315789 10.4631579,7.78947368 L11.9157895,6.33684211 C12.1894737,6.06315789 12.6315789,6.06315789 12.9052632,6.33684211 L13.6421053,7.07368421 C13.9157895,7.34736842 13.9157895,7.78947368 13.6421053,8.06315789 L12.1894737,9.51578947 C11.9578947,9.76842105 11.9578947,10.2315789 12.2315789,10.5052632 Z" id="Shape" fill="#FB3E6E" fill-rule="nonzero"></path>
            </g>
        </g>
    </g>
</svg>