<?xml version="1.0" encoding="UTF-8"?>
<svg width="19px" height="18px" viewBox="0 0 19 18" version="1.1" xmlns="http://www.w3.org/2000/svg" xmlns:xlink="http://www.w3.org/1999/xlink">
    <!-- Generator: Sketch 61 (89581) - https://sketch.com -->
    <title>icon-grey</title>
    <desc>Created with Sketch.</desc>
    <g id="Page-1" stroke="none" stroke-width="1" fill="none" fill-rule="evenodd">
        <g id="Booking-settings---labels" transform="translate(-1219.000000, -450.000000)">
            <g id="icon-grey" transform="translate(1216.000000, 447.000000)">
                <rect id="Rectangle" x="0" y="0" width="24" height="24"></rect>
                <path d="M4.49044394,20.7212356 L4.6741543,20.5338951 L7.91204941,20.5338951 C8.18761495,20.5104776 8.4402167,20.4168074 8.64689085,20.2294669 L20.059897,8.59094152 C20.1287884,8.68461175 20.1976798,8.80169953 20.2206436,8.91878731 C20.4043539,10.253588 19.8761867,11.4478834 18.4753952,12.2440803 C15.8804863,13.7193863 14.6634052,15.897219 16.1101243,17.9813815 C16.3856898,18.37948 16.9368209,18.4497327 17.3272054,18.1453044 C17.6946261,17.8642937 17.7864813,17.3491075 17.5338796,16.9744266 C16.8679295,15.9908893 17.5109158,14.8200115 19.3250556,13.789639 C21.3688333,12.6187612 22.2414576,10.7219391 21.9429282,8.68461175 C21.8740368,8.21626063 21.5984713,7.72449195 21.1621592,7.13905304 C21.0243764,6.97513015 20.8865936,6.7877897 20.7258471,6.60044925 C20.6339919,6.50677903 20.4962091,6.34285614 20.3124988,6.15551569 C20.2665712,6.10868058 20.2206436,6.03842791 20.174716,5.99159279 L19.8991505,5.71058212 L19.8761867,5.68716457 C20.3813901,5.17197833 20.3813901,4.32894631 19.8761867,3.81376008 C19.3709832,3.29857384 18.5442865,3.29857384 18.039083,3.81376008 L17.7405537,3.50933185 C17.0746037,2.83022272 15.9723415,2.83022272 15.3063914,3.50933185 L3.75560249,15.2415275 C3.57189213,15.4522855 3.45707316,15.7098786 3.45707316,15.9908893 L3.45707316,19.2927647 L3.2733628,19.4801051 C2.92890587,19.8079509 2.90594208,20.3699723 3.22743521,20.7212356 C3.54892834,21.0724989 4.10005942,21.0959165 4.44451635,20.7680707 C4.46748014,20.7446532 4.49044394,20.7446532 4.49044394,20.7212356 Z M16.5234726,4.72704476 L18.7050331,6.9517126 L18.9576349,7.20930571 L15.3293552,10.9092796 L12.8951929,8.42701863 L16.5234726,4.72704476 Z M11.6781118,9.66814911 L14.1122741,12.1504101 L7.61352007,18.800996 L6.39643893,18.800996 L6.64904068,18.5434029 C6.97053381,18.1921395 6.94757001,17.6301182 6.60311309,17.3022724 C6.28161996,16.9978442 5.75345267,16.9978442 5.43195954,17.3022724 L5.17935779,17.5598655 L5.17935779,16.2953175 L11.6781118,9.66814911 Z" id="Shape" fill="#C7CFD9" fill-rule="nonzero"></path>
            </g>
        </g>
    </g>
</svg>