<svg width="40" height="40" viewBox="0 0 40 40" fill="none" xmlns="http://www.w3.org/2000/svg">
<g id="Group 4">
<g id="Group 17">
<g id="Group 6">
<g id="Group">
<path id="Combined Shape Copy 8" fill-rule="evenodd" clip-rule="evenodd" d="M39.5519 26.5402C39.5784 26.347 39.6003 26.1535 39.6245 25.9603C39.6541 25.7251 39.6851 25.4895 39.7108 25.2539C39.7385 25.0025 39.7608 24.7513 39.7846 24.5006C39.8017 24.3177 39.8214 24.1348 39.8365 23.9518C39.8584 23.6852 39.8751 23.4185 39.8925 23.1515C39.9039 22.9815 39.9175 22.8114 39.927 22.641C39.941 22.3834 39.95 22.1259 39.9599 21.8683C39.9671 21.6862 39.9765 21.504 39.9815 21.3222C39.9879 21.0878 39.9894 20.8537 39.9924 20.62C39.9951 20.4132 40 20.2064 40 20C40 19.7936 39.9951 19.5868 39.9924 19.38C39.9894 19.1463 39.9879 18.9119 39.9815 18.6778C39.9765 18.496 39.9671 18.3138 39.9599 18.1317C39.95 17.8741 39.941 17.6162 39.927 17.359C39.9175 17.189 39.9039 17.0185 39.8925 16.8485C39.8751 16.5815 39.8584 16.3148 39.8365 16.0482C39.8214 15.8652 39.8017 15.6823 39.7846 15.4994C39.7608 15.2487 39.7385 14.9972 39.7108 14.7461C39.6851 14.5105 39.6541 14.2753 39.6245 14.0397C39.6003 13.8462 39.5784 13.653 39.5519 13.4598C39.5027 13.0997 39.447 12.7395 39.3895 12.3789C39.3793 12.3153 39.371 12.2516 39.3608 12.1884C39.2109 11.2734 39.0368 10.3591 38.8347 9.44629C37.8707 5.09073 35.0484 2.22098 30.7451 1.20292C30.5551 1.14914 30.3625 1.09763 30.1661 1.05066C29.9886 1.00787 29.8057 0.982111 29.6203 0.961658C26.4226 0.32158 23.2112 -0.00338216 19.9998 2.65402e-05C16.7884 -0.00338216 13.5771 0.32158 10.3793 0.961658C10.1943 0.982111 10.0111 1.00787 9.83356 1.05066C9.63714 1.09763 9.44487 1.14914 9.25488 1.20292C4.9516 2.22098 2.12931 5.09035 1.16533 9.44629C0.963222 10.3591 0.788744 11.2734 0.639246 12.1884C0.628649 12.2524 0.620322 12.3164 0.609725 12.3808C0.552575 12.7399 0.497318 13.0997 0.448116 13.4591C0.421244 13.653 0.399671 13.8462 0.375448 14.0401C0.345927 14.2757 0.314892 14.5112 0.288777 14.7468C0.261148 14.9979 0.238818 15.249 0.215353 15.5005C0.198321 15.6827 0.178641 15.8649 0.163502 16.0478C0.14155 16.3141 0.124897 16.5807 0.107109 16.8473C0.0957544 17.0178 0.0821293 17.189 0.0726674 17.3594C0.0586638 17.6162 0.0499588 17.873 0.0401185 18.1298C0.0325489 18.3123 0.0234655 18.4952 0.0181669 18.6778C0.0117328 18.9119 0.0105973 19.1463 0.00756952 19.38C0.00492019 19.5868 0 19.7936 0 20C0 20.2064 0.00492019 20.4132 0.00756952 20.62C0.0105973 20.8537 0.0117328 21.0878 0.0181669 21.3222C0.0234655 21.5048 0.0325489 21.6873 0.0401185 21.8702C0.0499588 22.127 0.0586638 22.3838 0.0726674 22.6406C0.0821293 22.811 0.0957544 22.9819 0.107109 23.1527C0.124897 23.4193 0.14155 23.6859 0.163502 23.9522C0.178641 24.1348 0.198321 24.3173 0.215353 24.4995C0.238818 24.7506 0.261148 25.0017 0.288777 25.2532C0.314892 25.4888 0.345927 25.7243 0.375448 25.9599C0.399671 26.1535 0.421244 26.347 0.448116 26.5409C0.497318 26.9003 0.552575 27.2598 0.609725 27.6192C0.620322 27.6836 0.628649 27.7476 0.639246 27.8112C0.788744 28.7263 0.963222 29.6409 1.16533 30.5537C2.12931 34.9096 4.9516 37.779 9.25488 38.7971C9.44487 38.8509 9.63714 38.9024 9.83356 38.9497C10.0111 38.9921 10.1943 39.0179 10.3793 39.038C13.5771 39.678 16.7884 40.0034 19.9998 40C23.2112 40.0034 26.4226 39.678 29.6203 39.038C29.8057 39.0179 29.9886 38.9921 30.1661 38.9497C30.3625 38.9024 30.5551 38.8509 30.7451 38.7967C35.0484 37.779 37.8707 34.9093 38.8347 30.5537C39.0368 29.6409 39.2109 28.7263 39.3608 27.8112C39.371 27.748 39.3793 27.6843 39.3895 27.6211C39.447 27.2605 39.5027 26.9003 39.5519 26.5402Z" fill="#6C70DC"/>
</g>
</g>
</g>
<path id="Combined Shape" fill-rule="evenodd" clip-rule="evenodd" d="M13 10H27C28.7 10 30 11.3 30 13V27.6L26.6 30L24.3 28.4L22 30L19.7 28.4L17.4 30L14 27.7V20H10V13C10 11.3 11.3 10 13 10ZM12 13V18H14V13C14 12.4 13.6 12 13 12C12.4 12 12 12.4 12 13ZM28 26.6L26.6 27.6L24.3 26L22 27.6L19.7 26L17.4 27.6L16 26.6V13C16 12.6 15.9 12.3 15.8 12H27C27.6 12 28 12.4 28 13V26.6ZM26 14H18V16H26V14ZM18 18H26V20H18V18ZM22 22H18V24H22V22Z" fill="white"/>
</g>
</svg>
