<?xml version="1.0" encoding="UTF-8"?>
<svg width="18px" height="18px" viewBox="0 0 18 18" version="1.1" xmlns="http://www.w3.org/2000/svg" xmlns:xlink="http://www.w3.org/1999/xlink">
    <!-- Generator: Sketch 52.3 (67297) - http://www.bohemiancoding.com/sketch -->
    <title>Combined Shape</title>
    <desc>Created with Sketch.</desc>
    <g id="Page-1" stroke="none" stroke-width="1" fill="none" fill-rule="evenodd" fill-opacity="0.6">
        <g id="Dashboard" transform="translate(-1335.000000, -217.000000)" fill="#ADBFC7" fill-rule="nonzero">
            <g id="Group-3" transform="translate(1335.000000, 216.000000)">
                <path d="M17.1,1.9 C17.64,1.9 18,2.26 18,2.8 L18,18.1 C18,18.64 17.64,19 17.1,19 L0.9,19 C0.36,19 0,18.64 0,18.1 L0,2.8 C0,2.26 0.36,1.9 0.9,1.9 L3.6,1.9 C3.6,1.36 3.96,1 4.5,1 C5.04,1 5.4,1.36 5.4,1.9 L8.1,1.9 C8.1,1.36 8.46,1 9,1 C9.54,1 9.9,1.36 9.9,1.9 L12.6,1.9 C12.6,1.36 12.96,1 13.5,1 C14.04,1 14.4,1.36 14.4,1.9 L17.1,1.9 Z M3.6,3.7 L1.8,3.7 L1.8,6.4 L16.2,6.4 L16.2,3.7 L14.4,3.7 C14.4,4.24 14.04,4.6 13.5,4.6 C12.96,4.6 12.6,4.24 12.6,3.7 L9.9,3.7 C9.9,4.24 9.54,4.6 9,4.6 C8.46,4.6 8.1,4.24 8.1,3.7 L5.4,3.7 C5.4,4.24 5.04,4.6 4.5,4.6 C3.96,4.6 3.6,4.24 3.6,3.7 Z M1.8,17.2 L16.2,17.2 L16.2,8.2 L1.8,8.2 L1.8,17.2 Z M13.5,10 C13.95,10 14.4,10.36 14.4,10.9 C14.4,11.44 14.04,11.8 13.5,11.8 L4.5,11.8 C3.96,11.8 3.6,11.44 3.6,10.9 C3.6,10.36 3.96,10 4.5,10 L13.5,10 Z M13.5,13.6 C13.95,13.6 14.4,13.96 14.4,14.5 C14.4,15.04 14.04,15.4 13.5,15.4 L4.5,15.4 C3.96,15.4 3.6,15.04 3.6,14.5 C3.6,13.96 3.96,13.6 4.5,13.6 L13.5,13.6 Z" id="Combined-Shape"></path>
            </g>
        </g>
    </g>
</svg>