<?xml version="1.0" encoding="UTF-8"?>
<svg width="12px" height="10px" viewBox="0 0 12 10" version="1.1" xmlns="http://www.w3.org/2000/svg" xmlns:xlink="http://www.w3.org/1999/xlink">
    <!-- Generator: Sketch 52.3 (67297) - http://www.bohemiancoding.com/sketch -->
    <title>Group 15</title>
    <desc>Created with Sketch.</desc>
    <g id="Page-1" stroke="none" stroke-width="1" fill="none" fill-rule="evenodd">
        <g id="Add-new-appointment-(-Monthly-recurring-type)" transform="translate(-1530.000000, -765.000000)" fill="#4FBF65">
            <g id="Group-15" transform="translate(1530.000000, 765.000000)">
                <path d="M11.5490301,0.570542772 L11.2277145,0.303102966 C10.694358,-0.140939088 9.89287965,-0.0914430485 9.42199032,0.414445349 L4.04678063,6.18860399 L2.4242494,4.83476405 C1.89145568,4.39022419 1.08985498,4.43872462 0.618402879,4.9440678 L0.334303318,5.24862964 C0.103911322,5.4954698 -0.0157134091,5.82108167 0.00165896947,6.15368652 C0.0192026251,6.48610174 0.172275302,6.79817806 0.427453523,7.02128951 L3.40162921,9.65991673 C3.6591319,9.89419324 4.00423054,10.0163688 4.35696323,9.99823449 C4.70969592,9.98014757 5.03947749,9.82314936 5.26989396,9.56374555 L11.686541,2.3405951 C11.9107181,2.08823167 12.0221705,1.75996484 11.9963321,1.42804743 C11.9705183,1.09589298 11.8096647,0.787490929 11.5490301,0.570542772 Z" id="Path"></path>
            </g>
        </g>
    </g>
</svg>