<?xml version="1.0" encoding="UTF-8"?>
<svg width="26px" height="26px" viewBox="0 0 26 26" version="1.1" xmlns="http://www.w3.org/2000/svg" xmlns:xlink="http://www.w3.org/1999/xlink">
    <!-- Generator: Sketch 52.3 (67297) - http://www.bohemiancoding.com/sketch -->
    <title>Group 15</title>
    <desc>Created with Sketch.</desc>
    <g id="Page-1" stroke="none" stroke-width="1" fill="none" fill-rule="evenodd">
        <g id="Appointments" transform="translate(-762.000000, -453.000000)">
            <g id="Group-15" transform="translate(762.000000, 453.000000)">
                <g id="Group-13" fill="#DDF7E2">
                    <rect id="Rectangle" x="0" y="0" width="26" height="26" rx="4"></rect>
                </g>
                <path d="M18.5490301,8.57054277 L18.2277145,8.30310297 C17.694358,7.85906091 16.8928797,7.90855695 16.4219903,8.41444535 L11.0467806,14.188604 L9.4242494,12.834764 C8.89145568,12.3902242 8.08985498,12.4387246 7.61840288,12.9440678 L7.33430332,13.2486296 C7.10391132,13.4954698 6.98428659,13.8210817 7.00165897,14.1536865 C7.01920263,14.4861017 7.1722753,14.7981781 7.42745352,15.0212895 L10.4016292,17.6599167 C10.6591319,17.8941932 11.0042305,18.0163688 11.3569632,17.9982345 C11.7096959,17.9801476 12.0394775,17.8231494 12.269894,17.5637455 L18.686541,10.3405951 C18.9107181,10.0882317 19.0221705,9.75996484 18.9963321,9.42804743 C18.9705183,9.09589298 18.8096647,8.78749093 18.5490301,8.57054277 Z" id="Path" fill="#4FBF65"></path>
            </g>
        </g>
    </g>
</svg>