<?xml version="1.0" encoding="UTF-8"?>
<svg width="18px" height="18px" viewBox="0 0 18 18" version="1.1" xmlns="http://www.w3.org/2000/svg" xmlns:xlink="http://www.w3.org/1999/xlink">
    <!-- Generator: Sketch 52.3 (67297) - http://www.bohemiancoding.com/sketch -->
    <title>Group 20</title>
    <desc>Created with Sketch.</desc>
    <g id="Page-1" stroke="none" stroke-width="1" fill="none" fill-rule="evenodd">
        <g id="Filter" transform="translate(-1610.000000, -502.000000)">
            <g id="Group-24" transform="translate(1580.000000, 356.000000)">
                <g id="Group-41-Copy" transform="translate(30.000000, 145.000000)">
                    <g id="Group-20" transform="translate(0.000000, 1.000000)">
                        <g id="Group-19">
                            <rect id="Rectangle-Copy" fill="#53D56C" x="0" y="0" width="18" height="18" rx="2"></rect>
                            <path d="M13.6241918,5.45643422 L13.3564288,5.24248237 C12.911965,4.88724873 12.2440664,4.92684556 11.8516586,5.33155628 L7.37231719,9.95088319 L6.02020784,8.86781124 C5.57621306,8.51217935 4.90821248,8.55097969 4.51533573,8.95525424 L4.2785861,9.19890371 C4.08659277,9.39637584 3.98690549,9.65686534 4.00138247,9.92294922 C4.01600219,10.1888814 4.14356275,10.4385424 4.35621127,10.6170316 L6.83469101,12.7279334 C7.04927659,12.9153546 7.33685878,13.013095 7.63080269,12.9985876 C7.9247466,12.9841181 8.19956458,12.8585195 8.3915783,12.6509964 L13.7387842,6.87247608 C13.9255984,6.67058534 14.0184754,6.40797187 13.9969435,6.14243794 C13.9754319,5.87671438 13.8413873,5.62999274 13.6241918,5.45643422 Z" id="Path" fill="#FFFFFF"></path>
                        </g>
                    </g>
                </g>
            </g>
        </g>
    </g>
</svg>