<?xml version="1.0" encoding="UTF-8"?>
<svg width="20px" height="20px" viewBox="0 0 20 20" version="1.1" xmlns="http://www.w3.org/2000/svg" xmlns:xlink="http://www.w3.org/1999/xlink">
    <!-- Generator: Sketch 52.3 (67297) - http://www.bohemiancoding.com/sketch -->
    <title>Shape</title>
    <desc>Created with Sketch.</desc>
    <g id="Page-1" stroke="none" stroke-width="1" fill="none" fill-rule="evenodd">
        <g id="Services-users" transform="translate(-706.000000, -710.000000)" fill="#ADBFC7" fill-rule="nonzero">
            <path d="M716,710 C710.484211,710 706,714.484211 706,720 C706,725.515789 710.484211,730 716,730 C721.515789,730 726,725.515789 726,720 C726,714.484211 721.515789,710 716,710 Z M718.231579,720.505263 L719.684211,721.957895 C719.957895,722.231579 719.957895,722.673684 719.684211,722.947368 L718.947368,723.705263 C718.673684,723.978947 718.231579,723.978947 717.957895,723.705263 L716.505263,722.252632 C716.231579,721.978947 715.789474,721.978947 715.515789,722.252632 L714.063158,723.705263 C713.789474,723.978947 713.347368,723.978947 713.073684,723.705263 L712.294737,722.947368 C712.021053,722.673684 712.021053,722.231579 712.294737,721.957895 L713.747368,720.505263 C714.021053,720.231579 714.021053,719.789474 713.747368,719.515789 L712.294737,718.063158 C712.021053,717.789474 712.021053,717.347368 712.294737,717.073684 L713.031579,716.336842 C713.305263,716.063158 713.747368,716.063158 714.021053,716.336842 L715.473684,717.789474 C715.747368,718.063158 716.189474,718.063158 716.463158,717.789474 L717.915789,716.336842 C718.189474,716.063158 718.631579,716.063158 718.905263,716.336842 L719.642105,717.073684 C719.915789,717.347368 719.915789,717.789474 719.642105,718.063158 L718.189474,719.515789 C717.957895,719.768421 717.957895,720.231579 718.231579,720.505263 Z" id="Shape"></path>
        </g>
    </g>
</svg>