<?xml version="1.0" encoding="UTF-8"?>
<svg width="14px" height="14px" viewBox="0 0 14 14" version="1.1" xmlns="http://www.w3.org/2000/svg" xmlns:xlink="http://www.w3.org/1999/xlink">
    <!-- Generator: Sketch 52.3 (67297) - http://www.bohemiancoding.com/sketch -->
    <title>Combined Shape</title>
    <desc>Created with Sketch.</desc>
    <g id="Page-1" stroke="none" stroke-width="1" fill="none" fill-rule="evenodd">
        <g id="Add-Employee-(Services)" transform="translate(-1871.000000, -38.000000)" fill="#ADBFC7">
            <path d="M1884.60295,40.2854539 C1885.12877,39.7596309 1885.13088,38.9120549 1884.60941,38.3905865 C1884.08431,37.8654826 1883.23958,37.872012 1882.71455,38.39705 L1878,43.1115962 L1873.28545,38.39705 C1872.75963,37.8712271 1871.91205,37.8691182 1871.39059,38.3905865 C1870.86548,38.9156904 1870.87201,39.7604159 1871.39705,40.2854539 L1876.1116,45 L1871.39705,49.7145461 C1870.87123,50.2403691 1870.86912,51.0879451 1871.39059,51.6094135 C1871.91569,52.1345174 1872.76042,52.127988 1873.28545,51.60295 L1878,46.8884038 L1882.71455,51.60295 C1883.24037,52.1287729 1884.08795,52.1308818 1884.60941,51.6094135 C1885.13452,51.0843096 1885.12799,50.2395841 1884.60295,49.7145461 L1879.8884,45 L1884.60295,40.2854539 Z" id="Combined-Shape"></path>
        </g>
    </g>
</svg>