<?xml version="1.0" encoding="UTF-8"?>
<svg width="36px" height="36px" viewBox="0 0 36 36" version="1.1" xmlns="http://www.w3.org/2000/svg" xmlns:xlink="http://www.w3.org/1999/xlink">
    <!-- Generator: Sketch 52.3 (67297) - http://www.bohemiancoding.com/sketch -->
    <title>Group 25</title>
    <desc>Created with Sketch.</desc>
    <g id="Page-1" stroke="none" stroke-width="1" fill="none" fill-rule="evenodd">
        <g id="Customers-HD-Selected" transform="translate(-1095.000000, -1017.000000)">
            <g id="Group-25" transform="translate(1095.000000, 1017.000000)">
                <rect id="card-copy-3" fill="#FB3E6E" x="0" y="0" width="36" height="36" rx="2"></rect>
                <path d="M12.3375,26 L12.3375,14.3809524 L10,14.3809524 L10,12.8571429 L12.3375,12.8571429 L15.1,12.8571429 L15.1,10 L21.9,10 L21.9,12.8571429 L24.6625,12.8571429 L27,12.8571429 L27,14.3809524 L24.6625,14.3809524 L24.6625,26 L12.3375,26 Z M16.8,11.5238095 L16.8,12.8571429 L20.2,12.8571429 L20.2,11.5238095 L16.8,11.5238095 Z M14.0375,14.3809524 L14.0375,24.4761905 L22.9625,24.4761905 L22.9625,14.3809524 L21.9,14.3809524 L15.1,14.3809524 L14.0375,14.3809524 Z M15.95,16.2857143 L17.65,16.2857143 L17.65,22.1904762 L15.95,22.1904762 L15.95,16.2857143 Z M19.35,16.2857143 L21.05,16.2857143 L21.05,22.1904762 L19.35,22.1904762 L19.35,16.2857143 Z" id="Combined-Shape" fill="#FFFFFF" fill-rule="nonzero"></path>
            </g>
        </g>
    </g>
</svg>