<?xml version="1.0" encoding="UTF-8"?>
<svg width="184px" height="184px" viewBox="0 0 184 184" version="1.1" xmlns="http://www.w3.org/2000/svg" xmlns:xlink="http://www.w3.org/1999/xlink">
    <!-- Generator: Sketch 52.3 (67297) - http://www.bohemiancoding.com/sketch -->
    <title>Combined Shape</title>
    <desc>Created with Sketch.</desc>
    <g id="Page-1" stroke="none" stroke-width="1" fill="none" fill-rule="evenodd">
        <g id="Empty" transform="translate(-999.000000, -416.000000)" fill="#ADBFC7" fill-rule="nonzero">
            <g id="Group-6" transform="translate(888.000000, 416.000000)">
                <path d="M276.48642,36.5728395 C288.525926,52.7012346 295,71.782716 295,92 C295,141.520988 255.928395,182.523457 205.385185,184 C205.271605,184 205.271605,184 205.271605,184 C204.817284,184 204.249383,184 203.795062,184 C150.866667,184 111,141.748148 111,92 C111,71.782716 117.474074,52.7012346 129.62716,36.5728395 L129.62716,33.0518519 C129.62716,29.0765432 132.807407,25.8962963 136.782716,25.8962963 L139.054321,25.8962963 C156.318519,9.2 178.920988,0 203,0 C227.079012,0 249.681481,9.2 267.059259,25.8962963 L269.330864,25.8962963 C273.306173,25.8962963 276.48642,29.0765432 276.48642,33.0518519 L276.48642,36.5728395 Z M203,2.27160494 C180.397531,2.27160494 158.930864,10.6765432 142.348148,25.8962963 L173.355556,25.8962963 C177.103704,13.1753086 189.02963,3.74814815 203,3.74814815 C216.97037,3.74814815 228.896296,13.0617284 232.644444,25.8962963 L263.651852,25.8962963 C247.069136,10.6765432 225.602469,2.27160494 203,2.27160494 Z M208.792593,71.1012346 C211.064198,71.6691358 212.654321,73.6 212.767901,75.9851852 L212.767901,101.31358 C212.767901,102.335802 212.42716,103.358025 211.859259,104.153086 L264.106173,104.153086 L264.106173,38.2765432 L233.666667,38.2765432 C232.076543,51.6790123 221.967901,62.4691358 208.792593,64.9679012 L208.792593,71.1012346 Z M194.140741,104.153086 C193.57284,103.358025 193.345679,102.335802 193.345679,101.31358 L193.345679,75.9851852 C193.345679,73.6 195.049383,71.6691358 197.207407,71.1012346 L197.207407,64.9679012 C184.032099,62.4691358 173.923457,51.6790123 172.333333,38.2765432 L141.893827,38.2765432 L141.893827,104.153086 L194.140741,104.153086 Z M203,63.2641975 C218.787654,63.2641975 231.622222,50.4296296 231.622222,34.6419753 C231.622222,18.854321 218.787654,6.01975309 203,6.01975309 C187.212346,6.01975309 174.377778,18.854321 174.377778,34.6419753 C174.377778,35.437037 174.377778,36.345679 174.491358,37.1407407 C175.740741,51.7925926 188.120988,63.2641975 203,63.2641975 Z M206.520988,65.308642 C205.385185,65.4222222 204.249383,65.5358025 202.88642,65.5358025 C201.750617,65.5358025 200.501235,65.4222222 199.365432,65.308642 L199.365432,70.9876543 L206.520988,70.9876543 L206.520988,65.308642 Z M195.617284,75.9851852 L195.617284,101.31358 C195.617284,102.903704 196.866667,104.153086 198.45679,104.153086 L207.65679,104.153086 C209.246914,104.153086 210.496296,102.903704 210.496296,101.31358 L210.496296,75.9851852 C210.496296,74.3950617 209.246914,73.145679 207.65679,73.145679 L198.45679,73.145679 C196.866667,73.145679 195.617284,74.3950617 195.617284,75.9851852 Z M131.785185,33.0518519 L131.785185,114.148148 L274.101235,114.148148 L274.101235,33.0518519 C274.101235,30.3259259 271.94321,28.1679012 269.217284,28.1679012 L233.212346,28.1679012 C233.666667,30.3259259 233.893827,32.4839506 233.893827,34.6419753 C233.893827,35.0962963 233.893827,35.5506173 233.893827,36.0049383 L265.241975,36.0049383 C265.923457,36.0049383 266.377778,36.4592593 266.377778,37.1407407 L266.377778,105.288889 C266.377778,105.97037 265.923457,106.424691 265.241975,106.424691 L140.871605,106.424691 C140.190123,106.424691 139.735802,105.97037 139.735802,105.288889 L139.735802,37.1407407 C139.735802,36.4592593 140.190123,36.0049383 140.871605,36.0049383 L171.992593,36.0049383 C171.992593,35.5506173 171.992593,35.0962963 171.992593,34.6419753 C171.992593,32.3703704 172.219753,30.2123457 172.674074,28.1679012 L136.669136,28.1679012 C133.94321,28.1679012 131.785185,30.3259259 131.785185,33.0518519 Z M131.785185,116.533333 L131.898765,116.533333 L131.898765,126.301235 C131.898765,129.02716 134.05679,131.185185 136.782716,131.185185 C169.720988,131.185185 185.167901,131.185185 269.217284,131.185185 C271.94321,131.185185 274.101235,129.02716 274.101235,126.301235 L274.101235,116.533333 L131.785185,116.533333 Z M176.876543,147.08642 L229.237037,147.08642 L224.466667,133.45679 L181.646914,133.45679 L176.876543,147.08642 Z M230.71358,149.358025 L175.28642,149.358025 L173.582716,149.358025 C171.765432,149.358025 170.288889,150.834568 170.288889,152.651852 C170.288889,154.469136 171.765432,155.945679 173.582716,155.945679 L232.417284,155.945679 C234.234568,155.945679 235.711111,154.469136 235.711111,152.651852 C235.711111,150.834568 234.234568,149.358025 232.417284,149.358025 L230.71358,149.358025 Z M113.271605,92 C113.271605,115.851852 123.039506,139.135802 139.962963,155.832099 L169.039506,155.832099 C168.358025,154.923457 167.903704,153.787654 167.903704,152.538272 C167.903704,149.471605 170.402469,146.97284 173.469136,146.97284 L174.377778,146.97284 L179.148148,133.34321 L136.669136,133.34321 C132.693827,133.34321 129.51358,130.162963 129.51358,126.187654 L129.51358,115.283951 L129.51358,40.4345679 C118.950617,55.5407407 113.271605,73.3728395 113.271605,92 Z M205.271605,181.728395 C227.874074,181.046914 248.204938,172.414815 263.538272,158.103704 C240.140741,158.103704 168.812346,158.103704 142.348148,158.103704 C159.385185,173.664198 181.533333,182.069136 205.271605,181.728395 Z M266.037037,155.832099 C283.187654,138.908642 292.728395,116.192593 292.728395,92 C292.728395,73.3728395 287.049383,55.5407407 276.37284,40.4345679 L276.37284,115.283951 L276.37284,126.187654 C276.37284,130.162963 273.192593,133.34321 269.217284,133.34321 L226.738272,133.34321 L231.508642,146.97284 L232.417284,146.97284 C235.483951,146.97284 237.982716,149.471605 237.982716,152.538272 C237.982716,153.787654 237.528395,154.923457 236.846914,155.832099 L266.037037,155.832099 Z M171.765432,166.167901 C171.083951,166.167901 170.62963,165.6 170.62963,165.032099 C170.62963,164.350617 171.083951,163.896296 171.765432,163.896296 L199.251852,163.896296 C199.933333,163.896296 200.387654,164.350617 200.387654,165.032099 C200.387654,165.71358 199.933333,166.167901 199.251852,166.167901 L171.765432,166.167901 Z M203.681481,166.167901 C203,166.167901 202.545679,165.6 202.545679,165.032099 C202.545679,164.350617 203,163.896296 203.681481,163.896296 L208.224691,163.896296 C208.906173,163.896296 209.360494,164.350617 209.360494,165.032099 C209.360494,165.71358 208.906173,166.167901 208.224691,166.167901 L203.681481,166.167901 Z M212.08642,166.167901 C211.404938,166.167901 210.950617,165.6 210.950617,165.032099 C210.950617,164.350617 211.404938,163.896296 212.08642,163.896296 L215.039506,163.896296 C215.720988,163.896296 216.175309,164.350617 216.175309,165.032099 C216.175309,165.71358 215.720988,166.167901 215.039506,166.167901 L212.08642,166.167901 Z M205.612346,170.597531 C205.612346,169.916049 206.180247,169.461728 206.748148,169.461728 L234.234568,169.461728 C234.916049,169.461728 235.37037,169.916049 235.37037,170.597531 C235.37037,172.755556 233.439506,171.279012 206.748148,171.733333 C206.066667,171.733333 205.612346,171.279012 205.612346,170.597531 Z M196.639506,170.597531 C196.639506,169.916049 197.207407,169.461728 197.775309,169.461728 L202.318519,169.461728 C203,169.461728 203.454321,169.916049 203.454321,170.597531 C203.454321,171.279012 203,171.733333 202.318519,171.733333 L197.775309,171.733333 C197.093827,171.733333 196.639506,171.279012 196.639506,170.597531 Z M193.91358,169.461728 C194.595062,169.461728 195.049383,169.916049 195.049383,170.597531 C195.049383,171.279012 194.595062,171.733333 193.91358,171.733333 L190.960494,171.733333 C190.279012,171.733333 189.824691,171.279012 189.824691,170.597531 C189.824691,169.916049 190.279012,169.461728 190.960494,169.461728 L193.91358,169.461728 Z M203,128.91358 C200.046914,128.91358 197.661728,126.528395 197.661728,123.575309 C197.661728,120.622222 200.046914,118.237037 203,118.237037 C205.953086,118.237037 208.338272,120.622222 208.338272,123.575309 C208.338272,126.528395 205.953086,128.91358 203,128.91358 Z M203,120.622222 C201.296296,120.622222 199.933333,121.985185 199.933333,123.688889 C199.933333,125.392593 201.296296,126.755556 203,126.755556 C204.703704,126.755556 206.066667,125.392593 206.066667,123.688889 C206.066667,121.985185 204.703704,120.622222 203,120.622222 Z M203,12.7209877 C215.153086,12.7209877 224.920988,22.4888889 224.920988,34.6419753 C224.920988,46.6814815 215.153086,56.562963 203,56.562963 C190.960494,56.562963 181.079012,46.7950617 181.079012,34.6419753 C181.079012,22.6024691 190.846914,12.7209877 203,12.7209877 Z M203,54.291358 C213.790123,54.291358 222.649383,45.4320988 222.649383,34.6419753 C222.649383,23.8518519 213.790123,14.9925926 203,14.9925926 C192.209877,14.9925926 183.350617,23.8518519 183.350617,34.6419753 C183.350617,45.4320988 192.209877,54.291358 203,54.291358 Z M203,24.0790123 C208.792593,24.0790123 213.562963,28.8493827 213.449383,34.5283951 C213.449383,40.3209877 208.679012,44.9777778 202.88642,44.9777778 C197.093827,44.9777778 192.437037,40.3209877 192.437037,34.5283951 C192.437037,32.2567901 193.118519,30.2123457 194.367901,28.3950617 C194.708642,28.054321 195.049383,27.8271605 195.503704,27.9407407 C195.958025,28.054321 196.298765,28.2814815 196.412346,28.7358025 C196.753086,29.7580247 197.548148,30.3259259 198.57037,30.3259259 C199.819753,30.3259259 200.841975,29.3037037 200.841975,28.054321 C200.841975,27.3728395 200.501235,26.8049383 200.046914,26.3506173 C199.706173,26.0098765 199.592593,25.6691358 199.706173,25.2148148 C199.819753,24.8740741 200.046914,24.5333333 200.501235,24.4197531 C201.296296,24.1925926 202.204938,24.0790123 203,24.0790123 Z M203,42.8197531 C207.54321,42.8197531 211.291358,39.1851852 211.291358,34.5283951 C211.291358,29.9851852 207.54321,26.237037 202.88642,26.3506173 C203.11358,26.9185185 203.22716,27.4864198 203.22716,28.054321 C203.22716,30.5530864 201.182716,32.5975309 198.683951,32.5975309 C197.434568,32.5975309 196.298765,32.1432099 195.503704,31.3481481 C195.049383,32.3703704 194.822222,33.5061728 194.822222,34.6419753 C194.822222,39.1851852 198.45679,42.8197531 203,42.8197531 Z M249,45.2049383 C248.318519,45.2049383 247.864198,44.7506173 247.864198,44.0691358 C247.864198,43.3876543 248.318519,42.9333333 249,42.9333333 L256.609877,42.9333333 C257.291358,42.9333333 257.745679,43.3876543 257.745679,44.0691358 L257.745679,51.6790123 C257.745679,52.3604938 257.291358,52.8148148 256.609877,52.8148148 C255.928395,52.8148148 255.474074,52.3604938 255.474074,51.6790123 L255.474074,45.2049383 L249,45.2049383 Z M249,99.4962963 C248.318519,99.4962963 247.864198,98.9283951 247.864198,98.3604938 C247.864198,97.6790123 248.318519,97.2246914 249,97.2246914 L255.474074,97.2246914 L255.474074,90.7506173 C255.474074,90.0691358 255.928395,89.6148148 256.609877,89.6148148 C257.291358,89.6148148 257.745679,90.0691358 257.745679,90.7506173 L257.745679,98.3604938 C257.745679,99.0419753 257.291358,99.4962963 256.609877,99.4962963 L249,99.4962963 Z M157,42.9333333 C157.681481,42.9333333 158.135802,43.5012346 158.135802,44.0691358 C158.135802,44.7506173 157.681481,45.2049383 157,45.2049383 L150.525926,45.2049383 L150.525926,51.6790123 C150.525926,52.3604938 150.071605,52.8148148 149.390123,52.8148148 C148.708642,52.8148148 148.254321,52.3604938 148.254321,51.6790123 L148.254321,44.0691358 C148.254321,43.3876543 148.708642,42.9333333 149.390123,42.9333333 L157,42.9333333 Z M157,97.2246914 C157.681481,97.2246914 158.135802,97.6790123 158.135802,98.3604938 C158.135802,99.0419753 157.681481,99.4962963 157,99.4962963 L149.390123,99.4962963 C148.708642,99.4962963 148.254321,99.0419753 148.254321,98.3604938 L148.254321,90.7506173 C148.254321,90.0691358 148.708642,89.6148148 149.390123,89.6148148 C150.071605,89.6148148 150.525926,90.0691358 150.525926,90.7506173 L150.525926,97.2246914 L157,97.2246914 Z" id="Combined-Shape"></path>
            </g>
        </g>
    </g>
</svg>