<?xml version="1.0" encoding="UTF-8"?>
<svg width="80px" height="80px" viewBox="0 0 80 80" version="1.1" xmlns="http://www.w3.org/2000/svg" xmlns:xlink="http://www.w3.org/1999/xlink">
    <!-- Generator: Sketch 52.3 (67297) - http://www.bohemiancoding.com/sketch -->
    <title>Group 7</title>
    <desc>Created with Sketch.</desc>
    <g id="Page-1" stroke="none" stroke-width="1" fill="none" fill-rule="evenodd">
        <g id="Export-CSV" transform="translate(-820.000000, -366.000000)">
            <g id="Group-5" transform="translate(790.000000, 285.000000)">
                <g id="Group-4" transform="translate(30.000000, 81.000000)">
                    <g id="Group-6">
                        <g id="Group-2">
                            <g id="Group-7">
                                <rect id="Rectangle" stroke="#E3EAF3" fill="#F7F8FB" x="0.5" y="0.5" width="79" height="79"></rect>
                                <g id="file-(1)" transform="translate(20.000000, 18.000000)">
                                    <path d="M33.2075472,39.4482759 L1.50943396,39.4482759 C0.675854906,39.4482759 0,38.7689252 0,37.9310345 L0,9.10344828 L9.81132075,0 L33.2075472,0 C34.0411262,0 34.7169811,0.679350707 34.7169811,1.51724138 L34.7169811,37.9310345 C34.7169811,38.7689252 34.0411262,39.4482759 33.2075472,39.4482759 Z" id="Path" fill="#E6E7E8"></path>
                                    <path d="M9.81132075,39.4482759 L33.2075472,39.4482759 C34.0411262,39.4482759 34.7169811,38.7689252 34.7169811,37.9310345 L34.7169811,15.9999326 C30.5944133,27.3507206 21.3487618,36.0552263 9.81132075,39.4482759 Z" id="Path" fill="#E6E7E8"></path>
                                    <path d="M9.81132075,7.5862069 L9.81132075,0 L0,9.10344828 L8.30188679,9.10344828 C9.13546585,9.10344828 9.81132075,8.42409757 9.81132075,7.5862069 Z" id="Path" fill="#FFE9CC"></path>
                                    <path d="M9.81132075,7.5862069 L9.81132075,0 L0,9.10344828 L8.30188679,9.10344828 C9.13546585,9.10344828 9.81132075,8.42409757 9.81132075,7.5862069 Z" id="Path" fill="#B8BDC1"></path>
                                    <polygon id="Path" fill="#F0CE49" transform="translate(33.000000, 33.000000) scale(1, -1) translate(-33.000000, -33.000000) " points="36.1111111 22 29.8888889 22 29.8888889 36.1428571 26 36.1428571 33 44 40 36.1428571 36.1111111 36.1428571"></polygon>
                                    <path d="M28.6792453,20.4827586 L6.03773585,20.4827586 C5.62094632,20.4827586 5.28301887,20.1430833 5.28301887,19.7241379 C5.28301887,19.3051926 5.62094632,18.9655172 6.03773585,18.9655172 L28.6792453,18.9655172 C29.0960348,18.9655172 29.4339623,19.3051926 29.4339623,19.7241379 C29.4339623,20.1430833 29.0960348,20.4827586 28.6792453,20.4827586 Z" id="Path" fill="#B8BDC1"></path>
                                    <path d="M27.1698113,25.0344828 L6.03773585,25.0344828 C5.62094632,25.0344828 5.28301887,24.6948074 5.28301887,24.2758621 C5.28301887,23.8569167 5.62094632,23.5172414 6.03773585,23.5172414 L27.1698113,23.5172414 C27.5866008,23.5172414 27.9245283,23.8569167 27.9245283,24.2758621 C27.9245283,24.6948074 27.5866008,25.0344828 27.1698113,25.0344828 Z" id="Path" fill="#B8BDC1"></path>
                                    <path d="M27.1698113,29.5862069 L6.03773585,29.5862069 C5.62094632,29.5862069 5.28301887,29.2465315 5.28301887,28.8275862 C5.28301887,28.4086409 5.62094632,28.0689655 6.03773585,28.0689655 L27.1698113,28.0689655 C27.5866008,28.0689655 27.9245283,28.4086409 27.9245283,28.8275862 C27.9245283,29.2465315 27.5866008,29.5862069 27.1698113,29.5862069 Z" id="Path" fill="#B8BDC1"></path>
                                    <path d="M27.1698113,34.137931 L6.03773585,34.137931 C5.62094632,34.137931 5.28301887,33.7982557 5.28301887,33.3793103 C5.28301887,32.960365 5.62094632,32.6206897 6.03773585,32.6206897 L27.1698113,32.6206897 C27.5866008,32.6206897 27.9245283,32.960365 27.9245283,33.3793103 C27.9245283,33.7982557 27.5866008,34.137931 27.1698113,34.137931 Z" id="Path" fill="#B8BDC1"></path>
                                    <path d="M28.6792453,15.9310345 L12.0754717,15.9310345 C11.6586822,15.9310345 11.3207547,15.5913591 11.3207547,15.1724138 C11.3207547,14.7534685 11.6586822,14.4137931 12.0754717,14.4137931 L28.6792453,14.4137931 C29.0960348,14.4137931 29.4339623,14.7534685 29.4339623,15.1724138 C29.4339623,15.5913591 29.0960348,15.9310345 28.6792453,15.9310345 Z" id="Path" fill="#B8BDC1"></path>
                                    <path d="M9.05660377,15.9310345 L6.03773585,15.9310345 C5.62094632,15.9310345 5.28301887,15.5913591 5.28301887,15.1724138 C5.28301887,14.7534685 5.62094632,14.4137931 6.03773585,14.4137931 L9.05660377,14.4137931 C9.4733933,14.4137931 9.81132075,14.7534685 9.81132075,15.1724138 C9.81132075,15.5913591 9.4733933,15.9310345 9.05660377,15.9310345 Z" id="Path" fill="#B8BDC1"></path>
                                </g>
                            </g>
                        </g>
                    </g>
                </g>
            </g>
        </g>
    </g>
</svg>