<?xml version="1.0" encoding="UTF-8"?>
<svg width="16px" height="16px" viewBox="0 0 16 16" version="1.1" xmlns="http://www.w3.org/2000/svg" xmlns:xlink="http://www.w3.org/1999/xlink">
    <!-- Generator: Sketch 52.3 (67297) - http://www.bohemiancoding.com/sketch -->
    <title>Combined Shape Copy 3</title>
    <desc>Created with Sketch.</desc>
    <g id="Page-1" stroke="none" stroke-width="1" fill="none" fill-rule="evenodd">
        <g id="Services-add-2" transform="translate(-119.000000, -643.000000)" fill="#CCD7DD">
            <path d="M127,659 C122.581722,659 119,655.418278 119,651 C119,646.581722 122.581722,643 127,643 C131.418278,643 135,646.581722 135,651 C135,655.418278 131.418278,659 127,659 Z M127,650 C126.447715,650 126,650.447715 126,651 L126,654 C126,654.552285 126.447715,655 127,655 C127.552285,655 128,654.552285 128,654 L128,651 C128,650.447715 127.552285,650 127,650 Z M126.5,647 C126.223858,647 126,647.223858 126,647.5 L126,648.5 C126,648.776142 126.223858,649 126.5,649 L127.5,649 C127.776142,649 128,648.776142 128,648.5 L128,647.5 C128,647.223858 127.776142,647 127.5,647 L126.5,647 Z" id="Combined-Shape-Copy-3"></path>
        </g>
    </g>
</svg>