<?xml version="1.0" encoding="UTF-8"?>
<svg width="20px" height="20px" viewBox="0 0 20 20" version="1.1" xmlns="http://www.w3.org/2000/svg" xmlns:xlink="http://www.w3.org/1999/xlink">
    <!-- Generator: Sketch 52.3 (67297) - http://www.bohemiancoding.com/sketch -->
    <title>Combined Shape</title>
    <desc>Created with Sketch.</desc>
    <g id="Page-1" stroke="none" stroke-width="1" fill="none" fill-rule="evenodd">
        <g id="Payments" transform="translate(-1799.000000, -381.000000)" fill="#ADBFC7" fill-rule="nonzero">
            <path d="M1816,381 C1817.7,381 1819,382.3 1819,384 L1819,398.6 L1815.6,401 L1813.3,399.4 L1811,401 L1808.7,399.4 L1806.4,401 L1803,398.7 L1803,391 L1799,391 L1799,384 C1799,382.3 1800.3,381 1802,381 L1816,381 Z M1801,389 L1803,389 L1803,384 C1803,383.4 1802.6,383 1802,383 C1801.4,383 1801,383.4 1801,384 L1801,389 Z M1817,397.6 L1817,384 C1817,383.4 1816.6,383 1816,383 L1804.8,383 C1804.9,383.3 1805,383.6 1805,384 L1805,397.6 L1806.4,398.6 L1808.7,397 L1811,398.6 L1813.3,397 L1815.6,398.6 L1817,397.6 Z M1807,385 L1815,385 L1815,387 L1807,387 L1807,385 Z M1807,389 L1815,389 L1815,391 L1807,391 L1807,389 Z M1807,393 L1811,393 L1811,395 L1807,395 L1807,393 Z" id="Combined-Shape"></path>
        </g>
    </g>
</svg>