<?xml version="1.0" encoding="UTF-8"?>
<svg width="16px" height="4px" viewBox="0 0 16 4" version="1.1" xmlns="http://www.w3.org/2000/svg" xmlns:xlink="http://www.w3.org/1999/xlink">
    <!-- Generator: Sketch 52.3 (67297) - http://www.bohemiancoding.com/sketch -->
    <title>Combined Shape</title>
    <desc>Created with Sketch.</desc>
    <g id="Page-1" stroke="none" stroke-width="1" fill="none" fill-rule="evenodd">
        <g id="Customers-HD-Hover" transform="translate(-1844.000000, -614.000000)" fill="#7E82FF">
            <path d="M1846,618 C1844.89543,618 1844,617.104569 1844,616 C1844,614.895431 1844.89543,614 1846,614 C1847.10457,614 1848,614.895431 1848,616 C1848,617.104569 1847.10457,618 1846,618 Z M1852,618 C1850.89543,618 1850,617.104569 1850,616 C1850,614.895431 1850.89543,614 1852,614 C1853.10457,614 1854,614.895431 1854,616 C1854,617.104569 1853.10457,618 1852,618 Z M1858,618 C1856.89543,618 1856,617.104569 1856,616 C1856,614.895431 1856.89543,614 1858,614 C1859.10457,614 1860,614.895431 1860,616 C1860,617.104569 1859.10457,618 1858,618 Z" id="Combined-Shape"></path>
        </g>
    </g>
</svg>