<?xml version="1.0" encoding="UTF-8"?>
<svg width="23px" height="23px" viewBox="0 0 23 23" version="1.1" xmlns="http://www.w3.org/2000/svg" xmlns:xlink="http://www.w3.org/1999/xlink">
    <!-- Generator: Sketch 52.3 (67297) - http://www.bohemiancoding.com/sketch -->
    <title>Group 9</title>
    <desc>Created with Sketch.</desc>
    <defs>
        <circle id="path-1" cx="17" cy="3" r="3"></circle>
        <filter x="-50.0%" y="-33.3%" width="233.3%" height="233.3%" filterUnits="objectBoundingBox" id="filter-2">
            <feOffset dx="1" dy="2" in="SourceAlpha" result="shadowOffsetOuter1"></feOffset>
            <feGaussianBlur stdDeviation="1" in="shadowOffsetOuter1" result="shadowBlurOuter1"></feGaussianBlur>
            <feColorMatrix values="0 0 0 0 0.984313725   0 0 0 0 0.243137255   0 0 0 0 0.431372549  0 0 0 0.3 0" type="matrix" in="shadowBlurOuter1"></feColorMatrix>
        </filter>
    </defs>
    <g id="Page-1" stroke="none" stroke-width="1" fill="none" fill-rule="evenodd">
        <g id="Locations-block" transform="translate(-1476.000000, -32.000000)">
            <g id="Group-9" transform="translate(1476.000000, 32.000000)">
                <g id="Oval">
                    <use fill="black" fill-opacity="1" filter="url(#filter-2)" xlink:href="#path-1"></use>
                    <use fill="#FB3E6E" fill-rule="evenodd" xlink:href="#path-1"></use>
                </g>
                <path d="M2.70515649,20.2801578 L5.35938549,20.2801578 C5.35938549,21.7857847 6.54430916,23 8.0136145,23 C9.48291985,23 10.6678435,21.7857847 10.6678435,20.2801578 L13.3220725,20.2801578 C14.7913779,20.2801578 16,19.0659425 16,17.5603156 C16,16.5646591 15.5023321,15.6661398 14.649187,15.1804537 L14.649187,11.6349451 C14.649187,8.55083832 12.6348168,5.85528042 9.74360305,5.05389835 C9.86209542,4.05824183 9.19853817,3.13543822 8.22690076,3.0140167 C7.25526336,2.89259517 6.35472137,3.57255572 6.23622901,4.56821224 C6.21253053,4.73820238 6.21253053,4.88390821 6.23622901,5.05389835 C3.34501526,5.87956473 1.33064503,8.57512262 1.33064503,11.6349451 C1.33064503,11.6349451 1.33064503,14.9133263 1.33064503,15.1804537 C0.0509274772,15.9332671 -0.375645042,17.6088842 0.35900763,18.9202367 C0.856675569,19.7701874 1.75721755,20.2801578 2.70515649,20.2801578 Z M8.03731298,21.1786771 C7.53964504,21.1786771 7.16046946,20.7658439 7.13677099,20.2801578 C7.13677099,20.2801578 7.13677099,20.2801578 7.13677099,20.2801578 L8.91415649,20.2801578 C8.91415649,20.7901282 8.53498091,21.1786771 8.03731298,21.1786771 Z M2.49187023,16.6617963 L2.94214122,16.5403748 C3.08433206,16.4918062 3.17912595,16.3703846 3.17912595,16.2489631 L3.17912595,11.6349451 C3.10803053,8.86653429 5.24089313,6.58380958 7.94251908,6.51095667 C10.644145,6.43810375 12.8718015,8.64797554 12.9428969,11.4163863 C12.9428969,11.4892393 12.9428969,11.5620922 12.9428969,11.6349451 L12.9428969,16.2489631 C12.9428969,16.3946689 13.0376908,16.5160905 13.1798817,16.5403748 L13.6064542,16.6617963 C14.0804237,16.7832178 14.3648053,17.2931882 14.246313,17.7788743 C14.1515191,18.1917075 13.796042,18.4588349 13.3931679,18.4588349 L2.72885496,18.4588349 C2.23118702,18.4588349 1.82831297,18.070286 1.82831297,17.5603156 C1.82831297,17.1474824 2.08899618,16.7832178 2.49187023,16.6617963 Z" id="Shape" fill="#ADBFC7" fill-rule="nonzero"></path>
            </g>
        </g>
    </g>
</svg>