<?xml version="1.0" encoding="UTF-8"?>
<svg width="20px" height="18px" viewBox="0 0 20 18" version="1.1" xmlns="http://www.w3.org/2000/svg" xmlns:xlink="http://www.w3.org/1999/xlink">
    <!-- Generator: Sketch 52.3 (67297) - http://www.bohemiancoding.com/sketch -->
    <title>Combined Shape</title>
    <desc>Created with Sketch.</desc>
    <g id="Page-1" stroke="none" stroke-width="1" fill="none" fill-rule="evenodd">
        <g id="Payments" transform="translate(-1847.000000, -313.000000)" fill="#ADBFC7">
            <g id="Group-20" transform="translate(1834.000000, 303.000000)">
                <path d="M13,14 L33,14 L33,16 L13,16 L13,14 Z M13,10 L33,10 L33,12 L13,12 L13,10 Z M13,18 L25,18 L25,20 L13,20 L13,18 Z M13,22 L21,22 L21,24 L13,24 L13,22 Z M29,18 L29,22 L33,22 L33,24 L29,24 L29,28 L27,28 L27,24 L23,24 L23,22 L27,22 L27,18 L29,18 Z" id="Combined-Shape"></path>
            </g>
        </g>
    </g>
</svg>