<?xml version="1.0" encoding="UTF-8"?>
<svg width="196px" height="184px" viewBox="0 0 196 184" version="1.1" xmlns="http://www.w3.org/2000/svg" xmlns:xlink="http://www.w3.org/1999/xlink">
    <!-- Generator: Sketch 52.3 (67297) - http://www.bohemiancoding.com/sketch -->
    <title>Combined Shape</title>
    <desc>Created with Sketch.</desc>
    <g id="Page-1" stroke="none" stroke-width="1" fill="none" fill-rule="evenodd">
        <g id="Settings-(Payments/PayPal-Disabled)" transform="translate(-1192.000000, -493.000000)" fill="#ADBFC7">
            <g id="Group-7" transform="translate(1045.000000, 493.000000)">
                <path d="M236.099467,165.040951 C236.099467,165.648613 235.615231,166.134742 235.009935,166.134742 L207.529529,166.134742 C206.924234,166.134742 206.439998,165.648613 206.439998,165.040951 C206.439998,164.433289 206.924234,163.94716 207.529529,163.94716 L235.009935,163.94716 C235.615231,163.94716 236.099467,164.433289 236.099467,165.040951 Z M244.936778,165.040951 C244.936778,165.648613 244.452542,166.134742 243.847247,166.134742 L239.368061,166.134742 C238.762766,166.134742 238.27853,165.648613 238.27853,165.040951 C238.27853,164.433289 238.762766,163.94716 239.368061,163.94716 L243.847247,163.94716 C244.452542,163.94716 244.936778,164.433289 244.936778,165.040951 Z M247.721136,166.134742 C247.115841,166.134742 246.631605,165.648613 246.631605,165.040951 C246.631605,164.433289 247.115841,163.94716 247.721136,163.94716 L250.747613,163.94716 C251.352908,163.94716 251.837144,164.433289 251.837144,165.040951 C251.837144,165.648613 251.352908,166.134742 250.747613,166.134742 L247.721136,166.134742 Z M269.874944,169.416116 C270.480239,169.416116 270.964476,169.902246 270.964476,170.509908 C270.964476,171.117569 270.480239,171.603699 269.874944,171.603699 L242.394538,171.603699 C241.789243,171.603699 241.305006,171.117569 241.305006,170.509908 C241.305006,169.902246 241.789243,169.416116 242.394538,169.416116 L269.874944,169.416116 Z M238.036412,169.416116 C238.641707,169.416116 239.125943,169.902246 239.125943,170.509908 C239.125943,171.117569 238.641707,171.603699 238.036412,171.603699 L233.557227,171.603699 C232.951931,171.603699 232.467695,171.117569 232.467695,170.509908 C232.467695,169.902246 232.951931,169.416116 233.557227,169.416116 L238.036412,169.416116 Z M229.683337,169.416116 C230.288632,169.416116 230.772868,169.902246 230.772868,170.509908 C230.772868,171.117569 230.288632,171.603699 229.683337,171.603699 L226.65686,171.603699 C226.051565,171.603699 225.567329,171.117569 225.567329,170.509908 C225.567329,169.902246 226.051565,169.416116 226.65686,169.416116 L229.683337,169.416116 Z M338.878607,93.7014531 C341.178729,93.7014531 343.115674,95.6459709 342.994615,97.9550859 L342.994615,117.643329 C342.994615,119.952444 341.05767,121.896962 338.757548,121.896962 L326.046347,121.896962 C325.804229,121.896962 325.562111,121.775429 325.319993,121.775429 C323.988343,125.90753 322.172457,130.03963 320.235512,133.928666 C320.235512,134.050198 320.235512,146.081902 320.235512,147.054161 C320.235512,147.175694 320.598689,152.15852 316.7248,155.439894 C315.756327,156.412153 315.029973,157.019815 313.335146,157.505945 C311.156083,158.235139 309.703374,158.113606 307.282193,158.113606 C305.829484,158.113606 304.134658,158.235139 302.197713,158.235139 C285.128385,174.885073 262.490342,184 238.641707,184 C214.793073,184 192.276088,174.885073 175.085702,158.235139 C166.611567,158.113606 166.127331,158.235139 164.069327,157.505945 C161.406028,156.898283 158.863788,153.981506 157.895315,151.672391 C157.895315,151.550859 157.895315,151.550859 157.895315,151.550859 C156.684725,148.634082 156.926843,142.922061 157.047902,139.519155 L157.047902,133.928666 C150.510713,121.046235 147,106.583884 147,92 C147,77.4161162 150.510713,62.9537649 157.047902,50.0713342 L157.047902,31.2338177 C157.047902,25.4002642 161.769205,20.660502 167.58004,20.660502 L180.775477,20.660502 C197.11845,7.29194188 217.577431,0 238.641707,0 C269.390708,0 297.839587,15.3130779 314.908914,40.9564069 C318.056449,42.7793923 320.235512,46.1822985 320.235512,50.0713342 C326.772701,62.9537649 330.283414,77.4161162 330.283414,92 C330.283414,92.6076618 330.283414,93.0937913 330.283414,93.7014531 L338.878607,93.7014531 Z M328.104351,93.7014531 C328.104351,93.0937913 328.104351,92.6076618 327.983292,92 C327.983292,79.3606341 325.319993,66.7212682 320.235512,55.2972259 L320.235512,59.7939234 L320.235512,95.2813738 L320.235512,95.5244386 L324.714697,93.9445178 C325.198934,93.8229855 325.68317,93.7014531 326.167406,93.7014531 L328.104351,93.7014531 Z M317.693272,119.101717 L310.792906,116.67107 L310.792906,119.101717 L317.693272,119.101717 Z M312.729851,155.318362 C315.756327,154.224571 317.814331,151.672391 318.056449,147.297226 C318.056449,147.175694 317.93539,125.90753 318.056449,121.2893 C298.687,121.2893 173.148757,121.2893 159.348024,121.2893 C159.83226,137.939234 158.62167,147.418758 160.074378,150.943197 C160.921792,153.009247 162.616619,154.589168 164.553563,155.318362 C168.306394,156.290621 169.395926,155.682959 238.641707,155.804491 C256.800566,155.804491 279.43861,155.804491 307.403252,155.926024 C310.066551,155.804491 311.640319,155.561427 312.729851,155.318362 Z M318.056449,94.1875826 L317.93539,94.1875826 L317.93539,59.7939234 C317.93539,55.2972259 314.303618,51.5297226 309.703374,51.5297226 L240.941829,51.5297226 C239.004884,51.5297226 237.067939,52.2589168 235.494172,53.5957728 L225.809447,62.2245707 C223.872502,63.9260238 221.330262,64.8982827 218.788022,64.8982827 L167.58004,64.8982827 C163.100855,64.8982827 159.348024,68.5442536 159.348024,73.1624835 L159.348024,94.1875826 C173.754052,94.1875826 190.823379,94.1875826 205.592584,94.1875826 C212.129773,94.1875826 217.819549,94.1875826 224.477797,94.1875826 C234.283581,94.1875826 242.515597,94.1875826 252.926676,94.1875826 C273.506716,94.1875826 297.476409,94.1875826 318.056449,94.1875826 Z M291.907693,119.101717 L299.171236,119.101717 L299.171236,111.445178 L291.907693,111.445178 L291.907693,119.101717 Z M176.054174,96.4966975 L176.054174,96.6182299 L168.79063,96.6182299 L168.79063,104.153236 L176.054174,104.153236 L176.054174,96.4966975 Z M194.939387,96.4966975 L194.939387,96.6182299 L187.675844,96.6182299 L187.675844,104.153236 L194.939387,104.153236 L194.939387,96.4966975 Z M213.8246,96.4966975 L213.8246,96.6182299 L206.561057,96.6182299 L206.561057,104.153236 L213.8246,104.153236 L213.8246,96.4966975 Z M232.830872,96.4966975 L232.830872,96.6182299 L225.567329,96.6182299 L225.567329,104.153236 L232.830872,104.153236 L232.830872,96.4966975 Z M251.716085,96.4966975 L251.716085,96.6182299 L244.452542,96.6182299 L244.452542,104.153236 L251.716085,104.153236 L251.716085,96.4966975 Z M270.722357,96.4966975 L270.722357,96.6182299 L263.458814,96.6182299 L263.458814,104.153236 L270.722357,104.153236 L270.722357,96.4966975 Z M289.607571,96.4966975 L289.607571,96.6182299 L282.344027,96.6182299 L282.344027,104.153236 L289.607571,104.153236 L289.607571,96.4966975 Z M299.050177,105.247028 L299.050177,96.4966975 L291.786634,96.4966975 L291.786634,105.247028 L291.786634,109.136063 L299.050177,109.136063 L299.050177,105.247028 Z M289.607571,110.351387 L289.607571,106.462351 L282.344027,106.462351 L282.344027,110.351387 L282.344027,119.101717 L289.607571,119.101717 L289.607571,110.351387 Z M280.164964,105.247028 L280.164964,96.4966975 L272.901421,96.4966975 L272.901421,105.247028 L272.901421,109.136063 L280.164964,109.136063 L280.164964,105.247028 Z M270.722357,110.351387 L270.722357,106.462351 L263.458814,106.462351 L263.458814,110.351387 L263.458814,119.101717 L270.722357,119.101717 L270.722357,110.351387 Z M261.279751,105.247028 L261.279751,96.4966975 L254.016207,96.4966975 L254.016207,105.247028 L254.016207,109.136063 L261.279751,109.136063 L261.279751,105.247028 Z M251.716085,110.351387 L251.716085,106.462351 L244.452542,106.462351 L244.452542,110.351387 L244.452542,119.101717 L251.716085,119.101717 L251.716085,110.351387 Z M242.273479,105.247028 L242.273479,96.4966975 L235.009935,96.4966975 L235.009935,105.247028 L235.009935,109.136063 L242.273479,109.136063 L242.273479,105.247028 Z M232.830872,110.351387 L232.830872,106.462351 L225.567329,106.462351 L225.567329,110.351387 L225.567329,119.101717 L232.830872,119.101717 L232.830872,110.351387 Z M223.388266,105.247028 L223.388266,96.4966975 L216.124722,96.4966975 L216.124722,105.247028 L216.124722,109.136063 L223.388266,109.136063 L223.388266,105.247028 Z M213.8246,110.351387 L213.8246,106.462351 L206.561057,106.462351 L206.561057,110.351387 L206.561057,119.101717 L213.8246,119.101717 L213.8246,110.351387 Z M204.381994,105.247028 L204.381994,96.4966975 L197.11845,96.4966975 L197.11845,105.247028 L197.11845,109.136063 L204.381994,109.136063 L204.381994,105.247028 Z M194.939387,110.351387 L194.939387,106.462351 L187.675844,106.462351 L187.675844,110.351387 L187.675844,119.101717 L194.939387,119.101717 L194.939387,110.351387 Z M185.496781,105.247028 L185.496781,96.4966975 L178.233237,96.4966975 L178.233237,105.247028 L178.233237,109.136063 L185.496781,109.136063 L185.496781,105.247028 Z M176.054174,110.351387 L176.054174,106.462351 L168.79063,106.462351 L168.79063,110.351387 L168.79063,119.101717 L176.054174,119.101717 L176.054174,110.351387 Z M166.490508,105.247028 L166.490508,96.4966975 L159.226965,96.4966975 L159.226965,109.136063 L166.490508,109.136063 L166.490508,105.247028 Z M159.348024,111.445178 L159.348024,119.101717 L166.611567,119.101717 L166.611567,111.445178 L159.348024,111.445178 Z M178.233237,111.445178 L178.233237,119.101717 L185.496781,119.101717 L185.496781,111.445178 L178.233237,111.445178 Z M197.239509,111.445178 L197.239509,119.101717 L204.503053,119.101717 L204.503053,111.445178 L197.239509,111.445178 Z M216.124722,111.445178 L216.124722,119.101717 L223.388266,119.101717 L223.388266,111.445178 L216.124722,111.445178 Z M235.130994,111.445178 L235.130994,119.101717 L242.394538,119.101717 L242.394538,111.445178 L235.130994,111.445178 Z M254.016207,111.445178 L254.016207,119.101717 L261.279751,119.101717 L261.279751,111.445178 L254.016207,111.445178 Z M272.901421,111.445178 L272.901421,119.101717 L280.164964,119.101717 L280.164964,111.445178 L272.901421,111.445178 Z M301.350299,110.351387 L301.22924,110.351387 L301.22924,119.101717 L308.492784,119.101717 L308.492784,115.698811 C307.282193,114.969617 306.43478,113.632761 306.43478,112.05284 L306.43478,106.462351 L301.350299,106.462351 L301.350299,110.351387 Z M306.43478,103.545575 C306.43478,101.965654 307.282193,100.628798 308.613843,100.021136 L308.613843,96.6182299 L301.350299,96.6182299 L301.350299,104.153236 L306.43478,104.153236 L306.43478,103.545575 Z M310.792906,96.4966975 L310.792906,98.9273448 L317.693272,96.4966975 L310.792906,96.4966975 Z M238.641707,2.18758256 C219.151199,2.18758256 200.023867,8.75033025 184.528308,20.660502 L213.8246,20.660502 C217.577431,20.660502 220.967085,22.6050198 222.904029,25.7648613 L228.714864,35.4874505 C230.288632,37.9180978 232.951931,39.4980185 235.857349,39.4980185 L309.703374,39.4980185 C310.30867,39.4980185 310.792906,39.4980185 311.277142,39.6195509 C294.449933,16.1638045 267.574822,2.18758256 238.641707,2.18758256 Z M167.58004,22.8480845 C162.979796,22.8480845 159.348024,26.6155878 159.348024,31.2338177 L159.348024,66.5997358 C161.284969,64.1690885 164.190386,62.5891678 167.58004,62.5891678 L218.788022,62.5891678 C220.724966,62.5891678 222.78297,61.8599736 224.235679,60.5231176 L233.920404,51.8943197 C235.857349,50.1928666 238.399589,49.2206077 240.941829,49.2206077 L310.066551,49.2206077 C313.335146,49.2206077 316.361622,50.8005284 318.298567,53.2311757 L318.298567,50.0713342 C318.298567,46.9114927 316.482681,44.2377807 313.940441,42.7793923 C312.729851,42.1717305 311.398201,41.8071334 309.945492,41.8071334 L235.978408,41.8071334 C232.225577,41.8071334 228.835923,39.7410832 226.898978,36.5812417 L221.088144,26.8586526 C219.514376,24.4280053 216.851077,22.8480845 213.945659,22.8480845 L167.58004,22.8480845 Z M149.300122,92 C149.300122,104.639366 151.963421,117.278732 157.047902,128.702774 L157.047902,120.195509 L157.047902,95.4029062 L157.047902,55.2972259 C151.963421,66.7212682 149.300122,79.3606341 149.300122,92 Z M238.641707,181.812417 C261.158692,181.812417 282.465086,173.426684 298.929118,158.356671 C296.023701,158.356671 180.533359,158.356671 178.354296,158.356671 C194.939387,173.426684 216.124722,181.812417 238.641707,181.812417 Z M320.356571,120.195509 L320.356571,128.702774 C321.446103,126.150594 322.535634,123.598415 323.383048,121.046235 L320.356571,119.952444 L320.356571,120.195509 Z M340.815552,117.643329 L340.815552,98.0766182 C340.815552,96.9828269 339.968139,96.1321004 338.878607,96.1321004 C338.999666,96.1321004 326.288465,96.1321004 326.167406,96.1321004 C325.925288,96.1321004 325.804229,96.1321004 325.562111,96.2536328 C321.567162,97.7120211 312.971969,100.871863 310.18761,101.844122 L310.066551,101.844122 C309.219138,102.087186 308.734902,102.81638 308.734902,103.667107 L308.734902,112.174373 C308.734902,113.025099 309.340197,113.754293 310.066551,113.997358 L310.18761,113.997358 C313.456205,115.091149 323.504107,118.73712 325.562111,119.466314 C325.68317,119.587847 325.925288,119.587847 326.167406,119.587847 L338.878607,119.587847 C339.968139,119.587847 340.815552,118.73712 340.815552,117.643329 Z M334.399422,99.5350066 C335.97319,99.5350066 337.304839,100.871863 337.18378,102.330251 L337.18378,113.025099 C337.18378,114.60502 335.97319,115.820343 334.399422,115.820343 L328.22541,115.820343 C327.01482,115.820343 325.925288,114.969617 325.562111,113.875826 C325.562111,113.875826 325.562111,113.754293 325.562111,113.754293 C325.441052,113.511229 325.441052,113.268164 325.441052,113.025099 L325.441052,102.330251 C325.441052,100.75033 326.651642,99.5350066 328.22541,99.5350066 L334.399422,99.5350066 Z M335.004717,113.146631 L335.004717,102.451783 C335.004717,102.087186 334.762599,101.844122 334.399422,101.844122 L328.22541,101.844122 C327.862233,101.844122 327.620115,102.087186 327.620115,102.451783 L327.620115,113.146631 C327.620115,113.511229 327.862233,113.754293 328.22541,113.754293 L334.399422,113.754293 C334.762599,113.754293 335.004717,113.511229 335.004717,113.146631 Z" id="Combined-Shape"></path>
            </g>
        </g>
    </g>
</svg>