<svg width="18" height="14" viewBox="0 0 18 14" fill="none" xmlns="http://www.w3.org/2000/svg">
<path d="M1.6875 0C1.35374 0 1.02748 0.0947406 0.749976 0.272241C0.472468 0.449742 0.256177 0.702031 0.128454 0.997204C0.00073117 1.29238 -0.032687 1.61718 0.0324256 1.93053C0.0975382 2.24388 0.258257 2.53172 0.494258 2.75763C0.730259 2.98355 1.03094 3.1374 1.35829 3.19973C1.68563 3.26206 2.02493 3.23007 2.33328 3.10781C2.64163 2.98554 2.90518 2.77849 3.09061 2.51284C3.27603 2.2472 3.375 1.93488 3.375 1.61538C3.375 1.18696 3.19721 0.776079 2.88074 0.473135C2.56428 0.170192 2.13505 0 1.6875 0ZM1.6875 5.38461C1.35374 5.38461 1.02748 5.47936 0.749976 5.65686C0.472468 5.83436 0.256177 6.08665 0.128454 6.38182C0.00073117 6.67699 -0.032687 7.00179 0.0324256 7.31515C0.0975382 7.6285 0.258257 7.91633 0.494258 8.14225C0.730259 8.36817 1.03094 8.52202 1.35829 8.58434C1.68563 8.64668 2.02493 8.61469 2.33328 8.49242C2.64163 8.37016 2.90518 8.16311 3.09061 7.89746C3.27603 7.63181 3.375 7.31949 3.375 7C3.375 6.57157 3.19721 6.16069 2.88074 5.85775C2.56428 5.55481 2.13505 5.38461 1.6875 5.38461ZM1.6875 10.7692C1.35374 10.7692 1.02748 10.864 0.749976 11.0415C0.472468 11.219 0.256177 11.4713 0.128454 11.7664C0.00073117 12.0616 -0.032687 12.3864 0.0324256 12.6998C0.0975382 13.0131 0.258257 13.3009 0.494258 13.5269C0.730259 13.7528 1.03094 13.9066 1.35829 13.969C1.68563 14.0313 2.02493 13.9993 2.33328 13.877C2.64163 13.7548 2.90518 13.5477 3.09061 13.2821C3.27603 13.0164 3.375 12.7041 3.375 12.3846C3.375 11.9562 3.19721 11.5453 2.88074 11.2424C2.56428 10.9394 2.13505 10.7692 1.6875 10.7692ZM17.4375 11.3077H6.1875C6.03832 11.3077 5.89524 11.3644 5.78975 11.4654C5.68426 11.5664 5.625 11.7033 5.625 11.8462V12.9231C5.625 13.0659 5.68426 13.2028 5.78975 13.3038C5.89524 13.4048 6.03832 13.4615 6.1875 13.4615H17.4375C17.5867 13.4615 17.7298 13.4048 17.8352 13.3038C17.9407 13.2028 18 13.0659 18 12.9231V11.8462C18 11.7033 17.9407 11.5664 17.8352 11.4654C17.7298 11.3644 17.5867 11.3077 17.4375 11.3077ZM17.4375 0.538462H6.1875C6.03832 0.538462 5.89524 0.595192 5.78975 0.696173C5.68426 0.797154 5.625 0.934114 5.625 1.07692V2.15385C5.625 2.29665 5.68426 2.43361 5.78975 2.5346C5.89524 2.63558 6.03832 2.69231 6.1875 2.69231H17.4375C17.5867 2.69231 17.7298 2.63558 17.8352 2.5346C17.9407 2.43361 18 2.29665 18 2.15385V1.07692C18 0.934114 17.9407 0.797154 17.8352 0.696173C17.7298 0.595192 17.5867 0.538462 17.4375 0.538462ZM17.4375 5.92308H6.1875C6.03832 5.92308 5.89524 5.97981 5.78975 6.08079C5.68426 6.18177 5.625 6.31873 5.625 6.46154V7.53846C5.625 7.68127 5.68426 7.81823 5.78975 7.91921C5.89524 8.02019 6.03832 8.07692 6.1875 8.07692H17.4375C17.5867 8.07692 17.7298 8.02019 17.8352 7.91921C17.9407 7.81823 18 7.68127 18 7.53846V6.46154C18 6.31873 17.9407 6.18177 17.8352 6.08079C17.7298 5.97981 17.5867 5.92308 17.4375 5.92308Z" fill="#828F9A"/>
</svg>
