<?xml version="1.0" encoding="UTF-8"?>
<svg width="10px" height="10px" viewBox="0 0 10 10" version="1.1" xmlns="http://www.w3.org/2000/svg" xmlns:xlink="http://www.w3.org/1999/xlink">
    <!-- Generator: Sketch 52.3 (67297) - http://www.bohemiancoding.com/sketch -->
    <title>Combined Shape</title>
    <desc>Created with Sketch.</desc>
    <g id="Page-1" stroke="none" stroke-width="1" fill="none" fill-rule="evenodd">
        <g id="Add-new-Appointment--(status-list)" transform="translate(-1531.000000, -923.000000)" fill="#DDE2E8">
            <path d="M1538.52127,928 L1540.67391,930.149533 C1541.1087,930.58567 1541.1087,931.333333 1540.67391,931.76947 L1539.77329,932.672897 C1539.33851,933.109034 1538.59317,933.109034 1538.15839,932.672897 L1536,930.51763 L1533.84161,932.672897 C1533.40683,933.109034 1532.66149,933.109034 1532.22671,932.672897 L1531.32609,931.76947 C1530.8913,931.333333 1530.8913,930.58567 1531.32609,930.149533 L1533.47873,928 L1531.32609,925.850467 C1530.8913,925.41433 1530.8913,924.666667 1531.32609,924.23053 L1532.22671,923.327103 C1532.66149,922.890966 1533.40683,922.890966 1533.84161,923.327103 L1536,925.48237 L1538.15839,923.327103 C1538.59317,922.890966 1539.33851,922.890966 1539.77329,923.327103 L1540.67391,924.23053 C1541.1087,924.666667 1541.1087,925.41433 1540.67391,925.850467 L1538.52127,928 Z" id="Combined-Shape"></path>
        </g>
    </g>
</svg>