<?xml version="1.0" encoding="UTF-8"?>
<svg width="18px" height="18px" viewBox="0 0 18 18" version="1.1" xmlns="http://www.w3.org/2000/svg" xmlns:xlink="http://www.w3.org/1999/xlink">
    <!-- Generator: Sketch 52.3 (67297) - http://www.bohemiancoding.com/sketch -->
    <title>Shape</title>
    <desc>Created with Sketch.</desc>
    <g id="Page-1" stroke="none" stroke-width="1" fill="none" fill-rule="evenodd">
        <g id="Services-add-(Time-sheet)-special-days-(breakfast)" transform="translate(-777.000000, -553.000000)" fill="#FB3E6E" fill-rule="nonzero">
            <path d="M786,553 C781.035789,553 777,557.035789 777,562 C777,566.964211 781.035789,571 786,571 C790.964211,571 795,566.964211 795,562 C795,557.035789 790.964211,553 786,553 Z M788.008421,562.454737 L789.315789,563.762105 C789.562105,564.008421 789.562105,564.406316 789.315789,564.652632 L788.652632,565.334737 C788.406316,565.581053 788.008421,565.581053 787.762105,565.334737 L786.454737,564.027368 C786.208421,563.781053 785.810526,563.781053 785.564211,564.027368 L784.256842,565.334737 C784.010526,565.581053 783.612632,565.581053 783.366316,565.334737 L782.665263,564.652632 C782.418947,564.406316 782.418947,564.008421 782.665263,563.762105 L783.972632,562.454737 C784.218947,562.208421 784.218947,561.810526 783.972632,561.564211 L782.665263,560.256842 C782.418947,560.010526 782.418947,559.612632 782.665263,559.366316 L783.328421,558.703158 C783.574737,558.456842 783.972632,558.456842 784.218947,558.703158 L785.526316,560.010526 C785.772632,560.256842 786.170526,560.256842 786.416842,560.010526 L787.724211,558.703158 C787.970526,558.456842 788.368421,558.456842 788.614737,558.703158 L789.277895,559.366316 C789.524211,559.612632 789.524211,560.010526 789.277895,560.256842 L787.970526,561.564211 C787.762105,561.791579 787.762105,562.208421 788.008421,562.454737 Z" id="Shape"></path>
        </g>
    </g>
</svg>