<?xml version="1.0" encoding="UTF-8"?>
<svg width="26px" height="26px" viewBox="0 0 26 26" version="1.1" xmlns="http://www.w3.org/2000/svg" xmlns:xlink="http://www.w3.org/1999/xlink">
    <!-- Generator: Sketch 52.3 (67297) - http://www.bohemiancoding.com/sketch -->
    <title>Group 21</title>
    <desc>Created with Sketch.</desc>
    <g id="Page-1" stroke="none" stroke-width="1" fill="none" fill-rule="evenodd">
        <g id="Appointments" transform="translate(-776.000000, -528.000000)" fill="#FB3E6E">
            <g id="Group-21" transform="translate(776.000000, 528.000000)">
                <g id="Group-13" fill-opacity="0.2">
                    <rect id="Rectangle" x="0" y="0" width="26" height="26" rx="4"></rect>
                </g>
                <path d="M15.5212712,13 L17.673913,15.1495327 C18.1086957,15.5856698 18.1086957,16.3333333 17.673913,16.7694704 L16.7732919,17.6728972 C16.3385093,18.1090343 15.5931677,18.1090343 15.1583851,17.6728972 L13,15.5176296 L10.8416149,17.6728972 C10.4068323,18.1090343 9.66149068,18.1090343 9.22670807,17.6728972 L8.32608696,16.7694704 C7.89130435,16.3333333 7.89130435,15.5856698 8.32608696,15.1495327 L10.4787288,13 L8.32608696,10.8504673 C7.89130435,10.4143302 7.89130435,9.66666667 8.32608696,9.2305296 L9.22670807,8.3271028 C9.66149068,7.89096573 10.4068323,7.89096573 10.8416149,8.3271028 L13,10.4823704 L15.1583851,8.3271028 C15.5931677,7.89096573 16.3385093,7.89096573 16.7732919,8.3271028 L17.673913,9.2305296 C18.1086957,9.66666667 18.1086957,10.4143302 17.673913,10.8504673 L15.5212712,13 Z" id="Combined-Shape"></path>
            </g>
        </g>
    </g>
</svg>