<?xml version="1.0" encoding="UTF-8"?>
<svg width="18px" height="18px" viewBox="0 0 18 18" version="1.1" xmlns="http://www.w3.org/2000/svg" xmlns:xlink="http://www.w3.org/1999/xlink">
    <!-- Generator: Sketch 52.3 (67297) - http://www.bohemiancoding.com/sketch -->
    <title>Shape Copy</title>
    <desc>Created with Sketch.</desc>
    <g id="Page-1" stroke="none" stroke-width="1" fill="none" fill-rule="evenodd">
        <g id="Locations-block" transform="translate(-1612.000000, -36.000000)" fill="#ADBFC7" fill-rule="nonzero">
            <path d="M1629.75618,52.4425957 L1626.3969,49.1181364 C1628.94635,45.9434276 1628.70641,41.2712146 1625.79703,38.3660566 C1624.26736,36.8386023 1622.25779,36 1620.09826,36 C1617.93872,36 1615.89916,36.8386023 1614.36949,38.3660566 C1612.83982,39.8935108 1612,41.9001664 1612,44.0865225 C1612,46.2728785 1612.83982,48.2795341 1614.36949,49.8069884 C1615.89916,51.3044925 1617.90873,52.1730449 1620.09826,52.1730449 C1621.92786,52.1730449 1623.72748,51.5440932 1625.13717,50.40599 L1628.46646,53.7304493 C1628.64642,53.9101498 1628.85637,54 1629.09632,54 C1629.33627,54 1629.57622,53.9101498 1629.72619,53.7304493 C1630.08611,53.3710483 1630.08611,52.8019967 1629.75618,52.4425957 Z M1626.3969,44.0865225 C1626.3969,45.7637271 1625.73704,47.3510815 1624.5373,48.5191348 C1623.33756,49.687188 1621.7779,50.3760399 1620.09826,50.3760399 C1618.41862,50.3760399 1616.82896,49.7171381 1615.65921,48.5191348 C1614.48946,47.3211314 1613.79961,45.7637271 1613.79961,44.0865225 C1613.79961,42.4093178 1614.45947,40.8219634 1615.65921,39.6539101 C1616.85895,38.4858569 1618.38863,37.797005 1620.09826,37.797005 C1621.7779,37.797005 1623.36755,38.4559068 1624.5373,39.6539101 C1625.70705,40.8519135 1626.3969,42.3793677 1626.3969,44.0865225 Z" id="Shape-Copy"></path>
        </g>
    </g>
</svg>