<?xml version="1.0" encoding="UTF-8"?>
<svg width="16px" height="18px" viewBox="0 0 16 18" version="1.1" xmlns="http://www.w3.org/2000/svg" xmlns:xlink="http://www.w3.org/1999/xlink">
    <!-- Generator: Sketch 52.3 (67297) - http://www.bohemiancoding.com/sketch -->
    <title>Shape</title>
    <desc>Created with Sketch.</desc>
    <g id="Page-1" stroke="none" stroke-width="1" fill="none" fill-rule="evenodd">
        <g id="Locations-block" transform="translate(-1546.000000, -36.000000)" fill="#9FB1BA" fill-rule="nonzero">
            <path d="M1554.74074,37.7272727 L1554.74074,37.8190908 C1556.01829,38.1424642 1556.96296,39.2823912 1556.96296,40.6363636 C1556.96296,41.9910678 1556.01772,43.1303253 1554.74074,43.453612 L1554.74074,52.2727273 C1554.74074,52.6743889 1554.4091,53 1554,53 C1553.5909,53 1553.25926,52.6743889 1553.25926,52.2727273 L1553.25926,43.4536365 C1551.98171,43.1302631 1551.03704,41.990336 1551.03704,40.6363636 C1551.03704,39.2816595 1551.98228,38.1424019 1553.25926,37.8191153 L1553.25926,37.7272727 C1553.25926,37.3256111 1553.5909,37 1554,37 C1554.4091,37 1554.74074,37.3256111 1554.74074,37.7272727 Z M1552.51852,40.6363636 C1552.51852,41.4382081 1553.18279,42.0909091 1554,42.0909091 C1554.81669,42.0909091 1555.48148,41.4387144 1555.48148,40.6363636 C1555.48148,39.8345192 1554.81721,39.1818182 1554,39.1818182 C1553.18331,39.1818182 1552.51852,39.8340129 1552.51852,40.6363636 Z M1548.7037,46.5463635 C1549.98125,46.8697369 1550.92593,48.009664 1550.92593,49.3636364 C1550.92593,50.7183405 1549.98069,51.8575981 1548.7037,52.1808847 L1548.7037,52.2727273 C1548.7037,52.6743889 1548.37206,53 1547.96296,53 C1547.55386,53 1547.22222,52.6743889 1547.22222,52.2727273 L1547.22222,52.1809092 C1545.94468,51.8575358 1545,50.7176088 1545,49.3636364 C1545,48.0089322 1545.94524,46.8696747 1547.22222,46.546388 L1547.22222,37.7272727 C1547.22222,37.3256111 1547.55386,37 1547.96296,37 C1548.37206,37 1548.7037,37.3256111 1548.7037,37.7272727 L1548.7037,46.5463635 Z M1546.48148,49.3636364 C1546.48148,50.1654808 1547.14575,50.8181818 1547.96296,50.8181818 C1548.77966,50.8181818 1549.44444,50.1659871 1549.44444,49.3636364 C1549.44444,48.5617919 1548.78017,47.9090909 1547.96296,47.9090909 C1547.14627,47.9090909 1546.48148,48.5612856 1546.48148,49.3636364 Z M1560.77778,43.2736363 C1562.05532,43.5970097 1563,44.7369367 1563,46.0909091 C1563,47.4456133 1562.05476,48.5848708 1560.77778,48.9081575 L1560.77778,52.2727273 C1560.77778,52.6743889 1560.44614,53 1560.03704,53 C1559.62794,53 1559.2963,52.6743889 1559.2963,52.2727273 L1559.2963,48.9081819 C1558.01875,48.5848085 1557.07407,47.4448815 1557.07407,46.0909091 C1557.07407,44.7362049 1558.01931,43.5969474 1559.2963,43.2736607 L1559.2963,37.7272727 C1559.2963,37.3256111 1559.62794,37 1560.03704,37 C1560.44614,37 1560.77778,37.3256111 1560.77778,37.7272727 L1560.77778,43.2736363 Z M1558.55556,46.0909091 C1558.55556,46.8927536 1559.21983,47.5454545 1560.03704,47.5454545 C1560.85373,47.5454545 1561.51852,46.8932598 1561.51852,46.0909091 C1561.51852,45.2890646 1560.85425,44.6363636 1560.03704,44.6363636 C1559.22034,44.6363636 1558.55556,45.2885584 1558.55556,46.0909091 Z" id="Shape" transform="translate(1554.000000, 45.000000) rotate(90.000000) translate(-1554.000000, -45.000000) "></path>
        </g>
    </g>
</svg>