<?xml version="1.0" encoding="UTF-8"?>
<svg width="24px" height="22px" viewBox="0 0 24 22" version="1.1" xmlns="http://www.w3.org/2000/svg" xmlns:xlink="http://www.w3.org/1999/xlink">
    <!-- Generator: Sketch 52.3 (67297) - http://www.bohemiancoding.com/sketch -->
    <title>Path Copy 2</title>
    <desc>Created with Sketch.</desc>
    <g id="Page-1" stroke="none" stroke-width="1" fill="none" fill-rule="evenodd">
        <g id="Services-user-card" transform="translate(-639.000000, -813.000000)" fill="#E3EAF3">
            <g id="Group-21" transform="translate(521.000000, 813.000000)">
                <path d="M141.479161,9.97002884 C141.951562,9.52953225 142.11832,8.88304142 141.914558,8.28207165 C141.710315,7.68110187 141.178323,7.25210049 140.524747,7.1610584 L134.713681,6.35317477 C134.466187,6.31868913 134.252333,6.17017097 134.141802,5.95544037 L131.543835,0.917777871 C131.252128,0.351753543 130.660064,0 130.00024,0 C129.340897,0 128.748833,0.351753543 128.457127,0.917777871 L125.858679,5.95590018 C125.748148,6.17063077 125.533813,6.31914894 125.286319,6.35363458 L119.475253,7.1615182 C118.822157,7.25210049 118.289685,7.68156168 118.085442,8.28253146 C117.88168,8.88350123 118.048438,9.52999206 118.520839,9.97048865 L122.725356,13.891736 C122.904609,14.0591063 122.986786,14.300046 122.944496,14.535468 L121.952597,20.0724825 C121.864653,20.5598796 121.998252,21.0339422 122.327923,21.4077666 C122.840212,21.990344 123.734555,22.1678301 124.449645,21.8082598 L129.64654,19.1937884 C129.863758,19.0848138 130.137203,19.0857334 130.353941,19.1937884 L135.551317,21.8082598 C135.804097,21.9356268 136.073697,22 136.351948,22 C136.859912,22 137.341444,21.78389 137.672557,21.4077666 C138.00271,21.0339422 138.135828,20.55896 138.047883,20.0724825 L137.055504,14.535468 C137.013214,14.2995862 137.095391,14.0591063 137.274644,13.891736 L141.479161,9.97002884 Z" id="Path-Copy-2"></path>
            </g>
        </g>
    </g>
</svg>