<?xml version="1.0" encoding="UTF-8"?>
<svg width="24px" height="22px" viewBox="0 0 24 22" version="1.1" xmlns="http://www.w3.org/2000/svg" xmlns:xlink="http://www.w3.org/1999/xlink">
    <!-- Generator: Sketch 52.3 (67297) - http://www.bohemiancoding.com/sketch -->
    <title>Path</title>
    <desc>Created with Sketch.</desc>
    <g id="Page-1" stroke="none" stroke-width="1" fill="none" fill-rule="evenodd">
        <g id="Services-user-card" transform="translate(-609.000000, -813.000000)" fill="#FFBB44">
            <g id="Group-21" transform="translate(521.000000, 813.000000)">
                <path d="M111.479161,9.97002884 C111.951562,9.52953225 112.11832,8.88304142 111.914558,8.28207165 C111.710315,7.68110187 111.178323,7.25210049 110.524747,7.1610584 L104.713681,6.35317477 C104.466187,6.31868913 104.252333,6.17017097 104.141802,5.95544037 L101.543835,0.917777871 C101.252128,0.351753543 100.660064,0 100.00024,0 C99.3408968,0 98.7488332,0.351753543 98.4571266,0.917777871 L95.8586789,5.95590018 C95.7481475,6.17063077 95.5338128,6.31914894 95.2863187,6.35363458 L89.4752534,7.1615182 C88.8221574,7.25210049 88.2896846,7.68156168 88.0854419,8.28253146 C87.8816798,8.88350123 88.0484379,9.52999206 88.5208393,9.97048865 L92.7253555,13.891736 C92.9046085,14.0591063 92.9867862,14.300046 92.9444959,14.535468 L91.9525973,20.0724825 C91.8646528,20.5598796 91.9982515,21.0339422 92.3279233,21.4077666 C92.840212,21.990344 93.7345548,22.1678301 94.4496445,21.8082598 L99.64654,19.1937884 C99.8637581,19.0848138 100.137203,19.0857334 100.353941,19.1937884 L105.551317,21.8082598 C105.804097,21.9356268 106.073697,22 106.351948,22 C106.859912,22 107.341444,21.78389 107.672557,21.4077666 C108.00271,21.0339422 108.135828,20.55896 108.047883,20.0724825 L107.055504,14.535468 C107.013214,14.2995862 107.095391,14.0591063 107.274644,13.891736 L111.479161,9.97002884 Z" id="Path"></path>
            </g>
        </g>
    </g>
</svg>