<?xml version="1.0" encoding="UTF-8"?>
<svg width="122px" height="122px" viewBox="0 0 122 122" version="1.1" xmlns="http://www.w3.org/2000/svg" xmlns:xlink="http://www.w3.org/1999/xlink">
    <!-- Generator: sketchtool 61 (101010) - https://sketch.com -->
    <title>C2B5C0B7-3CD4-407F-847D-6E3DA33EC464</title>
    <desc>Created with sketchtool.</desc>
    <defs>
        <circle id="path-1" cx="32" cy="32" r="32"></circle>
        <filter x="-70.3%" y="-70.3%" width="240.6%" height="240.6%" filterUnits="objectBoundingBox" id="filter-2">
            <feOffset dx="0" dy="0" in="SourceAlpha" result="shadowOffsetOuter1"></feOffset>
            <feGaussianBlur stdDeviation="15" in="shadowOffsetOuter1" result="shadowBlurOuter1"></feGaussianBlur>
            <feColorMatrix values="0 0 0 0 0   0 0 0 0 0   0 0 0 0 0  0 0 0 0.15 0" type="matrix" in="shadowBlurOuter1"></feColorMatrix>
        </filter>
    </defs>
    <g id="SAAS" stroke="none" stroke-width="1" fill="none" fill-rule="evenodd">
        <g id="Getting-started-Guide" transform="translate(-337.000000, -39.000000)">
            <g id="get-started-2" transform="translate(366.000000, 68.000000)">
                <g id="Oval">
                    <use fill="black" fill-opacity="1" filter="url(#filter-2)" xlink:href="#path-1"></use>
                    <use fill="#6C70DC" fill-rule="evenodd" xlink:href="#path-1"></use>
                </g>
                <path d="M34.276569,27.4927007 C35.114079,27.4927007 35.6067319,27.8722628 35.6067319,28.6788321 C35.6067319,29.3430657 35.5082013,30.0072993 35.3604055,30.6715328 C34.9170178,33.1386861 34.4243649,35.5583942 33.9809773,38.0255474 C33.8331814,38.8321168 33.6361203,39.6386861 33.5375897,40.4452555 C33.4883244,40.8248175 33.5375897,41.2518248 33.6361203,41.6313869 C33.7839161,42.1532847 34.1780385,42.4379562 34.7199567,42.3430657 C35.1633443,42.2956204 35.6067319,42.1532847 36.0501196,41.9635036 C36.3949766,41.8211679 36.6905684,41.5839416 37.0354254,41.4890511 C37.6758742,41.2518248 38.1192618,41.6313869 37.9714659,42.1532847 C37.8729354,42.4379562 37.6758742,42.770073 37.478813,42.959854 C36.1979154,44.2408759 34.6214261,44.9525547 32.7986103,45 C31.911835,45 31.0743251,45 30.1875498,44.8576642 C28.7588563,44.6678832 26.9360405,42.959854 27.2316323,41.1569343 C27.4286935,39.9233577 27.6257546,38.689781 27.8228158,37.4562044 C28.2169381,35.3211679 28.6110605,33.1861314 29.0051828,31.0510949 C29.0051828,30.9087591 29.0544481,30.7664234 29.0544481,30.6240876 C29.0544481,29.7226277 28.7588563,29.3905109 27.8228158,29.2956204 C27.4286935,29.2481752 27.0345711,29.2007299 26.6404488,29.1058394 C26.1970612,28.9635036 26,28.5839416 26,28.2518248 C26.0492653,27.8722628 26.2955918,27.6350365 26.7882447,27.540146 C27.0345711,27.4927007 27.3301629,27.4927007 27.5764893,27.4927007 L34.276569,27.4927007 L34.276569,27.4927007 Z M32.9464062,19 C34.9170178,19 36.4935072,20.5656934 36.4442419,22.4635036 C36.4442419,24.3613139 34.8184873,25.9270073 32.8971409,25.879562 C30.9265292,25.879562 29.3007746,24.3138686 29.3500399,22.4160584 C29.3500399,20.5182482 30.9757945,19 32.9464062,19 Z" id="Combined-Shape" fill="#FFFFFF"></path>
            </g>
        </g>
    </g>
</svg>