<?xml version="1.0" encoding="UTF-8"?>
<svg width="18px" height="18px" viewBox="0 0 18 18" version="1.1" xmlns="http://www.w3.org/2000/svg" xmlns:xlink="http://www.w3.org/1999/xlink">
    <!-- Generator: Sketch 52.3 (67297) - http://www.bohemiancoding.com/sketch -->
    <title>Combined Shape</title>
    <desc>Created with Sketch.</desc>
    <g id="Page-1" stroke="none" stroke-width="1" fill="none" fill-rule="evenodd" fill-opacity="0.5">
        <g id="Add-new-appointment-(-Monthly-recurring-type)" transform="translate(-1530.000000, -549.000000)" fill="#ADBFC7" fill-rule="nonzero">
            <g id="Group-2" transform="translate(1515.000000, 505.000000)">
                <g id="Combined-Shape-2" transform="translate(15.000000, 44.000000)">
                    <path d="M9,0 C13.9624842,0 18,4.03751583 18,9 C18,13.9624842 13.9624842,18 9,18 C4.03751583,18 1.42108547e-14,13.9624842 1.42108547e-14,9 C1.42108547e-14,4.03751583 4.03751583,0 9,0 Z M9,16.2008396 C12.9703472,16.2008396 16.2008396,12.9703472 16.2008396,9 C16.2008396,5.02965283 12.9703472,1.79916039 9,1.79916039 C5.02965283,1.79916039 1.79916039,5.02945292 1.79916039,9 C1.79916039,12.9705471 5.02965283,16.2008396 9,16.2008396 Z M9.88538682,8.74012128 L12.3580329,10.9566869 C12.7280602,11.2883321 12.7590458,11.8568668 12.4274005,12.2268941 C12.2496835,12.4250017 12.0037982,12.5259546 11.7571133,12.5259546 C11.5434131,12.5259546 11.3287133,12.4503898 11.1569934,12.2962617 L8.37329246,9.80082628 C8.09082428,9.54754448 8.1004198,8.67675085 8.1004198,8.60018658 L8.1004198,4.67681749 C8.1004198,4.18004931 8.50323183,3.77723729 9,3.77723729 C9.49676817,3.77723729 9.8995802,4.18004931 9.8995802,4.67681749 L9.8995802,8.60018658 C9.8995802,8.64816419 9.89258346,8.69414273 9.88538682,8.74012128 Z" id="Combined-Shape"></path>
                </g>
            </g>
        </g>
    </g>
</svg>