<?xml version="1.0" encoding="UTF-8"?>
<svg width="36px" height="44px" viewBox="0 0 36 44" version="1.1" xmlns="http://www.w3.org/2000/svg" xmlns:xlink="http://www.w3.org/1999/xlink">
    <!-- Generator: Sketch 52.3 (67297) - http://www.bohemiancoding.com/sketch -->
    <title>trash</title>
    <desc>Created with Sketch.</desc>
    <g id="Page-1" stroke="none" stroke-width="1" fill="none" fill-rule="evenodd">
        <g id="Delete-version-1" transform="translate(-842.000000, -448.000000)">
            <g id="Group-2" transform="translate(820.000000, 430.000000)">
                <g id="trash" transform="translate(22.000000, 18.000000)">
                    <path d="M34.3569706,15.1724375 L1.64302941,15.1724375 C0.782382353,15.1724375 0.0852352941,14.4934453 0.0852352941,13.6552109 L0.0852352941,10.6207578 C0.0852352941,9.78252344 0.782382353,9.10353125 1.64302941,9.10353125 L34.3570588,9.10353125 C35.2177059,9.10353125 35.9148529,9.78252344 35.9148529,10.6207578 L35.9148529,13.6552109 C35.9147647,14.4934453 35.2177059,15.1724375 34.3569706,15.1724375" id="Path" fill="#B8BDC1"></path>
                    <path d="M2.16229412,15.1724375 L5.54276471,42.6086719 C5.61052941,43.3953437 6.28508824,44 7.09508824,44 L28.9043824,44 C29.7144706,44 30.3897353,43.3953437 30.4567059,42.6086719 L33.8379706,15.1724375 L2.16229412,15.1724375 Z" id="Path" fill="#E6E7E8"></path>
                    <g id="Group" transform="translate(2.382353, 3.867187)" fill="#CC4B4C">
                        <polygon id="Path" points="14.0400882 5.23625781 13.2159706 0.684578125 0.0478235294 3.15235938 0.425558824 5.23625781"></polygon>
                        <polygon id="Path" points="29.7651176 5.23625781 30.4170882 1.63659375 20.2912941 0.0556015625 19.3535294 5.23625781"></polygon>
                    </g>
                    <polygon id="Path" fill="#F0CE49" points="25.7890588 0 10.1673529 1.29499219 10.6252941 5.48410156 15.5986765 4.55176563 16.4227059 9.10344531 21.7356176 9.10344531 22.6734706 3.92278906 26.2742647 4.48499219"></polygon>
                    <g id="Group" transform="translate(5.117647, 18.906250)" fill="#B8BDC1">
                        <path d="M1.97770588,25.09375 L23.787,25.09375 C24.5970882,25.09375 25.2723529,24.4890937 25.3393235,23.7024219 L25.7615294,19.0247578 L0.00317647059,19.0247578 L0.425382353,23.7024219 C0.492352941,24.4890937 1.16761765,25.09375 1.97770588,25.09375" id="Path"></path>
                        <path d="M12.8823529,15.2316484 C12.4523824,15.2316484 12.1034118,14.8925391 12.1034118,14.4729922 L12.1034118,0.817867187 C12.1034118,0.398320312 12.4523824,0.0592109375 12.8823529,0.0592109375 C13.3123235,0.0592109375 13.6612941,0.398320312 13.6612941,0.817867187 L13.6612941,14.4730781 C13.6612941,14.8925391 13.3123235,15.2316484 12.8823529,15.2316484" id="Path"></path>
                        <path d="M5.70335294,15.2056953 C5.30373529,15.2056953 4.96341176,14.9075781 4.92838235,14.5130391 L3.70702941,0.909476563 C3.66882353,0.49225 3.98585294,0.124265625 4.41502941,0.0879140625 C4.84420588,0.0492421875 5.22123529,0.361023438 5.25855882,0.777476563 L6.47991176,14.3810391 C6.51732353,14.7982656 6.20029412,15.16625 5.77191176,15.2026016 C5.74932353,15.2050078 5.72594118,15.2056953 5.70335294,15.2056953" id="Path"></path>
                        <path d="M20.0613529,15.2056953 C20.0387647,15.2056953 20.0153824,15.2049219 19.9927941,15.2026875 C19.5644118,15.16625 19.2473824,14.7983516 19.2847941,14.381125 L20.5061471,0.7775625 C20.5435588,0.361109375 20.9220882,0.049328125 21.3496765,0.088 C21.7788529,0.1244375 22.0958824,0.492335938 22.0576765,0.9095625 L20.8364118,14.513125 C20.8012941,14.9075781 20.4609706,15.2056953 20.0613529,15.2056953" id="Path"></path>
                    </g>
                </g>
            </g>
        </g>
    </g>
</svg>