<?xml version="1.0" encoding="UTF-8"?>
<svg width="17px" height="16px" viewBox="0 0 17 16" version="1.1" xmlns="http://www.w3.org/2000/svg" xmlns:xlink="http://www.w3.org/1999/xlink">
    <!-- Generator: sketchtool 52.3 (67297) - http://www.bohemiancoding.com/sketch -->
    <title>AAC316D0-1469-47D1-A145-3AF8440C9F0E</title>
    <desc>Created with sketchtool.</desc>
    <g id="Page-1" stroke="none" stroke-width="1" fill="none" fill-rule="evenodd">
        <g id="Special-days-de-bidene-&quot;Remove-special-day&quot;" transform="translate(-778.000000, -448.000000)" fill="#FB3E6E" fill-rule="nonzero">
            <path d="M780.3375,464 L780.3375,452.380952 L778,452.380952 L778,450.857143 L780.3375,450.857143 L783.1,450.857143 L783.1,448 L789.9,448 L789.9,450.857143 L792.6625,450.857143 L795,450.857143 L795,452.380952 L792.6625,452.380952 L792.6625,464 L780.3375,464 Z M784.8,449.52381 L784.8,450.857143 L788.2,450.857143 L788.2,449.52381 L784.8,449.52381 Z M782.0375,452.380952 L782.0375,462.47619 L790.9625,462.47619 L790.9625,452.380952 L789.9,452.380952 L783.1,452.380952 L782.0375,452.380952 Z M783.95,454.285714 L785.65,454.285714 L785.65,460.190476 L783.95,460.190476 L783.95,454.285714 Z M787.35,454.285714 L789.05,454.285714 L789.05,460.190476 L787.35,460.190476 L787.35,454.285714 Z" id="Combined-Shape-Copy-3"></path>
        </g>
    </g>
</svg>