<?xml version="1.0" encoding="UTF-8"?>
<svg width="7px" height="12px" viewBox="0 0 7 12" version="1.1" xmlns="http://www.w3.org/2000/svg" xmlns:xlink="http://www.w3.org/1999/xlink">
    <!-- Generator: Sketch 52.3 (67297) - http://www.bohemiancoding.com/sketch -->
    <title>Combined Shape</title>
    <desc>Created with Sketch.</desc>
    <g id="Page-1" stroke="none" stroke-width="1" fill="none" fill-rule="evenodd">
        <g id="Customers-HD-Hover" transform="translate(-1502.000000, -315.000000)" fill="#ADBFC7">
            <g id="Group-13" transform="translate(1460.000000, 313.000000)">
                <path d="M45.3627451,2.06967742 C45.3939125,2.02612903 45.4450804,2 45.4999151,2 C45.5547497,2 45.6059177,2.02596774 45.6370851,2.06967742 L48.9704993,6.74709677 C48.9899998,6.77467742 49,6.8066129 49,6.83870968 C49,6.86435484 48.9936665,6.89016129 48.9809995,6.91370968 C48.9521655,6.96677419 48.8953308,7 48.8333293,7 L42.1665009,7 C42.1044994,7 42.0478313,6.96677419 42.0189973,6.91370968 C41.9904966,6.86080645 41.9941634,6.7966129 42.0293309,6.74709677 L45.3627451,2.06967742 Z M45.3627451,13.9303226 L42.0293309,9.25290323 C41.9941634,9.2033871 41.9904966,9.13919355 42.0189973,9.08629032 C42.0478313,9.03322581 42.1044994,9 42.1665009,9 L48.8333293,9 C48.8953308,9 48.9521655,9.03322581 48.9809995,9.08629032 C48.9936665,9.10983871 49,9.13564516 49,9.16129032 C49,9.1933871 48.9899998,9.22532258 48.9704993,9.25290323 L45.6370851,13.9303226 C45.6059177,13.9740323 45.5547497,14 45.4999151,14 C45.4450804,14 45.3939125,13.973871 45.3627451,13.9303226 Z" id="Combined-Shape"></path>
            </g>
        </g>
    </g>
</svg>