<?xml version="1.0" encoding="UTF-8"?>
<svg width="24px" height="24px" viewBox="0 0 24 24" version="1.1" xmlns="http://www.w3.org/2000/svg" xmlns:xlink="http://www.w3.org/1999/xlink">
    <!-- Generator: Sketch 52.3 (67297) - http://www.bohemiancoding.com/sketch -->
    <title>checked</title>
    <desc>Created with Sketch.</desc>
    <g id="Page-1" stroke="none" stroke-width="1" fill="none" fill-rule="evenodd">
        <g id="Notifications" transform="translate(-1548.000000, -138.000000)">
            <g id="Group-45" transform="translate(1520.000000, 110.000000)">
                <g id="Group-44" transform="translate(15.000000, 15.000000)">
                    <g id="checked" transform="translate(13.000000, 13.000000)">
                        <circle id="Oval" fill="#FB3E6E" cx="12" cy="12" r="12"></circle>
                        <g id="Group" transform="translate(6.015748, 6.905512)" fill="#FFFFFF">
                            <path d="M8.50552313,5.09448819 L10.658165,7.2440209 C11.0929476,7.68015797 11.0929476,8.42782152 10.658165,8.86395859 L9.75754389,9.76738539 C9.32276129,10.2035225 8.57741967,10.2035225 8.14263706,9.76738539 L5.98425197,7.61211776 L3.82586688,9.76738539 C3.39108427,10.2035225 2.64574265,10.2035225 2.21096004,9.76738539 L1.31033893,8.86395859 C0.875556316,8.42782152 0.875556316,7.68015797 1.31033893,7.2440209 L3.4629808,5.09448819 L1.31033893,2.94495548 C0.875556316,2.50881841 0.875556316,1.76115486 1.31033893,1.32501778 L2.21096004,0.421590993 C2.64574265,-0.0145460789 3.39108427,-0.0145460789 3.82586688,0.421590993 L5.98425197,2.57685862 L8.14263706,0.421590993 C8.57741967,-0.0145460789 9.32276129,-0.0145460789 9.75754389,0.421590993 L10.658165,1.32501778 C11.0929476,1.76115486 11.0929476,2.50881841 10.658165,2.94495548 L8.50552313,5.09448819 Z" id="Combined-Shape"></path>
                        </g>
                    </g>
                </g>
            </g>
        </g>
    </g>
</svg>