<?xml version="1.0" encoding="UTF-8"?>
<svg width="18px" height="16px" viewBox="0 0 18 16" version="1.1" xmlns="http://www.w3.org/2000/svg" xmlns:xlink="http://www.w3.org/1999/xlink">
    <!-- Generator: Sketch 52.3 (67297) - http://www.bohemiancoding.com/sketch -->
    <title>Shape</title>
    <desc>Created with Sketch.</desc>
    <g id="Page-1" stroke="none" stroke-width="1" fill="none" fill-rule="evenodd">
        <g id="Recurring-Appointment" transform="translate(-1395.000000, -196.000000)" fill="#FB3E6E" fill-rule="nonzero">
            <g id="Group-3" transform="translate(1125.000000, 186.000000)">
                <path d="M287.834119,23.9443709 L280.123934,10.6357616 C280.01154,10.4450331 279.85419,10.2754967 279.651882,10.1695364 C279.449574,10.0635762 279.224787,10 279,10 C278.775213,10 278.550426,10.0635762 278.348118,10.1695364 C278.14581,10.2754967 277.98846,10.4450331 277.876066,10.6357616 L270.165881,23.9443709 C269.941094,24.3470199 269.941094,24.7496689 270.188359,25.1311258 C270.300753,25.3218543 270.458103,25.597351 270.660411,25.7033113 C270.86272,25.8092715 271.065028,26 271.289814,26 L286.710186,26 C286.934972,26 287.159759,25.8092715 287.339589,25.7033113 C287.541897,25.597351 287.699247,25.3854305 287.811641,25.194702 C288.058906,24.813245 288.058906,24.3470199 287.834119,23.9443709 Z M277.628801,16.018543 C277.628801,15.3615894 278.168289,14.8317881 278.865128,14.8317881 C279.561967,14.8317881 280.101455,15.3615894 280.101455,16.018543 L280.101455,19.5788079 C280.101455,20.2357616 279.561967,20.7655629 278.865128,20.7655629 C278.168289,20.7655629 277.628801,20.2357616 277.628801,19.5788079 L277.628801,16.018543 Z M279.022479,23.7748344 C278.32564,23.7748344 277.763673,23.2450331 277.763673,22.5880795 C277.763673,21.9311258 278.32564,21.4013245 279.022479,21.4013245 C279.719318,21.4013245 280.281284,21.9311258 280.281284,22.5880795 C280.281284,23.2450331 279.719318,23.7748344 279.022479,23.7748344 Z" id="Shape"></path>
            </g>
        </g>
    </g>
</svg>