<?xml version="1.0" encoding="UTF-8"?>
<svg width="12px" height="10px" viewBox="0 0 12 10" version="1.1" xmlns="http://www.w3.org/2000/svg" xmlns:xlink="http://www.w3.org/1999/xlink">
    <!-- Generator: Sketch 52.3 (67297) - http://www.bohemiancoding.com/sketch -->
    <title>Path</title>
    <desc>Created with Sketch.</desc>
    <g id="Page-1" stroke="none" stroke-width="1" fill="none" fill-rule="evenodd">
        <g id="Services-users" transform="translate(-1643.000000, -366.000000)" fill="#6C70DC">
            <path d="M1654.54903,366.570543 L1654.22771,366.303103 C1653.69436,365.859061 1652.89288,365.908557 1652.42199,366.414445 L1647.04678,372.188604 L1645.42425,370.834764 C1644.89146,370.390224 1644.08985,370.438725 1643.6184,370.944068 L1643.3343,371.24863 C1643.10391,371.49547 1642.98429,371.821082 1643.00166,372.153687 C1643.0192,372.486102 1643.17228,372.798178 1643.42745,373.02129 L1646.40163,375.659917 C1646.65913,375.894193 1647.00423,376.016369 1647.35696,375.998234 C1647.7097,375.980148 1648.03948,375.823149 1648.26989,375.563746 L1654.68654,368.340595 C1654.91072,368.088232 1655.02217,367.759965 1654.99633,367.428047 C1654.97052,367.095893 1654.80966,366.787491 1654.54903,366.570543 Z" id="Path"></path>
        </g>
    </g>
</svg>